M48
;GenerationSoftware,Autodesk,EAGLE,9.3.1*%
;CreationDate,2019-03-21T17:22:43Z*%
FMAT,2
ICI,OFF
METRIC,TZ,000.000
T10C0.610
T9C0.813
T8C0.914
T7C1.000
T6C1.016
T5C1.100
T4C1.118
T3C2.800
T2C3.200
%
G90
M71
T2
X92110Y72650
X17110Y41650
X17110Y72650
T3
X5334Y45720
T4
X35560Y29210
X63500Y21590
X38100Y29210
X40640Y29210
X43180Y29210
X45720Y29210
X48260Y29210
X50800Y29210
X53340Y29210
X55880Y29210
X58420Y29210
X60960Y29210
X63500Y29210
X30480Y29210
X30480Y21590
X33020Y21590
X35560Y21590
X38100Y21590
X40640Y21590
X43180Y21590
X45720Y21590
X48260Y21590
X50800Y21590
X53340Y21590
X60960Y21590
X58420Y21590
X55880Y21590
X33020Y29210
T5
X5207Y29718
X2921Y29718
X7493Y29718
T6
X40390Y72650
X50089Y11151
X45161Y6629
X50089Y6629
X45161Y11151
X38659Y6629
X38659Y11151
X33731Y6629
X33731Y11151
X27229Y6629
X27229Y11151
X60710Y72650
X58170Y72650
X55630Y72650
X53090Y72650
X48010Y72650
X45470Y72650
X42930Y72650
X68580Y77470
X93980Y77470
X91440Y77470
X88900Y77470
X63500Y77470
X50550Y72650
X60960Y77470
X58420Y77470
X73660Y77470
X71120Y77470
X56591Y11151
X83820Y77470
X81280Y77470
X78740Y77470
X68021Y6629
X68021Y11151
X61519Y6629
X61519Y11151
X56591Y6629
X35310Y72650
X32770Y72650
X30230Y72650
X27690Y72650
X37850Y72650
X25150Y72650
X22610Y72650
X81280Y34290
X83820Y34290
X91440Y34290
X88900Y34290
X86360Y34290
T7
X30480Y77470
X27940Y38100
X30480Y59690
X30480Y53340
X88900Y46990
X49530Y46990
X45720Y43180
X33020Y43180
X21590Y17780
X24130Y77470
X86360Y44450
X54991Y44450
X50673Y14732
X29210Y15240
X37338Y19304
X24130Y19050
X39370Y17780
X86614Y48260
X62230Y34290
X52070Y50800
X90170Y50800
X27940Y22860
X19050Y22860
X78740Y16510
X78740Y41910
X57150Y45720
X77724Y45847
X20066Y38100
X62230Y41910
X81280Y29210
X90170Y29210
X50800Y25400
X43180Y25400
X13970Y69850
X13970Y64770
X52070Y48260
X10160Y4090
X7160Y8890
X13260Y8890
T8
X8890Y66040
X8890Y58420
X6350Y58420
X8890Y60960
X6350Y60960
X8890Y63500
X6350Y63500
X6350Y66040
X8890Y68580
X6350Y68580
T9
X48260Y19050
X17018Y33020
X59690Y33020
X52070Y33020
X46990Y77470
X54610Y77470
X44450Y34290
X46990Y34290
X11887Y22809
X45720Y19050
X46990Y39370
X44450Y39370
X5893Y20320
X11887Y20320
X5893Y17831
X13462Y33020
X5893Y22809
X11887Y17831
T10
X8890Y81280
X11430Y78740
X8890Y76200
M30