0
SECTION
2
HEADER
9
$ANGDIR
70
1
9
$AUNITS
70
0
9
$PROJECTNAME
1
robotarm
9
$TDCREATE
40
2458557.29940338
9
$INSUNITS
70
4
0
ENDSEC
0
SECTION
2
ENTITIES
0
POLYLINE
66
1
8
outline
10
0.0
20
0.0
30
0.0
70
1
0
VERTEX
8
0
10
0
20
0
30
0
0
VERTEX
8
0
10
100
20
0
30
0
0
VERTEX
8
0
10
100
20
80
30
0
0
VERTEX
8
0
10
0
20
80
30
0
0
VERTEX
8
0
10
0
20
0
30
0
0
SEQEND
0
POLYLINE
66
1
8
holes
10
0.0
20
0.0
30
0.0
70
1
0
VERTEX
8
0
10
12.76
20
5.970000000000001
30
0
0
VERTEX
8
0
10
13.76
20
5.970000000000001
30
0
0
VERTEX
8
0
10
13.76
20
9.27
30
0
0
VERTEX
8
0
10
12.76
20
9.27
30
0
0
VERTEX
8
0
10
12.76
20
5.970000000000001
30
0
0
SEQEND
0
POLYLINE
66
1
8
holes
10
0.0
20
0.0
30
0.0
70
1
0
VERTEX
8
0
10
8.76
20
2.3200000000000003
30
0
0
VERTEX
8
0
10
11.56
20
2.3200000000000003
30
0
0
VERTEX
8
0
10
11.56
20
3.3200000000000003
30
0
0
VERTEX
8
0
10
8.76
20
3.3200000000000003
30
0
0
VERTEX
8
0
10
8.76
20
2.3200000000000003
30
0
0
SEQEND
0
POLYLINE
66
1
8
holes
10
0.0
20
0.0
30
0.0
70
1
0
VERTEX
8
0
10
6.66
20
6.220000000000001
30
0
0
VERTEX
8
0
10
7.66
20
6.220000000000001
30
0
0
VERTEX
8
0
10
7.66
20
9.02
30
0
0
VERTEX
8
0
10
6.66
20
9.02
30
0
0
VERTEX
8
0
10
6.66
20
6.220000000000001
30
0
0
SEQEND
0
POLYLINE
66
1
8
holes
10
0.0
20
0.0
30
0.0
70
1
0
VERTEX
8
0
10
16.17
20
71.327621875
30
0
0
VERTEX
8
0
10
16.16315
20
71.2230875
30
0
0
VERTEX
8
0
10
16.149475000000002
20
71.119228125
30
0
0
VERTEX
8
0
10
16.1290375
20
71.016484375
30
0
0
VERTEX
8
0
10
16.101925
20
70.91529687500001
30
0
0
VERTEX
8
0
10
16.068253125000002
20
70.816096875
30
0
0
VERTEX
8
0
10
16.0281625
20
70.71931562500001
30
0
0
VERTEX
8
0
10
15.98183125
20
70.62536250000001
30
0
0
VERTEX
8
0
10
15.929450000000001
20
70.5346375
30
0
0
VERTEX
8
0
10
15.871250000000002
20
70.44753750000001
30
0
0
VERTEX
8
0
10
15.807478125000001
20
70.364428125
30
0
0
VERTEX
8
0
10
15.738409375000002
20
70.28566562500001
30
0
0
VERTEX
8
0
10
15.664334375000001
20
70.211590625
30
0
0
VERTEX
8
0
10
15.585571875000001
20
70.142521875
30
0
0
VERTEX
8
0
10
15.5024625
20
70.07875
30
0
0
VERTEX
8
0
10
15.4153625
20
70.02055
30
0
0
VERTEX
8
0
10
15.324637500000001
20
69.96816875
30
0
0
VERTEX
8
0
10
15.230684375000001
20
69.92183750000001
30
0
0
VERTEX
8
0
10
15.133903125000002
20
69.881746875
30
0
0
VERTEX
8
0
10
15.034703125
20
69.84807500000001
30
0
0
VERTEX
8
0
10
14.933515625
20
69.82096250000001
30
0
0
VERTEX
8
0
10
14.830771875
20
69.80052500000001
30
0
0
VERTEX
8
0
10
14.726912500000001
20
69.78685
30
0
0
VERTEX
8
0
10
14.622378125000001
20
69.78
30
0
0
VERTEX
8
0
10
14.517621875000001
20
69.78
30
0
0
VERTEX
8
0
10
14.413087500000001
20
69.78685
30
0
0
VERTEX
8
0
10
14.309228125
20
69.80052500000001
30
0
0
VERTEX
8
0
10
14.206484375
20
69.82096250000001
30
0
0
VERTEX
8
0
10
14.105296875
20
69.84807500000001
30
0
0
VERTEX
8
0
10
14.006096875
20
69.881746875
30
0
0
VERTEX
8
0
10
13.909315625000001
20
69.92183750000001
30
0
0
VERTEX
8
0
10
13.8153625
20
69.96816875
30
0
0
VERTEX
8
0
10
13.7246375
20
70.02055
30
0
0
VERTEX
8
0
10
13.6375375
20
70.07875
30
0
0
VERTEX
8
0
10
13.554428125000001
20
70.142521875
30
0
0
VERTEX
8
0
10
13.475665625000001
20
70.211590625
30
0
0
VERTEX
8
0
10
13.401590625
20
70.28566562500001
30
0
0
VERTEX
8
0
10
13.332521875000001
20
70.364428125
30
0
0
VERTEX
8
0
10
13.26875
20
70.44753750000001
30
0
0
VERTEX
8
0
10
13.210550000000001
20
70.5346375
30
0
0
VERTEX
8
0
10
13.15816875
20
70.62536250000001
30
0
0
VERTEX
8
0
10
13.1118375
20
70.71931562500001
30
0
0
VERTEX
8
0
10
13.071746875
20
70.816096875
30
0
0
VERTEX
8
0
10
13.038075000000001
20
70.91529687500001
30
0
0
VERTEX
8
0
10
13.0109625
20
71.016484375
30
0
0
VERTEX
8
0
10
12.990525
20
71.119228125
30
0
0
VERTEX
8
0
10
12.97685
20
71.2230875
30
0
0
VERTEX
8
0
10
12.97
20
71.327621875
30
0
0
VERTEX
8
0
10
12.97
20
71.432378125
30
0
0
VERTEX
8
0
10
12.97685
20
71.5369125
30
0
0
VERTEX
8
0
10
12.990525
20
71.640771875
30
0
0
VERTEX
8
0
10
13.0109625
20
71.743515625
30
0
0
VERTEX
8
0
10
13.038075000000001
20
71.84470312500001
30
0
0
VERTEX
8
0
10
13.071746875
20
71.943903125
30
0
0
VERTEX
8
0
10
13.1118375
20
72.040684375
30
0
0
VERTEX
8
0
10
13.15816875
20
72.1346375
30
0
0
VERTEX
8
0
10
13.210550000000001
20
72.2253625
30
0
0
VERTEX
8
0
10
13.26875
20
72.31246250000001
30
0
0
VERTEX
8
0
10
13.332521875000001
20
72.395571875
30
0
0
VERTEX
8
0
10
13.401590625
20
72.474334375
30
0
0
VERTEX
8
0
10
13.475665625000001
20
72.548409375
30
0
0
VERTEX
8
0
10
13.554428125000001
20
72.617478125
30
0
0
VERTEX
8
0
10
13.6375375
20
72.68125
30
0
0
VERTEX
8
0
10
13.7246375
20
72.73945
30
0
0
VERTEX
8
0
10
13.8153625
20
72.79183125
30
0
0
VERTEX
8
0
10
13.909315625000001
20
72.83816250000001
30
0
0
VERTEX
8
0
10
14.006096875
20
72.878253125
30
0
0
VERTEX
8
0
10
14.105296875
20
72.911925
30
0
0
VERTEX
8
0
10
14.206484375
20
72.9390375
30
0
0
VERTEX
8
0
10
14.309228125
20
72.959475
30
0
0
VERTEX
8
0
10
14.413087500000001
20
72.97315
30
0
0
VERTEX
8
0
10
14.517621875000001
20
72.98
30
0
0
VERTEX
8
0
10
14.622378125000001
20
72.98
30
0
0
VERTEX
8
0
10
14.726912500000001
20
72.97315
30
0
0
VERTEX
8
0
10
14.830771875
20
72.959475
30
0
0
VERTEX
8
0
10
14.933515625
20
72.9390375
30
0
0
VERTEX
8
0
10
15.034703125
20
72.911925
30
0
0
VERTEX
8
0
10
15.133903125000002
20
72.878253125
30
0
0
VERTEX
8
0
10
15.230684375000001
20
72.83816250000001
30
0
0
VERTEX
8
0
10
15.324637500000001
20
72.79183125
30
0
0
VERTEX
8
0
10
15.4153625
20
72.73945
30
0
0
VERTEX
8
0
10
15.5024625
20
72.68125
30
0
0
VERTEX
8
0
10
15.585571875000001
20
72.617478125
30
0
0
VERTEX
8
0
10
15.664334375000001
20
72.548409375
30
0
0
VERTEX
8
0
10
15.738409375000002
20
72.474334375
30
0
0
VERTEX
8
0
10
15.807478125000001
20
72.395571875
30
0
0
VERTEX
8
0
10
15.871250000000002
20
72.31246250000001
30
0
0
VERTEX
8
0
10
15.929450000000001
20
72.2253625
30
0
0
VERTEX
8
0
10
15.98183125
20
72.1346375
30
0
0
VERTEX
8
0
10
16.0281625
20
72.040684375
30
0
0
VERTEX
8
0
10
16.068253125000002
20
71.943903125
30
0
0
VERTEX
8
0
10
16.101925
20
71.84470312500001
30
0
0
VERTEX
8
0
10
16.1290375
20
71.743515625
30
0
0
VERTEX
8
0
10
16.149475000000002
20
71.640771875
30
0
0
VERTEX
8
0
10
16.16315
20
71.5369125
30
0
0
VERTEX
8
0
10
16.17
20
71.432378125
30
0
0
VERTEX
8
0
10
16.17
20
71.327621875
30
0
0
SEQEND
0
POLYLINE
66
1
8
holes
10
0.0
20
0.0
30
0.0
70
1
0
VERTEX
8
0
10
16.17
20
40.327621875
30
0
0
VERTEX
8
0
10
16.16315
20
40.223087500000005
30
0
0
VERTEX
8
0
10
16.149475000000002
20
40.119228125
30
0
0
VERTEX
8
0
10
16.1290375
20
40.016484375000005
30
0
0
VERTEX
8
0
10
16.101925
20
39.915296875
30
0
0
VERTEX
8
0
10
16.068253125000002
20
39.816096875
30
0
0
VERTEX
8
0
10
16.0281625
20
39.719315625
30
0
0
VERTEX
8
0
10
15.98183125
20
39.6253625
30
0
0
VERTEX
8
0
10
15.929450000000001
20
39.5346375
30
0
0
VERTEX
8
0
10
15.871250000000002
20
39.4475375
30
0
0
VERTEX
8
0
10
15.807478125000001
20
39.364428125
30
0
0
VERTEX
8
0
10
15.738409375000002
20
39.285665625
30
0
0
VERTEX
8
0
10
15.664334375000001
20
39.211590625
30
0
0
VERTEX
8
0
10
15.585571875000001
20
39.142521875
30
0
0
VERTEX
8
0
10
15.5024625
20
39.07875
30
0
0
VERTEX
8
0
10
15.4153625
20
39.02055
30
0
0
VERTEX
8
0
10
15.324637500000001
20
38.968168750000004
30
0
0
VERTEX
8
0
10
15.230684375000001
20
38.9218375
30
0
0
VERTEX
8
0
10
15.133903125000002
20
38.881746875000005
30
0
0
VERTEX
8
0
10
15.034703125
20
38.848075
30
0
0
VERTEX
8
0
10
14.933515625
20
38.8209625
30
0
0
VERTEX
8
0
10
14.830771875
20
38.800525
30
0
0
VERTEX
8
0
10
14.726912500000001
20
38.78685
30
0
0
VERTEX
8
0
10
14.622378125000001
20
38.78
30
0
0
VERTEX
8
0
10
14.517621875000001
20
38.78
30
0
0
VERTEX
8
0
10
14.413087500000001
20
38.78685
30
0
0
VERTEX
8
0
10
14.309228125
20
38.800525
30
0
0
VERTEX
8
0
10
14.206484375
20
38.8209625
30
0
0
VERTEX
8
0
10
14.105296875
20
38.848075
30
0
0
VERTEX
8
0
10
14.006096875
20
38.881746875000005
30
0
0
VERTEX
8
0
10
13.909315625000001
20
38.9218375
30
0
0
VERTEX
8
0
10
13.8153625
20
38.968168750000004
30
0
0
VERTEX
8
0
10
13.7246375
20
39.02055
30
0
0
VERTEX
8
0
10
13.6375375
20
39.07875
30
0
0
VERTEX
8
0
10
13.554428125000001
20
39.142521875
30
0
0
VERTEX
8
0
10
13.475665625000001
20
39.211590625
30
0
0
VERTEX
8
0
10
13.401590625
20
39.285665625
30
0
0
VERTEX
8
0
10
13.332521875000001
20
39.364428125
30
0
0
VERTEX
8
0
10
13.26875
20
39.4475375
30
0
0
VERTEX
8
0
10
13.210550000000001
20
39.5346375
30
0
0
VERTEX
8
0
10
13.15816875
20
39.6253625
30
0
0
VERTEX
8
0
10
13.1118375
20
39.719315625
30
0
0
VERTEX
8
0
10
13.071746875
20
39.816096875
30
0
0
VERTEX
8
0
10
13.038075000000001
20
39.915296875
30
0
0
VERTEX
8
0
10
13.0109625
20
40.016484375000005
30
0
0
VERTEX
8
0
10
12.990525
20
40.119228125
30
0
0
VERTEX
8
0
10
12.97685
20
40.223087500000005
30
0
0
VERTEX
8
0
10
12.97
20
40.327621875
30
0
0
VERTEX
8
0
10
12.97
20
40.432378125
30
0
0
VERTEX
8
0
10
12.97685
20
40.5369125
30
0
0
VERTEX
8
0
10
12.990525
20
40.640771875
30
0
0
VERTEX
8
0
10
13.0109625
20
40.743515625
30
0
0
VERTEX
8
0
10
13.038075000000001
20
40.844703125
30
0
0
VERTEX
8
0
10
13.071746875
20
40.943903125
30
0
0
VERTEX
8
0
10
13.1118375
20
41.040684375000005
30
0
0
VERTEX
8
0
10
13.15816875
20
41.134637500000004
30
0
0
VERTEX
8
0
10
13.210550000000001
20
41.2253625
30
0
0
VERTEX
8
0
10
13.26875
20
41.3124625
30
0
0
VERTEX
8
0
10
13.332521875000001
20
41.395571875
30
0
0
VERTEX
8
0
10
13.401590625
20
41.474334375000005
30
0
0
VERTEX
8
0
10
13.475665625000001
20
41.548409375
30
0
0
VERTEX
8
0
10
13.554428125000001
20
41.617478125000005
30
0
0
VERTEX
8
0
10
13.6375375
20
41.68125
30
0
0
VERTEX
8
0
10
13.7246375
20
41.739450000000005
30
0
0
VERTEX
8
0
10
13.8153625
20
41.79183125
30
0
0
VERTEX
8
0
10
13.909315625000001
20
41.8381625
30
0
0
VERTEX
8
0
10
14.006096875
20
41.878253125
30
0
0
VERTEX
8
0
10
14.105296875
20
41.911925000000004
30
0
0
VERTEX
8
0
10
14.206484375
20
41.939037500000005
30
0
0
VERTEX
8
0
10
14.309228125
20
41.959475000000005
30
0
0
VERTEX
8
0
10
14.413087500000001
20
41.973150000000004
30
0
0
VERTEX
8
0
10
14.517621875000001
20
41.980000000000004
30
0
0
VERTEX
8
0
10
14.622378125000001
20
41.980000000000004
30
0
0
VERTEX
8
0
10
14.726912500000001
20
41.973150000000004
30
0
0
VERTEX
8
0
10
14.830771875
20
41.959475000000005
30
0
0
VERTEX
8
0
10
14.933515625
20
41.939037500000005
30
0
0
VERTEX
8
0
10
15.034703125
20
41.911925000000004
30
0
0
VERTEX
8
0
10
15.133903125000002
20
41.878253125
30
0
0
VERTEX
8
0
10
15.230684375000001
20
41.8381625
30
0
0
VERTEX
8
0
10
15.324637500000001
20
41.79183125
30
0
0
VERTEX
8
0
10
15.4153625
20
41.739450000000005
30
0
0
VERTEX
8
0
10
15.5024625
20
41.68125
30
0
0
VERTEX
8
0
10
15.585571875000001
20
41.617478125000005
30
0
0
VERTEX
8
0
10
15.664334375000001
20
41.548409375
30
0
0
VERTEX
8
0
10
15.738409375000002
20
41.474334375000005
30
0
0
VERTEX
8
0
10
15.807478125000001
20
41.395571875
30
0
0
VERTEX
8
0
10
15.871250000000002
20
41.3124625
30
0
0
VERTEX
8
0
10
15.929450000000001
20
41.2253625
30
0
0
VERTEX
8
0
10
15.98183125
20
41.134637500000004
30
0
0
VERTEX
8
0
10
16.0281625
20
41.040684375000005
30
0
0
VERTEX
8
0
10
16.068253125000002
20
40.943903125
30
0
0
VERTEX
8
0
10
16.101925
20
40.844703125
30
0
0
VERTEX
8
0
10
16.1290375
20
40.743515625
30
0
0
VERTEX
8
0
10
16.149475000000002
20
40.640771875
30
0
0
VERTEX
8
0
10
16.16315
20
40.5369125
30
0
0
VERTEX
8
0
10
16.17
20
40.432378125
30
0
0
VERTEX
8
0
10
16.17
20
40.327621875
30
0
0
SEQEND
0
POLYLINE
66
1
8
holes
10
0.0
20
0.0
30
0.0
70
1
0
VERTEX
8
0
10
91.17
20
71.327621875
30
0
0
VERTEX
8
0
10
91.16315
20
71.2230875
30
0
0
VERTEX
8
0
10
91.14947500000001
20
71.119228125
30
0
0
VERTEX
8
0
10
91.12903750000001
20
71.016484375
30
0
0
VERTEX
8
0
10
91.10192500000001
20
70.91529687500001
30
0
0
VERTEX
8
0
10
91.068253125
20
70.816096875
30
0
0
VERTEX
8
0
10
91.02816250000001
20
70.71931562500001
30
0
0
VERTEX
8
0
10
90.98183125
20
70.62536250000001
30
0
0
VERTEX
8
0
10
90.92945
20
70.5346375
30
0
0
VERTEX
8
0
10
90.87125
20
70.44753750000001
30
0
0
VERTEX
8
0
10
90.807478125
20
70.364428125
30
0
0
VERTEX
8
0
10
90.738409375
20
70.28566562500001
30
0
0
VERTEX
8
0
10
90.66433437500001
20
70.211590625
30
0
0
VERTEX
8
0
10
90.585571875
20
70.142521875
30
0
0
VERTEX
8
0
10
90.50246250000001
20
70.07875
30
0
0
VERTEX
8
0
10
90.4153625
20
70.02055
30
0
0
VERTEX
8
0
10
90.32463750000001
20
69.96816875
30
0
0
VERTEX
8
0
10
90.23068437500001
20
69.92183750000001
30
0
0
VERTEX
8
0
10
90.133903125
20
69.881746875
30
0
0
VERTEX
8
0
10
90.03470312500001
20
69.84807500000001
30
0
0
VERTEX
8
0
10
89.933515625
20
69.82096250000001
30
0
0
VERTEX
8
0
10
89.83077187500001
20
69.80052500000001
30
0
0
VERTEX
8
0
10
89.7269125
20
69.78685
30
0
0
VERTEX
8
0
10
89.622378125
20
69.78
30
0
0
VERTEX
8
0
10
89.517621875
20
69.78
30
0
0
VERTEX
8
0
10
89.4130875
20
69.78685
30
0
0
VERTEX
8
0
10
89.309228125
20
69.80052500000001
30
0
0
VERTEX
8
0
10
89.206484375
20
69.82096250000001
30
0
0
VERTEX
8
0
10
89.10529687500001
20
69.84807500000001
30
0
0
VERTEX
8
0
10
89.006096875
20
69.881746875
30
0
0
VERTEX
8
0
10
88.909315625
20
69.92183750000001
30
0
0
VERTEX
8
0
10
88.8153625
20
69.96816875
30
0
0
VERTEX
8
0
10
88.7246375
20
70.02055
30
0
0
VERTEX
8
0
10
88.63753750000001
20
70.07875
30
0
0
VERTEX
8
0
10
88.554428125
20
70.142521875
30
0
0
VERTEX
8
0
10
88.475665625
20
70.211590625
30
0
0
VERTEX
8
0
10
88.401590625
20
70.28566562500001
30
0
0
VERTEX
8
0
10
88.332521875
20
70.364428125
30
0
0
VERTEX
8
0
10
88.26875
20
70.44753750000001
30
0
0
VERTEX
8
0
10
88.21055
20
70.5346375
30
0
0
VERTEX
8
0
10
88.15816875
20
70.62536250000001
30
0
0
VERTEX
8
0
10
88.11183750000001
20
70.71931562500001
30
0
0
VERTEX
8
0
10
88.071746875
20
70.816096875
30
0
0
VERTEX
8
0
10
88.038075
20
70.91529687500001
30
0
0
VERTEX
8
0
10
88.0109625
20
71.016484375
30
0
0
VERTEX
8
0
10
87.990525
20
71.119228125
30
0
0
VERTEX
8
0
10
87.97685
20
71.2230875
30
0
0
VERTEX
8
0
10
87.97
20
71.327621875
30
0
0
VERTEX
8
0
10
87.97
20
71.432378125
30
0
0
VERTEX
8
0
10
87.97685
20
71.5369125
30
0
0
VERTEX
8
0
10
87.990525
20
71.640771875
30
0
0
VERTEX
8
0
10
88.0109625
20
71.743515625
30
0
0
VERTEX
8
0
10
88.038075
20
71.84470312500001
30
0
0
VERTEX
8
0
10
88.071746875
20
71.943903125
30
0
0
VERTEX
8
0
10
88.11183750000001
20
72.040684375
30
0
0
VERTEX
8
0
10
88.15816875
20
72.1346375
30
0
0
VERTEX
8
0
10
88.21055
20
72.2253625
30
0
0
VERTEX
8
0
10
88.26875
20
72.31246250000001
30
0
0
VERTEX
8
0
10
88.332521875
20
72.395571875
30
0
0
VERTEX
8
0
10
88.401590625
20
72.474334375
30
0
0
VERTEX
8
0
10
88.475665625
20
72.548409375
30
0
0
VERTEX
8
0
10
88.554428125
20
72.617478125
30
0
0
VERTEX
8
0
10
88.63753750000001
20
72.68125
30
0
0
VERTEX
8
0
10
88.7246375
20
72.73945
30
0
0
VERTEX
8
0
10
88.8153625
20
72.79183125
30
0
0
VERTEX
8
0
10
88.909315625
20
72.83816250000001
30
0
0
VERTEX
8
0
10
89.006096875
20
72.878253125
30
0
0
VERTEX
8
0
10
89.10529687500001
20
72.911925
30
0
0
VERTEX
8
0
10
89.206484375
20
72.9390375
30
0
0
VERTEX
8
0
10
89.309228125
20
72.959475
30
0
0
VERTEX
8
0
10
89.4130875
20
72.97315
30
0
0
VERTEX
8
0
10
89.517621875
20
72.98
30
0
0
VERTEX
8
0
10
89.622378125
20
72.98
30
0
0
VERTEX
8
0
10
89.7269125
20
72.97315
30
0
0
VERTEX
8
0
10
89.83077187500001
20
72.959475
30
0
0
VERTEX
8
0
10
89.933515625
20
72.9390375
30
0
0
VERTEX
8
0
10
90.03470312500001
20
72.911925
30
0
0
VERTEX
8
0
10
90.133903125
20
72.878253125
30
0
0
VERTEX
8
0
10
90.23068437500001
20
72.83816250000001
30
0
0
VERTEX
8
0
10
90.32463750000001
20
72.79183125
30
0
0
VERTEX
8
0
10
90.4153625
20
72.73945
30
0
0
VERTEX
8
0
10
90.50246250000001
20
72.68125
30
0
0
VERTEX
8
0
10
90.585571875
20
72.617478125
30
0
0
VERTEX
8
0
10
90.66433437500001
20
72.548409375
30
0
0
VERTEX
8
0
10
90.738409375
20
72.474334375
30
0
0
VERTEX
8
0
10
90.807478125
20
72.395571875
30
0
0
VERTEX
8
0
10
90.87125
20
72.31246250000001
30
0
0
VERTEX
8
0
10
90.92945
20
72.2253625
30
0
0
VERTEX
8
0
10
90.98183125
20
72.1346375
30
0
0
VERTEX
8
0
10
91.02816250000001
20
72.040684375
30
0
0
VERTEX
8
0
10
91.068253125
20
71.943903125
30
0
0
VERTEX
8
0
10
91.10192500000001
20
71.84470312500001
30
0
0
VERTEX
8
0
10
91.12903750000001
20
71.743515625
30
0
0
VERTEX
8
0
10
91.14947500000001
20
71.640771875
30
0
0
VERTEX
8
0
10
91.16315
20
71.5369125
30
0
0
VERTEX
8
0
10
91.17
20
71.432378125
30
0
0
VERTEX
8
0
10
91.17
20
71.327621875
30
0
0
SEQEND
0
POLYLINE
66
1
8
holes
10
0.0
20
0.0
30
0.0
70
1
0
VERTEX
8
0
10
-8.84
20
20.704
30
0
0
VERTEX
8
0
10
-8.74025
20
20.696865625
30
0
0
VERTEX
8
0
10
-8.641265625
20
20.682634375
30
0
0
VERTEX
8
0
10
-8.54355
20
20.661378125000002
30
0
0
VERTEX
8
0
10
-8.4476
20
20.633203125
30
0
0
VERTEX
8
0
10
-8.353903125
20
20.598256250000002
30
0
0
VERTEX
8
0
10
-8.2629375
20
20.5567125
30
0
0
VERTEX
8
0
10
-8.175165625
20
20.5087875
30
0
0
VERTEX
8
0
10
-8.091040625
20
20.454721875
30
0
0
VERTEX
8
0
10
-8.010984375
20
20.39479375
30
0
0
VERTEX
8
0
10
-7.935406250000001
20
20.329306250000002
30
0
0
VERTEX
8
0
10
-7.864693750000001
20
20.25859375
30
0
0
VERTEX
8
0
10
-7.79920625
20
20.183015625
30
0
0
VERTEX
8
0
10
-7.739278125
20
20.102959375
30
0
0
VERTEX
8
0
10
-7.6852125000000004
20
20.018834375
30
0
0
VERTEX
8
0
10
-7.6372875
20
19.9310625
30
0
0
VERTEX
8
0
10
-7.5957437500000005
20
19.840096875
30
0
0
VERTEX
8
0
10
-7.560796875
20
19.7464
30
0
0
VERTEX
8
0
10
-7.532621875
20
19.65045
30
0
0
VERTEX
8
0
10
-7.511365625000001
20
19.552734375
30
0
0
VERTEX
8
0
10
-7.497134375000001
20
19.45375
30
0
0
VERTEX
8
0
10
-7.49
20
19.354
30
0
0
VERTEX
8
0
10
-7.49
20
19.254
30
0
0
VERTEX
8
0
10
-7.497134375000001
20
19.15425
30
0
0
VERTEX
8
0
10
-7.511365625000001
20
19.055265625
30
0
0
VERTEX
8
0
10
-7.532621875
20
18.95755
30
0
0
VERTEX
8
0
10
-7.560796875
20
18.8616
30
0
0
VERTEX
8
0
10
-7.5957437500000005
20
18.767903125
30
0
0
VERTEX
8
0
10
-7.6372875
20
18.6769375
30
0
0
VERTEX
8
0
10
-7.6852125000000004
20
18.589165625
30
0
0
VERTEX
8
0
10
-7.739278125
20
18.505040625
30
0
0
VERTEX
8
0
10
-7.79920625
20
18.424984375
30
0
0
VERTEX
8
0
10
-7.864693750000001
20
18.34940625
30
0
0
VERTEX
8
0
10
-7.935406250000001
20
18.278693750000002
30
0
0
VERTEX
8
0
10
-8.010984375
20
18.213206250000002
30
0
0
VERTEX
8
0
10
-8.091040625
20
18.153278125
30
0
0
VERTEX
8
0
10
-8.175165625
20
18.0992125
30
0
0
VERTEX
8
0
10
-8.2629375
20
18.0512875
30
0
0
VERTEX
8
0
10
-8.353903125
20
18.009743750000002
30
0
0
VERTEX
8
0
10
-8.4476
20
17.974796875
30
0
0
VERTEX
8
0
10
-8.54355
20
17.946621875
30
0
0
VERTEX
8
0
10
-8.641265625
20
17.925365625
30
0
0
VERTEX
8
0
10
-8.74025
20
17.911134375
30
0
0
VERTEX
8
0
10
-8.84
20
17.904
30
0
0
VERTEX
8
0
10
-8.940000000000001
20
17.904
30
0
0
VERTEX
8
0
10
-9.03975
20
17.911134375
30
0
0
VERTEX
8
0
10
-9.138734375
20
17.925365625
30
0
0
VERTEX
8
0
10
-9.23645
20
17.946621875
30
0
0
VERTEX
8
0
10
-9.3324
20
17.974796875
30
0
0
VERTEX
8
0
10
-9.426096875
20
18.009743750000002
30
0
0
VERTEX
8
0
10
-9.5170625
20
18.0512875
30
0
0
VERTEX
8
0
10
-9.604834375000001
20
18.0992125
30
0
0
VERTEX
8
0
10
-9.688959375
20
18.153278125
30
0
0
VERTEX
8
0
10
-9.769015625
20
18.213206250000002
30
0
0
VERTEX
8
0
10
-9.84459375
20
18.278693750000002
30
0
0
VERTEX
8
0
10
-9.91530625
20
18.34940625
30
0
0
VERTEX
8
0
10
-9.98079375
20
18.424984375
30
0
0
VERTEX
8
0
10
-10.040721875000001
20
18.505040625
30
0
0
VERTEX
8
0
10
-10.0947875
20
18.589165625
30
0
0
VERTEX
8
0
10
-10.1427125
20
18.6769375
30
0
0
VERTEX
8
0
10
-10.18425625
20
18.767903125
30
0
0
VERTEX
8
0
10
-10.219203125
20
18.8616
30
0
0
VERTEX
8
0
10
-10.247378125000001
20
18.95755
30
0
0
VERTEX
8
0
10
-10.268634375000001
20
19.055265625
30
0
0
VERTEX
8
0
10
-10.282865625000001
20
19.15425
30
0
0
VERTEX
8
0
10
-10.290000000000001
20
19.254
30
0
0
VERTEX
8
0
10
-10.290000000000001
20
19.354
30
0
0
VERTEX
8
0
10
-10.282865625000001
20
19.45375
30
0
0
VERTEX
8
0
10
-10.268634375000001
20
19.552734375
30
0
0
VERTEX
8
0
10
-10.247378125000001
20
19.65045
30
0
0
VERTEX
8
0
10
-10.219203125
20
19.7464
30
0
0
VERTEX
8
0
10
-10.18425625
20
19.840096875
30
0
0
VERTEX
8
0
10
-10.1427125
20
19.9310625
30
0
0
VERTEX
8
0
10
-10.0947875
20
20.018834375
30
0
0
VERTEX
8
0
10
-10.040721875000001
20
20.102959375
30
0
0
VERTEX
8
0
10
-9.98079375
20
20.183015625
30
0
0
VERTEX
8
0
10
-9.91530625
20
20.25859375
30
0
0
VERTEX
8
0
10
-9.84459375
20
20.329306250000002
30
0
0
VERTEX
8
0
10
-9.769015625
20
20.39479375
30
0
0
VERTEX
8
0
10
-9.688959375
20
20.454721875
30
0
0
VERTEX
8
0
10
-9.604834375000001
20
20.5087875
30
0
0
VERTEX
8
0
10
-9.5170625
20
20.5567125
30
0
0
VERTEX
8
0
10
-9.426096875
20
20.598256250000002
30
0
0
VERTEX
8
0
10
-9.3324
20
20.633203125
30
0
0
VERTEX
8
0
10
-9.23645
20
20.661378125000002
30
0
0
VERTEX
8
0
10
-9.138734375
20
20.682634375
30
0
0
VERTEX
8
0
10
-9.03975
20
20.696865625
30
0
0
VERTEX
8
0
10
-8.940000000000001
20
20.704
30
0
0
VERTEX
8
0
10
-8.84
20
20.704
30
0
0
SEQEND
0
POLYLINE
66
1
8
1_copper
10
0.0
20
0.0
30
0.0
70
1
0
VERTEX
8
0
10
4.5212
20
64.4754125
30
0
0
VERTEX
8
0
10
4.5212
20
65.0645875
30
0
0
VERTEX
8
0
10
4.1045875
20
65.4812
30
0
0
VERTEX
8
0
10
3.5154125
20
65.4812
30
0
0
VERTEX
8
0
10
3.0988
20
65.0645875
30
0
0
VERTEX
8
0
10
3.0988
20
64.4754125
30
0
0
VERTEX
8
0
10
3.5154125
20
64.0588
30
0
0
VERTEX
8
0
10
4.1045875
20
64.0588
30
0
0
SEQEND
0
POLYLINE
66
1
8
1_copper
10
0.0
20
0.0
30
0.0
70
1
0
VERTEX
8
0
10
2.84021875
20
45.015159375
30
0
42
0.9063462356499619
0
VERTEX
8
0
10
2.77564375
20
46.3296
30
0
0
VERTEX
8
0
10
1.38995625
20
46.3296
30
0
42
0.9520786018124834
0
VERTEX
8
0
10
1.38995625
20
45.0088
30
0
0
VERTEX
8
0
10
2.77564375
20
45.0088
30
0
0
SEQEND
0
POLYLINE
66
1
8
1_copper
10
0.0
20
0.0
30
0.0
70
1
0
VERTEX
8
0
10
8.83461875
20
45.015159375
30
0
42
0.9063462356499619
0
VERTEX
8
0
10
8.770043750000001
20
46.3296
30
0
0
VERTEX
8
0
10
7.384356250000001
20
46.3296
30
0
42
0.9520786018124834
0
VERTEX
8
0
10
7.384356250000001
20
45.0088
30
0
0
VERTEX
8
0
10
8.770043750000001
20
45.0088
30
0
0
SEQEND
0
POLYLINE
66
1
8
1_copper
10
0.0
20
0.0
30
0.0
70
1
0
VERTEX
8
0
10
8.83461875
20
42.525959375
30
0
42
0.9063462356499619
0
VERTEX
8
0
10
8.770043750000001
20
43.8404
30
0
0
VERTEX
8
0
10
7.384356250000001
20
43.8404
30
0
42
0.9520786018124834
0
VERTEX
8
0
10
7.384356250000001
20
42.519600000000004
30
0
0
VERTEX
8
0
10
8.770043750000001
20
42.519600000000004
30
0
0
SEQEND
0
POLYLINE
66
1
8
1_copper
10
0.0
20
0.0
30
0.0
70
1
0
VERTEX
8
0
10
8.83461875
20
40.036759375
30
0
42
0.9063462356499619
0
VERTEX
8
0
10
8.770043750000001
20
41.3512
30
0
0
VERTEX
8
0
10
7.384356250000001
20
41.3512
30
0
42
0.9520786018124834
0
VERTEX
8
0
10
7.384356250000001
20
40.0304
30
0
0
VERTEX
8
0
10
8.770043750000001
20
40.0304
30
0
0
SEQEND
0
POLYLINE
66
1
8
1_copper
10
0.0
20
0.0
30
0.0
70
1
0
VERTEX
8
0
10
32.065143750000004
20
9.125937500000001
30
0
42
0.9063472543261978
0
VERTEX
8
0
10
31.990634375000003
20
10.6426
30
0
0
VERTEX
8
0
10
30.391765625
20
10.6426
30
0
42
0.9520795017710562
0
VERTEX
8
0
10
30.391765625
20
9.1186
30
0
0
VERTEX
8
0
10
31.990634375000003
20
9.1186
30
0
0
SEQEND
0
POLYLINE
66
1
8
1_copper
10
0.0
20
0.0
30
0.0
70
1
0
VERTEX
8
0
10
43.495143750000004
20
9.125937500000001
30
0
42
0.9063472543261978
0
VERTEX
8
0
10
43.420634375
20
10.6426
30
0
0
VERTEX
8
0
10
41.821765625000005
20
10.6426
30
0
42
0.9520795017710562
0
VERTEX
8
0
10
41.821765625000005
20
9.1186
30
0
0
VERTEX
8
0
10
43.420634375
20
9.1186
30
0
0
SEQEND
0
POLYLINE
66
1
8
1_copper
10
0.0
20
0.0
30
0.0
70
1
0
VERTEX
8
0
10
54.925143750000004
20
9.125937500000001
30
0
42
0.9063472543261978
0
VERTEX
8
0
10
54.850634375000006
20
10.6426
30
0
0
VERTEX
8
0
10
53.251765625000004
20
10.6426
30
0
42
0.9520795017710562
0
VERTEX
8
0
10
53.251765625000004
20
9.1186
30
0
0
VERTEX
8
0
10
54.850634375000006
20
9.1186
30
0
0
SEQEND
0
POLYLINE
66
1
8
1_copper
10
0.0
20
0.0
30
0.0
70
1
0
VERTEX
8
0
10
66.35514375
20
9.125937500000001
30
0
42
0.9063472543261978
0
VERTEX
8
0
10
66.280634375
20
10.6426
30
0
0
VERTEX
8
0
10
64.681765625
20
10.6426
30
0
42
0.9520795017710562
0
VERTEX
8
0
10
64.681765625
20
9.1186
30
0
0
VERTEX
8
0
10
66.280634375
20
9.1186
30
0
0
SEQEND
0
POLYLINE
66
1
8
1_copper
10
0.0
20
0.0
30
0.0
70
1
0
VERTEX
8
0
10
25.562743750000003
20
4.604737500000001
30
0
42
0.9063472543261978
0
VERTEX
8
0
10
25.488234375
20
6.1214
30
0
0
VERTEX
8
0
10
23.889365625
20
6.1214
30
0
42
0.9520795017710562
0
VERTEX
8
0
10
23.889365625
20
4.5974
30
0
0
VERTEX
8
0
10
25.488234375
20
4.5974
30
0
0
SEQEND
0
POLYLINE
66
1
8
1_copper
10
0.0
20
0.0
30
0.0
70
1
0
VERTEX
8
0
10
36.99274375
20
4.604737500000001
30
0
42
0.9063472543261978
0
VERTEX
8
0
10
36.918234375000004
20
6.1214
30
0
0
VERTEX
8
0
10
35.319365625
20
6.1214
30
0
42
0.9520795017710562
0
VERTEX
8
0
10
35.319365625
20
4.5974
30
0
0
VERTEX
8
0
10
36.918234375000004
20
4.5974
30
0
0
SEQEND
0
POLYLINE
66
1
8
1_copper
10
0.0
20
0.0
30
0.0
70
1
0
VERTEX
8
0
10
48.42274375
20
4.604737500000001
30
0
42
0.9063472543261978
0
VERTEX
8
0
10
48.348234375000004
20
6.1214
30
0
0
VERTEX
8
0
10
46.749365625
20
6.1214
30
0
42
0.9520795017710562
0
VERTEX
8
0
10
46.749365625
20
4.5974
30
0
0
VERTEX
8
0
10
48.348234375000004
20
4.5974
30
0
0
SEQEND
0
POLYLINE
66
1
8
1_copper
10
0.0
20
0.0
30
0.0
70
1
0
VERTEX
8
0
10
59.85274375
20
4.604737500000001
30
0
42
0.9063472543261978
0
VERTEX
8
0
10
59.778234375000004
20
6.1214
30
0
0
VERTEX
8
0
10
58.179365625
20
6.1214
30
0
42
0.9520795017710562
0
VERTEX
8
0
10
58.179365625
20
4.5974
30
0
0
VERTEX
8
0
10
59.778234375000004
20
4.5974
30
0
0
SEQEND
0
POLYLINE
66
1
8
1_copper
10
0.0
20
0.0
30
0.0
70
1
0
VERTEX
8
0
10
11.290650000000001
20
1.827609375
30
0
42
0.9163307801196574
0
VERTEX
8
0
10
11.2036625
20
3.8200000000000003
30
0
0
VERTEX
8
0
10
9.1163375
20
3.8200000000000003
30
0
42
0.9572902530839056
0
VERTEX
8
0
10
9.1163375
20
1.82
30
0
0
VERTEX
8
0
10
11.2036625
20
1.82
30
0
0
SEQEND
0
POLYLINE
66
1
8
16_copper
10
0.0
20
0.0
30
0.0
70
1
0
VERTEX
8
0
10
4.5212
20
64.4754125
30
0
0
VERTEX
8
0
10
4.5212
20
65.0645875
30
0
0
VERTEX
8
0
10
4.1045875
20
65.4812
30
0
0
VERTEX
8
0
10
3.5154125
20
65.4812
30
0
0
VERTEX
8
0
10
3.0988
20
65.0645875
30
0
0
VERTEX
8
0
10
3.0988
20
64.4754125
30
0
0
VERTEX
8
0
10
3.5154125
20
64.0588
30
0
0
VERTEX
8
0
10
4.1045875
20
64.0588
30
0
0
SEQEND
0
POLYLINE
66
1
8
16_copper
10
0.0
20
0.0
30
0.0
70
1
0
VERTEX
8
0
10
2.84021875
20
45.015159375
30
0
42
0.9063462356499619
0
VERTEX
8
0
10
2.77564375
20
46.3296
30
0
0
VERTEX
8
0
10
1.38995625
20
46.3296
30
0
42
0.9520786018124834
0
VERTEX
8
0
10
1.38995625
20
45.0088
30
0
0
VERTEX
8
0
10
2.77564375
20
45.0088
30
0
0
SEQEND
0
POLYLINE
66
1
8
16_copper
10
0.0
20
0.0
30
0.0
70
1
0
VERTEX
8
0
10
8.83461875
20
45.015159375
30
0
42
0.9063462356499619
0
VERTEX
8
0
10
8.770043750000001
20
46.3296
30
0
0
VERTEX
8
0
10
7.384356250000001
20
46.3296
30
0
42
0.9520786018124834
0
VERTEX
8
0
10
7.384356250000001
20
45.0088
30
0
0
VERTEX
8
0
10
8.770043750000001
20
45.0088
30
0
0
SEQEND
0
POLYLINE
66
1
8
16_copper
10
0.0
20
0.0
30
0.0
70
1
0
VERTEX
8
0
10
8.83461875
20
42.525959375
30
0
42
0.9063462356499619
0
VERTEX
8
0
10
8.770043750000001
20
43.8404
30
0
0
VERTEX
8
0
10
7.384356250000001
20
43.8404
30
0
42
0.9520786018124834
0
VERTEX
8
0
10
7.384356250000001
20
42.519600000000004
30
0
0
VERTEX
8
0
10
8.770043750000001
20
42.519600000000004
30
0
0
SEQEND
0
POLYLINE
66
1
8
16_copper
10
0.0
20
0.0
30
0.0
70
1
0
VERTEX
8
0
10
8.83461875
20
40.036759375
30
0
42
0.9063462356499619
0
VERTEX
8
0
10
8.770043750000001
20
41.3512
30
0
0
VERTEX
8
0
10
7.384356250000001
20
41.3512
30
0
42
0.9520786018124834
0
VERTEX
8
0
10
7.384356250000001
20
40.0304
30
0
0
VERTEX
8
0
10
8.770043750000001
20
40.0304
30
0
0
SEQEND
0
POLYLINE
66
1
8
16_copper
10
0.0
20
0.0
30
0.0
70
1
0
VERTEX
8
0
10
32.065143750000004
20
9.125937500000001
30
0
42
0.9063472543261978
0
VERTEX
8
0
10
31.990634375000003
20
10.6426
30
0
0
VERTEX
8
0
10
30.391765625
20
10.6426
30
0
42
0.9520795017710562
0
VERTEX
8
0
10
30.391765625
20
9.1186
30
0
0
VERTEX
8
0
10
31.990634375000003
20
9.1186
30
0
0
SEQEND
0
POLYLINE
66
1
8
16_copper
10
0.0
20
0.0
30
0.0
70
1
0
VERTEX
8
0
10
43.495143750000004
20
9.125937500000001
30
0
42
0.9063472543261978
0
VERTEX
8
0
10
43.420634375
20
10.6426
30
0
0
VERTEX
8
0
10
41.821765625000005
20
10.6426
30
0
42
0.9520795017710562
0
VERTEX
8
0
10
41.821765625000005
20
9.1186
30
0
0
VERTEX
8
0
10
43.420634375
20
9.1186
30
0
0
SEQEND
0
POLYLINE
66
1
8
16_copper
10
0.0
20
0.0
30
0.0
70
1
0
VERTEX
8
0
10
54.925143750000004
20
9.125937500000001
30
0
42
0.9063472543261978
0
VERTEX
8
0
10
54.850634375000006
20
10.6426
30
0
0
VERTEX
8
0
10
53.251765625000004
20
10.6426
30
0
42
0.9520795017710562
0
VERTEX
8
0
10
53.251765625000004
20
9.1186
30
0
0
VERTEX
8
0
10
54.850634375000006
20
9.1186
30
0
0
SEQEND
0
POLYLINE
66
1
8
16_copper
10
0.0
20
0.0
30
0.0
70
1
0
VERTEX
8
0
10
66.35514375
20
9.125937500000001
30
0
42
0.9063472543261978
0
VERTEX
8
0
10
66.280634375
20
10.6426
30
0
0
VERTEX
8
0
10
64.681765625
20
10.6426
30
0
42
0.9520795017710562
0
VERTEX
8
0
10
64.681765625
20
9.1186
30
0
0
VERTEX
8
0
10
66.280634375
20
9.1186
30
0
0
SEQEND
0
POLYLINE
66
1
8
16_copper
10
0.0
20
0.0
30
0.0
70
1
0
VERTEX
8
0
10
25.562743750000003
20
4.604737500000001
30
0
42
0.9063472543261978
0
VERTEX
8
0
10
25.488234375
20
6.1214
30
0
0
VERTEX
8
0
10
23.889365625
20
6.1214
30
0
42
0.9520795017710562
0
VERTEX
8
0
10
23.889365625
20
4.5974
30
0
0
VERTEX
8
0
10
25.488234375
20
4.5974
30
0
0
SEQEND
0
POLYLINE
66
1
8
16_copper
10
0.0
20
0.0
30
0.0
70
1
0
VERTEX
8
0
10
36.99274375
20
4.604737500000001
30
0
42
0.9063472543261978
0
VERTEX
8
0
10
36.918234375000004
20
6.1214
30
0
0
VERTEX
8
0
10
35.319365625
20
6.1214
30
0
42
0.9520795017710562
0
VERTEX
8
0
10
35.319365625
20
4.5974
30
0
0
VERTEX
8
0
10
36.918234375000004
20
4.5974
30
0
0
SEQEND
0
POLYLINE
66
1
8
16_copper
10
0.0
20
0.0
30
0.0
70
1
0
VERTEX
8
0
10
48.42274375
20
4.604737500000001
30
0
42
0.9063472543261978
0
VERTEX
8
0
10
48.348234375000004
20
6.1214
30
0
0
VERTEX
8
0
10
46.749365625
20
6.1214
30
0
42
0.9520795017710562
0
VERTEX
8
0
10
46.749365625
20
4.5974
30
0
0
VERTEX
8
0
10
48.348234375000004
20
4.5974
30
0
0
SEQEND
0
POLYLINE
66
1
8
16_copper
10
0.0
20
0.0
30
0.0
70
1
0
VERTEX
8
0
10
59.85274375
20
4.604737500000001
30
0
42
0.9063472543261978
0
VERTEX
8
0
10
59.778234375000004
20
6.1214
30
0
0
VERTEX
8
0
10
58.179365625
20
6.1214
30
0
42
0.9520795017710562
0
VERTEX
8
0
10
58.179365625
20
4.5974
30
0
0
VERTEX
8
0
10
59.778234375000004
20
4.5974
30
0
0
SEQEND
0
POLYLINE
66
1
8
16_copper
10
0.0
20
0.0
30
0.0
70
1
0
VERTEX
8
0
10
11.290650000000001
20
1.827609375
30
0
42
0.9163307801196574
0
VERTEX
8
0
10
11.2036625
20
3.8200000000000003
30
0
0
VERTEX
8
0
10
9.1163375
20
3.8200000000000003
30
0
42
0.9572902530839056
0
VERTEX
8
0
10
9.1163375
20
1.82
30
0
0
VERTEX
8
0
10
11.2036625
20
1.82
30
0
0
SEQEND
0
POLYLINE
66
1
8
16_copper
10
0.0
20
0.0
30
0.0
70
1
0
VERTEX
8
0
10
52.761784375000005
20
25.093675
30
0
42
0.1790390709365824
0
VERTEX
8
0
10
52.60159375
20
25.02080625
30
0
0
VERTEX
8
0
10
48.08039375
20
20.49960625
30
0
42
0.9999999999999999
0
VERTEX
8
0
10
48.439606250000004
20
20.14039375
30
0
0
VERTEX
8
0
10
52.886412500000006
20
24.587200000000003
30
0
0
VERTEX
8
0
10
67.08725
20
24.587200000000003
30
0
42
0.198912367379658
0
VERTEX
8
0
10
67.26685625
20
24.66159375
30
0
0
VERTEX
8
0
10
70.58840625
20
27.98314375
30
0
42
0.198912367379658
0
VERTEX
8
0
10
70.6628
20
28.162750000000003
30
0
0
VERTEX
8
0
10
70.6628
20
56.329350000000005
30
0
42
0.198912367379658
0
VERTEX
8
0
10
70.58840625
20
56.508956250000004
30
0
0
VERTEX
8
0
10
60.31895625
20
66.77840625
30
0
42
0.198912367379658
0
VERTEX
8
0
10
60.13935
20
66.8528
30
0
0
VERTEX
8
0
10
49.412462500000004
20
66.8528
30
0
0
VERTEX
8
0
10
48.775656250000004
20
67.48960625000001
30
0
42
0.198912367379658
0
VERTEX
8
0
10
48.596050000000005
20
67.56400000000001
30
0
0
VERTEX
8
0
10
47.0952125
20
67.56400000000001
30
0
0
VERTEX
8
0
10
45.724000000000004
20
68.9352125
30
0
0
VERTEX
8
0
10
45.724000000000004
20
71.38000000000001
30
0
42
0.9999999999999999
0
VERTEX
8
0
10
45.216
20
71.38000000000001
30
0
0
VERTEX
8
0
10
45.216
20
68.83
30
0
42
0.198912367379658
0
VERTEX
8
0
10
45.29039375
20
68.65039375
30
0
0
VERTEX
8
0
10
46.81039375
20
67.13039375000001
30
0
42
0.198912367379658
0
VERTEX
8
0
10
46.99
20
67.056
30
0
0
VERTEX
8
0
10
48.490837500000005
20
67.056
30
0
0
VERTEX
8
0
10
49.127643750000004
20
66.41919375
30
0
42
0.198912367379658
0
VERTEX
8
0
10
49.30725
20
66.3448
30
0
0
VERTEX
8
0
10
60.0341375
20
66.3448
30
0
0
VERTEX
8
0
10
70.15480000000001
20
56.224137500000005
30
0
0
VERTEX
8
0
10
70.15480000000001
20
28.267962500000003
30
0
0
VERTEX
8
0
10
66.9820375
20
25.095200000000002
30
0
0
VERTEX
8
0
10
52.781200000000005
20
25.095200000000002
30
0
0
SEQEND
0
POLYLINE
66
1
8
16_copper
10
0.0
20
0.0
30
0.0
70
1
0
VERTEX
8
0
10
54.641384375
20
24.433275000000002
30
0
42
0.1790390709365824
0
VERTEX
8
0
10
54.48119375
20
24.36040625
30
0
0
VERTEX
8
0
10
50.620393750000005
20
20.49960625
30
0
42
0.9999999999999999
0
VERTEX
8
0
10
50.97960625
20
20.14039375
30
0
0
VERTEX
8
0
10
54.7660125
20
23.9268
30
0
0
VERTEX
8
0
10
67.3608
20
23.9268
30
0
42
0.198912367379658
0
VERTEX
8
0
10
67.54040625
20
24.001193750000002
30
0
0
VERTEX
8
0
10
71.24880625
20
27.70959375
30
0
42
0.198912367379658
0
VERTEX
8
0
10
71.3232
20
27.889200000000002
30
0
0
VERTEX
8
0
10
71.3232
20
56.602900000000005
30
0
42
0.198912367379658
0
VERTEX
8
0
10
71.24880625
20
56.782506250000004
30
0
0
VERTEX
8
0
10
60.59250625
20
67.43880625
30
0
42
0.198912367379658
0
VERTEX
8
0
10
60.4129
20
67.5132
30
0
0
VERTEX
8
0
10
52.894153125
20
67.5132
30
0
42
0.020244578142849638
0
VERTEX
8
0
10
52.874840625000004
20
67.5256375
30
0
0
VERTEX
8
0
10
52.8580875
20
67.535971875
30
0
42
0.11911291707808867
0
VERTEX
8
0
10
52.7421
20
67.56400000000001
30
0
0
VERTEX
8
0
10
49.6352125
20
67.56400000000001
30
0
0
VERTEX
8
0
10
48.264
20
68.9352125
30
0
0
VERTEX
8
0
10
48.264
20
71.38000000000001
30
0
42
0.9999999999999999
0
VERTEX
8
0
10
47.756
20
71.38000000000001
30
0
0
VERTEX
8
0
10
47.756
20
68.83
30
0
42
0.198912367379658
0
VERTEX
8
0
10
47.83039375
20
68.65039375
30
0
0
VERTEX
8
0
10
49.35039375
20
67.13039375000001
30
0
42
0.198912367379658
0
VERTEX
8
0
10
49.53
20
67.056
30
0
0
VERTEX
8
0
10
52.640846875
20
67.056
30
0
42
0.1619971203006911
0
VERTEX
8
0
10
52.7929
20
67.0052
30
0
0
VERTEX
8
0
10
60.3076875
20
67.0052
30
0
0
VERTEX
8
0
10
70.8152
20
56.497687500000005
30
0
0
VERTEX
8
0
10
70.8152
20
27.994412500000003
30
0
0
VERTEX
8
0
10
67.2555875
20
24.434800000000003
30
0
0
VERTEX
8
0
10
54.6608
20
24.434800000000003
30
0
0
SEQEND
0
POLYLINE
66
1
8
16_copper
10
0.0
20
0.0
30
0.0
70
1
0
VERTEX
8
0
10
57.300853125
20
23.772875000000003
30
0
42
0.1790390709365824
0
VERTEX
8
0
10
57.140662500000005
20
23.70000625
30
0
0
VERTEX
8
0
10
54.01465625
20
20.574
30
0
0
VERTEX
8
0
10
53.34
20
20.574
30
0
42
0.9228431308911045
0
VERTEX
8
0
10
53.299428125000006
20
20.0692625
30
0
0
VERTEX
8
0
10
53.34
20
20.066000000000003
30
0
0
VERTEX
8
0
10
54.11986875
20
20.066000000000003
30
0
42
0.198912367379658
0
VERTEX
8
0
10
54.299475
20
20.14039375
30
0
0
VERTEX
8
0
10
57.425481250000004
20
23.2664
30
0
0
VERTEX
8
0
10
67.9704
20
23.2664
30
0
42
0.198912367379658
0
VERTEX
8
0
10
68.15000625
20
23.34079375
30
0
0
VERTEX
8
0
10
71.90920625
20
27.099993750000003
30
0
42
0.198912367379658
0
VERTEX
8
0
10
71.98360000000001
20
27.279600000000002
30
0
0
VERTEX
8
0
10
71.98360000000001
20
56.876450000000006
30
0
42
0.198912367379658
0
VERTEX
8
0
10
71.90920625
20
57.056056250000005
30
0
0
VERTEX
8
0
10
60.86605625
20
68.09920625000001
30
0
42
0.198912367379658
0
VERTEX
8
0
10
60.68645
20
68.17360000000001
30
0
0
VERTEX
8
0
10
53.171662500000004
20
68.17360000000001
30
0
0
VERTEX
8
0
10
50.804
20
70.5412625
30
0
0
VERTEX
8
0
10
50.804
20
71.38000000000001
30
0
42
0.9999999999999999
0
VERTEX
8
0
10
50.296
20
71.38000000000001
30
0
0
VERTEX
8
0
10
50.296
20
70.43605000000001
30
0
42
0.198912367379658
0
VERTEX
8
0
10
50.370393750000005
20
70.25644375
30
0
0
VERTEX
8
0
10
52.886843750000004
20
67.73999375
30
0
42
0.198912367379658
0
VERTEX
8
0
10
53.06645
20
67.6656
30
0
0
VERTEX
8
0
10
60.5812375
20
67.6656
30
0
0
VERTEX
8
0
10
71.4756
20
56.771237500000005
30
0
0
VERTEX
8
0
10
71.4756
20
27.384812500000002
30
0
0
VERTEX
8
0
10
67.8651875
20
23.7744
30
0
0
VERTEX
8
0
10
57.320268750000004
20
23.7744
30
0
0
SEQEND
0
POLYLINE
66
1
8
16_copper
10
0.0
20
0.0
30
0.0
70
1
0
VERTEX
8
0
10
58.400584375
20
23.112475
30
0
42
0.1790390709365824
0
VERTEX
8
0
10
58.24039375
20
23.039606250000002
30
0
0
VERTEX
8
0
10
55.70039375
20
20.49960625
30
0
42
0.9999999999999999
0
VERTEX
8
0
10
56.05960625
20
20.14039375
30
0
0
VERTEX
8
0
10
58.5252125
20
22.606
30
0
0
VERTEX
8
0
10
68.58
20
22.606
30
0
42
0.198912367379658
0
VERTEX
8
0
10
68.75960625
20
22.68039375
30
0
0
VERTEX
8
0
10
72.56960625
20
26.490393750000003
30
0
42
0.198912367379658
0
VERTEX
8
0
10
72.644
20
26.67
30
0
0
VERTEX
8
0
10
72.644
20
57.150000000000006
30
0
42
0.198912367379658
0
VERTEX
8
0
10
72.56960625
20
57.329606250000005
30
0
0
VERTEX
8
0
10
61.13960625
20
68.75960625
30
0
42
0.198912367379658
0
VERTEX
8
0
10
60.96
20
68.834
30
0
0
VERTEX
8
0
10
55.9952125
20
68.834
30
0
0
VERTEX
8
0
10
53.26960625
20
71.55960625
30
0
42
0.9999999999999999
0
VERTEX
8
0
10
52.910393750000004
20
71.20039375
30
0
0
VERTEX
8
0
10
55.665656250000005
20
68.44513125
30
0
42
0.25778539106679077
0
VERTEX
8
0
10
55.88
20
68.32600000000001
30
0
0
VERTEX
8
0
10
60.8547875
20
68.32600000000001
30
0
0
VERTEX
8
0
10
72.13600000000001
20
57.044787500000005
30
0
0
VERTEX
8
0
10
72.13600000000001
20
26.775212500000002
30
0
0
VERTEX
8
0
10
68.4747875
20
23.114
30
0
0
VERTEX
8
0
10
58.42
20
23.114
30
0
0
SEQEND
0
POLYLINE
66
1
8
16_copper
10
0.0
20
0.0
30
0.0
70
1
0
VERTEX
8
0
10
62.210584375
20
35.812475
30
0
42
0.1790390709365824
0
VERTEX
8
0
10
62.050393750000005
20
35.73960625
30
0
0
VERTEX
8
0
10
58.24039375
20
31.929606250000003
30
0
42
0.198912367379658
0
VERTEX
8
0
10
58.166000000000004
20
31.75
30
0
0
VERTEX
8
0
10
58.166000000000004
20
27.94
30
0
42
0.9228431308911045
0
VERTEX
8
0
10
58.6707375
20
27.899428125
30
0
0
VERTEX
8
0
10
58.674
20
27.94
30
0
0
VERTEX
8
0
10
58.674
20
31.644787500000003
30
0
0
VERTEX
8
0
10
62.335212500000004
20
35.306000000000004
30
0
0
VERTEX
8
0
10
67.31
20
35.306000000000004
30
0
42
0.198912367379658
0
VERTEX
8
0
10
67.48960625000001
20
35.38039375
30
0
0
VERTEX
8
0
10
69.92800625000001
20
37.818793750000005
30
0
42
0.198912367379658
0
VERTEX
8
0
10
70.00240000000001
20
37.998400000000004
30
0
0
VERTEX
8
0
10
70.00240000000001
20
56.055800000000005
30
0
42
0.198912367379658
0
VERTEX
8
0
10
69.92800625000001
20
56.235406250000004
30
0
0
VERTEX
8
0
10
60.045406250000006
20
66.11800625000001
30
0
42
0.198912367379658
0
VERTEX
8
0
10
59.8658
20
66.1924
30
0
0
VERTEX
8
0
10
47.5328625
20
66.1924
30
0
0
VERTEX
8
0
10
46.235656250000005
20
67.48960625000001
30
0
42
0.198912367379658
0
VERTEX
8
0
10
46.05605
20
67.56400000000001
30
0
0
VERTEX
8
0
10
36.9352125
20
67.56400000000001
30
0
0
VERTEX
8
0
10
32.984321875
20
71.514890625
30
0
42
0.9760742165900104
0
VERTEX
8
0
10
32.553603125
20
71.23850312500001
30
0
0
VERTEX
8
0
10
32.564012500000004
20
71.2213875
30
0
42
0.040124466458279794
0
VERTEX
8
0
10
32.590393750000004
20
71.19039375
30
0
0
VERTEX
8
0
10
36.65039375
20
67.13039375000001
30
0
42
0.198912367379658
0
VERTEX
8
0
10
36.83
20
67.056
30
0
0
VERTEX
8
0
10
45.9508375
20
67.056
30
0
0
VERTEX
8
0
10
47.24804375
20
65.75879375000001
30
0
42
0.198912367379658
0
VERTEX
8
0
10
47.42765
20
65.6844
30
0
0
VERTEX
8
0
10
59.7605875
20
65.6844
30
0
0
VERTEX
8
0
10
69.4944
20
55.950587500000005
30
0
0
VERTEX
8
0
10
69.4944
20
38.103612500000004
30
0
0
VERTEX
8
0
10
67.20478750000001
20
35.814
30
0
0
VERTEX
8
0
10
62.230000000000004
20
35.814
30
0
0
SEQEND
0
POLYLINE
66
1
8
16_copper
10
0.0
20
0.0
30
0.0
70
1
0
VERTEX
8
0
10
61.937034375
20
36.472875
30
0
42
0.1790390709365824
0
VERTEX
8
0
10
61.776843750000005
20
36.400006250000004
30
0
0
VERTEX
8
0
10
57.57999375
20
32.20315625
30
0
42
0.198912367379658
0
VERTEX
8
0
10
57.5056
20
32.02355
30
0
0
VERTEX
8
0
10
57.5056
20
29.9248125
30
0
0
VERTEX
8
0
10
55.70039375
20
28.11960625
30
0
42
0.9999999999999999
0
VERTEX
8
0
10
56.05960625
20
27.760393750000002
30
0
0
VERTEX
8
0
10
57.939206250000005
20
29.639993750000002
30
0
42
0.198912367379658
0
VERTEX
8
0
10
58.013600000000004
20
29.8196
30
0
0
VERTEX
8
0
10
58.013600000000004
20
31.9183375
30
0
0
VERTEX
8
0
10
62.061662500000004
20
35.9664
30
0
0
VERTEX
8
0
10
67.03645
20
35.9664
30
0
42
0.198912367379658
0
VERTEX
8
0
10
67.21605625000001
20
36.04079375
30
0
0
VERTEX
8
0
10
69.26760625
20
38.092343750000005
30
0
42
0.198912367379658
0
VERTEX
8
0
10
69.342
20
38.271950000000004
30
0
0
VERTEX
8
0
10
69.342
20
55.782250000000005
30
0
42
0.198912367379658
0
VERTEX
8
0
10
69.26760625
20
55.961856250000004
30
0
0
VERTEX
8
0
10
59.771856250000006
20
65.45760625
30
0
42
0.198912367379658
0
VERTEX
8
0
10
59.59225
20
65.532
30
0
0
VERTEX
8
0
10
35.167212500000005
20
65.532
30
0
0
VERTEX
8
0
10
30.484
20
70.2152125
30
0
0
VERTEX
8
0
10
30.484
20
71.38000000000001
30
0
42
0.9999999999999999
0
VERTEX
8
0
10
29.976000000000003
20
71.38000000000001
30
0
0
VERTEX
8
0
10
29.976000000000003
20
70.11
30
0
42
0.198912367379658
0
VERTEX
8
0
10
30.05039375
20
69.93039375000001
30
0
0
VERTEX
8
0
10
34.88239375
20
65.09839375
30
0
42
0.198912367379658
0
VERTEX
8
0
10
35.062000000000005
20
65.024
30
0
0
VERTEX
8
0
10
59.4870375
20
65.024
30
0
0
VERTEX
8
0
10
68.834
20
55.677037500000004
30
0
0
VERTEX
8
0
10
68.834
20
38.377162500000004
30
0
0
VERTEX
8
0
10
66.93123750000001
20
36.4744
30
0
0
VERTEX
8
0
10
61.956450000000004
20
36.4744
30
0
0
SEQEND
0
POLYLINE
66
1
8
16_copper
10
0.0
20
0.0
30
0.0
70
1
0
VERTEX
8
0
10
61.663484375
20
37.133275000000005
30
0
42
0.1790390709365824
0
VERTEX
8
0
10
61.503293750000005
20
37.06040625
30
0
0
VERTEX
8
0
10
56.919593750000004
20
32.47670625
30
0
42
0.198912367379658
0
VERTEX
8
0
10
56.845200000000006
20
32.2971
30
0
0
VERTEX
8
0
10
56.845200000000006
20
31.8044125
30
0
0
VERTEX
8
0
10
53.160393750000004
20
28.11960625
30
0
42
0.9999999999999999
0
VERTEX
8
0
10
53.51960625
20
27.760393750000002
30
0
0
VERTEX
8
0
10
57.27880625
20
31.519593750000002
30
0
42
0.198912367379658
0
VERTEX
8
0
10
57.3532
20
31.6992
30
0
0
VERTEX
8
0
10
57.3532
20
32.1918875
30
0
0
VERTEX
8
0
10
61.788112500000004
20
36.6268
30
0
0
VERTEX
8
0
10
66.7629
20
36.6268
30
0
42
0.198912367379658
0
VERTEX
8
0
10
66.94250625000001
20
36.70119375
30
0
0
VERTEX
8
0
10
68.60720625
20
38.365893750000005
30
0
42
0.198912367379658
0
VERTEX
8
0
10
68.6816
20
38.545500000000004
30
0
0
VERTEX
8
0
10
68.6816
20
55.508700000000005
30
0
42
0.198912367379658
0
VERTEX
8
0
10
68.60720625
20
55.688306250000004
30
0
0
VERTEX
8
0
10
59.498306250000006
20
64.79720625
30
0
42
0.198912367379658
0
VERTEX
8
0
10
59.3187
20
64.8716
30
0
0
VERTEX
8
0
10
33.6236625
20
64.8716
30
0
0
VERTEX
8
0
10
31.00565625
20
67.48960625000001
30
0
42
0.198912367379658
0
VERTEX
8
0
10
30.826050000000002
20
67.56400000000001
30
0
0
VERTEX
8
0
10
29.3152125
20
67.56400000000001
30
0
0
VERTEX
8
0
10
27.944000000000003
20
68.9352125
30
0
0
VERTEX
8
0
10
27.944000000000003
20
71.38000000000001
30
0
42
0.9999999999999999
0
VERTEX
8
0
10
27.436
20
71.38000000000001
30
0
0
VERTEX
8
0
10
27.436
20
68.83
30
0
42
0.198912367379658
0
VERTEX
8
0
10
27.510393750000002
20
68.65039375
30
0
0
VERTEX
8
0
10
29.03039375
20
67.13039375000001
30
0
42
0.198912367379658
0
VERTEX
8
0
10
29.21
20
67.056
30
0
0
VERTEX
8
0
10
30.720837500000002
20
67.056
30
0
0
VERTEX
8
0
10
33.33884375
20
64.43799375
30
0
42
0.198912367379658
0
VERTEX
8
0
10
33.51845
20
64.3636
30
0
0
VERTEX
8
0
10
59.2134875
20
64.3636
30
0
0
VERTEX
8
0
10
68.17360000000001
20
55.403487500000004
30
0
0
VERTEX
8
0
10
68.17360000000001
20
38.650712500000004
30
0
0
VERTEX
8
0
10
66.65768750000001
20
37.1348
30
0
0
VERTEX
8
0
10
61.682900000000004
20
37.1348
30
0
0
SEQEND
0
POLYLINE
66
1
8
1_copper
10
0.0
20
0.0
30
0.0
70
1
0
VERTEX
8
0
10
76.31194375
20
74.68333750000001
30
0
42
0.3578057741447831
0
VERTEX
8
0
10
76.962
20
75.400565625
30
0
0
VERTEX
8
0
10
76.962
20
76.999434375
30
0
42
0.9520795017710562
0
VERTEX
8
0
10
75.438
20
76.999434375
30
0
0
VERTEX
8
0
10
75.438
20
75.400565625
30
0
0
VERTEX
8
0
10
75.44533750000001
20
75.32605625000001
30
0
0
VERTEX
8
0
10
75.45994375000001
20
75.25262500000001
30
0
0
VERTEX
8
0
10
75.481678125
20
75.18098125
30
0
0
VERTEX
8
0
10
75.510328125
20
75.111809375
30
0
0
VERTEX
8
0
10
75.54562187500001
20
75.04578125
30
0
0
VERTEX
8
0
10
75.58721875
20
74.98353125
30
0
0
VERTEX
8
0
10
75.634715625
20
74.92565625
30
0
0
VERTEX
8
0
10
75.68765625
20
74.872715625
30
0
0
VERTEX
8
0
10
75.74553125
20
74.82521875
30
0
0
VERTEX
8
0
10
75.80778125
20
74.78362187500001
30
0
0
VERTEX
8
0
10
75.87380937500001
20
74.748328125
30
0
0
VERTEX
8
0
10
75.94298125
20
74.719678125
30
0
0
VERTEX
8
0
10
76.01462500000001
20
74.69794375000001
30
0
0
VERTEX
8
0
10
76.08805625000001
20
74.68333750000001
30
0
0
VERTEX
8
0
10
76.162565625
20
74.676
30
0
0
VERTEX
8
0
10
76.237434375
20
74.676
30
0
0
SEQEND
0
POLYLINE
66
1
8
1_copper
10
0.0
20
0.0
30
0.0
70
1
0
VERTEX
8
0
10
64.88018125
20
46.247221875
30
0
42
0.27633885160135374
0
VERTEX
8
0
10
65.476584375
20
46.736000000000004
30
0
0
VERTEX
8
0
10
78.033415625
20
46.736000000000004
30
0
42
0.9992603110310138
0
VERTEX
8
0
10
79.44700937500001
20
47.242971875
30
0
0
VERTEX
8
0
10
79.41880937500001
20
47.311053125
30
0
42
0.6676435748927864
0
VERTEX
8
0
10
78.033415625
20
47.244
30
0
0
VERTEX
8
0
10
65.476584375
20
47.244
30
0
0
VERTEX
8
0
10
65.448809375
20
47.311053125
30
0
0
VERTEX
8
0
10
65.414071875
20
47.376040625
30
0
0
VERTEX
8
0
10
65.37313125
20
47.437312500000004
30
0
0
VERTEX
8
0
10
65.326384375
20
47.494278125
30
0
0
VERTEX
8
0
10
65.27427812500001
20
47.546384375
30
0
0
VERTEX
8
0
10
65.2173125
20
47.59313125
30
0
0
VERTEX
8
0
10
65.156040625
20
47.634071875000004
30
0
0
VERTEX
8
0
10
65.091053125
20
47.668809375
30
0
0
VERTEX
8
0
10
65.022971875
20
47.697009375
30
0
0
VERTEX
8
0
10
64.95245625
20
47.7184
30
0
0
VERTEX
8
0
10
64.88018125
20
47.732778125
30
0
0
VERTEX
8
0
10
64.80684375
20
47.74
30
0
0
VERTEX
8
0
10
64.73315625000001
20
47.74
30
0
0
VERTEX
8
0
10
64.65981875
20
47.732778125
30
0
0
VERTEX
8
0
10
64.58754375000001
20
47.7184
30
0
0
VERTEX
8
0
10
64.51702812500001
20
47.697009375
30
0
0
VERTEX
8
0
10
64.448946875
20
47.668809375
30
0
0
VERTEX
8
0
10
64.383959375
20
47.634071875000004
30
0
0
VERTEX
8
0
10
64.3226875
20
47.59313125
30
0
0
VERTEX
8
0
10
64.265721875
20
47.546384375
30
0
0
VERTEX
8
0
10
64.213615625
20
47.494278125
30
0
0
VERTEX
8
0
10
64.16686875
20
47.437312500000004
30
0
0
VERTEX
8
0
10
64.125928125
20
47.376040625
30
0
0
VERTEX
8
0
10
64.09119062500001
20
47.311053125
30
0
0
VERTEX
8
0
10
64.062990625
20
47.242971875
30
0
0
VERTEX
8
0
10
64.0416
20
47.17245625
30
0
0
VERTEX
8
0
10
64.02722187500001
20
47.100181250000006
30
0
0
VERTEX
8
0
10
64.02
20
47.026843750000005
30
0
0
VERTEX
8
0
10
64.02
20
46.95315625
30
0
0
VERTEX
8
0
10
64.02722187500001
20
46.879818750000005
30
0
0
VERTEX
8
0
10
64.0416
20
46.80754375
30
0
0
VERTEX
8
0
10
64.062990625
20
46.737028125
30
0
0
VERTEX
8
0
10
64.09119062500001
20
46.668946875
30
0
0
VERTEX
8
0
10
64.125928125
20
46.603959375
30
0
0
VERTEX
8
0
10
64.16686875
20
46.5426875
30
0
0
VERTEX
8
0
10
64.213615625
20
46.485721875
30
0
0
VERTEX
8
0
10
64.265721875
20
46.433615625
30
0
0
VERTEX
8
0
10
64.3226875
20
46.386868750000005
30
0
0
VERTEX
8
0
10
64.383959375
20
46.345928125
30
0
0
VERTEX
8
0
10
64.448946875
20
46.311190625
30
0
0
VERTEX
8
0
10
64.51702812500001
20
46.282990625000004
30
0
0
VERTEX
8
0
10
64.58754375000001
20
46.2616
30
0
0
VERTEX
8
0
10
64.65981875
20
46.247221875
30
0
0
VERTEX
8
0
10
64.73315625000001
20
46.24
30
0
0
VERTEX
8
0
10
64.80684375
20
46.24
30
0
0
SEQEND
0
POLYLINE
66
1
8
16_copper
10
0.0
20
0.0
30
0.0
70
1
0
VERTEX
8
0
10
78.85018125
20
46.247221875
30
0
42
0.5028927754174742
0
VERTEX
8
0
10
79.419234375
20
47.310021875000004
30
0
0
VERTEX
8
0
10
81.45960625000001
20
49.35039375
30
0
42
0.198912367379658
0
VERTEX
8
0
10
81.534
20
49.53
30
0
0
VERTEX
8
0
10
81.534
20
64.77
30
0
42
0.198912367379658
0
VERTEX
8
0
10
81.45960625000001
20
64.94960625
30
0
0
VERTEX
8
0
10
76.45400000000001
20
69.9552125
30
0
0
VERTEX
8
0
10
76.45400000000001
20
74.7187625
30
0
42
0.3044751469716126
0
VERTEX
8
0
10
76.962
20
75.400565625
30
0
0
VERTEX
8
0
10
76.962
20
76.999434375
30
0
42
0.9520795017710562
0
VERTEX
8
0
10
75.438
20
76.999434375
30
0
0
VERTEX
8
0
10
75.438
20
75.400565625
30
0
42
0.3044751469716126
0
VERTEX
8
0
10
75.946
20
74.7187625
30
0
0
VERTEX
8
0
10
75.946
20
69.85000000000001
30
0
42
0.198912367379658
0
VERTEX
8
0
10
76.02039375
20
69.67039375
30
0
0
VERTEX
8
0
10
81.02600000000001
20
64.6647875
30
0
0
VERTEX
8
0
10
81.02600000000001
20
49.6352125
30
0
0
VERTEX
8
0
10
79.060021875
20
47.669234375
30
0
0
VERTEX
8
0
10
78.99297187500001
20
47.697009375
30
0
0
VERTEX
8
0
10
78.92245625000001
20
47.7184
30
0
0
VERTEX
8
0
10
78.85018125
20
47.732778125
30
0
0
VERTEX
8
0
10
78.77684375
20
47.74
30
0
0
VERTEX
8
0
10
78.70315625
20
47.74
30
0
0
VERTEX
8
0
10
78.62981875
20
47.732778125
30
0
0
VERTEX
8
0
10
78.55754375000001
20
47.7184
30
0
0
VERTEX
8
0
10
78.48702812500001
20
47.697009375
30
0
0
VERTEX
8
0
10
78.418946875
20
47.668809375
30
0
0
VERTEX
8
0
10
78.353959375
20
47.634071875000004
30
0
0
VERTEX
8
0
10
78.2926875
20
47.59313125
30
0
0
VERTEX
8
0
10
78.23572187500001
20
47.546384375
30
0
0
VERTEX
8
0
10
78.183615625
20
47.494278125
30
0
0
VERTEX
8
0
10
78.13686875
20
47.437312500000004
30
0
0
VERTEX
8
0
10
78.095928125
20
47.376040625
30
0
0
VERTEX
8
0
10
78.06119062500001
20
47.311053125
30
0
0
VERTEX
8
0
10
78.03299062500001
20
47.242971875
30
0
0
VERTEX
8
0
10
78.0116
20
47.17245625
30
0
0
VERTEX
8
0
10
77.99722187500001
20
47.100181250000006
30
0
0
VERTEX
8
0
10
77.99000000000001
20
47.026843750000005
30
0
0
VERTEX
8
0
10
77.99000000000001
20
46.95315625
30
0
0
VERTEX
8
0
10
77.99722187500001
20
46.879818750000005
30
0
0
VERTEX
8
0
10
78.0116
20
46.80754375
30
0
0
VERTEX
8
0
10
78.03299062500001
20
46.737028125
30
0
0
VERTEX
8
0
10
78.06119062500001
20
46.668946875
30
0
0
VERTEX
8
0
10
78.095928125
20
46.603959375
30
0
0
VERTEX
8
0
10
78.13686875
20
46.5426875
30
0
0
VERTEX
8
0
10
78.183615625
20
46.485721875
30
0
0
VERTEX
8
0
10
78.23572187500001
20
46.433615625
30
0
0
VERTEX
8
0
10
78.2926875
20
46.386868750000005
30
0
0
VERTEX
8
0
10
78.353959375
20
46.345928125
30
0
0
VERTEX
8
0
10
78.418946875
20
46.311190625
30
0
0
VERTEX
8
0
10
78.48702812500001
20
46.282990625000004
30
0
0
VERTEX
8
0
10
78.55754375000001
20
46.2616
30
0
0
VERTEX
8
0
10
78.62981875
20
46.247221875
30
0
0
VERTEX
8
0
10
78.70315625
20
46.24
30
0
0
VERTEX
8
0
10
78.77684375
20
46.24
30
0
0
SEQEND
0
POLYLINE
66
1
8
16_copper
10
0.0
20
0.0
30
0.0
70
1
0
VERTEX
8
0
10
62.210584375
20
47.242475
30
0
42
0.1790390709365824
0
VERTEX
8
0
10
62.050393750000005
20
47.16960625
30
0
0
VERTEX
8
0
10
55.7747875
20
40.894000000000005
30
0
0
VERTEX
8
0
10
39.370000000000005
20
40.894000000000005
30
0
42
0.198912367379658
0
VERTEX
8
0
10
39.19039375
20
40.81960625
30
0
0
VERTEX
8
0
10
35.38039375
20
37.009606250000004
30
0
42
0.198912367379658
0
VERTEX
8
0
10
35.306000000000004
20
36.83
30
0
0
VERTEX
8
0
10
35.306000000000004
20
27.94
30
0
42
0.9228431308911045
0
VERTEX
8
0
10
35.8107375
20
27.899428125
30
0
0
VERTEX
8
0
10
35.814
20
27.94
30
0
0
VERTEX
8
0
10
35.814
20
36.724787500000005
30
0
0
VERTEX
8
0
10
39.475212500000005
20
40.386
30
0
0
VERTEX
8
0
10
55.88
20
40.386
30
0
42
0.198912367379658
0
VERTEX
8
0
10
56.05960625
20
40.46039375
30
0
0
VERTEX
8
0
10
62.335212500000004
20
46.736000000000004
30
0
0
VERTEX
8
0
10
64.063415625
20
46.736000000000004
30
0
42
0.9992603110310138
0
VERTEX
8
0
10
65.47700937500001
20
47.242971875
30
0
0
VERTEX
8
0
10
65.448809375
20
47.311053125
30
0
42
0.6676435748927864
0
VERTEX
8
0
10
64.063415625
20
47.244
30
0
0
VERTEX
8
0
10
62.230000000000004
20
47.244
30
0
0
SEQEND
0
POLYLINE
66
1
8
1_copper
10
0.0
20
0.0
30
0.0
70
1
0
VERTEX
8
0
10
86.47194375000001
20
74.68333750000001
30
0
42
0.3578057741447831
0
VERTEX
8
0
10
87.122
20
75.400565625
30
0
0
VERTEX
8
0
10
87.122
20
76.999434375
30
0
42
0.9520795017710562
0
VERTEX
8
0
10
85.598
20
76.999434375
30
0
0
VERTEX
8
0
10
85.598
20
75.400565625
30
0
0
VERTEX
8
0
10
85.6053375
20
75.32605625000001
30
0
0
VERTEX
8
0
10
85.61994375
20
75.25262500000001
30
0
0
VERTEX
8
0
10
85.641678125
20
75.18098125
30
0
0
VERTEX
8
0
10
85.670328125
20
75.111809375
30
0
0
VERTEX
8
0
10
85.705621875
20
75.04578125
30
0
0
VERTEX
8
0
10
85.74721875
20
74.98353125
30
0
0
VERTEX
8
0
10
85.79471562500001
20
74.92565625
30
0
0
VERTEX
8
0
10
85.84765625
20
74.872715625
30
0
0
VERTEX
8
0
10
85.90553125000001
20
74.82521875
30
0
0
VERTEX
8
0
10
85.96778125
20
74.78362187500001
30
0
0
VERTEX
8
0
10
86.033809375
20
74.748328125
30
0
0
VERTEX
8
0
10
86.10298125
20
74.719678125
30
0
0
VERTEX
8
0
10
86.174625
20
74.69794375000001
30
0
0
VERTEX
8
0
10
86.24805625
20
74.68333750000001
30
0
0
VERTEX
8
0
10
86.32256562500001
20
74.676
30
0
0
VERTEX
8
0
10
86.397434375
20
74.676
30
0
0
SEQEND
0
POLYLINE
66
1
8
1_copper
10
0.0
20
0.0
30
0.0
70
1
0
VERTEX
8
0
10
64.88018125
20
48.787221875
30
0
42
0.27633885160135374
0
VERTEX
8
0
10
65.476584375
20
49.276
30
0
0
VERTEX
8
0
10
83.113415625
20
49.276
30
0
42
0.9992603110310138
0
VERTEX
8
0
10
84.527009375
20
49.782971875
30
0
0
VERTEX
8
0
10
84.49880937500001
20
49.851053125
30
0
42
0.6676435748927864
0
VERTEX
8
0
10
83.113415625
20
49.784
30
0
0
VERTEX
8
0
10
65.476584375
20
49.784
30
0
0
VERTEX
8
0
10
65.448809375
20
49.851053125
30
0
0
VERTEX
8
0
10
65.414071875
20
49.916040625
30
0
0
VERTEX
8
0
10
65.37313125
20
49.977312500000004
30
0
0
VERTEX
8
0
10
65.326384375
20
50.034278125
30
0
0
VERTEX
8
0
10
65.27427812500001
20
50.086384375
30
0
0
VERTEX
8
0
10
65.2173125
20
50.133131250000005
30
0
0
VERTEX
8
0
10
65.156040625
20
50.174071875
30
0
0
VERTEX
8
0
10
65.091053125
20
50.208809375
30
0
0
VERTEX
8
0
10
65.022971875
20
50.237009375
30
0
0
VERTEX
8
0
10
64.95245625
20
50.2584
30
0
0
VERTEX
8
0
10
64.88018125
20
50.272778125
30
0
0
VERTEX
8
0
10
64.80684375
20
50.28
30
0
0
VERTEX
8
0
10
64.73315625000001
20
50.28
30
0
0
VERTEX
8
0
10
64.65981875
20
50.272778125
30
0
0
VERTEX
8
0
10
64.58754375000001
20
50.2584
30
0
0
VERTEX
8
0
10
64.51702812500001
20
50.237009375
30
0
0
VERTEX
8
0
10
64.448946875
20
50.208809375
30
0
0
VERTEX
8
0
10
64.383959375
20
50.174071875
30
0
0
VERTEX
8
0
10
64.3226875
20
50.133131250000005
30
0
0
VERTEX
8
0
10
64.265721875
20
50.086384375
30
0
0
VERTEX
8
0
10
64.213615625
20
50.034278125
30
0
0
VERTEX
8
0
10
64.16686875
20
49.977312500000004
30
0
0
VERTEX
8
0
10
64.125928125
20
49.916040625
30
0
0
VERTEX
8
0
10
64.09119062500001
20
49.851053125
30
0
0
VERTEX
8
0
10
64.062990625
20
49.782971875
30
0
0
VERTEX
8
0
10
64.0416
20
49.71245625
30
0
0
VERTEX
8
0
10
64.02722187500001
20
49.640181250000005
30
0
0
VERTEX
8
0
10
64.02
20
49.566843750000004
30
0
0
VERTEX
8
0
10
64.02
20
49.493156250000006
30
0
0
VERTEX
8
0
10
64.02722187500001
20
49.419818750000005
30
0
0
VERTEX
8
0
10
64.0416
20
49.34754375
30
0
0
VERTEX
8
0
10
64.062990625
20
49.277028125
30
0
0
VERTEX
8
0
10
64.09119062500001
20
49.208946875
30
0
0
VERTEX
8
0
10
64.125928125
20
49.143959375
30
0
0
VERTEX
8
0
10
64.16686875
20
49.082687500000006
30
0
0
VERTEX
8
0
10
64.213615625
20
49.025721875
30
0
0
VERTEX
8
0
10
64.265721875
20
48.973615625
30
0
0
VERTEX
8
0
10
64.3226875
20
48.926868750000004
30
0
0
VERTEX
8
0
10
64.383959375
20
48.885928125
30
0
0
VERTEX
8
0
10
64.448946875
20
48.851190625
30
0
0
VERTEX
8
0
10
64.51702812500001
20
48.822990625
30
0
0
VERTEX
8
0
10
64.58754375000001
20
48.8016
30
0
0
VERTEX
8
0
10
64.65981875
20
48.787221875
30
0
0
VERTEX
8
0
10
64.73315625000001
20
48.78
30
0
0
VERTEX
8
0
10
64.80684375
20
48.78
30
0
0
SEQEND
0
POLYLINE
66
1
8
16_copper
10
0.0
20
0.0
30
0.0
70
1
0
VERTEX
8
0
10
83.93018125
20
48.787221875
30
0
42
0.5028927754174742
0
VERTEX
8
0
10
84.499234375
20
49.850021875
30
0
0
VERTEX
8
0
10
86.53960625
20
51.89039375
30
0
42
0.198912367379658
0
VERTEX
8
0
10
86.614
20
52.07
30
0
0
VERTEX
8
0
10
86.614
20
64.77
30
0
42
0.198912367379658
0
VERTEX
8
0
10
86.53960625
20
64.94960625
30
0
0
VERTEX
8
0
10
84.074
20
67.41521250000001
30
0
0
VERTEX
8
0
10
84.074
20
73.5547875
30
0
0
VERTEX
8
0
10
85.658815625
20
75.13960312500001
30
0
42
0.7963966849433909
0
VERTEX
8
0
10
87.122
20
75.400565625
30
0
0
VERTEX
8
0
10
87.122
20
76.999434375
30
0
42
0.9520795017710562
0
VERTEX
8
0
10
85.598
20
76.999434375
30
0
0
VERTEX
8
0
10
85.598
20
75.7972125
30
0
0
VERTEX
8
0
10
83.64039375
20
73.83960625
30
0
42
0.198912367379658
0
VERTEX
8
0
10
83.566
20
73.66
30
0
0
VERTEX
8
0
10
83.566
20
67.31
30
0
42
0.198912367379658
0
VERTEX
8
0
10
83.64039375
20
67.13039375000001
30
0
0
VERTEX
8
0
10
86.10600000000001
20
64.6647875
30
0
0
VERTEX
8
0
10
86.10600000000001
20
52.1752125
30
0
0
VERTEX
8
0
10
84.140021875
20
50.209234375
30
0
0
VERTEX
8
0
10
84.07297187500001
20
50.237009375
30
0
0
VERTEX
8
0
10
84.00245625000001
20
50.2584
30
0
0
VERTEX
8
0
10
83.93018125
20
50.272778125
30
0
0
VERTEX
8
0
10
83.85684375000001
20
50.28
30
0
0
VERTEX
8
0
10
83.78315625
20
50.28
30
0
0
VERTEX
8
0
10
83.70981875000001
20
50.272778125
30
0
0
VERTEX
8
0
10
83.63754375
20
50.2584
30
0
0
VERTEX
8
0
10
83.56702812500001
20
50.237009375
30
0
0
VERTEX
8
0
10
83.498946875
20
50.208809375
30
0
0
VERTEX
8
0
10
83.433959375
20
50.174071875
30
0
0
VERTEX
8
0
10
83.3726875
20
50.133131250000005
30
0
0
VERTEX
8
0
10
83.31572187500001
20
50.086384375
30
0
0
VERTEX
8
0
10
83.263615625
20
50.034278125
30
0
0
VERTEX
8
0
10
83.21686875
20
49.977312500000004
30
0
0
VERTEX
8
0
10
83.175928125
20
49.916040625
30
0
0
VERTEX
8
0
10
83.14119062500001
20
49.851053125
30
0
0
VERTEX
8
0
10
83.11299062500001
20
49.782971875
30
0
0
VERTEX
8
0
10
83.0916
20
49.71245625
30
0
0
VERTEX
8
0
10
83.077221875
20
49.640181250000005
30
0
0
VERTEX
8
0
10
83.07000000000001
20
49.566843750000004
30
0
0
VERTEX
8
0
10
83.07000000000001
20
49.493156250000006
30
0
0
VERTEX
8
0
10
83.077221875
20
49.419818750000005
30
0
0
VERTEX
8
0
10
83.0916
20
49.34754375
30
0
0
VERTEX
8
0
10
83.11299062500001
20
49.277028125
30
0
0
VERTEX
8
0
10
83.14119062500001
20
49.208946875
30
0
0
VERTEX
8
0
10
83.175928125
20
49.143959375
30
0
0
VERTEX
8
0
10
83.21686875
20
49.082687500000006
30
0
0
VERTEX
8
0
10
83.263615625
20
49.025721875
30
0
0
VERTEX
8
0
10
83.31572187500001
20
48.973615625
30
0
0
VERTEX
8
0
10
83.3726875
20
48.926868750000004
30
0
0
VERTEX
8
0
10
83.433959375
20
48.885928125
30
0
0
VERTEX
8
0
10
83.498946875
20
48.851190625
30
0
0
VERTEX
8
0
10
83.56702812500001
20
48.822990625
30
0
0
VERTEX
8
0
10
83.63754375
20
48.8016
30
0
0
VERTEX
8
0
10
83.70981875000001
20
48.787221875
30
0
0
VERTEX
8
0
10
83.78315625
20
48.78
30
0
0
VERTEX
8
0
10
83.85684375000001
20
48.78
30
0
0
SEQEND
0
POLYLINE
66
1
8
16_copper
10
0.0
20
0.0
30
0.0
70
1
0
VERTEX
8
0
10
59.670584375000004
20
49.782475000000005
30
0
42
0.1790390709365824
0
VERTEX
8
0
10
59.510393750000006
20
49.70960625
30
0
0
VERTEX
8
0
10
52.6251875
20
42.824400000000004
30
0
0
VERTEX
8
0
10
39.878
20
42.824400000000004
30
0
42
0.198912367379658
0
VERTEX
8
0
10
39.69839375
20
42.750006250000006
30
0
0
VERTEX
8
0
10
34.03419375
20
37.085806250000005
30
0
42
0.198912367379658
0
VERTEX
8
0
10
33.9598
20
36.9062
30
0
0
VERTEX
8
0
10
33.9598
20
28.194000000000003
30
0
0
VERTEX
8
0
10
33.02
20
28.194000000000003
30
0
42
0.9228431308911045
0
VERTEX
8
0
10
32.979428125
20
27.6892625
30
0
0
VERTEX
8
0
10
33.02
20
27.686
30
0
0
VERTEX
8
0
10
34.2138
20
27.686
30
0
42
0.41421356237309503
0
VERTEX
8
0
10
34.467800000000004
20
27.94
30
0
0
VERTEX
8
0
10
34.467800000000004
20
36.800987500000005
30
0
0
VERTEX
8
0
10
39.9832125
20
42.3164
30
0
0
VERTEX
8
0
10
52.7304
20
42.3164
30
0
42
0.198912367379658
0
VERTEX
8
0
10
52.91000625
20
42.39079375
30
0
0
VERTEX
8
0
10
59.795212500000005
20
49.276
30
0
0
VERTEX
8
0
10
64.063415625
20
49.276
30
0
42
0.9992603110310138
0
VERTEX
8
0
10
65.47700937500001
20
49.782971875
30
0
0
VERTEX
8
0
10
65.448809375
20
49.851053125
30
0
42
0.6676435748927864
0
VERTEX
8
0
10
64.063415625
20
49.784
30
0
0
VERTEX
8
0
10
59.690000000000005
20
49.784
30
0
0
SEQEND
0
POLYLINE
66
1
8
1_copper
10
0.0
20
0.0
30
0.0
70
1
0
VERTEX
8
0
10
66.15194375
20
74.68333750000001
30
0
42
0.3578057741447831
0
VERTEX
8
0
10
66.802
20
75.400565625
30
0
0
VERTEX
8
0
10
66.802
20
76.999434375
30
0
42
0.9520795017710562
0
VERTEX
8
0
10
65.278
20
76.999434375
30
0
0
VERTEX
8
0
10
65.278
20
75.400565625
30
0
0
VERTEX
8
0
10
65.2853375
20
75.32605625000001
30
0
0
VERTEX
8
0
10
65.29994375
20
75.25262500000001
30
0
0
VERTEX
8
0
10
65.321678125
20
75.18098125
30
0
0
VERTEX
8
0
10
65.350328125
20
75.111809375
30
0
0
VERTEX
8
0
10
65.385621875
20
75.04578125
30
0
0
VERTEX
8
0
10
65.42721875000001
20
74.98353125
30
0
0
VERTEX
8
0
10
65.474715625
20
74.92565625
30
0
0
VERTEX
8
0
10
65.52765625
20
74.872715625
30
0
0
VERTEX
8
0
10
65.58553125
20
74.82521875
30
0
0
VERTEX
8
0
10
65.64778125000001
20
74.78362187500001
30
0
0
VERTEX
8
0
10
65.713809375
20
74.748328125
30
0
0
VERTEX
8
0
10
65.78298125
20
74.719678125
30
0
0
VERTEX
8
0
10
65.854625
20
74.69794375000001
30
0
0
VERTEX
8
0
10
65.92805625
20
74.68333750000001
30
0
0
VERTEX
8
0
10
66.002565625
20
74.676
30
0
0
VERTEX
8
0
10
66.07743437500001
20
74.676
30
0
0
SEQEND
0
POLYLINE
66
1
8
1_copper
10
0.0
20
0.0
30
0.0
70
1
0
VERTEX
8
0
10
4.5212
20
67.0154125
30
0
0
VERTEX
8
0
10
4.5212
20
67.60458750000001
30
0
0
VERTEX
8
0
10
4.1045875
20
68.02120000000001
30
0
0
VERTEX
8
0
10
3.5154125
20
68.02120000000001
30
0
0
VERTEX
8
0
10
3.0988
20
67.60458750000001
30
0
0
VERTEX
8
0
10
3.0988
20
67.0154125
30
0
0
VERTEX
8
0
10
3.5154125
20
66.5988
30
0
0
VERTEX
8
0
10
4.1045875
20
66.5988
30
0
0
SEQEND
0
POLYLINE
66
1
8
1_copper
10
0.0
20
0.0
30
0.0
70
1
0
VERTEX
8
0
10
76.31018125
20
15.767221875
30
0
42
0.7798123037550599
0
VERTEX
8
0
10
76.45400000000001
20
17.216584375
30
0
0
VERTEX
8
0
10
76.45400000000001
20
29.773415625000002
30
0
42
0.9992603110310138
0
VERTEX
8
0
10
75.947028125
20
31.187009375000002
30
0
0
VERTEX
8
0
10
75.878946875
20
31.158809375
30
0
42
0.6676435748927864
0
VERTEX
8
0
10
75.946
20
29.773415625000002
30
0
0
VERTEX
8
0
10
75.946
20
17.216584375
30
0
0
VERTEX
8
0
10
75.878946875
20
17.188809375
30
0
0
VERTEX
8
0
10
75.81395937500001
20
17.154071875
30
0
0
VERTEX
8
0
10
75.75268750000001
20
17.113131250000002
30
0
0
VERTEX
8
0
10
75.695721875
20
17.066384375000002
30
0
0
VERTEX
8
0
10
75.64361562500001
20
17.014278125
30
0
0
VERTEX
8
0
10
75.59686875
20
16.9573125
30
0
0
VERTEX
8
0
10
75.55592812500001
20
16.896040625
30
0
0
VERTEX
8
0
10
75.521190625
20
16.831053125
30
0
0
VERTEX
8
0
10
75.492990625
20
16.762971875
30
0
0
VERTEX
8
0
10
75.47160000000001
20
16.69245625
30
0
0
VERTEX
8
0
10
75.457221875
20
16.62018125
30
0
0
VERTEX
8
0
10
75.45
20
16.54684375
30
0
0
VERTEX
8
0
10
75.45
20
16.473156250000002
30
0
0
VERTEX
8
0
10
75.457221875
20
16.39981875
30
0
0
VERTEX
8
0
10
75.47160000000001
20
16.32754375
30
0
0
VERTEX
8
0
10
75.492990625
20
16.257028125
30
0
0
VERTEX
8
0
10
75.521190625
20
16.188946875
30
0
0
VERTEX
8
0
10
75.55592812500001
20
16.123959375000002
30
0
0
VERTEX
8
0
10
75.59686875
20
16.0626875
30
0
0
VERTEX
8
0
10
75.64361562500001
20
16.005721875000003
30
0
0
VERTEX
8
0
10
75.695721875
20
15.953615625000001
30
0
0
VERTEX
8
0
10
75.75268750000001
20
15.906868750000001
30
0
0
VERTEX
8
0
10
75.81395937500001
20
15.865928125
30
0
0
VERTEX
8
0
10
75.878946875
20
15.831190625000001
30
0
0
VERTEX
8
0
10
75.947028125
20
15.802990625000001
30
0
0
VERTEX
8
0
10
76.01754375
20
15.781600000000001
30
0
0
VERTEX
8
0
10
76.08981875
20
15.767221875
30
0
0
VERTEX
8
0
10
76.16315625
20
15.760000000000002
30
0
0
VERTEX
8
0
10
76.23684375
20
15.760000000000002
30
0
0
SEQEND
0
POLYLINE
66
1
8
1_copper
10
0.0
20
0.0
30
0.0
70
1
0
VERTEX
8
0
10
15.35018125
20
20.847221875000002
30
0
42
0.27633885160135374
0
VERTEX
8
0
10
15.946584375
20
21.336000000000002
30
0
0
VERTEX
8
0
10
24.693415625
20
21.336000000000002
30
0
42
0.9992603110310138
0
VERTEX
8
0
10
26.107009375
20
21.842971875
30
0
0
VERTEX
8
0
10
26.078809375000002
20
21.911053125000002
30
0
42
0.6676435748927864
0
VERTEX
8
0
10
24.693415625
20
21.844
30
0
0
VERTEX
8
0
10
15.946584375
20
21.844
30
0
0
VERTEX
8
0
10
15.918809375
20
21.911053125000002
30
0
0
VERTEX
8
0
10
15.884071875
20
21.976040625
30
0
0
VERTEX
8
0
10
15.84313125
20
22.037312500000002
30
0
0
VERTEX
8
0
10
15.796384375
20
22.094278125000002
30
0
0
VERTEX
8
0
10
15.744278125000001
20
22.146384375
30
0
0
VERTEX
8
0
10
15.6873125
20
22.19313125
30
0
0
VERTEX
8
0
10
15.626040625
20
22.234071875
30
0
0
VERTEX
8
0
10
15.561053125
20
22.268809375
30
0
0
VERTEX
8
0
10
15.492971875
20
22.297009375000002
30
0
0
VERTEX
8
0
10
15.422456250000002
20
22.3184
30
0
0
VERTEX
8
0
10
15.35018125
20
22.332778125
30
0
0
VERTEX
8
0
10
15.276843750000001
20
22.34
30
0
0
VERTEX
8
0
10
15.203156250000001
20
22.34
30
0
0
VERTEX
8
0
10
15.12981875
20
22.332778125
30
0
0
VERTEX
8
0
10
15.05754375
20
22.3184
30
0
0
VERTEX
8
0
10
14.987028125
20
22.297009375000002
30
0
0
VERTEX
8
0
10
14.918946875000001
20
22.268809375
30
0
0
VERTEX
8
0
10
14.853959375
20
22.234071875
30
0
0
VERTEX
8
0
10
14.792687500000001
20
22.19313125
30
0
0
VERTEX
8
0
10
14.735721875000001
20
22.146384375
30
0
0
VERTEX
8
0
10
14.683615625
20
22.094278125000002
30
0
0
VERTEX
8
0
10
14.636868750000001
20
22.037312500000002
30
0
0
VERTEX
8
0
10
14.595928125
20
21.976040625
30
0
0
VERTEX
8
0
10
14.561190625
20
21.911053125000002
30
0
0
VERTEX
8
0
10
14.532990625
20
21.842971875
30
0
0
VERTEX
8
0
10
14.511600000000001
20
21.77245625
30
0
0
VERTEX
8
0
10
14.497221875000001
20
21.70018125
30
0
0
VERTEX
8
0
10
14.49
20
21.626843750000003
30
0
0
VERTEX
8
0
10
14.49
20
21.55315625
30
0
0
VERTEX
8
0
10
14.497221875000001
20
21.47981875
30
0
0
VERTEX
8
0
10
14.511600000000001
20
21.407543750000002
30
0
0
VERTEX
8
0
10
14.532990625
20
21.337028125
30
0
0
VERTEX
8
0
10
14.561190625
20
21.268946875
30
0
0
VERTEX
8
0
10
14.595928125
20
21.203959375
30
0
0
VERTEX
8
0
10
14.636868750000001
20
21.1426875
30
0
0
VERTEX
8
0
10
14.683615625
20
21.085721875
30
0
0
VERTEX
8
0
10
14.735721875000001
20
21.033615625
30
0
0
VERTEX
8
0
10
14.792687500000001
20
20.98686875
30
0
0
VERTEX
8
0
10
14.853959375
20
20.945928125000002
30
0
0
VERTEX
8
0
10
14.918946875000001
20
20.911190625
30
0
0
VERTEX
8
0
10
14.987028125
20
20.882990625
30
0
0
VERTEX
8
0
10
15.05754375
20
20.8616
30
0
0
VERTEX
8
0
10
15.12981875
20
20.847221875000002
30
0
0
VERTEX
8
0
10
15.203156250000001
20
20.84
30
0
0
VERTEX
8
0
10
15.276843750000001
20
20.84
30
0
0
SEQEND
0
POLYLINE
66
1
8
16_copper
10
0.0
20
0.0
30
0.0
70
1
0
VERTEX
8
0
10
76.31018125
20
29.737221875000003
30
0
42
0.7798123037550599
0
VERTEX
8
0
10
76.45400000000001
20
31.186584375000002
30
0
0
VERTEX
8
0
10
76.45400000000001
20
67.31
30
0
42
0.198912367379658
0
VERTEX
8
0
10
76.37960625000001
20
67.48960625000001
30
0
0
VERTEX
8
0
10
71.29960625
20
72.56960625
30
0
42
0.198912367379658
0
VERTEX
8
0
10
71.12
20
72.644
30
0
0
VERTEX
8
0
10
69.9552125
20
72.644
30
0
0
VERTEX
8
0
10
66.802
20
75.7972125
30
0
0
VERTEX
8
0
10
66.802
20
76.999434375
30
0
42
0.9520795017710562
0
VERTEX
8
0
10
65.278
20
76.999434375
30
0
0
VERTEX
8
0
10
65.278
20
75.400565625
30
0
42
0.7963966849433909
0
VERTEX
8
0
10
66.741184375
20
75.13960312500001
30
0
0
VERTEX
8
0
10
69.67039375
20
72.21039375000001
30
0
42
0.198912367379658
0
VERTEX
8
0
10
69.85000000000001
20
72.13600000000001
30
0
0
VERTEX
8
0
10
71.0147875
20
72.13600000000001
30
0
0
VERTEX
8
0
10
75.946
20
67.20478750000001
30
0
0
VERTEX
8
0
10
75.946
20
31.186584375000002
30
0
0
VERTEX
8
0
10
75.878946875
20
31.158809375
30
0
0
VERTEX
8
0
10
75.81395937500001
20
31.124071875000002
30
0
0
VERTEX
8
0
10
75.75268750000001
20
31.08313125
30
0
0
VERTEX
8
0
10
75.695721875
20
31.036384375
30
0
0
VERTEX
8
0
10
75.64361562500001
20
30.984278125000003
30
0
0
VERTEX
8
0
10
75.59686875
20
30.927312500000003
30
0
0
VERTEX
8
0
10
75.55592812500001
20
30.866040625
30
0
0
VERTEX
8
0
10
75.521190625
20
30.801053125000003
30
0
0
VERTEX
8
0
10
75.492990625
20
30.732971875
30
0
0
VERTEX
8
0
10
75.47160000000001
20
30.66245625
30
0
0
VERTEX
8
0
10
75.457221875
20
30.59018125
30
0
0
VERTEX
8
0
10
75.45
20
30.516843750000003
30
0
0
VERTEX
8
0
10
75.45
20
30.44315625
30
0
0
VERTEX
8
0
10
75.457221875
20
30.36981875
30
0
0
VERTEX
8
0
10
75.47160000000001
20
30.297543750000003
30
0
0
VERTEX
8
0
10
75.492990625
20
30.227028125
30
0
0
VERTEX
8
0
10
75.521190625
20
30.158946875
30
0
0
VERTEX
8
0
10
75.55592812500001
20
30.093959375
30
0
0
VERTEX
8
0
10
75.59686875
20
30.0326875
30
0
0
VERTEX
8
0
10
75.64361562500001
20
29.975721875
30
0
0
VERTEX
8
0
10
75.695721875
20
29.923615625
30
0
0
VERTEX
8
0
10
75.75268750000001
20
29.87686875
30
0
0
VERTEX
8
0
10
75.81395937500001
20
29.835928125000002
30
0
0
VERTEX
8
0
10
75.878946875
20
29.801190625
30
0
0
VERTEX
8
0
10
75.947028125
20
29.772990625000002
30
0
0
VERTEX
8
0
10
76.01754375
20
29.7516
30
0
0
VERTEX
8
0
10
76.08981875
20
29.737221875000003
30
0
0
VERTEX
8
0
10
76.16315625
20
29.73
30
0
0
VERTEX
8
0
10
76.23684375
20
29.73
30
0
0
SEQEND
0
POLYLINE
66
1
8
16_copper
10
0.0
20
0.0
30
0.0
70
1
0
VERTEX
8
0
10
15.35018125
20
20.847221875000002
30
0
42
0.9999999999999999
0
VERTEX
8
0
10
15.12981875
20
22.332778125
30
0
0
VERTEX
8
0
10
15.05754375
20
22.3184
30
0
42
0.04875462367107236
0
VERTEX
8
0
10
14.919978125
20
22.269234375
30
0
0
VERTEX
8
0
10
14.224
20
22.9652125
30
0
0
VERTEX
8
0
10
14.224
20
34.29
30
0
42
0.198912367379658
0
VERTEX
8
0
10
14.149606250000001
20
34.46960625
30
0
0
VERTEX
8
0
10
11.684000000000001
20
36.9352125
30
0
0
VERTEX
8
0
10
11.684000000000001
20
38.52725625
30
0
42
0.198912367379658
0
VERTEX
8
0
10
11.60960625
20
38.7068625
30
0
0
VERTEX
8
0
10
2.286
20
48.030468750000004
30
0
0
VERTEX
8
0
10
2.286
20
65.4267875
30
0
0
VERTEX
8
0
10
3.4867125000000003
20
66.6275
30
0
0
VERTEX
8
0
10
3.5154125
20
66.5988
30
0
0
VERTEX
8
0
10
4.1045875
20
66.5988
30
0
0
VERTEX
8
0
10
4.5212
20
67.0154125
30
0
0
VERTEX
8
0
10
4.5212
20
67.60458750000001
30
0
0
VERTEX
8
0
10
4.1045875
20
68.02120000000001
30
0
0
VERTEX
8
0
10
3.5154125
20
68.02120000000001
30
0
0
VERTEX
8
0
10
3.0988
20
67.60458750000001
30
0
0
VERTEX
8
0
10
3.0988
20
67.0154125
30
0
0
VERTEX
8
0
10
3.1275
20
66.98671250000001
30
0
0
VERTEX
8
0
10
1.85239375
20
65.71160625
30
0
42
0.198912367379658
0
VERTEX
8
0
10
1.778
20
65.532
30
0
0
VERTEX
8
0
10
1.778
20
47.925256250000004
30
0
42
0.198912367379658
0
VERTEX
8
0
10
1.85239375
20
47.745650000000005
30
0
0
VERTEX
8
0
10
11.176
20
38.42204375
30
0
0
VERTEX
8
0
10
11.176
20
36.83
30
0
42
0.198912367379658
0
VERTEX
8
0
10
11.25039375
20
36.65039375
30
0
0
VERTEX
8
0
10
13.716000000000001
20
34.1847875
30
0
0
VERTEX
8
0
10
13.716000000000001
20
22.86
30
0
42
0.198912367379658
0
VERTEX
8
0
10
13.79039375
20
22.68039375
30
0
0
VERTEX
8
0
10
14.560765625
20
21.910021875
30
0
0
VERTEX
8
0
10
14.532990625
20
21.842971875
30
0
0
VERTEX
8
0
10
14.511600000000001
20
21.77245625
30
0
0
VERTEX
8
0
10
14.497221875000001
20
21.70018125
30
0
0
VERTEX
8
0
10
14.49
20
21.626843750000003
30
0
0
VERTEX
8
0
10
14.49
20
21.55315625
30
0
0
VERTEX
8
0
10
14.497221875000001
20
21.47981875
30
0
0
VERTEX
8
0
10
14.511600000000001
20
21.407543750000002
30
0
0
VERTEX
8
0
10
14.532990625
20
21.337028125
30
0
0
VERTEX
8
0
10
14.561190625
20
21.268946875
30
0
0
VERTEX
8
0
10
14.595928125
20
21.203959375
30
0
0
VERTEX
8
0
10
14.636868750000001
20
21.1426875
30
0
0
VERTEX
8
0
10
14.683615625
20
21.085721875
30
0
0
VERTEX
8
0
10
14.735721875000001
20
21.033615625
30
0
0
VERTEX
8
0
10
14.792687500000001
20
20.98686875
30
0
0
VERTEX
8
0
10
14.853959375
20
20.945928125000002
30
0
0
VERTEX
8
0
10
14.918946875000001
20
20.911190625
30
0
0
VERTEX
8
0
10
14.987028125
20
20.882990625
30
0
0
VERTEX
8
0
10
15.05754375
20
20.8616
30
0
0
VERTEX
8
0
10
15.12981875
20
20.847221875000002
30
0
0
VERTEX
8
0
10
15.203156250000001
20
20.84
30
0
0
VERTEX
8
0
10
15.276843750000001
20
20.84
30
0
0
SEQEND
0
POLYLINE
66
1
8
16_copper
10
0.0
20
0.0
30
0.0
70
1
0
VERTEX
8
0
10
74.949415625
20
14.987525000000002
30
0
42
0.1790390709365824
0
VERTEX
8
0
10
75.10960625
20
15.060393750000001
30
0
0
VERTEX
8
0
10
75.87997812500001
20
15.830765625000002
30
0
42
0.9992584806102781
0
VERTEX
8
0
10
76.52105312500001
20
17.188809375
30
0
0
VERTEX
8
0
10
76.452971875
20
17.217009375
30
0
42
0.667642312984593
0
VERTEX
8
0
10
75.52076562500001
20
16.189978125
30
0
0
VERTEX
8
0
10
74.8247875
20
15.494000000000002
30
0
0
VERTEX
8
0
10
34.3952125
20
15.494000000000002
30
0
0
VERTEX
8
0
10
33.274
20
16.615212500000002
30
0
0
VERTEX
8
0
10
33.274
20
20.32
30
0
42
0.198912367379658
0
VERTEX
8
0
10
33.19960625
20
20.49960625
30
0
0
VERTEX
8
0
10
31.929606250000003
20
21.769606250000002
30
0
42
0.198912367379658
0
VERTEX
8
0
10
31.75
20
21.844
30
0
0
VERTEX
8
0
10
26.106584375
20
21.844
30
0
42
0.9992603110310138
0
VERTEX
8
0
10
24.692990625
20
21.337028125
30
0
0
VERTEX
8
0
10
24.721190625000002
20
21.268946875
30
0
42
0.6676435748927864
0
VERTEX
8
0
10
26.106584375
20
21.336000000000002
30
0
0
VERTEX
8
0
10
31.644787500000003
20
21.336000000000002
30
0
0
VERTEX
8
0
10
32.766
20
20.2147875
30
0
0
VERTEX
8
0
10
32.766
20
16.51
30
0
42
0.198912367379658
0
VERTEX
8
0
10
32.840393750000004
20
16.330393750000002
30
0
0
VERTEX
8
0
10
34.11039375
20
15.060393750000001
30
0
42
0.198912367379658
0
VERTEX
8
0
10
34.29
20
14.986
30
0
0
VERTEX
8
0
10
74.93
20
14.986
30
0
0
SEQEND
0
POLYLINE
66
1
8
1_copper
10
0.0
20
0.0
30
0.0
70
1
0
VERTEX
8
0
10
55.991943750000004
20
74.68333750000001
30
0
42
0.3578057741447831
0
VERTEX
8
0
10
56.642
20
75.400565625
30
0
0
VERTEX
8
0
10
56.642
20
76.999434375
30
0
42
0.9520795017710562
0
VERTEX
8
0
10
55.118
20
76.999434375
30
0
0
VERTEX
8
0
10
55.118
20
75.400565625
30
0
0
VERTEX
8
0
10
55.1253375
20
75.32605625000001
30
0
0
VERTEX
8
0
10
55.13994375
20
75.25262500000001
30
0
0
VERTEX
8
0
10
55.161678125
20
75.18098125
30
0
0
VERTEX
8
0
10
55.190328125
20
75.111809375
30
0
0
VERTEX
8
0
10
55.225621875
20
75.04578125
30
0
0
VERTEX
8
0
10
55.267218750000005
20
74.98353125
30
0
0
VERTEX
8
0
10
55.314715625000005
20
74.92565625
30
0
0
VERTEX
8
0
10
55.36765625
20
74.872715625
30
0
0
VERTEX
8
0
10
55.425531250000006
20
74.82521875
30
0
0
VERTEX
8
0
10
55.487781250000005
20
74.78362187500001
30
0
0
VERTEX
8
0
10
55.553809375
20
74.748328125
30
0
0
VERTEX
8
0
10
55.62298125
20
74.719678125
30
0
0
VERTEX
8
0
10
55.694625
20
74.69794375000001
30
0
0
VERTEX
8
0
10
55.76805625
20
74.68333750000001
30
0
0
VERTEX
8
0
10
55.842565625000006
20
74.676
30
0
0
VERTEX
8
0
10
55.917434375
20
74.676
30
0
0
SEQEND
0
POLYLINE
66
1
8
1_copper
10
0.0
20
0.0
30
0.0
70
1
0
VERTEX
8
0
10
64.88018125
20
43.707221875
30
0
42
0.27633885160135374
0
VERTEX
8
0
10
65.476584375
20
44.196000000000005
30
0
0
VERTEX
8
0
10
72.953415625
20
44.196000000000005
30
0
42
0.9992603110310138
0
VERTEX
8
0
10
74.36700937500001
20
44.702971875
30
0
0
VERTEX
8
0
10
74.338809375
20
44.771053125
30
0
42
0.6676435748927864
0
VERTEX
8
0
10
72.953415625
20
44.704
30
0
0
VERTEX
8
0
10
65.476584375
20
44.704
30
0
0
VERTEX
8
0
10
65.448809375
20
44.771053125
30
0
0
VERTEX
8
0
10
65.414071875
20
44.836040625
30
0
0
VERTEX
8
0
10
65.37313125
20
44.897312500000005
30
0
0
VERTEX
8
0
10
65.326384375
20
44.954278125
30
0
0
VERTEX
8
0
10
65.27427812500001
20
45.006384375
30
0
0
VERTEX
8
0
10
65.2173125
20
45.05313125
30
0
0
VERTEX
8
0
10
65.156040625
20
45.094071875000004
30
0
0
VERTEX
8
0
10
65.091053125
20
45.128809375
30
0
0
VERTEX
8
0
10
65.022971875
20
45.157009375
30
0
0
VERTEX
8
0
10
64.95245625
20
45.1784
30
0
0
VERTEX
8
0
10
64.88018125
20
45.192778125000004
30
0
0
VERTEX
8
0
10
64.80684375
20
45.2
30
0
0
VERTEX
8
0
10
64.73315625000001
20
45.2
30
0
0
VERTEX
8
0
10
64.65981875
20
45.192778125000004
30
0
0
VERTEX
8
0
10
64.58754375000001
20
45.1784
30
0
0
VERTEX
8
0
10
64.51702812500001
20
45.157009375
30
0
0
VERTEX
8
0
10
64.448946875
20
45.128809375
30
0
0
VERTEX
8
0
10
64.383959375
20
45.094071875000004
30
0
0
VERTEX
8
0
10
64.3226875
20
45.05313125
30
0
0
VERTEX
8
0
10
64.265721875
20
45.006384375
30
0
0
VERTEX
8
0
10
64.213615625
20
44.954278125
30
0
0
VERTEX
8
0
10
64.16686875
20
44.897312500000005
30
0
0
VERTEX
8
0
10
64.125928125
20
44.836040625
30
0
0
VERTEX
8
0
10
64.09119062500001
20
44.771053125
30
0
0
VERTEX
8
0
10
64.062990625
20
44.702971875
30
0
0
VERTEX
8
0
10
64.0416
20
44.632456250000004
30
0
0
VERTEX
8
0
10
64.02722187500001
20
44.56018125
30
0
0
VERTEX
8
0
10
64.02
20
44.486843750000006
30
0
0
VERTEX
8
0
10
64.02
20
44.41315625
30
0
0
VERTEX
8
0
10
64.02722187500001
20
44.33981875
30
0
0
VERTEX
8
0
10
64.0416
20
44.26754375
30
0
0
VERTEX
8
0
10
64.062990625
20
44.197028125
30
0
0
VERTEX
8
0
10
64.09119062500001
20
44.128946875000004
30
0
0
VERTEX
8
0
10
64.125928125
20
44.063959375
30
0
0
VERTEX
8
0
10
64.16686875
20
44.0026875
30
0
0
VERTEX
8
0
10
64.213615625
20
43.945721875000004
30
0
0
VERTEX
8
0
10
64.265721875
20
43.893615625
30
0
0
VERTEX
8
0
10
64.3226875
20
43.84686875
30
0
0
VERTEX
8
0
10
64.383959375
20
43.805928125
30
0
0
VERTEX
8
0
10
64.448946875
20
43.771190625
30
0
0
VERTEX
8
0
10
64.51702812500001
20
43.742990625000004
30
0
0
VERTEX
8
0
10
64.58754375000001
20
43.7216
30
0
0
VERTEX
8
0
10
64.65981875
20
43.707221875
30
0
0
VERTEX
8
0
10
64.73315625000001
20
43.7
30
0
0
VERTEX
8
0
10
64.80684375
20
43.7
30
0
0
SEQEND
0
POLYLINE
66
1
8
16_copper
10
0.0
20
0.0
30
0.0
70
1
0
VERTEX
8
0
10
73.77018125000001
20
43.707221875
30
0
42
0.5028927754174742
0
VERTEX
8
0
10
74.339234375
20
44.770021875000005
30
0
0
VERTEX
8
0
10
75.10960625
20
45.54039375
30
0
42
0.198912367379658
0
VERTEX
8
0
10
75.184
20
45.72
30
0
0
VERTEX
8
0
10
75.184
20
63.5
30
0
42
0.198912367379658
0
VERTEX
8
0
10
75.10960625
20
63.679606250000006
30
0
0
VERTEX
8
0
10
66.21960625
20
72.56960625
30
0
42
0.198912367379658
0
VERTEX
8
0
10
66.04
20
72.644
30
0
0
VERTEX
8
0
10
59.795212500000005
20
72.644
30
0
0
VERTEX
8
0
10
56.642
20
75.7972125
30
0
0
VERTEX
8
0
10
56.642
20
76.999434375
30
0
42
0.9520795017710562
0
VERTEX
8
0
10
55.118
20
76.999434375
30
0
0
VERTEX
8
0
10
55.118
20
75.400565625
30
0
42
0.7963966849433909
0
VERTEX
8
0
10
56.581184375
20
75.13960312500001
30
0
0
VERTEX
8
0
10
59.510393750000006
20
72.21039375000001
30
0
42
0.198912367379658
0
VERTEX
8
0
10
59.690000000000005
20
72.13600000000001
30
0
0
VERTEX
8
0
10
65.9347875
20
72.13600000000001
30
0
0
VERTEX
8
0
10
74.676
20
63.3947875
30
0
0
VERTEX
8
0
10
74.676
20
45.8252125
30
0
0
VERTEX
8
0
10
73.980021875
20
45.129234375
30
0
0
VERTEX
8
0
10
73.912971875
20
45.157009375
30
0
0
VERTEX
8
0
10
73.84245625
20
45.1784
30
0
0
VERTEX
8
0
10
73.77018125000001
20
45.192778125000004
30
0
0
VERTEX
8
0
10
73.69684375
20
45.2
30
0
0
VERTEX
8
0
10
73.62315625000001
20
45.2
30
0
0
VERTEX
8
0
10
73.54981875
20
45.192778125000004
30
0
0
VERTEX
8
0
10
73.47754375000001
20
45.1784
30
0
0
VERTEX
8
0
10
73.407028125
20
45.157009375
30
0
0
VERTEX
8
0
10
73.338946875
20
45.128809375
30
0
0
VERTEX
8
0
10
73.273959375
20
45.094071875000004
30
0
0
VERTEX
8
0
10
73.2126875
20
45.05313125
30
0
0
VERTEX
8
0
10
73.155721875
20
45.006384375
30
0
0
VERTEX
8
0
10
73.103615625
20
44.954278125
30
0
0
VERTEX
8
0
10
73.05686875
20
44.897312500000005
30
0
0
VERTEX
8
0
10
73.015928125
20
44.836040625
30
0
0
VERTEX
8
0
10
72.981190625
20
44.771053125
30
0
0
VERTEX
8
0
10
72.952990625
20
44.702971875
30
0
0
VERTEX
8
0
10
72.9316
20
44.632456250000004
30
0
0
VERTEX
8
0
10
72.91722187500001
20
44.56018125
30
0
0
VERTEX
8
0
10
72.91
20
44.486843750000006
30
0
0
VERTEX
8
0
10
72.91
20
44.41315625
30
0
0
VERTEX
8
0
10
72.91722187500001
20
44.33981875
30
0
0
VERTEX
8
0
10
72.9316
20
44.26754375
30
0
0
VERTEX
8
0
10
72.952990625
20
44.197028125
30
0
0
VERTEX
8
0
10
72.981190625
20
44.128946875000004
30
0
0
VERTEX
8
0
10
73.015928125
20
44.063959375
30
0
0
VERTEX
8
0
10
73.05686875
20
44.0026875
30
0
0
VERTEX
8
0
10
73.103615625
20
43.945721875000004
30
0
0
VERTEX
8
0
10
73.155721875
20
43.893615625
30
0
0
VERTEX
8
0
10
73.2126875
20
43.84686875
30
0
0
VERTEX
8
0
10
73.273959375
20
43.805928125
30
0
0
VERTEX
8
0
10
73.338946875
20
43.771190625
30
0
0
VERTEX
8
0
10
73.407028125
20
43.742990625000004
30
0
0
VERTEX
8
0
10
73.47754375000001
20
43.7216
30
0
0
VERTEX
8
0
10
73.54981875
20
43.707221875
30
0
0
VERTEX
8
0
10
73.62315625000001
20
43.7
30
0
0
VERTEX
8
0
10
73.69684375
20
43.7
30
0
0
SEQEND
0
POLYLINE
66
1
8
16_copper
10
0.0
20
0.0
30
0.0
70
1
0
VERTEX
8
0
10
61.389934375
20
37.793675
30
0
42
0.1790390709365824
0
VERTEX
8
0
10
61.229743750000004
20
37.72080625
30
0
0
VERTEX
8
0
10
56.25919375
20
32.75025625
30
0
42
0.198912367379658
0
VERTEX
8
0
10
56.1848
20
32.57065
30
0
0
VERTEX
8
0
10
56.1848
20
32.0779625
30
0
0
VERTEX
8
0
10
53.5708375
20
29.464000000000002
30
0
0
VERTEX
8
0
10
52.07
20
29.464000000000002
30
0
42
0.198912367379658
0
VERTEX
8
0
10
51.89039375
20
29.38960625
30
0
0
VERTEX
8
0
10
50.620393750000005
20
28.11960625
30
0
42
0.9999999999999999
0
VERTEX
8
0
10
50.97960625
20
27.760393750000002
30
0
0
VERTEX
8
0
10
52.1752125
20
28.956000000000003
30
0
0
VERTEX
8
0
10
53.676050000000004
20
28.956000000000003
30
0
42
0.198912367379658
0
VERTEX
8
0
10
53.85565625
20
29.03039375
30
0
0
VERTEX
8
0
10
56.61840625
20
31.793143750000002
30
0
42
0.198912367379658
0
VERTEX
8
0
10
56.692800000000005
20
31.97275
30
0
0
VERTEX
8
0
10
56.692800000000005
20
32.4654375
30
0
0
VERTEX
8
0
10
61.514562500000004
20
37.2872
30
0
0
VERTEX
8
0
10
62.230000000000004
20
37.2872
30
0
42
0.198912367379658
0
VERTEX
8
0
10
62.40960625
20
37.361593750000004
30
0
0
VERTEX
8
0
10
64.94960625
20
39.90159375
30
0
42
0.198912367379658
0
VERTEX
8
0
10
65.024
20
40.0812
30
0
0
VERTEX
8
0
10
65.024
20
43.743415625000004
30
0
42
0.9992603110310138
0
VERTEX
8
0
10
64.51702812500001
20
45.157009375
30
0
0
VERTEX
8
0
10
64.448946875
20
45.128809375
30
0
42
0.6676435748927864
0
VERTEX
8
0
10
64.516
20
43.743415625000004
30
0
0
VERTEX
8
0
10
64.516
20
40.1864125
30
0
0
VERTEX
8
0
10
62.124787500000004
20
37.7952
30
0
0
VERTEX
8
0
10
61.40935
20
37.7952
30
0
0
SEQEND
0
POLYLINE
66
1
8
1_copper
10
0.0
20
0.0
30
0.0
70
1
0
VERTEX
8
0
10
4.5212
20
61.935412500000005
30
0
0
VERTEX
8
0
10
4.5212
20
62.5245875
30
0
0
VERTEX
8
0
10
4.1045875
20
62.9412
30
0
0
VERTEX
8
0
10
3.5154125
20
62.9412
30
0
0
VERTEX
8
0
10
3.0988
20
62.5245875
30
0
0
VERTEX
8
0
10
3.0988
20
61.935412500000005
30
0
0
VERTEX
8
0
10
3.5154125
20
61.518800000000006
30
0
0
VERTEX
8
0
10
4.1045875
20
61.518800000000006
30
0
0
SEQEND
0
POLYLINE
66
1
8
1_copper
10
0.0
20
0.0
30
0.0
70
1
0
VERTEX
8
0
10
66.15018125
20
32.277221875
30
0
42
0.7798123037550599
0
VERTEX
8
0
10
66.294
20
33.726584375
30
0
0
VERTEX
8
0
10
66.294
20
39.933415625
30
0
42
0.9992603110310138
0
VERTEX
8
0
10
65.787028125
20
41.347009375
30
0
0
VERTEX
8
0
10
65.718946875
20
41.318809375
30
0
42
0.6676435748927864
0
VERTEX
8
0
10
65.786
20
39.933415625
30
0
0
VERTEX
8
0
10
65.786
20
33.726584375
30
0
0
VERTEX
8
0
10
65.718946875
20
33.698809375
30
0
0
VERTEX
8
0
10
65.653959375
20
33.664071875000005
30
0
0
VERTEX
8
0
10
65.5926875
20
33.62313125
30
0
0
VERTEX
8
0
10
65.53572187500001
20
33.576384375
30
0
0
VERTEX
8
0
10
65.483615625
20
33.524278125
30
0
0
VERTEX
8
0
10
65.43686875
20
33.4673125
30
0
0
VERTEX
8
0
10
65.395928125
20
33.406040625
30
0
0
VERTEX
8
0
10
65.361190625
20
33.341053125
30
0
0
VERTEX
8
0
10
65.33299062500001
20
33.272971875
30
0
0
VERTEX
8
0
10
65.3116
20
33.202456250000004
30
0
0
VERTEX
8
0
10
65.297221875
20
33.13018125
30
0
0
VERTEX
8
0
10
65.29
20
33.05684375
30
0
0
VERTEX
8
0
10
65.29
20
32.98315625
30
0
0
VERTEX
8
0
10
65.297221875
20
32.90981875
30
0
0
VERTEX
8
0
10
65.3116
20
32.83754375
30
0
0
VERTEX
8
0
10
65.33299062500001
20
32.767028125
30
0
0
VERTEX
8
0
10
65.361190625
20
32.698946875000004
30
0
0
VERTEX
8
0
10
65.395928125
20
32.633959375
30
0
0
VERTEX
8
0
10
65.43686875
20
32.5726875
30
0
0
VERTEX
8
0
10
65.483615625
20
32.515721875000004
30
0
0
VERTEX
8
0
10
65.53572187500001
20
32.463615625
30
0
0
VERTEX
8
0
10
65.5926875
20
32.41686875
30
0
0
VERTEX
8
0
10
65.653959375
20
32.375928125
30
0
0
VERTEX
8
0
10
65.718946875
20
32.341190625
30
0
0
VERTEX
8
0
10
65.787028125
20
32.312990625000005
30
0
0
VERTEX
8
0
10
65.85754375
20
32.2916
30
0
0
VERTEX
8
0
10
65.92981875000001
20
32.277221875
30
0
0
VERTEX
8
0
10
66.00315625
20
32.27
30
0
0
VERTEX
8
0
10
66.07684375000001
20
32.27
30
0
0
SEQEND
0
POLYLINE
66
1
8
1_copper
10
0.0
20
0.0
30
0.0
70
1
0
VERTEX
8
0
10
61.620400000000004
20
31.476456250000002
30
0
0
VERTEX
8
0
10
61.620400000000004
20
32.02354375
30
0
0
VERTEX
8
0
10
61.23354375
20
32.4104
30
0
0
VERTEX
8
0
10
60.686456250000006
20
32.4104
30
0
0
VERTEX
8
0
10
60.299600000000005
20
32.02354375
30
0
0
VERTEX
8
0
10
60.299600000000005
20
31.476456250000002
30
0
0
VERTEX
8
0
10
60.686456250000006
20
31.0896
30
0
0
VERTEX
8
0
10
61.23354375
20
31.0896
30
0
0
SEQEND
0
POLYLINE
66
1
8
1_copper
10
0.0
20
0.0
30
0.0
70
1
0
VERTEX
8
0
10
61.7982
20
28.778200000000002
30
0
0
VERTEX
8
0
10
60.1218
20
28.778200000000002
30
0
0
VERTEX
8
0
10
60.1218
20
27.1018
30
0
0
VERTEX
8
0
10
61.7982
20
27.1018
30
0
0
SEQEND
0
POLYLINE
66
1
8
16_copper
10
0.0
20
0.0
30
0.0
70
1
0
VERTEX
8
0
10
6.0200531250000004
20
66.29247500000001
30
0
42
0.1790390709365824
0
VERTEX
8
0
10
5.8598625
20
66.21960625
30
0
0
VERTEX
8
0
10
5.05279375
20
65.4125375
30
0
42
0.198912367379658
0
VERTEX
8
0
10
4.978400000000001
20
65.23293125000001
30
0
0
VERTEX
8
0
10
4.978400000000001
20
63.7576125
30
0
0
VERTEX
8
0
10
4.1332875
20
62.9125
30
0
0
VERTEX
8
0
10
4.1045875
20
62.9412
30
0
0
VERTEX
8
0
10
3.5154125
20
62.9412
30
0
0
VERTEX
8
0
10
3.0988
20
62.5245875
30
0
0
VERTEX
8
0
10
3.0988
20
61.935412500000005
30
0
0
VERTEX
8
0
10
3.5154125
20
61.518800000000006
30
0
0
VERTEX
8
0
10
4.1045875
20
61.518800000000006
30
0
0
VERTEX
8
0
10
4.5212
20
61.935412500000005
30
0
0
VERTEX
8
0
10
4.5212
20
62.5245875
30
0
0
VERTEX
8
0
10
4.492500000000001
20
62.5532875
30
0
0
VERTEX
8
0
10
5.41200625
20
63.47279375
30
0
42
0.198912367379658
0
VERTEX
8
0
10
5.486400000000001
20
63.6524
30
0
0
VERTEX
8
0
10
5.486400000000001
20
65.12771875
30
0
0
VERTEX
8
0
10
6.1446812500000005
20
65.786
30
0
0
VERTEX
8
0
10
26.5647875
20
65.786
30
0
0
VERTEX
8
0
10
28.57319375
20
63.77759375
30
0
42
0.198912367379658
0
VERTEX
8
0
10
28.7528
20
63.7032
30
0
0
VERTEX
8
0
10
58.939937500000006
20
63.7032
30
0
0
VERTEX
8
0
10
67.5132
20
55.129937500000004
30
0
0
VERTEX
8
0
10
67.5132
20
42.472412500000004
30
0
0
VERTEX
8
0
10
66.360021875
20
41.319234375
30
0
42
0.9992584806102781
0
VERTEX
8
0
10
65.718946875
20
39.961190625
30
0
0
VERTEX
8
0
10
65.787028125
20
39.932990625
30
0
42
0.667642312984593
0
VERTEX
8
0
10
66.719234375
20
40.960021875
30
0
0
VERTEX
8
0
10
67.94680625000001
20
42.187593750000005
30
0
42
0.198912367379658
0
VERTEX
8
0
10
68.02120000000001
20
42.367200000000004
30
0
0
VERTEX
8
0
10
68.02120000000001
20
55.235150000000004
30
0
42
0.198912367379658
0
VERTEX
8
0
10
67.94680625000001
20
55.41475625
30
0
0
VERTEX
8
0
10
59.224756250000006
20
64.13680625
30
0
42
0.198912367379658
0
VERTEX
8
0
10
59.04515
20
64.2112
30
0
0
VERTEX
8
0
10
28.8580125
20
64.2112
30
0
0
VERTEX
8
0
10
26.84960625
20
66.21960625
30
0
42
0.198912367379658
0
VERTEX
8
0
10
26.67
20
66.294
30
0
0
VERTEX
8
0
10
6.03946875
20
66.294
30
0
0
SEQEND
0
POLYLINE
66
1
8
16_copper
10
0.0
20
0.0
30
0.0
70
1
0
VERTEX
8
0
10
61.7982
20
28.778200000000002
30
0
0
VERTEX
8
0
10
61.214000000000006
20
28.778200000000002
30
0
0
VERTEX
8
0
10
61.214000000000006
20
31.0896
30
0
0
VERTEX
8
0
10
61.23354375
20
31.0896
30
0
0
VERTEX
8
0
10
61.620400000000004
20
31.476456250000002
30
0
0
VERTEX
8
0
10
61.620400000000004
20
31.496000000000002
30
0
0
VERTEX
8
0
10
64.77
20
31.496000000000002
30
0
42
0.198912367379658
0
VERTEX
8
0
10
64.94960625
20
31.57039375
30
0
0
VERTEX
8
0
10
65.719978125
20
32.340765625
30
0
42
0.9992584806102781
0
VERTEX
8
0
10
66.361053125
20
33.698809375
30
0
0
VERTEX
8
0
10
66.292971875
20
33.727009375
30
0
42
0.667642312984593
0
VERTEX
8
0
10
65.360765625
20
32.699978125
30
0
0
VERTEX
8
0
10
64.6647875
20
32.004000000000005
30
0
0
VERTEX
8
0
10
61.620400000000004
20
32.004000000000005
30
0
0
VERTEX
8
0
10
61.620400000000004
20
32.02354375
30
0
0
VERTEX
8
0
10
61.23354375
20
32.4104
30
0
0
VERTEX
8
0
10
60.686456250000006
20
32.4104
30
0
0
VERTEX
8
0
10
60.299600000000005
20
32.02354375
30
0
0
VERTEX
8
0
10
60.299600000000005
20
31.476456250000002
30
0
0
VERTEX
8
0
10
60.686456250000006
20
31.0896
30
0
0
VERTEX
8
0
10
60.706
20
31.0896
30
0
0
VERTEX
8
0
10
60.706
20
28.778200000000002
30
0
0
VERTEX
8
0
10
60.1218
20
28.778200000000002
30
0
0
VERTEX
8
0
10
60.1218
20
27.1018
30
0
0
VERTEX
8
0
10
61.7982
20
27.1018
30
0
0
SEQEND
0
POLYLINE
66
1
8
1_copper
10
0.0
20
0.0
30
0.0
70
1
0
VERTEX
8
0
10
91.55194375
20
74.68333750000001
30
0
42
0.3578057741447831
0
VERTEX
8
0
10
92.202
20
75.400565625
30
0
0
VERTEX
8
0
10
92.202
20
76.999434375
30
0
42
0.9520795017710562
0
VERTEX
8
0
10
90.678
20
76.999434375
30
0
0
VERTEX
8
0
10
90.678
20
75.400565625
30
0
0
VERTEX
8
0
10
90.6853375
20
75.32605625000001
30
0
0
VERTEX
8
0
10
90.69994375
20
75.25262500000001
30
0
0
VERTEX
8
0
10
90.72167812500001
20
75.18098125
30
0
0
VERTEX
8
0
10
90.75032812500001
20
75.111809375
30
0
0
VERTEX
8
0
10
90.785621875
20
75.04578125
30
0
0
VERTEX
8
0
10
90.82721875
20
74.98353125
30
0
0
VERTEX
8
0
10
90.87471562500001
20
74.92565625
30
0
0
VERTEX
8
0
10
90.92765625
20
74.872715625
30
0
0
VERTEX
8
0
10
90.98553125000001
20
74.82521875
30
0
0
VERTEX
8
0
10
91.04778125
20
74.78362187500001
30
0
0
VERTEX
8
0
10
91.113809375
20
74.748328125
30
0
0
VERTEX
8
0
10
91.18298125
20
74.719678125
30
0
0
VERTEX
8
0
10
91.254625
20
74.69794375000001
30
0
0
VERTEX
8
0
10
91.32805625
20
74.68333750000001
30
0
0
VERTEX
8
0
10
91.40256562500001
20
74.676
30
0
0
VERTEX
8
0
10
91.477434375
20
74.676
30
0
0
SEQEND
0
POLYLINE
66
1
8
1_copper
10
0.0
20
0.0
30
0.0
70
1
0
VERTEX
8
0
10
61.07194375
20
74.68333750000001
30
0
42
0.3578057741447831
0
VERTEX
8
0
10
61.722
20
75.400565625
30
0
0
VERTEX
8
0
10
61.722
20
76.999434375
30
0
42
0.9520795017710562
0
VERTEX
8
0
10
60.198
20
76.999434375
30
0
0
VERTEX
8
0
10
60.198
20
75.400565625
30
0
0
VERTEX
8
0
10
60.205337500000006
20
75.32605625000001
30
0
0
VERTEX
8
0
10
60.219943750000006
20
75.25262500000001
30
0
0
VERTEX
8
0
10
60.241678125
20
75.18098125
30
0
0
VERTEX
8
0
10
60.270328125000006
20
75.111809375
30
0
0
VERTEX
8
0
10
60.305621875
20
75.04578125
30
0
0
VERTEX
8
0
10
60.34721875
20
74.98353125
30
0
0
VERTEX
8
0
10
60.394715625
20
74.92565625
30
0
0
VERTEX
8
0
10
60.44765625
20
74.872715625
30
0
0
VERTEX
8
0
10
60.505531250000004
20
74.82521875
30
0
0
VERTEX
8
0
10
60.56778125
20
74.78362187500001
30
0
0
VERTEX
8
0
10
60.633809375000006
20
74.748328125
30
0
0
VERTEX
8
0
10
60.70298125
20
74.719678125
30
0
0
VERTEX
8
0
10
60.774625
20
74.69794375000001
30
0
0
VERTEX
8
0
10
60.848056250000006
20
74.68333750000001
30
0
0
VERTEX
8
0
10
60.922565625000004
20
74.676
30
0
0
VERTEX
8
0
10
60.997434375000005
20
74.676
30
0
0
SEQEND
0
POLYLINE
66
1
8
1_copper
10
0.0
20
0.0
30
0.0
70
1
0
VERTEX
8
0
10
71.23194375
20
74.68333750000001
30
0
42
0.3578057741447831
0
VERTEX
8
0
10
71.882
20
75.400565625
30
0
0
VERTEX
8
0
10
71.882
20
76.999434375
30
0
42
0.9520795017710562
0
VERTEX
8
0
10
70.358
20
76.999434375
30
0
0
VERTEX
8
0
10
70.358
20
75.400565625
30
0
0
VERTEX
8
0
10
70.36533750000001
20
75.32605625000001
30
0
0
VERTEX
8
0
10
70.37994375000001
20
75.25262500000001
30
0
0
VERTEX
8
0
10
70.401678125
20
75.18098125
30
0
0
VERTEX
8
0
10
70.430328125
20
75.111809375
30
0
0
VERTEX
8
0
10
70.465621875
20
75.04578125
30
0
0
VERTEX
8
0
10
70.50721875
20
74.98353125
30
0
0
VERTEX
8
0
10
70.554715625
20
74.92565625
30
0
0
VERTEX
8
0
10
70.60765625
20
74.872715625
30
0
0
VERTEX
8
0
10
70.66553125
20
74.82521875
30
0
0
VERTEX
8
0
10
70.72778125
20
74.78362187500001
30
0
0
VERTEX
8
0
10
70.79380937500001
20
74.748328125
30
0
0
VERTEX
8
0
10
70.86298125
20
74.719678125
30
0
0
VERTEX
8
0
10
70.934625
20
74.69794375000001
30
0
0
VERTEX
8
0
10
71.00805625000001
20
74.68333750000001
30
0
0
VERTEX
8
0
10
71.082565625
20
74.676
30
0
0
VERTEX
8
0
10
71.15743437500001
20
74.676
30
0
0
SEQEND
0
POLYLINE
66
1
8
1_copper
10
0.0
20
0.0
30
0.0
70
1
0
VERTEX
8
0
10
81.39194375000001
20
74.68333750000001
30
0
42
0.3578057741447831
0
VERTEX
8
0
10
82.042
20
75.400565625
30
0
0
VERTEX
8
0
10
82.042
20
76.999434375
30
0
42
0.9520795017710562
0
VERTEX
8
0
10
80.518
20
76.999434375
30
0
0
VERTEX
8
0
10
80.518
20
75.400565625
30
0
0
VERTEX
8
0
10
80.5253375
20
75.32605625000001
30
0
0
VERTEX
8
0
10
80.53994375
20
75.25262500000001
30
0
0
VERTEX
8
0
10
80.561678125
20
75.18098125
30
0
0
VERTEX
8
0
10
80.590328125
20
75.111809375
30
0
0
VERTEX
8
0
10
80.62562187500001
20
75.04578125
30
0
0
VERTEX
8
0
10
80.66721875
20
74.98353125
30
0
0
VERTEX
8
0
10
80.71471562500001
20
74.92565625
30
0
0
VERTEX
8
0
10
80.76765625
20
74.872715625
30
0
0
VERTEX
8
0
10
80.82553125
20
74.82521875
30
0
0
VERTEX
8
0
10
80.88778125
20
74.78362187500001
30
0
0
VERTEX
8
0
10
80.953809375
20
74.748328125
30
0
0
VERTEX
8
0
10
81.02298125
20
74.719678125
30
0
0
VERTEX
8
0
10
81.09462500000001
20
74.69794375000001
30
0
0
VERTEX
8
0
10
81.16805625
20
74.68333750000001
30
0
0
VERTEX
8
0
10
81.242565625
20
74.676
30
0
0
VERTEX
8
0
10
81.317434375
20
74.676
30
0
0
SEQEND
0
POLYLINE
66
1
8
1_copper
10
0.0
20
0.0
30
0.0
70
1
0
VERTEX
8
0
10
20.832
20
72.14200000000001
30
0
0
VERTEX
8
0
10
19.308
20
72.14200000000001
30
0
0
VERTEX
8
0
10
19.308
20
70.61800000000001
30
0
0
VERTEX
8
0
10
20.832
20
70.61800000000001
30
0
0
SEQEND
0
POLYLINE
66
1
8
1_copper
10
0.0
20
0.0
30
0.0
70
1
0
VERTEX
8
0
10
7.0612
20
64.4754125
30
0
0
VERTEX
8
0
10
7.0612
20
65.0645875
30
0
0
VERTEX
8
0
10
6.6445875
20
65.4812
30
0
0
VERTEX
8
0
10
6.0554125
20
65.4812
30
0
0
VERTEX
8
0
10
5.638800000000001
20
65.0645875
30
0
0
VERTEX
8
0
10
5.638800000000001
20
64.4754125
30
0
0
VERTEX
8
0
10
6.0554125
20
64.0588
30
0
0
VERTEX
8
0
10
6.6445875
20
64.0588
30
0
0
SEQEND
0
POLYLINE
66
1
8
1_copper
10
0.0
20
0.0
30
0.0
70
1
0
VERTEX
8
0
10
7.0612
20
61.935412500000005
30
0
0
VERTEX
8
0
10
7.0612
20
62.5245875
30
0
0
VERTEX
8
0
10
6.6445875
20
62.9412
30
0
0
VERTEX
8
0
10
6.0554125
20
62.9412
30
0
0
VERTEX
8
0
10
5.638800000000001
20
62.5245875
30
0
0
VERTEX
8
0
10
5.638800000000001
20
61.935412500000005
30
0
0
VERTEX
8
0
10
6.0554125
20
61.518800000000006
30
0
0
VERTEX
8
0
10
6.6445875
20
61.518800000000006
30
0
0
SEQEND
0
POLYLINE
66
1
8
1_copper
10
0.0
20
0.0
30
0.0
70
1
0
VERTEX
8
0
10
7.0612
20
59.395412500000006
30
0
0
VERTEX
8
0
10
7.0612
20
59.9845875
30
0
0
VERTEX
8
0
10
6.6445875
20
60.4012
30
0
0
VERTEX
8
0
10
6.0554125
20
60.4012
30
0
0
VERTEX
8
0
10
5.638800000000001
20
59.9845875
30
0
0
VERTEX
8
0
10
5.638800000000001
20
59.395412500000006
30
0
0
VERTEX
8
0
10
6.0554125
20
58.9788
30
0
0
VERTEX
8
0
10
6.6445875
20
58.9788
30
0
0
SEQEND
0
POLYLINE
66
1
8
1_copper
10
0.0
20
0.0
30
0.0
70
1
0
VERTEX
8
0
10
7.0612
20
56.8554125
30
0
0
VERTEX
8
0
10
7.0612
20
57.444587500000004
30
0
0
VERTEX
8
0
10
6.6445875
20
57.861200000000004
30
0
0
VERTEX
8
0
10
6.0554125
20
57.861200000000004
30
0
0
VERTEX
8
0
10
5.638800000000001
20
57.444587500000004
30
0
0
VERTEX
8
0
10
5.638800000000001
20
56.8554125
30
0
0
VERTEX
8
0
10
6.0554125
20
56.4388
30
0
0
VERTEX
8
0
10
6.6445875
20
56.4388
30
0
0
SEQEND
0
POLYLINE
66
1
8
1_copper
10
0.0
20
0.0
30
0.0
70
1
0
VERTEX
8
0
10
42.5704
20
37.82645625
30
0
0
VERTEX
8
0
10
42.5704
20
38.37354375
30
0
0
VERTEX
8
0
10
42.183543750000005
20
38.760400000000004
30
0
0
VERTEX
8
0
10
41.63645625
20
38.760400000000004
30
0
0
VERTEX
8
0
10
41.2496
20
38.37354375
30
0
0
VERTEX
8
0
10
41.2496
20
37.82645625
30
0
0
VERTEX
8
0
10
41.63645625
20
37.4396
30
0
0
VERTEX
8
0
10
42.183543750000005
20
37.4396
30
0
0
SEQEND
0
POLYLINE
66
1
8
1_copper
10
0.0
20
0.0
30
0.0
70
1
0
VERTEX
8
0
10
89.01194375
20
31.5033375
30
0
42
0.3578057741447831
0
VERTEX
8
0
10
89.662
20
32.220565625
30
0
0
VERTEX
8
0
10
89.662
20
33.819434375
30
0
42
0.9520795017710562
0
VERTEX
8
0
10
88.138
20
33.819434375
30
0
0
VERTEX
8
0
10
88.138
20
32.220565625
30
0
0
VERTEX
8
0
10
88.14533750000001
20
32.14605625
30
0
0
VERTEX
8
0
10
88.15994375000001
20
32.072625
30
0
0
VERTEX
8
0
10
88.181678125
20
32.00098125
30
0
0
VERTEX
8
0
10
88.210328125
20
31.931809375
30
0
0
VERTEX
8
0
10
88.245621875
20
31.86578125
30
0
0
VERTEX
8
0
10
88.28721875000001
20
31.803531250000002
30
0
0
VERTEX
8
0
10
88.334715625
20
31.745656250000003
30
0
0
VERTEX
8
0
10
88.38765625
20
31.692715625
30
0
0
VERTEX
8
0
10
88.44553125
20
31.64521875
30
0
0
VERTEX
8
0
10
88.50778125000001
20
31.603621875
30
0
0
VERTEX
8
0
10
88.57380937500001
20
31.568328125
30
0
0
VERTEX
8
0
10
88.64298125
20
31.539678125000002
30
0
0
VERTEX
8
0
10
88.714625
20
31.51794375
30
0
0
VERTEX
8
0
10
88.78805625000001
20
31.5033375
30
0
0
VERTEX
8
0
10
88.862565625
20
31.496000000000002
30
0
0
VERTEX
8
0
10
88.93743437500001
20
31.496000000000002
30
0
0
SEQEND
0
POLYLINE
66
1
8
1_copper
10
0.0
20
0.0
30
0.0
70
1
0
VERTEX
8
0
10
42.710100000000004
20
32.688590625
30
0
0
VERTEX
8
0
10
42.710100000000004
20
33.351409375
30
0
0
VERTEX
8
0
10
42.241409375
20
33.820100000000004
30
0
0
VERTEX
8
0
10
41.578590625000004
20
33.820100000000004
30
0
0
VERTEX
8
0
10
41.1099
20
33.351409375
30
0
0
VERTEX
8
0
10
41.1099
20
32.688590625
30
0
0
VERTEX
8
0
10
41.578590625000004
20
32.2199
30
0
0
VERTEX
8
0
10
42.241409375
20
32.2199
30
0
0
SEQEND
0
POLYLINE
66
1
8
1_copper
10
0.0
20
0.0
30
0.0
70
1
0
VERTEX
8
0
10
10.1981
20
30.148590625
30
0
0
VERTEX
8
0
10
10.1981
20
30.811409375
30
0
0
VERTEX
8
0
10
9.729409375000001
20
31.2801
30
0
0
VERTEX
8
0
10
9.066590625
20
31.2801
30
0
0
VERTEX
8
0
10
8.597900000000001
20
30.811409375
30
0
0
VERTEX
8
0
10
8.597900000000001
20
30.148590625
30
0
0
VERTEX
8
0
10
9.066590625
20
29.6799
30
0
0
VERTEX
8
0
10
9.729409375000001
20
29.6799
30
0
0
SEQEND
0
POLYLINE
66
1
8
1_copper
10
0.0
20
0.0
30
0.0
70
1
0
VERTEX
8
0
10
46.3804
20
17.50645625
30
0
0
VERTEX
8
0
10
46.3804
20
18.05354375
30
0
0
VERTEX
8
0
10
45.99354375
20
18.4404
30
0
0
VERTEX
8
0
10
45.446456250000004
20
18.4404
30
0
0
VERTEX
8
0
10
45.0596
20
18.05354375
30
0
0
VERTEX
8
0
10
45.0596
20
17.50645625
30
0
0
VERTEX
8
0
10
45.446456250000004
20
17.119600000000002
30
0
0
VERTEX
8
0
10
45.99354375
20
17.119600000000002
30
0
0
SEQEND
0
POLYLINE
66
1
8
1_copper
10
0.0
20
0.0
30
0.0
70
1
0
VERTEX
8
0
10
7.29065
20
5.6276093750000005
30
0
42
0.3639699917874411
0
VERTEX
8
0
10
8.16
20
6.5763375
30
0
0
VERTEX
8
0
10
8.16
20
8.663662500000001
30
0
42
0.9572902530839056
0
VERTEX
8
0
10
6.16
20
8.663662500000001
30
0
0
VERTEX
8
0
10
6.16
20
6.5763375
30
0
0
VERTEX
8
0
10
6.1676093750000005
20
6.48935
30
0
0
VERTEX
8
0
10
6.182775
20
6.403353125000001
30
0
0
VERTEX
8
0
10
6.205375
20
6.31900625
30
0
0
VERTEX
8
0
10
6.235240625
20
6.236953125
30
0
0
VERTEX
8
0
10
6.272143750000001
20
6.1578125
30
0
0
VERTEX
8
0
10
6.3158062500000005
20
6.0821875
30
0
0
VERTEX
8
0
10
6.3658906250000005
20
6.010659375
30
0
0
VERTEX
8
0
10
6.42201875
20
5.943765625
30
0
0
VERTEX
8
0
10
6.483765625
20
5.88201875
30
0
0
VERTEX
8
0
10
6.550659375
20
5.825890625
30
0
0
VERTEX
8
0
10
6.6221875
20
5.7758062500000005
30
0
0
VERTEX
8
0
10
6.6978125
20
5.7321437500000005
30
0
0
VERTEX
8
0
10
6.776953125
20
5.695240625
30
0
0
VERTEX
8
0
10
6.85900625
20
5.665375
30
0
0
VERTEX
8
0
10
6.943353125000001
20
5.642775
30
0
0
VERTEX
8
0
10
7.02935
20
5.6276093750000005
30
0
0
VERTEX
8
0
10
7.1163375
20
5.62
30
0
0
VERTEX
8
0
10
7.2036625
20
5.62
30
0
0
SEQEND
0
POLYLINE
66
1
8
1_copper
10
0.0
20
0.0
30
0.0
70
1
0
VERTEX
8
0
10
32.065143750000004
20
4.604737500000001
30
0
42
0.9063472543261978
0
VERTEX
8
0
10
31.990634375000003
20
6.1214
30
0
0
VERTEX
8
0
10
30.391765625
20
6.1214
30
0
42
0.9520795017710562
0
VERTEX
8
0
10
30.391765625
20
4.5974
30
0
0
VERTEX
8
0
10
31.990634375000003
20
4.5974
30
0
0
SEQEND
0
POLYLINE
66
1
8
1_copper
10
0.0
20
0.0
30
0.0
70
1
0
VERTEX
8
0
10
43.495143750000004
20
4.604737500000001
30
0
42
0.9063472543261978
0
VERTEX
8
0
10
43.420634375
20
6.1214
30
0
0
VERTEX
8
0
10
41.821765625000005
20
6.1214
30
0
42
0.9520795017710562
0
VERTEX
8
0
10
41.821765625000005
20
4.5974
30
0
0
VERTEX
8
0
10
43.420634375
20
4.5974
30
0
0
SEQEND
0
POLYLINE
66
1
8
1_copper
10
0.0
20
0.0
30
0.0
70
1
0
VERTEX
8
0
10
54.925143750000004
20
4.604737500000001
30
0
42
0.9063472543261978
0
VERTEX
8
0
10
54.850634375000006
20
6.1214
30
0
0
VERTEX
8
0
10
53.251765625000004
20
6.1214
30
0
42
0.9520795017710562
0
VERTEX
8
0
10
53.251765625000004
20
4.5974
30
0
0
VERTEX
8
0
10
54.850634375000006
20
4.5974
30
0
0
SEQEND
0
POLYLINE
66
1
8
1_copper
10
0.0
20
0.0
30
0.0
70
1
0
VERTEX
8
0
10
66.35514375
20
4.604737500000001
30
0
42
0.9063472543261978
0
VERTEX
8
0
10
66.280634375
20
6.1214
30
0
0
VERTEX
8
0
10
64.681765625
20
6.1214
30
0
42
0.9520795017710562
0
VERTEX
8
0
10
64.681765625
20
4.5974
30
0
0
VERTEX
8
0
10
66.280634375
20
4.5974
30
0
0
SEQEND
0
POLYLINE
66
1
8
16_copper
10
0.0
20
0.0
30
0.0
70
1
0
VERTEX
8
0
10
91.55194375
20
74.68333750000001
30
0
42
0.3578057741447831
0
VERTEX
8
0
10
92.202
20
75.400565625
30
0
0
VERTEX
8
0
10
92.202
20
76.999434375
30
0
42
0.9520795017710562
0
VERTEX
8
0
10
90.678
20
76.999434375
30
0
0
VERTEX
8
0
10
90.678
20
75.400565625
30
0
0
VERTEX
8
0
10
90.6853375
20
75.32605625000001
30
0
0
VERTEX
8
0
10
90.69994375
20
75.25262500000001
30
0
0
VERTEX
8
0
10
90.72167812500001
20
75.18098125
30
0
0
VERTEX
8
0
10
90.75032812500001
20
75.111809375
30
0
0
VERTEX
8
0
10
90.785621875
20
75.04578125
30
0
0
VERTEX
8
0
10
90.82721875
20
74.98353125
30
0
0
VERTEX
8
0
10
90.87471562500001
20
74.92565625
30
0
0
VERTEX
8
0
10
90.92765625
20
74.872715625
30
0
0
VERTEX
8
0
10
90.98553125000001
20
74.82521875
30
0
0
VERTEX
8
0
10
91.04778125
20
74.78362187500001
30
0
0
VERTEX
8
0
10
91.113809375
20
74.748328125
30
0
0
VERTEX
8
0
10
91.18298125
20
74.719678125
30
0
0
VERTEX
8
0
10
91.254625
20
74.69794375000001
30
0
0
VERTEX
8
0
10
91.32805625
20
74.68333750000001
30
0
0
VERTEX
8
0
10
91.40256562500001
20
74.676
30
0
0
VERTEX
8
0
10
91.477434375
20
74.676
30
0
0
SEQEND
0
POLYLINE
66
1
8
16_copper
10
0.0
20
0.0
30
0.0
70
1
0
VERTEX
8
0
10
61.07194375
20
74.68333750000001
30
0
42
0.3578057741447831
0
VERTEX
8
0
10
61.722
20
75.400565625
30
0
0
VERTEX
8
0
10
61.722
20
76.999434375
30
0
42
0.9520795017710562
0
VERTEX
8
0
10
60.198
20
76.999434375
30
0
0
VERTEX
8
0
10
60.198
20
75.400565625
30
0
0
VERTEX
8
0
10
60.205337500000006
20
75.32605625000001
30
0
0
VERTEX
8
0
10
60.219943750000006
20
75.25262500000001
30
0
0
VERTEX
8
0
10
60.241678125
20
75.18098125
30
0
0
VERTEX
8
0
10
60.270328125000006
20
75.111809375
30
0
0
VERTEX
8
0
10
60.305621875
20
75.04578125
30
0
0
VERTEX
8
0
10
60.34721875
20
74.98353125
30
0
0
VERTEX
8
0
10
60.394715625
20
74.92565625
30
0
0
VERTEX
8
0
10
60.44765625
20
74.872715625
30
0
0
VERTEX
8
0
10
60.505531250000004
20
74.82521875
30
0
0
VERTEX
8
0
10
60.56778125
20
74.78362187500001
30
0
0
VERTEX
8
0
10
60.633809375000006
20
74.748328125
30
0
0
VERTEX
8
0
10
60.70298125
20
74.719678125
30
0
0
VERTEX
8
0
10
60.774625
20
74.69794375000001
30
0
0
VERTEX
8
0
10
60.848056250000006
20
74.68333750000001
30
0
0
VERTEX
8
0
10
60.922565625000004
20
74.676
30
0
0
VERTEX
8
0
10
60.997434375000005
20
74.676
30
0
0
SEQEND
0
POLYLINE
66
1
8
16_copper
10
0.0
20
0.0
30
0.0
70
1
0
VERTEX
8
0
10
71.23194375
20
74.68333750000001
30
0
42
0.3578057741447831
0
VERTEX
8
0
10
71.882
20
75.400565625
30
0
0
VERTEX
8
0
10
71.882
20
76.999434375
30
0
42
0.9520795017710562
0
VERTEX
8
0
10
70.358
20
76.999434375
30
0
0
VERTEX
8
0
10
70.358
20
75.400565625
30
0
0
VERTEX
8
0
10
70.36533750000001
20
75.32605625000001
30
0
0
VERTEX
8
0
10
70.37994375000001
20
75.25262500000001
30
0
0
VERTEX
8
0
10
70.401678125
20
75.18098125
30
0
0
VERTEX
8
0
10
70.430328125
20
75.111809375
30
0
0
VERTEX
8
0
10
70.465621875
20
75.04578125
30
0
0
VERTEX
8
0
10
70.50721875
20
74.98353125
30
0
0
VERTEX
8
0
10
70.554715625
20
74.92565625
30
0
0
VERTEX
8
0
10
70.60765625
20
74.872715625
30
0
0
VERTEX
8
0
10
70.66553125
20
74.82521875
30
0
0
VERTEX
8
0
10
70.72778125
20
74.78362187500001
30
0
0
VERTEX
8
0
10
70.79380937500001
20
74.748328125
30
0
0
VERTEX
8
0
10
70.86298125
20
74.719678125
30
0
0
VERTEX
8
0
10
70.934625
20
74.69794375000001
30
0
0
VERTEX
8
0
10
71.00805625000001
20
74.68333750000001
30
0
0
VERTEX
8
0
10
71.082565625
20
74.676
30
0
0
VERTEX
8
0
10
71.15743437500001
20
74.676
30
0
0
SEQEND
0
POLYLINE
66
1
8
16_copper
10
0.0
20
0.0
30
0.0
70
1
0
VERTEX
8
0
10
81.39194375000001
20
74.68333750000001
30
0
42
0.3578057741447831
0
VERTEX
8
0
10
82.042
20
75.400565625
30
0
0
VERTEX
8
0
10
82.042
20
76.999434375
30
0
42
0.9520795017710562
0
VERTEX
8
0
10
80.518
20
76.999434375
30
0
0
VERTEX
8
0
10
80.518
20
75.400565625
30
0
0
VERTEX
8
0
10
80.5253375
20
75.32605625000001
30
0
0
VERTEX
8
0
10
80.53994375
20
75.25262500000001
30
0
0
VERTEX
8
0
10
80.561678125
20
75.18098125
30
0
0
VERTEX
8
0
10
80.590328125
20
75.111809375
30
0
0
VERTEX
8
0
10
80.62562187500001
20
75.04578125
30
0
0
VERTEX
8
0
10
80.66721875
20
74.98353125
30
0
0
VERTEX
8
0
10
80.71471562500001
20
74.92565625
30
0
0
VERTEX
8
0
10
80.76765625
20
74.872715625
30
0
0
VERTEX
8
0
10
80.82553125
20
74.82521875
30
0
0
VERTEX
8
0
10
80.88778125
20
74.78362187500001
30
0
0
VERTEX
8
0
10
80.953809375
20
74.748328125
30
0
0
VERTEX
8
0
10
81.02298125
20
74.719678125
30
0
0
VERTEX
8
0
10
81.09462500000001
20
74.69794375000001
30
0
0
VERTEX
8
0
10
81.16805625
20
74.68333750000001
30
0
0
VERTEX
8
0
10
81.242565625
20
74.676
30
0
0
VERTEX
8
0
10
81.317434375
20
74.676
30
0
0
SEQEND
0
POLYLINE
66
1
8
16_copper
10
0.0
20
0.0
30
0.0
70
1
0
VERTEX
8
0
10
20.832
20
72.14200000000001
30
0
0
VERTEX
8
0
10
19.308
20
72.14200000000001
30
0
0
VERTEX
8
0
10
19.308
20
70.61800000000001
30
0
0
VERTEX
8
0
10
20.832
20
70.61800000000001
30
0
0
SEQEND
0
POLYLINE
66
1
8
16_copper
10
0.0
20
0.0
30
0.0
70
1
0
VERTEX
8
0
10
7.0612
20
64.4754125
30
0
0
VERTEX
8
0
10
7.0612
20
65.0645875
30
0
0
VERTEX
8
0
10
6.6445875
20
65.4812
30
0
0
VERTEX
8
0
10
6.0554125
20
65.4812
30
0
0
VERTEX
8
0
10
5.638800000000001
20
65.0645875
30
0
0
VERTEX
8
0
10
5.638800000000001
20
64.4754125
30
0
0
VERTEX
8
0
10
6.0554125
20
64.0588
30
0
0
VERTEX
8
0
10
6.6445875
20
64.0588
30
0
0
SEQEND
0
POLYLINE
66
1
8
16_copper
10
0.0
20
0.0
30
0.0
70
1
0
VERTEX
8
0
10
7.0612
20
61.935412500000005
30
0
0
VERTEX
8
0
10
7.0612
20
62.5245875
30
0
0
VERTEX
8
0
10
6.6445875
20
62.9412
30
0
0
VERTEX
8
0
10
6.0554125
20
62.9412
30
0
0
VERTEX
8
0
10
5.638800000000001
20
62.5245875
30
0
0
VERTEX
8
0
10
5.638800000000001
20
61.935412500000005
30
0
0
VERTEX
8
0
10
6.0554125
20
61.518800000000006
30
0
0
VERTEX
8
0
10
6.6445875
20
61.518800000000006
30
0
0
SEQEND
0
POLYLINE
66
1
8
16_copper
10
0.0
20
0.0
30
0.0
70
1
0
VERTEX
8
0
10
7.0612
20
59.395412500000006
30
0
0
VERTEX
8
0
10
7.0612
20
59.9845875
30
0
0
VERTEX
8
0
10
6.6445875
20
60.4012
30
0
0
VERTEX
8
0
10
6.0554125
20
60.4012
30
0
0
VERTEX
8
0
10
5.638800000000001
20
59.9845875
30
0
0
VERTEX
8
0
10
5.638800000000001
20
59.395412500000006
30
0
0
VERTEX
8
0
10
6.0554125
20
58.9788
30
0
0
VERTEX
8
0
10
6.6445875
20
58.9788
30
0
0
SEQEND
0
POLYLINE
66
1
8
16_copper
10
0.0
20
0.0
30
0.0
70
1
0
VERTEX
8
0
10
7.0612
20
56.8554125
30
0
0
VERTEX
8
0
10
7.0612
20
57.444587500000004
30
0
0
VERTEX
8
0
10
6.6445875
20
57.861200000000004
30
0
0
VERTEX
8
0
10
6.0554125
20
57.861200000000004
30
0
0
VERTEX
8
0
10
5.638800000000001
20
57.444587500000004
30
0
0
VERTEX
8
0
10
5.638800000000001
20
56.8554125
30
0
0
VERTEX
8
0
10
6.0554125
20
56.4388
30
0
0
VERTEX
8
0
10
6.6445875
20
56.4388
30
0
0
SEQEND
0
POLYLINE
66
1
8
16_copper
10
0.0
20
0.0
30
0.0
70
1
0
VERTEX
8
0
10
42.5704
20
37.82645625
30
0
0
VERTEX
8
0
10
42.5704
20
38.37354375
30
0
0
VERTEX
8
0
10
42.183543750000005
20
38.760400000000004
30
0
0
VERTEX
8
0
10
41.63645625
20
38.760400000000004
30
0
0
VERTEX
8
0
10
41.2496
20
38.37354375
30
0
0
VERTEX
8
0
10
41.2496
20
37.82645625
30
0
0
VERTEX
8
0
10
41.63645625
20
37.4396
30
0
0
VERTEX
8
0
10
42.183543750000005
20
37.4396
30
0
0
SEQEND
0
POLYLINE
66
1
8
16_copper
10
0.0
20
0.0
30
0.0
70
1
0
VERTEX
8
0
10
89.01194375
20
31.5033375
30
0
42
0.3578057741447831
0
VERTEX
8
0
10
89.662
20
32.220565625
30
0
0
VERTEX
8
0
10
89.662
20
33.819434375
30
0
42
0.9520795017710562
0
VERTEX
8
0
10
88.138
20
33.819434375
30
0
0
VERTEX
8
0
10
88.138
20
32.220565625
30
0
0
VERTEX
8
0
10
88.14533750000001
20
32.14605625
30
0
0
VERTEX
8
0
10
88.15994375000001
20
32.072625
30
0
0
VERTEX
8
0
10
88.181678125
20
32.00098125
30
0
0
VERTEX
8
0
10
88.210328125
20
31.931809375
30
0
0
VERTEX
8
0
10
88.245621875
20
31.86578125
30
0
0
VERTEX
8
0
10
88.28721875000001
20
31.803531250000002
30
0
0
VERTEX
8
0
10
88.334715625
20
31.745656250000003
30
0
0
VERTEX
8
0
10
88.38765625
20
31.692715625
30
0
0
VERTEX
8
0
10
88.44553125
20
31.64521875
30
0
0
VERTEX
8
0
10
88.50778125000001
20
31.603621875
30
0
0
VERTEX
8
0
10
88.57380937500001
20
31.568328125
30
0
0
VERTEX
8
0
10
88.64298125
20
31.539678125000002
30
0
0
VERTEX
8
0
10
88.714625
20
31.51794375
30
0
0
VERTEX
8
0
10
88.78805625000001
20
31.5033375
30
0
0
VERTEX
8
0
10
88.862565625
20
31.496000000000002
30
0
0
VERTEX
8
0
10
88.93743437500001
20
31.496000000000002
30
0
0
SEQEND
0
POLYLINE
66
1
8
16_copper
10
0.0
20
0.0
30
0.0
70
1
0
VERTEX
8
0
10
42.710100000000004
20
32.688590625
30
0
0
VERTEX
8
0
10
42.710100000000004
20
33.351409375
30
0
0
VERTEX
8
0
10
42.241409375
20
33.820100000000004
30
0
0
VERTEX
8
0
10
41.578590625000004
20
33.820100000000004
30
0
0
VERTEX
8
0
10
41.1099
20
33.351409375
30
0
0
VERTEX
8
0
10
41.1099
20
32.688590625
30
0
0
VERTEX
8
0
10
41.578590625000004
20
32.2199
30
0
0
VERTEX
8
0
10
42.241409375
20
32.2199
30
0
0
SEQEND
0
POLYLINE
66
1
8
16_copper
10
0.0
20
0.0
30
0.0
70
1
0
VERTEX
8
0
10
10.1981
20
30.148590625
30
0
0
VERTEX
8
0
10
10.1981
20
30.811409375
30
0
0
VERTEX
8
0
10
9.729409375000001
20
31.2801
30
0
0
VERTEX
8
0
10
9.066590625
20
31.2801
30
0
0
VERTEX
8
0
10
8.597900000000001
20
30.811409375
30
0
0
VERTEX
8
0
10
8.597900000000001
20
30.148590625
30
0
0
VERTEX
8
0
10
9.066590625
20
29.6799
30
0
0
VERTEX
8
0
10
9.729409375000001
20
29.6799
30
0
0
SEQEND
0
POLYLINE
66
1
8
16_copper
10
0.0
20
0.0
30
0.0
70
1
0
VERTEX
8
0
10
46.3804
20
17.50645625
30
0
0
VERTEX
8
0
10
46.3804
20
18.05354375
30
0
0
VERTEX
8
0
10
45.99354375
20
18.4404
30
0
0
VERTEX
8
0
10
45.446456250000004
20
18.4404
30
0
0
VERTEX
8
0
10
45.0596
20
18.05354375
30
0
0
VERTEX
8
0
10
45.0596
20
17.50645625
30
0
0
VERTEX
8
0
10
45.446456250000004
20
17.119600000000002
30
0
0
VERTEX
8
0
10
45.99354375
20
17.119600000000002
30
0
0
SEQEND
0
POLYLINE
66
1
8
16_copper
10
0.0
20
0.0
30
0.0
70
1
0
VERTEX
8
0
10
7.29065
20
5.6276093750000005
30
0
42
0.3639699917874411
0
VERTEX
8
0
10
8.16
20
6.5763375
30
0
0
VERTEX
8
0
10
8.16
20
8.663662500000001
30
0
42
0.9572902530839056
0
VERTEX
8
0
10
6.16
20
8.663662500000001
30
0
0
VERTEX
8
0
10
6.16
20
6.5763375
30
0
0
VERTEX
8
0
10
6.1676093750000005
20
6.48935
30
0
0
VERTEX
8
0
10
6.182775
20
6.403353125000001
30
0
0
VERTEX
8
0
10
6.205375
20
6.31900625
30
0
0
VERTEX
8
0
10
6.235240625
20
6.236953125
30
0
0
VERTEX
8
0
10
6.272143750000001
20
6.1578125
30
0
0
VERTEX
8
0
10
6.3158062500000005
20
6.0821875
30
0
0
VERTEX
8
0
10
6.3658906250000005
20
6.010659375
30
0
0
VERTEX
8
0
10
6.42201875
20
5.943765625
30
0
0
VERTEX
8
0
10
6.483765625
20
5.88201875
30
0
0
VERTEX
8
0
10
6.550659375
20
5.825890625
30
0
0
VERTEX
8
0
10
6.6221875
20
5.7758062500000005
30
0
0
VERTEX
8
0
10
6.6978125
20
5.7321437500000005
30
0
0
VERTEX
8
0
10
6.776953125
20
5.695240625
30
0
0
VERTEX
8
0
10
6.85900625
20
5.665375
30
0
0
VERTEX
8
0
10
6.943353125000001
20
5.642775
30
0
0
VERTEX
8
0
10
7.02935
20
5.6276093750000005
30
0
0
VERTEX
8
0
10
7.1163375
20
5.62
30
0
0
VERTEX
8
0
10
7.2036625
20
5.62
30
0
0
SEQEND
0
POLYLINE
66
1
8
16_copper
10
0.0
20
0.0
30
0.0
70
1
0
VERTEX
8
0
10
32.065143750000004
20
4.604737500000001
30
0
42
0.9063472543261978
0
VERTEX
8
0
10
31.990634375000003
20
6.1214
30
0
0
VERTEX
8
0
10
30.391765625
20
6.1214
30
0
42
0.9520795017710562
0
VERTEX
8
0
10
30.391765625
20
4.5974
30
0
0
VERTEX
8
0
10
31.990634375000003
20
4.5974
30
0
0
SEQEND
0
POLYLINE
66
1
8
16_copper
10
0.0
20
0.0
30
0.0
70
1
0
VERTEX
8
0
10
43.495143750000004
20
4.604737500000001
30
0
42
0.9063472543261978
0
VERTEX
8
0
10
43.420634375
20
6.1214
30
0
0
VERTEX
8
0
10
41.821765625000005
20
6.1214
30
0
42
0.9520795017710562
0
VERTEX
8
0
10
41.821765625000005
20
4.5974
30
0
0
VERTEX
8
0
10
43.420634375
20
4.5974
30
0
0
SEQEND
0
POLYLINE
66
1
8
16_copper
10
0.0
20
0.0
30
0.0
70
1
0
VERTEX
8
0
10
54.925143750000004
20
4.604737500000001
30
0
42
0.9063472543261978
0
VERTEX
8
0
10
54.850634375000006
20
6.1214
30
0
0
VERTEX
8
0
10
53.251765625000004
20
6.1214
30
0
42
0.9520795017710562
0
VERTEX
8
0
10
53.251765625000004
20
4.5974
30
0
0
VERTEX
8
0
10
54.850634375000006
20
4.5974
30
0
0
SEQEND
0
POLYLINE
66
1
8
16_copper
10
0.0
20
0.0
30
0.0
70
1
0
VERTEX
8
0
10
66.35514375
20
4.604737500000001
30
0
42
0.9063472543261978
0
VERTEX
8
0
10
66.280634375
20
6.1214
30
0
0
VERTEX
8
0
10
64.681765625
20
6.1214
30
0
42
0.9520795017710562
0
VERTEX
8
0
10
64.681765625
20
4.5974
30
0
0
VERTEX
8
0
10
66.280634375
20
4.5974
30
0
0
SEQEND
0
POLYLINE
66
1
8
1_copper
10
0.0
20
0.0
30
0.0
70
1
0
VERTEX
8
0
10
78.85194375
20
74.68333750000001
30
0
42
0.3578057741447831
0
VERTEX
8
0
10
79.50200000000001
20
75.400565625
30
0
0
VERTEX
8
0
10
79.50200000000001
20
76.999434375
30
0
42
0.9520795017710562
0
VERTEX
8
0
10
77.97800000000001
20
76.999434375
30
0
0
VERTEX
8
0
10
77.97800000000001
20
75.400565625
30
0
0
VERTEX
8
0
10
77.9853375
20
75.32605625000001
30
0
0
VERTEX
8
0
10
77.99994375
20
75.25262500000001
30
0
0
VERTEX
8
0
10
78.02167812500001
20
75.18098125
30
0
0
VERTEX
8
0
10
78.05032812500001
20
75.111809375
30
0
0
VERTEX
8
0
10
78.085621875
20
75.04578125
30
0
0
VERTEX
8
0
10
78.12721875
20
74.98353125
30
0
0
VERTEX
8
0
10
78.174715625
20
74.92565625
30
0
0
VERTEX
8
0
10
78.22765625000001
20
74.872715625
30
0
0
VERTEX
8
0
10
78.28553125
20
74.82521875
30
0
0
VERTEX
8
0
10
78.34778125
20
74.78362187500001
30
0
0
VERTEX
8
0
10
78.413809375
20
74.748328125
30
0
0
VERTEX
8
0
10
78.48298125000001
20
74.719678125
30
0
0
VERTEX
8
0
10
78.554625
20
74.69794375000001
30
0
0
VERTEX
8
0
10
78.62805625
20
74.68333750000001
30
0
0
VERTEX
8
0
10
78.702565625
20
74.676
30
0
0
VERTEX
8
0
10
78.777434375
20
74.676
30
0
0
SEQEND
0
POLYLINE
66
1
8
1_copper
10
0.0
20
0.0
30
0.0
70
1
0
VERTEX
8
0
10
68.69194375000001
20
74.68333750000001
30
0
42
0.3578057741447831
0
VERTEX
8
0
10
69.342
20
75.400565625
30
0
0
VERTEX
8
0
10
69.342
20
76.999434375
30
0
42
0.9520795017710562
0
VERTEX
8
0
10
67.818
20
76.999434375
30
0
0
VERTEX
8
0
10
67.818
20
75.400565625
30
0
0
VERTEX
8
0
10
67.8253375
20
75.32605625000001
30
0
0
VERTEX
8
0
10
67.83994375
20
75.25262500000001
30
0
0
VERTEX
8
0
10
67.861678125
20
75.18098125
30
0
0
VERTEX
8
0
10
67.890328125
20
75.111809375
30
0
0
VERTEX
8
0
10
67.925621875
20
75.04578125
30
0
0
VERTEX
8
0
10
67.96721875
20
74.98353125
30
0
0
VERTEX
8
0
10
68.01471562500001
20
74.92565625
30
0
0
VERTEX
8
0
10
68.06765625
20
74.872715625
30
0
0
VERTEX
8
0
10
68.12553125000001
20
74.82521875
30
0
0
VERTEX
8
0
10
68.18778125
20
74.78362187500001
30
0
0
VERTEX
8
0
10
68.253809375
20
74.748328125
30
0
0
VERTEX
8
0
10
68.32298125
20
74.719678125
30
0
0
VERTEX
8
0
10
68.394625
20
74.69794375000001
30
0
0
VERTEX
8
0
10
68.46805625
20
74.68333750000001
30
0
0
VERTEX
8
0
10
68.54256562500001
20
74.676
30
0
0
VERTEX
8
0
10
68.617434375
20
74.676
30
0
0
SEQEND
0
POLYLINE
66
1
8
1_copper
10
0.0
20
0.0
30
0.0
70
1
0
VERTEX
8
0
10
58.53194375
20
74.68333750000001
30
0
42
0.3578057741447831
0
VERTEX
8
0
10
59.182
20
75.400565625
30
0
0
VERTEX
8
0
10
59.182
20
76.999434375
30
0
42
0.9520795017710562
0
VERTEX
8
0
10
57.658
20
76.999434375
30
0
0
VERTEX
8
0
10
57.658
20
75.400565625
30
0
0
VERTEX
8
0
10
57.6653375
20
75.32605625000001
30
0
0
VERTEX
8
0
10
57.67994375
20
75.25262500000001
30
0
0
VERTEX
8
0
10
57.701678125
20
75.18098125
30
0
0
VERTEX
8
0
10
57.730328125
20
75.111809375
30
0
0
VERTEX
8
0
10
57.765621875
20
75.04578125
30
0
0
VERTEX
8
0
10
57.807218750000004
20
74.98353125
30
0
0
VERTEX
8
0
10
57.854715625000004
20
74.92565625
30
0
0
VERTEX
8
0
10
57.90765625
20
74.872715625
30
0
0
VERTEX
8
0
10
57.965531250000005
20
74.82521875
30
0
0
VERTEX
8
0
10
58.027781250000004
20
74.78362187500001
30
0
0
VERTEX
8
0
10
58.093809375
20
74.748328125
30
0
0
VERTEX
8
0
10
58.16298125
20
74.719678125
30
0
0
VERTEX
8
0
10
58.234625
20
74.69794375000001
30
0
0
VERTEX
8
0
10
58.30805625
20
74.68333750000001
30
0
0
VERTEX
8
0
10
58.382565625000005
20
74.676
30
0
0
VERTEX
8
0
10
58.457434375000005
20
74.676
30
0
0
SEQEND
0
POLYLINE
66
1
8
1_copper
10
0.0
20
0.0
30
0.0
70
1
0
VERTEX
8
0
10
89.01194375
20
74.68333750000001
30
0
42
0.3578057741447831
0
VERTEX
8
0
10
89.662
20
75.400565625
30
0
0
VERTEX
8
0
10
89.662
20
76.999434375
30
0
42
0.9520795017710562
0
VERTEX
8
0
10
88.138
20
76.999434375
30
0
0
VERTEX
8
0
10
88.138
20
75.400565625
30
0
0
VERTEX
8
0
10
88.14533750000001
20
75.32605625000001
30
0
0
VERTEX
8
0
10
88.15994375000001
20
75.25262500000001
30
0
0
VERTEX
8
0
10
88.181678125
20
75.18098125
30
0
0
VERTEX
8
0
10
88.210328125
20
75.111809375
30
0
0
VERTEX
8
0
10
88.245621875
20
75.04578125
30
0
0
VERTEX
8
0
10
88.28721875000001
20
74.98353125
30
0
0
VERTEX
8
0
10
88.334715625
20
74.92565625
30
0
0
VERTEX
8
0
10
88.38765625
20
74.872715625
30
0
0
VERTEX
8
0
10
88.44553125
20
74.82521875
30
0
0
VERTEX
8
0
10
88.50778125000001
20
74.78362187500001
30
0
0
VERTEX
8
0
10
88.57380937500001
20
74.748328125
30
0
0
VERTEX
8
0
10
88.64298125
20
74.719678125
30
0
0
VERTEX
8
0
10
88.714625
20
74.69794375000001
30
0
0
VERTEX
8
0
10
88.78805625000001
20
74.68333750000001
30
0
0
VERTEX
8
0
10
88.862565625
20
74.676
30
0
0
VERTEX
8
0
10
88.93743437500001
20
74.676
30
0
0
SEQEND
0
POLYLINE
66
1
8
1_copper
10
0.0
20
0.0
30
0.0
70
1
0
VERTEX
8
0
10
45.110400000000006
20
75.92645625
30
0
0
VERTEX
8
0
10
45.110400000000006
20
76.47354375
30
0
0
VERTEX
8
0
10
44.723543750000005
20
76.8604
30
0
0
VERTEX
8
0
10
44.17645625
20
76.8604
30
0
0
VERTEX
8
0
10
43.7896
20
76.47354375
30
0
0
VERTEX
8
0
10
43.7896
20
75.92645625
30
0
0
VERTEX
8
0
10
44.17645625
20
75.53960000000001
30
0
0
VERTEX
8
0
10
44.723543750000005
20
75.53960000000001
30
0
0
SEQEND
0
POLYLINE
66
1
8
1_copper
10
0.0
20
0.0
30
0.0
70
1
0
VERTEX
8
0
10
7.0612
20
67.0154125
30
0
0
VERTEX
8
0
10
7.0612
20
67.60458750000001
30
0
0
VERTEX
8
0
10
6.6445875
20
68.02120000000001
30
0
0
VERTEX
8
0
10
6.0554125
20
68.02120000000001
30
0
0
VERTEX
8
0
10
5.638800000000001
20
67.60458750000001
30
0
0
VERTEX
8
0
10
5.638800000000001
20
67.0154125
30
0
0
VERTEX
8
0
10
6.0554125
20
66.5988
30
0
0
VERTEX
8
0
10
6.6445875
20
66.5988
30
0
0
SEQEND
0
POLYLINE
66
1
8
1_copper
10
0.0
20
0.0
30
0.0
70
1
0
VERTEX
8
0
10
45.110400000000006
20
37.82645625
30
0
0
VERTEX
8
0
10
45.110400000000006
20
38.37354375
30
0
0
VERTEX
8
0
10
44.723543750000005
20
38.760400000000004
30
0
0
VERTEX
8
0
10
44.17645625
20
38.760400000000004
30
0
0
VERTEX
8
0
10
43.7896
20
38.37354375
30
0
0
VERTEX
8
0
10
43.7896
20
37.82645625
30
0
0
VERTEX
8
0
10
44.17645625
20
37.4396
30
0
0
VERTEX
8
0
10
44.723543750000005
20
37.4396
30
0
0
SEQEND
0
POLYLINE
66
1
8
1_copper
10
0.0
20
0.0
30
0.0
70
1
0
VERTEX
8
0
10
86.47194375000001
20
31.5033375
30
0
42
0.3578057741447831
0
VERTEX
8
0
10
87.122
20
32.220565625
30
0
0
VERTEX
8
0
10
87.122
20
33.819434375
30
0
42
0.9520795017710562
0
VERTEX
8
0
10
85.598
20
33.819434375
30
0
0
VERTEX
8
0
10
85.598
20
32.220565625
30
0
0
VERTEX
8
0
10
85.6053375
20
32.14605625
30
0
0
VERTEX
8
0
10
85.61994375
20
32.072625
30
0
0
VERTEX
8
0
10
85.641678125
20
32.00098125
30
0
0
VERTEX
8
0
10
85.670328125
20
31.931809375
30
0
0
VERTEX
8
0
10
85.705621875
20
31.86578125
30
0
0
VERTEX
8
0
10
85.74721875
20
31.803531250000002
30
0
0
VERTEX
8
0
10
85.79471562500001
20
31.745656250000003
30
0
0
VERTEX
8
0
10
85.84765625
20
31.692715625
30
0
0
VERTEX
8
0
10
85.90553125000001
20
31.64521875
30
0
0
VERTEX
8
0
10
85.96778125
20
31.603621875
30
0
0
VERTEX
8
0
10
86.033809375
20
31.568328125
30
0
0
VERTEX
8
0
10
86.10298125
20
31.539678125000002
30
0
0
VERTEX
8
0
10
86.174625
20
31.51794375
30
0
0
VERTEX
8
0
10
86.24805625
20
31.5033375
30
0
0
VERTEX
8
0
10
86.32256562500001
20
31.496000000000002
30
0
0
VERTEX
8
0
10
86.397434375
20
31.496000000000002
30
0
0
SEQEND
0
POLYLINE
66
1
8
1_copper
10
0.0
20
0.0
30
0.0
70
1
0
VERTEX
8
0
10
54.0004
20
31.476456250000002
30
0
0
VERTEX
8
0
10
54.0004
20
32.02354375
30
0
0
VERTEX
8
0
10
53.613543750000005
20
32.4104
30
0
0
VERTEX
8
0
10
53.06645625
20
32.4104
30
0
0
VERTEX
8
0
10
52.6796
20
32.02354375
30
0
0
VERTEX
8
0
10
52.6796
20
31.476456250000002
30
0
0
VERTEX
8
0
10
53.06645625
20
31.0896
30
0
0
VERTEX
8
0
10
53.613543750000005
20
31.0896
30
0
0
SEQEND
0
POLYLINE
66
1
8
1_copper
10
0.0
20
0.0
30
0.0
70
1
0
VERTEX
8
0
10
8.077200000000001
20
22.4282
30
0
0
VERTEX
8
0
10
6.146800000000001
20
22.4282
30
0
0
VERTEX
8
0
10
6.146800000000001
20
20.4978
30
0
0
VERTEX
8
0
10
8.077200000000001
20
20.4978
30
0
0
SEQEND
0
POLYLINE
66
1
8
16_copper
10
0.0
20
0.0
30
0.0
70
1
0
VERTEX
8
0
10
89.01194375
20
74.68333750000001
30
0
42
0.3578057741447831
0
VERTEX
8
0
10
89.662
20
75.400565625
30
0
0
VERTEX
8
0
10
89.662
20
76.999434375
30
0
42
0.9520795017710562
0
VERTEX
8
0
10
88.138
20
76.999434375
30
0
0
VERTEX
8
0
10
88.138
20
75.400565625
30
0
0
VERTEX
8
0
10
88.14533750000001
20
75.32605625000001
30
0
0
VERTEX
8
0
10
88.15994375000001
20
75.25262500000001
30
0
0
VERTEX
8
0
10
88.181678125
20
75.18098125
30
0
0
VERTEX
8
0
10
88.210328125
20
75.111809375
30
0
0
VERTEX
8
0
10
88.245621875
20
75.04578125
30
0
0
VERTEX
8
0
10
88.28721875000001
20
74.98353125
30
0
0
VERTEX
8
0
10
88.334715625
20
74.92565625
30
0
0
VERTEX
8
0
10
88.38765625
20
74.872715625
30
0
0
VERTEX
8
0
10
88.44553125
20
74.82521875
30
0
0
VERTEX
8
0
10
88.50778125000001
20
74.78362187500001
30
0
0
VERTEX
8
0
10
88.57380937500001
20
74.748328125
30
0
0
VERTEX
8
0
10
88.64298125
20
74.719678125
30
0
0
VERTEX
8
0
10
88.714625
20
74.69794375000001
30
0
0
VERTEX
8
0
10
88.78805625000001
20
74.68333750000001
30
0
0
VERTEX
8
0
10
88.862565625
20
74.676
30
0
0
VERTEX
8
0
10
88.93743437500001
20
74.676
30
0
0
SEQEND
0
POLYLINE
66
1
8
16_copper
10
0.0
20
0.0
30
0.0
70
1
0
VERTEX
8
0
10
58.53194375
20
74.68333750000001
30
0
42
0.3578057741447831
0
VERTEX
8
0
10
59.182
20
75.400565625
30
0
0
VERTEX
8
0
10
59.182
20
76.999434375
30
0
42
0.9520795017710562
0
VERTEX
8
0
10
57.658
20
76.999434375
30
0
0
VERTEX
8
0
10
57.658
20
75.400565625
30
0
0
VERTEX
8
0
10
57.6653375
20
75.32605625000001
30
0
0
VERTEX
8
0
10
57.67994375
20
75.25262500000001
30
0
0
VERTEX
8
0
10
57.701678125
20
75.18098125
30
0
0
VERTEX
8
0
10
57.730328125
20
75.111809375
30
0
0
VERTEX
8
0
10
57.765621875
20
75.04578125
30
0
0
VERTEX
8
0
10
57.807218750000004
20
74.98353125
30
0
0
VERTEX
8
0
10
57.854715625000004
20
74.92565625
30
0
0
VERTEX
8
0
10
57.90765625
20
74.872715625
30
0
0
VERTEX
8
0
10
57.965531250000005
20
74.82521875
30
0
0
VERTEX
8
0
10
58.027781250000004
20
74.78362187500001
30
0
0
VERTEX
8
0
10
58.093809375
20
74.748328125
30
0
0
VERTEX
8
0
10
58.16298125
20
74.719678125
30
0
0
VERTEX
8
0
10
58.234625
20
74.69794375000001
30
0
0
VERTEX
8
0
10
58.30805625
20
74.68333750000001
30
0
0
VERTEX
8
0
10
58.382565625000005
20
74.676
30
0
0
VERTEX
8
0
10
58.457434375000005
20
74.676
30
0
0
SEQEND
0
POLYLINE
66
1
8
16_copper
10
0.0
20
0.0
30
0.0
70
1
0
VERTEX
8
0
10
68.69194375000001
20
74.68333750000001
30
0
42
0.3578057741447831
0
VERTEX
8
0
10
69.342
20
75.400565625
30
0
0
VERTEX
8
0
10
69.342
20
76.999434375
30
0
42
0.9520795017710562
0
VERTEX
8
0
10
67.818
20
76.999434375
30
0
0
VERTEX
8
0
10
67.818
20
75.400565625
30
0
0
VERTEX
8
0
10
67.8253375
20
75.32605625000001
30
0
0
VERTEX
8
0
10
67.83994375
20
75.25262500000001
30
0
0
VERTEX
8
0
10
67.861678125
20
75.18098125
30
0
0
VERTEX
8
0
10
67.890328125
20
75.111809375
30
0
0
VERTEX
8
0
10
67.925621875
20
75.04578125
30
0
0
VERTEX
8
0
10
67.96721875
20
74.98353125
30
0
0
VERTEX
8
0
10
68.01471562500001
20
74.92565625
30
0
0
VERTEX
8
0
10
68.06765625
20
74.872715625
30
0
0
VERTEX
8
0
10
68.12553125000001
20
74.82521875
30
0
0
VERTEX
8
0
10
68.18778125
20
74.78362187500001
30
0
0
VERTEX
8
0
10
68.253809375
20
74.748328125
30
0
0
VERTEX
8
0
10
68.32298125
20
74.719678125
30
0
0
VERTEX
8
0
10
68.394625
20
74.69794375000001
30
0
0
VERTEX
8
0
10
68.46805625
20
74.68333750000001
30
0
0
VERTEX
8
0
10
68.54256562500001
20
74.676
30
0
0
VERTEX
8
0
10
68.617434375
20
74.676
30
0
0
SEQEND
0
POLYLINE
66
1
8
16_copper
10
0.0
20
0.0
30
0.0
70
1
0
VERTEX
8
0
10
78.85194375
20
74.68333750000001
30
0
42
0.3578057741447831
0
VERTEX
8
0
10
79.50200000000001
20
75.400565625
30
0
0
VERTEX
8
0
10
79.50200000000001
20
76.999434375
30
0
42
0.9520795017710562
0
VERTEX
8
0
10
77.97800000000001
20
76.999434375
30
0
0
VERTEX
8
0
10
77.97800000000001
20
75.400565625
30
0
0
VERTEX
8
0
10
77.9853375
20
75.32605625000001
30
0
0
VERTEX
8
0
10
77.99994375
20
75.25262500000001
30
0
0
VERTEX
8
0
10
78.02167812500001
20
75.18098125
30
0
0
VERTEX
8
0
10
78.05032812500001
20
75.111809375
30
0
0
VERTEX
8
0
10
78.085621875
20
75.04578125
30
0
0
VERTEX
8
0
10
78.12721875
20
74.98353125
30
0
0
VERTEX
8
0
10
78.174715625
20
74.92565625
30
0
0
VERTEX
8
0
10
78.22765625000001
20
74.872715625
30
0
0
VERTEX
8
0
10
78.28553125
20
74.82521875
30
0
0
VERTEX
8
0
10
78.34778125
20
74.78362187500001
30
0
0
VERTEX
8
0
10
78.413809375
20
74.748328125
30
0
0
VERTEX
8
0
10
78.48298125000001
20
74.719678125
30
0
0
VERTEX
8
0
10
78.554625
20
74.69794375000001
30
0
0
VERTEX
8
0
10
78.62805625
20
74.68333750000001
30
0
0
VERTEX
8
0
10
78.702565625
20
74.676
30
0
0
VERTEX
8
0
10
78.777434375
20
74.676
30
0
0
SEQEND
0
POLYLINE
66
1
8
16_copper
10
0.0
20
0.0
30
0.0
70
1
0
VERTEX
8
0
10
45.110400000000006
20
75.92645625
30
0
0
VERTEX
8
0
10
45.110400000000006
20
76.47354375
30
0
0
VERTEX
8
0
10
44.723543750000005
20
76.8604
30
0
0
VERTEX
8
0
10
44.17645625
20
76.8604
30
0
0
VERTEX
8
0
10
43.7896
20
76.47354375
30
0
0
VERTEX
8
0
10
43.7896
20
75.92645625
30
0
0
VERTEX
8
0
10
44.17645625
20
75.53960000000001
30
0
0
VERTEX
8
0
10
44.723543750000005
20
75.53960000000001
30
0
0
SEQEND
0
POLYLINE
66
1
8
16_copper
10
0.0
20
0.0
30
0.0
70
1
0
VERTEX
8
0
10
7.0612
20
67.0154125
30
0
0
VERTEX
8
0
10
7.0612
20
67.60458750000001
30
0
0
VERTEX
8
0
10
6.6445875
20
68.02120000000001
30
0
0
VERTEX
8
0
10
6.0554125
20
68.02120000000001
30
0
0
VERTEX
8
0
10
5.638800000000001
20
67.60458750000001
30
0
0
VERTEX
8
0
10
5.638800000000001
20
67.0154125
30
0
0
VERTEX
8
0
10
6.0554125
20
66.5988
30
0
0
VERTEX
8
0
10
6.6445875
20
66.5988
30
0
0
SEQEND
0
POLYLINE
66
1
8
16_copper
10
0.0
20
0.0
30
0.0
70
1
0
VERTEX
8
0
10
49.510584375
20
32.002475000000004
30
0
42
0.1790390709365824
0
VERTEX
8
0
10
49.35039375
20
31.929606250000003
30
0
0
VERTEX
8
0
10
45.974000000000004
20
28.5532125
30
0
0
VERTEX
8
0
10
45.974000000000004
20
31.75
30
0
42
0.198912367379658
0
VERTEX
8
0
10
45.899606250000005
20
31.929606250000003
30
0
0
VERTEX
8
0
10
44.704
20
33.1252125
30
0
0
VERTEX
8
0
10
44.704
20
37.4396
30
0
0
VERTEX
8
0
10
44.723543750000005
20
37.4396
30
0
0
VERTEX
8
0
10
45.110400000000006
20
37.82645625
30
0
0
VERTEX
8
0
10
45.110400000000006
20
38.37354375
30
0
0
VERTEX
8
0
10
44.723543750000005
20
38.760400000000004
30
0
0
VERTEX
8
0
10
44.17645625
20
38.760400000000004
30
0
0
VERTEX
8
0
10
43.7896
20
38.37354375
30
0
0
VERTEX
8
0
10
43.7896
20
37.82645625
30
0
0
VERTEX
8
0
10
44.17645625
20
37.4396
30
0
0
VERTEX
8
0
10
44.196000000000005
20
37.4396
30
0
0
VERTEX
8
0
10
44.196000000000005
20
33.02
30
0
42
0.198912367379658
0
VERTEX
8
0
10
44.270393750000004
20
32.840393750000004
30
0
0
VERTEX
8
0
10
45.466
20
31.644787500000003
30
0
0
VERTEX
8
0
10
45.466
20
25.505212500000003
30
0
0
VERTEX
8
0
10
40.46039375
20
20.49960625
30
0
42
0.9999999999999999
0
VERTEX
8
0
10
40.81960625
20
20.14039375
30
0
0
VERTEX
8
0
10
45.899606250000005
20
25.22039375
30
0
42
0.198912367379658
0
VERTEX
8
0
10
45.974000000000004
20
25.400000000000002
30
0
0
VERTEX
8
0
10
45.974000000000004
20
27.8347875
30
0
0
VERTEX
8
0
10
49.6352125
20
31.496000000000002
30
0
0
VERTEX
8
0
10
52.6796
20
31.496000000000002
30
0
0
VERTEX
8
0
10
52.6796
20
31.476456250000002
30
0
0
VERTEX
8
0
10
53.06645625
20
31.0896
30
0
0
VERTEX
8
0
10
53.613543750000005
20
31.0896
30
0
0
VERTEX
8
0
10
54.0004
20
31.476456250000002
30
0
0
VERTEX
8
0
10
54.0004
20
32.02354375
30
0
0
VERTEX
8
0
10
53.613543750000005
20
32.4104
30
0
0
VERTEX
8
0
10
53.06645625
20
32.4104
30
0
0
VERTEX
8
0
10
52.6796
20
32.02354375
30
0
0
VERTEX
8
0
10
52.6796
20
32.004000000000005
30
0
0
VERTEX
8
0
10
49.53
20
32.004000000000005
30
0
0
SEQEND
0
POLYLINE
66
1
8
16_copper
10
0.0
20
0.0
30
0.0
70
1
0
VERTEX
8
0
10
86.47194375000001
20
31.5033375
30
0
42
0.3578057741447831
0
VERTEX
8
0
10
87.122
20
32.220565625
30
0
0
VERTEX
8
0
10
87.122
20
33.819434375
30
0
42
0.9520795017710562
0
VERTEX
8
0
10
85.598
20
33.819434375
30
0
0
VERTEX
8
0
10
85.598
20
32.220565625
30
0
0
VERTEX
8
0
10
85.6053375
20
32.14605625
30
0
0
VERTEX
8
0
10
85.61994375
20
32.072625
30
0
0
VERTEX
8
0
10
85.641678125
20
32.00098125
30
0
0
VERTEX
8
0
10
85.670328125
20
31.931809375
30
0
0
VERTEX
8
0
10
85.705621875
20
31.86578125
30
0
0
VERTEX
8
0
10
85.74721875
20
31.803531250000002
30
0
0
VERTEX
8
0
10
85.79471562500001
20
31.745656250000003
30
0
0
VERTEX
8
0
10
85.84765625
20
31.692715625
30
0
0
VERTEX
8
0
10
85.90553125000001
20
31.64521875
30
0
0
VERTEX
8
0
10
85.96778125
20
31.603621875
30
0
0
VERTEX
8
0
10
86.033809375
20
31.568328125
30
0
0
VERTEX
8
0
10
86.10298125
20
31.539678125000002
30
0
0
VERTEX
8
0
10
86.174625
20
31.51794375
30
0
0
VERTEX
8
0
10
86.24805625
20
31.5033375
30
0
0
VERTEX
8
0
10
86.32256562500001
20
31.496000000000002
30
0
0
VERTEX
8
0
10
86.397434375
20
31.496000000000002
30
0
0
SEQEND
0
POLYLINE
66
1
8
16_copper
10
0.0
20
0.0
30
0.0
70
1
0
VERTEX
8
0
10
8.077200000000001
20
22.4282
30
0
0
VERTEX
8
0
10
6.146800000000001
20
22.4282
30
0
0
VERTEX
8
0
10
6.146800000000001
20
20.4978
30
0
0
VERTEX
8
0
10
8.077200000000001
20
20.4978
30
0
0
SEQEND
0
POLYLINE
66
1
8
1_copper
10
0.0
20
0.0
30
0.0
70
1
0
VERTEX
8
0
10
83.93194375
20
31.5033375
30
0
42
0.3578057741447831
0
VERTEX
8
0
10
84.58200000000001
20
32.220565625
30
0
0
VERTEX
8
0
10
84.58200000000001
20
33.819434375
30
0
42
0.9520795017710562
0
VERTEX
8
0
10
83.058
20
33.819434375
30
0
0
VERTEX
8
0
10
83.058
20
32.220565625
30
0
0
VERTEX
8
0
10
83.0653375
20
32.14605625
30
0
0
VERTEX
8
0
10
83.07994375
20
32.072625
30
0
0
VERTEX
8
0
10
83.101678125
20
32.00098125
30
0
0
VERTEX
8
0
10
83.130328125
20
31.931809375
30
0
0
VERTEX
8
0
10
83.165621875
20
31.86578125
30
0
0
VERTEX
8
0
10
83.20721875000001
20
31.803531250000002
30
0
0
VERTEX
8
0
10
83.254715625
20
31.745656250000003
30
0
0
VERTEX
8
0
10
83.30765625000001
20
31.692715625
30
0
0
VERTEX
8
0
10
83.36553125
20
31.64521875
30
0
0
VERTEX
8
0
10
83.42778125000001
20
31.603621875
30
0
0
VERTEX
8
0
10
83.493809375
20
31.568328125
30
0
0
VERTEX
8
0
10
83.56298125
20
31.539678125000002
30
0
0
VERTEX
8
0
10
83.634625
20
31.51794375
30
0
0
VERTEX
8
0
10
83.70805625
20
31.5033375
30
0
0
VERTEX
8
0
10
83.782565625
20
31.496000000000002
30
0
0
VERTEX
8
0
10
83.85743437500001
20
31.496000000000002
30
0
0
SEQEND
0
POLYLINE
66
1
8
16_copper
10
0.0
20
0.0
30
0.0
70
1
0
VERTEX
8
0
10
78.759415625
20
18.797525
30
0
42
0.1790390709365824
0
VERTEX
8
0
10
78.91960625
20
18.87039375
30
0
0
VERTEX
8
0
10
83.99960625
20
23.95039375
30
0
42
0.198912367379658
0
VERTEX
8
0
10
84.074
20
24.130000000000003
30
0
0
VERTEX
8
0
10
84.074
20
31.5387625
30
0
42
0.3044751469716126
0
VERTEX
8
0
10
84.58200000000001
20
32.220565625
30
0
0
VERTEX
8
0
10
84.58200000000001
20
33.819434375
30
0
42
0.9520795017710562
0
VERTEX
8
0
10
83.058
20
33.819434375
30
0
0
VERTEX
8
0
10
83.058
20
32.220565625
30
0
42
0.3044751469716126
0
VERTEX
8
0
10
83.566
20
31.5387625
30
0
0
VERTEX
8
0
10
83.566
20
24.235212500000003
30
0
0
VERTEX
8
0
10
78.6347875
20
19.304000000000002
30
0
0
VERTEX
8
0
10
62.335212500000004
20
19.304000000000002
30
0
0
VERTEX
8
0
10
61.13960625
20
20.49960625
30
0
42
0.9999999999999999
0
VERTEX
8
0
10
60.78039375
20
20.14039375
30
0
0
VERTEX
8
0
10
62.050393750000005
20
18.87039375
30
0
42
0.198912367379658
0
VERTEX
8
0
10
62.230000000000004
20
18.796
30
0
0
VERTEX
8
0
10
78.74000000000001
20
18.796
30
0
0
SEQEND
0
POLYLINE
66
1
8
1_copper
10
0.0
20
0.0
30
0.0
70
1
0
VERTEX
8
0
10
81.39194375000001
20
31.5033375
30
0
42
0.3578057741447831
0
VERTEX
8
0
10
82.042
20
32.220565625
30
0
0
VERTEX
8
0
10
82.042
20
33.819434375
30
0
42
0.9520795017710562
0
VERTEX
8
0
10
80.518
20
33.819434375
30
0
0
VERTEX
8
0
10
80.518
20
32.220565625
30
0
0
VERTEX
8
0
10
80.5253375
20
32.14605625
30
0
0
VERTEX
8
0
10
80.53994375
20
32.072625
30
0
0
VERTEX
8
0
10
80.561678125
20
32.00098125
30
0
0
VERTEX
8
0
10
80.590328125
20
31.931809375
30
0
0
VERTEX
8
0
10
80.62562187500001
20
31.86578125
30
0
0
VERTEX
8
0
10
80.66721875
20
31.803531250000002
30
0
0
VERTEX
8
0
10
80.71471562500001
20
31.745656250000003
30
0
0
VERTEX
8
0
10
80.76765625
20
31.692715625
30
0
0
VERTEX
8
0
10
80.82553125
20
31.64521875
30
0
0
VERTEX
8
0
10
80.88778125
20
31.603621875
30
0
0
VERTEX
8
0
10
80.953809375
20
31.568328125
30
0
0
VERTEX
8
0
10
81.02298125
20
31.539678125000002
30
0
0
VERTEX
8
0
10
81.09462500000001
20
31.51794375
30
0
0
VERTEX
8
0
10
81.16805625
20
31.5033375
30
0
0
VERTEX
8
0
10
81.242565625
20
31.496000000000002
30
0
0
VERTEX
8
0
10
81.317434375
20
31.496000000000002
30
0
0
SEQEND
0
POLYLINE
66
1
8
16_copper
10
0.0
20
0.0
30
0.0
70
1
0
VERTEX
8
0
10
59.670584375000004
20
21.842475
30
0
42
0.1790390709365824
0
VERTEX
8
0
10
59.510393750000006
20
21.769606250000002
30
0
0
VERTEX
8
0
10
58.24039375
20
20.49960625
30
0
42
0.9999999999999999
0
VERTEX
8
0
10
58.59960625
20
20.14039375
30
0
0
VERTEX
8
0
10
59.795212500000005
20
21.336000000000002
30
0
0
VERTEX
8
0
10
62.124787500000004
20
21.336000000000002
30
0
0
VERTEX
8
0
10
63.32039375
20
20.14039375
30
0
42
0.198912367379658
0
VERTEX
8
0
10
63.5
20
20.066000000000003
30
0
0
VERTEX
8
0
10
77.47
20
20.066000000000003
30
0
42
0.198912367379658
0
VERTEX
8
0
10
77.64960625
20
20.14039375
30
0
0
VERTEX
8
0
10
81.45960625000001
20
23.95039375
30
0
42
0.198912367379658
0
VERTEX
8
0
10
81.534
20
24.130000000000003
30
0
0
VERTEX
8
0
10
81.534
20
31.5387625
30
0
42
0.3044751469716126
0
VERTEX
8
0
10
82.042
20
32.220565625
30
0
0
VERTEX
8
0
10
82.042
20
33.819434375
30
0
42
0.9520795017710562
0
VERTEX
8
0
10
80.518
20
33.819434375
30
0
0
VERTEX
8
0
10
80.518
20
32.220565625
30
0
42
0.3044751469716126
0
VERTEX
8
0
10
81.02600000000001
20
31.5387625
30
0
0
VERTEX
8
0
10
81.02600000000001
20
24.235212500000003
30
0
0
VERTEX
8
0
10
77.3647875
20
20.574
30
0
0
VERTEX
8
0
10
63.6052125
20
20.574
30
0
0
VERTEX
8
0
10
62.40960625
20
21.769606250000002
30
0
42
0.198912367379658
0
VERTEX
8
0
10
62.230000000000004
20
21.844
30
0
0
VERTEX
8
0
10
59.690000000000005
20
21.844
30
0
0
SEQEND
0
POLYLINE
66
1
8
1_copper
10
0.0
20
0.0
30
0.0
70
1
0
VERTEX
8
0
10
62.34018125
20
42.437221875
30
0
42
0.27633885160135374
0
VERTEX
8
0
10
62.936584375
20
42.926
30
0
0
VERTEX
8
0
10
76.76341562500001
20
42.926
30
0
42
0.9992603110310138
0
VERTEX
8
0
10
78.177009375
20
43.432971875
30
0
0
VERTEX
8
0
10
78.148809375
20
43.501053125
30
0
42
0.6676435748927864
0
VERTEX
8
0
10
76.76341562500001
20
43.434000000000005
30
0
0
VERTEX
8
0
10
62.936584375
20
43.434000000000005
30
0
0
VERTEX
8
0
10
62.908809375000004
20
43.501053125
30
0
0
VERTEX
8
0
10
62.874071875000006
20
43.566040625
30
0
0
VERTEX
8
0
10
62.83313125
20
43.6273125
30
0
0
VERTEX
8
0
10
62.786384375000004
20
43.684278125
30
0
0
VERTEX
8
0
10
62.734278125
20
43.736384375
30
0
0
VERTEX
8
0
10
62.677312500000006
20
43.783131250000004
30
0
0
VERTEX
8
0
10
62.616040625000004
20
43.824071875
30
0
0
VERTEX
8
0
10
62.551053125
20
43.858809375
30
0
0
VERTEX
8
0
10
62.482971875000004
20
43.887009375000005
30
0
0
VERTEX
8
0
10
62.412456250000005
20
43.9084
30
0
0
VERTEX
8
0
10
62.34018125
20
43.922778125
30
0
0
VERTEX
8
0
10
62.26684375
20
43.93
30
0
0
VERTEX
8
0
10
62.19315625
20
43.93
30
0
0
VERTEX
8
0
10
62.11981875
20
43.922778125
30
0
0
VERTEX
8
0
10
62.04754375
20
43.9084
30
0
0
VERTEX
8
0
10
61.977028125000004
20
43.887009375000005
30
0
0
VERTEX
8
0
10
61.908946875000005
20
43.858809375
30
0
0
VERTEX
8
0
10
61.843959375000004
20
43.824071875
30
0
0
VERTEX
8
0
10
61.7826875
20
43.783131250000004
30
0
0
VERTEX
8
0
10
61.725721875000005
20
43.736384375
30
0
0
VERTEX
8
0
10
61.673615625000004
20
43.684278125
30
0
0
VERTEX
8
0
10
61.62686875
20
43.6273125
30
0
0
VERTEX
8
0
10
61.585928125
20
43.566040625
30
0
0
VERTEX
8
0
10
61.551190625000004
20
43.501053125
30
0
0
VERTEX
8
0
10
61.522990625000006
20
43.432971875
30
0
0
VERTEX
8
0
10
61.5016
20
43.36245625
30
0
0
VERTEX
8
0
10
61.487221875
20
43.29018125
30
0
0
VERTEX
8
0
10
61.480000000000004
20
43.21684375
30
0
0
VERTEX
8
0
10
61.480000000000004
20
43.143156250000004
30
0
0
VERTEX
8
0
10
61.487221875
20
43.06981875
30
0
0
VERTEX
8
0
10
61.5016
20
42.997543750000006
30
0
0
VERTEX
8
0
10
61.522990625000006
20
42.927028125
30
0
0
VERTEX
8
0
10
61.551190625000004
20
42.858946875
30
0
0
VERTEX
8
0
10
61.585928125
20
42.793959375
30
0
0
VERTEX
8
0
10
61.62686875
20
42.732687500000004
30
0
0
VERTEX
8
0
10
61.673615625000004
20
42.675721875
30
0
0
VERTEX
8
0
10
61.725721875000005
20
42.623615625
30
0
0
VERTEX
8
0
10
61.7826875
20
42.57686875
30
0
0
VERTEX
8
0
10
61.843959375000004
20
42.535928125000005
30
0
0
VERTEX
8
0
10
61.908946875000005
20
42.501190625
30
0
0
VERTEX
8
0
10
61.977028125000004
20
42.472990625
30
0
0
VERTEX
8
0
10
62.04754375
20
42.4516
30
0
0
VERTEX
8
0
10
62.11981875
20
42.437221875
30
0
0
VERTEX
8
0
10
62.19315625
20
42.43
30
0
0
VERTEX
8
0
10
62.26684375
20
42.43
30
0
0
SEQEND
0
POLYLINE
66
1
8
1_copper
10
0.0
20
0.0
30
0.0
70
1
0
VERTEX
8
0
10
78.85194375
20
31.5033375
30
0
42
0.3578057741447831
0
VERTEX
8
0
10
79.50200000000001
20
32.220565625
30
0
0
VERTEX
8
0
10
79.50200000000001
20
33.819434375
30
0
42
0.9520795017710562
0
VERTEX
8
0
10
77.97800000000001
20
33.819434375
30
0
0
VERTEX
8
0
10
77.97800000000001
20
32.220565625
30
0
0
VERTEX
8
0
10
77.9853375
20
32.14605625
30
0
0
VERTEX
8
0
10
77.99994375
20
32.072625
30
0
0
VERTEX
8
0
10
78.02167812500001
20
32.00098125
30
0
0
VERTEX
8
0
10
78.05032812500001
20
31.931809375
30
0
0
VERTEX
8
0
10
78.085621875
20
31.86578125
30
0
0
VERTEX
8
0
10
78.12721875
20
31.803531250000002
30
0
0
VERTEX
8
0
10
78.174715625
20
31.745656250000003
30
0
0
VERTEX
8
0
10
78.22765625000001
20
31.692715625
30
0
0
VERTEX
8
0
10
78.28553125
20
31.64521875
30
0
0
VERTEX
8
0
10
78.34778125
20
31.603621875
30
0
0
VERTEX
8
0
10
78.413809375
20
31.568328125
30
0
0
VERTEX
8
0
10
78.48298125000001
20
31.539678125000002
30
0
0
VERTEX
8
0
10
78.554625
20
31.51794375
30
0
0
VERTEX
8
0
10
78.62805625
20
31.5033375
30
0
0
VERTEX
8
0
10
78.702565625
20
31.496000000000002
30
0
0
VERTEX
8
0
10
78.777434375
20
31.496000000000002
30
0
0
SEQEND
0
POLYLINE
66
1
8
16_copper
10
0.0
20
0.0
30
0.0
70
1
0
VERTEX
8
0
10
78.85194375
20
31.5033375
30
0
42
0.3578057741447831
0
VERTEX
8
0
10
79.50200000000001
20
32.220565625
30
0
0
VERTEX
8
0
10
79.50200000000001
20
33.819434375
30
0
42
0.22223129415437265
0
VERTEX
8
0
10
79.1997
20
34.3904875
30
0
0
VERTEX
8
0
10
80.18960625
20
35.38039375
30
0
42
0.198912367379658
0
VERTEX
8
0
10
80.26400000000001
20
35.56
30
0
0
VERTEX
8
0
10
80.26400000000001
20
40.64
30
0
42
0.198912367379658
0
VERTEX
8
0
10
80.18960625
20
40.81960625
30
0
0
VERTEX
8
0
10
78.149234375
20
42.859978125000005
30
0
42
0.9992584806102781
0
VERTEX
8
0
10
76.791190625
20
43.501053125
30
0
0
VERTEX
8
0
10
76.762990625
20
43.432971875
30
0
42
0.667642312984593
0
VERTEX
8
0
10
77.79002187500001
20
42.500765625
30
0
0
VERTEX
8
0
10
79.756
20
40.5347875
30
0
0
VERTEX
8
0
10
79.756
20
35.6652125
30
0
0
VERTEX
8
0
10
78.6273
20
34.5365125
30
0
0
VERTEX
8
0
10
78.554625
20
34.52205625
30
0
42
0.3303552833504715
0
VERTEX
8
0
10
77.97800000000001
20
33.819434375
30
0
0
VERTEX
8
0
10
77.97800000000001
20
32.220565625
30
0
0
VERTEX
8
0
10
77.9853375
20
32.14605625
30
0
0
VERTEX
8
0
10
77.99994375
20
32.072625
30
0
0
VERTEX
8
0
10
78.02167812500001
20
32.00098125
30
0
0
VERTEX
8
0
10
78.05032812500001
20
31.931809375
30
0
0
VERTEX
8
0
10
78.085621875
20
31.86578125
30
0
0
VERTEX
8
0
10
78.12721875
20
31.803531250000002
30
0
0
VERTEX
8
0
10
78.174715625
20
31.745656250000003
30
0
0
VERTEX
8
0
10
78.22765625000001
20
31.692715625
30
0
0
VERTEX
8
0
10
78.28553125
20
31.64521875
30
0
0
VERTEX
8
0
10
78.34778125
20
31.603621875
30
0
0
VERTEX
8
0
10
78.413809375
20
31.568328125
30
0
0
VERTEX
8
0
10
78.48298125000001
20
31.539678125000002
30
0
0
VERTEX
8
0
10
78.554625
20
31.51794375
30
0
0
VERTEX
8
0
10
78.62805625
20
31.5033375
30
0
0
VERTEX
8
0
10
78.702565625
20
31.496000000000002
30
0
0
VERTEX
8
0
10
78.777434375
20
31.496000000000002
30
0
0
SEQEND
0
POLYLINE
66
1
8
16_copper
10
0.0
20
0.0
30
0.0
70
1
0
VERTEX
8
0
10
50.170984375
20
30.122875
30
0
42
0.1790390709365824
0
VERTEX
8
0
10
50.010793750000005
20
30.050006250000003
30
0
0
VERTEX
8
0
10
48.08039375
20
28.11960625
30
0
42
0.9999999999999999
0
VERTEX
8
0
10
48.439606250000004
20
27.760393750000002
30
0
0
VERTEX
8
0
10
50.295612500000004
20
29.616400000000002
30
0
0
VERTEX
8
0
10
53.34
20
29.616400000000002
30
0
42
0.198912367379658
0
VERTEX
8
0
10
53.51960625
20
29.69079375
30
0
0
VERTEX
8
0
10
55.958006250000004
20
32.12919375
30
0
42
0.198912367379658
0
VERTEX
8
0
10
56.0324
20
32.308800000000005
30
0
0
VERTEX
8
0
10
56.0324
20
32.7389875
30
0
0
VERTEX
8
0
10
58.59960625
20
35.30619375
30
0
42
0.198912367379658
0
VERTEX
8
0
10
58.674
20
35.485800000000005
30
0
0
VERTEX
8
0
10
58.674
20
39.264787500000004
30
0
0
VERTEX
8
0
10
61.909978125
20
42.500765625
30
0
42
0.9992584806102781
0
VERTEX
8
0
10
62.551053125
20
43.858809375
30
0
0
VERTEX
8
0
10
62.482971875000004
20
43.887009375000005
30
0
42
0.667642312984593
0
VERTEX
8
0
10
61.550765625000004
20
42.859978125000005
30
0
0
VERTEX
8
0
10
58.24039375
20
39.549606250000004
30
0
42
0.198912367379658
0
VERTEX
8
0
10
58.166000000000004
20
39.370000000000005
30
0
0
VERTEX
8
0
10
58.166000000000004
20
35.591012500000005
30
0
0
VERTEX
8
0
10
55.598793750000006
20
33.02380625
30
0
42
0.198912367379658
0
VERTEX
8
0
10
55.5244
20
32.8442
30
0
0
VERTEX
8
0
10
55.5244
20
32.4140125
30
0
0
VERTEX
8
0
10
53.2347875
20
30.1244
30
0
0
VERTEX
8
0
10
50.190400000000004
20
30.1244
30
0
0
SEQEND
0
POLYLINE
66
1
8
1_copper
10
0.0
20
0.0
30
0.0
70
1
0
VERTEX
8
0
10
26.780181250000002
20
13.227221875000001
30
0
42
0.27633885160135374
0
VERTEX
8
0
10
27.376584375
20
13.716000000000001
30
0
0
VERTEX
8
0
10
38.663415625
20
13.716000000000001
30
0
42
0.9992603110310138
0
VERTEX
8
0
10
40.077009375
20
14.222971875
30
0
0
VERTEX
8
0
10
40.048809375000005
20
14.291053125000001
30
0
42
0.6676435748927864
0
VERTEX
8
0
10
38.663415625
20
14.224
30
0
0
VERTEX
8
0
10
27.376584375
20
14.224
30
0
0
VERTEX
8
0
10
27.348809375000002
20
14.291053125000001
30
0
0
VERTEX
8
0
10
27.314071875
20
14.356040625
30
0
0
VERTEX
8
0
10
27.273131250000002
20
14.417312500000001
30
0
0
VERTEX
8
0
10
27.226384375000002
20
14.474278125000001
30
0
0
VERTEX
8
0
10
27.174278125
20
14.526384375000001
30
0
0
VERTEX
8
0
10
27.1173125
20
14.573131250000001
30
0
0
VERTEX
8
0
10
27.056040625
20
14.614071875
30
0
0
VERTEX
8
0
10
26.991053125
20
14.648809375
30
0
0
VERTEX
8
0
10
26.922971875
20
14.677009375
30
0
0
VERTEX
8
0
10
26.852456250000003
20
14.698400000000001
30
0
0
VERTEX
8
0
10
26.780181250000002
20
14.712778125
30
0
0
VERTEX
8
0
10
26.70684375
20
14.72
30
0
0
VERTEX
8
0
10
26.633156250000003
20
14.72
30
0
0
VERTEX
8
0
10
26.55981875
20
14.712778125
30
0
0
VERTEX
8
0
10
26.48754375
20
14.698400000000001
30
0
0
VERTEX
8
0
10
26.417028125
20
14.677009375
30
0
0
VERTEX
8
0
10
26.348946875000003
20
14.648809375
30
0
0
VERTEX
8
0
10
26.283959375000002
20
14.614071875
30
0
0
VERTEX
8
0
10
26.222687500000003
20
14.573131250000001
30
0
0
VERTEX
8
0
10
26.165721875000003
20
14.526384375000001
30
0
0
VERTEX
8
0
10
26.113615625
20
14.474278125000001
30
0
0
VERTEX
8
0
10
26.06686875
20
14.417312500000001
30
0
0
VERTEX
8
0
10
26.025928125
20
14.356040625
30
0
0
VERTEX
8
0
10
25.991190625
20
14.291053125000001
30
0
0
VERTEX
8
0
10
25.962990625
20
14.222971875
30
0
0
VERTEX
8
0
10
25.9416
20
14.15245625
30
0
0
VERTEX
8
0
10
25.927221875
20
14.08018125
30
0
0
VERTEX
8
0
10
25.92
20
14.00684375
30
0
0
VERTEX
8
0
10
25.92
20
13.933156250000001
30
0
0
VERTEX
8
0
10
25.927221875
20
13.85981875
30
0
0
VERTEX
8
0
10
25.9416
20
13.787543750000001
30
0
0
VERTEX
8
0
10
25.962990625
20
13.717028125
30
0
0
VERTEX
8
0
10
25.991190625
20
13.648946875
30
0
0
VERTEX
8
0
10
26.025928125
20
13.583959375000001
30
0
0
VERTEX
8
0
10
26.06686875
20
13.5226875
30
0
0
VERTEX
8
0
10
26.113615625
20
13.465721875
30
0
0
VERTEX
8
0
10
26.165721875000003
20
13.413615625
30
0
0
VERTEX
8
0
10
26.222687500000003
20
13.36686875
30
0
0
VERTEX
8
0
10
26.283959375000002
20
13.325928125
30
0
0
VERTEX
8
0
10
26.348946875000003
20
13.291190625
30
0
0
VERTEX
8
0
10
26.417028125
20
13.262990625
30
0
0
VERTEX
8
0
10
26.48754375
20
13.2416
30
0
0
VERTEX
8
0
10
26.55981875
20
13.227221875000001
30
0
0
VERTEX
8
0
10
26.633156250000003
20
13.22
30
0
0
VERTEX
8
0
10
26.70684375
20
13.22
30
0
0
SEQEND
0
POLYLINE
66
1
8
1_copper
10
0.0
20
0.0
30
0.0
70
1
0
VERTEX
8
0
10
59.85274375
20
9.125937500000001
30
0
42
0.9063472543261978
0
VERTEX
8
0
10
59.778234375000004
20
10.6426
30
0
0
VERTEX
8
0
10
58.179365625
20
10.6426
30
0
42
0.9520795017710562
0
VERTEX
8
0
10
58.179365625
20
9.1186
30
0
0
VERTEX
8
0
10
59.778234375000004
20
9.1186
30
0
0
SEQEND
0
POLYLINE
66
1
8
16_copper
10
0.0
20
0.0
30
0.0
70
1
0
VERTEX
8
0
10
25.380584375
20
25.652475000000003
30
0
42
0.1790390709365824
0
VERTEX
8
0
10
25.22039375
20
25.57960625
30
0
0
VERTEX
8
0
10
22.68039375
20
23.039606250000002
30
0
42
0.198912367379658
0
VERTEX
8
0
10
22.606
20
22.86
30
0
0
VERTEX
8
0
10
22.606
20
17.78
30
0
42
0.198912367379658
0
VERTEX
8
0
10
22.68039375
20
17.600393750000002
30
0
0
VERTEX
8
0
10
25.990765625
20
14.290021875
30
0
42
0.9992584806102781
0
VERTEX
8
0
10
27.348809375000002
20
13.648946875
30
0
0
VERTEX
8
0
10
27.377009375
20
13.717028125
30
0
42
0.667642312984593
0
VERTEX
8
0
10
26.349978125
20
14.649234375
30
0
0
VERTEX
8
0
10
23.114
20
17.8852125
30
0
0
VERTEX
8
0
10
23.114
20
22.754787500000003
30
0
0
VERTEX
8
0
10
25.505212500000003
20
25.146
30
0
0
VERTEX
8
0
10
29.21
20
25.146
30
0
42
0.198912367379658
0
VERTEX
8
0
10
29.38960625
20
25.22039375
30
0
0
VERTEX
8
0
10
30.659606250000003
20
26.490393750000003
30
0
42
0.198912367379658
0
VERTEX
8
0
10
30.734
20
26.67
30
0
0
VERTEX
8
0
10
30.734
20
27.94
30
0
42
0.9999999999999999
0
VERTEX
8
0
10
30.226000000000003
20
27.94
30
0
0
VERTEX
8
0
10
30.226000000000003
20
26.775212500000002
30
0
0
VERTEX
8
0
10
29.1047875
20
25.654
30
0
0
VERTEX
8
0
10
25.400000000000002
20
25.654
30
0
0
SEQEND
0
POLYLINE
66
1
8
16_copper
10
0.0
20
0.0
30
0.0
70
1
0
VERTEX
8
0
10
59.85274375
20
9.125937500000001
30
0
42
0.9063472543261978
0
VERTEX
8
0
10
59.778234375000004
20
10.6426
30
0
0
VERTEX
8
0
10
58.576012500000004
20
10.6426
30
0
0
VERTEX
8
0
10
55.06900625
20
14.149606250000001
30
0
42
0.198912367379658
0
VERTEX
8
0
10
54.8894
20
14.224
30
0
0
VERTEX
8
0
10
40.076584375
20
14.224
30
0
42
0.9992603110310138
0
VERTEX
8
0
10
38.662990625
20
13.717028125
30
0
0
VERTEX
8
0
10
38.691190625000004
20
13.648946875
30
0
42
0.6676435748927864
0
VERTEX
8
0
10
40.076584375
20
13.716000000000001
30
0
0
VERTEX
8
0
10
54.7841875
20
13.716000000000001
30
0
0
VERTEX
8
0
10
57.918403125000005
20
10.581784375
30
0
42
0.7963966849433909
0
VERTEX
8
0
10
58.179365625
20
9.1186
30
0
0
VERTEX
8
0
10
59.778234375000004
20
9.1186
30
0
0
SEQEND
0
POLYLINE
66
1
8
1_copper
10
0.0
20
0.0
30
0.0
70
1
0
VERTEX
8
0
10
4.5212
20
56.8554125
30
0
0
VERTEX
8
0
10
4.5212
20
57.444587500000004
30
0
0
VERTEX
8
0
10
4.1045875
20
57.861200000000004
30
0
0
VERTEX
8
0
10
3.5154125
20
57.861200000000004
30
0
0
VERTEX
8
0
10
3.0988
20
57.444587500000004
30
0
0
VERTEX
8
0
10
3.0988
20
56.8554125
30
0
0
VERTEX
8
0
10
3.5154125
20
56.4388
30
0
0
VERTEX
8
0
10
4.1045875
20
56.4388
30
0
0
SEQEND
0
POLYLINE
66
1
8
1_copper
10
0.0
20
0.0
30
0.0
70
1
0
VERTEX
8
0
10
19.16018125
20
17.037221875
30
0
42
0.27633885160135374
0
VERTEX
8
0
10
19.756584375
20
17.526
30
0
0
VERTEX
8
0
10
33.583415625
20
17.526
30
0
42
0.9992603110310138
0
VERTEX
8
0
10
34.997009375000005
20
18.032971875
30
0
0
VERTEX
8
0
10
34.968809375
20
18.101053125
30
0
42
0.6676435748927864
0
VERTEX
8
0
10
33.583415625
20
18.034000000000002
30
0
0
VERTEX
8
0
10
19.756584375
20
18.034000000000002
30
0
0
VERTEX
8
0
10
19.728809375
20
18.101053125
30
0
0
VERTEX
8
0
10
19.694071875000002
20
18.166040625
30
0
0
VERTEX
8
0
10
19.65313125
20
18.2273125
30
0
0
VERTEX
8
0
10
19.606384375
20
18.284278125
30
0
0
VERTEX
8
0
10
19.554278125
20
18.336384375
30
0
0
VERTEX
8
0
10
19.4973125
20
18.38313125
30
0
0
VERTEX
8
0
10
19.436040625
20
18.424071875
30
0
0
VERTEX
8
0
10
19.371053125
20
18.458809375
30
0
0
VERTEX
8
0
10
19.302971875
20
18.487009375
30
0
0
VERTEX
8
0
10
19.232456250000002
20
18.5084
30
0
0
VERTEX
8
0
10
19.16018125
20
18.522778125000002
30
0
0
VERTEX
8
0
10
19.08684375
20
18.53
30
0
0
VERTEX
8
0
10
19.01315625
20
18.53
30
0
0
VERTEX
8
0
10
18.93981875
20
18.522778125000002
30
0
0
VERTEX
8
0
10
18.86754375
20
18.5084
30
0
0
VERTEX
8
0
10
18.797028125
20
18.487009375
30
0
0
VERTEX
8
0
10
18.728946875000002
20
18.458809375
30
0
0
VERTEX
8
0
10
18.663959375
20
18.424071875
30
0
0
VERTEX
8
0
10
18.602687500000002
20
18.38313125
30
0
0
VERTEX
8
0
10
18.545721875
20
18.336384375
30
0
0
VERTEX
8
0
10
18.493615625
20
18.284278125
30
0
0
VERTEX
8
0
10
18.44686875
20
18.2273125
30
0
0
VERTEX
8
0
10
18.405928125000003
20
18.166040625
30
0
0
VERTEX
8
0
10
18.371190625
20
18.101053125
30
0
0
VERTEX
8
0
10
18.342990625000002
20
18.032971875
30
0
0
VERTEX
8
0
10
18.3216
20
17.962456250000002
30
0
0
VERTEX
8
0
10
18.307221875
20
17.89018125
30
0
0
VERTEX
8
0
10
18.3
20
17.81684375
30
0
0
VERTEX
8
0
10
18.3
20
17.743156250000002
30
0
0
VERTEX
8
0
10
18.307221875
20
17.66981875
30
0
0
VERTEX
8
0
10
18.3216
20
17.59754375
30
0
0
VERTEX
8
0
10
18.342990625000002
20
17.527028125
30
0
0
VERTEX
8
0
10
18.371190625
20
17.458946875000002
30
0
0
VERTEX
8
0
10
18.405928125000003
20
17.393959375
30
0
0
VERTEX
8
0
10
18.44686875
20
17.332687500000002
30
0
0
VERTEX
8
0
10
18.493615625
20
17.275721875000002
30
0
0
VERTEX
8
0
10
18.545721875
20
17.223615625
30
0
0
VERTEX
8
0
10
18.602687500000002
20
17.17686875
30
0
0
VERTEX
8
0
10
18.663959375
20
17.135928125
30
0
0
VERTEX
8
0
10
18.728946875000002
20
17.101190625
30
0
0
VERTEX
8
0
10
18.797028125
20
17.072990625
30
0
0
VERTEX
8
0
10
18.86754375
20
17.0516
30
0
0
VERTEX
8
0
10
18.93981875
20
17.037221875
30
0
0
VERTEX
8
0
10
19.01315625
20
17.03
30
0
0
VERTEX
8
0
10
19.08684375
20
17.03
30
0
0
SEQEND
0
POLYLINE
66
1
8
16_copper
10
0.0
20
0.0
30
0.0
70
1
0
VERTEX
8
0
10
19.16018125
20
17.037221875
30
0
42
0.9999999999999999
0
VERTEX
8
0
10
18.93981875
20
18.522778125000002
30
0
0
VERTEX
8
0
10
18.86754375
20
18.5084
30
0
42
0.04875462367107236
0
VERTEX
8
0
10
18.729978125000002
20
18.459234375
30
0
0
VERTEX
8
0
10
18.034000000000002
20
19.1552125
30
0
0
VERTEX
8
0
10
18.034000000000002
20
46.99
30
0
42
0.198912367379658
0
VERTEX
8
0
10
17.95960625
20
47.16960625
30
0
0
VERTEX
8
0
10
12.87960625
20
52.24960625
30
0
42
0.198912367379658
0
VERTEX
8
0
10
12.700000000000001
20
52.324000000000005
30
0
0
VERTEX
8
0
10
8.995212500000001
20
52.324000000000005
30
0
0
VERTEX
8
0
10
4.492500000000001
20
56.8267125
30
0
0
VERTEX
8
0
10
4.5212
20
56.8554125
30
0
0
VERTEX
8
0
10
4.5212
20
57.444587500000004
30
0
0
VERTEX
8
0
10
4.1045875
20
57.861200000000004
30
0
0
VERTEX
8
0
10
3.5154125
20
57.861200000000004
30
0
0
VERTEX
8
0
10
3.0988
20
57.444587500000004
30
0
0
VERTEX
8
0
10
3.0988
20
56.8554125
30
0
0
VERTEX
8
0
10
3.5154125
20
56.4388
30
0
0
VERTEX
8
0
10
4.1045875
20
56.4388
30
0
0
VERTEX
8
0
10
4.1332875
20
56.4675
30
0
0
VERTEX
8
0
10
8.71039375
20
51.89039375
30
0
42
0.198912367379658
0
VERTEX
8
0
10
8.89
20
51.816
30
0
0
VERTEX
8
0
10
12.5947875
20
51.816
30
0
0
VERTEX
8
0
10
17.526
20
46.8847875
30
0
0
VERTEX
8
0
10
17.526
20
19.05
30
0
42
0.198912367379658
0
VERTEX
8
0
10
17.600393750000002
20
18.87039375
30
0
0
VERTEX
8
0
10
18.370765625
20
18.100021875
30
0
0
VERTEX
8
0
10
18.342990625000002
20
18.032971875
30
0
0
VERTEX
8
0
10
18.3216
20
17.962456250000002
30
0
0
VERTEX
8
0
10
18.307221875
20
17.89018125
30
0
0
VERTEX
8
0
10
18.3
20
17.81684375
30
0
0
VERTEX
8
0
10
18.3
20
17.743156250000002
30
0
0
VERTEX
8
0
10
18.307221875
20
17.66981875
30
0
0
VERTEX
8
0
10
18.3216
20
17.59754375
30
0
0
VERTEX
8
0
10
18.342990625000002
20
17.527028125
30
0
0
VERTEX
8
0
10
18.371190625
20
17.458946875000002
30
0
0
VERTEX
8
0
10
18.405928125000003
20
17.393959375
30
0
0
VERTEX
8
0
10
18.44686875
20
17.332687500000002
30
0
0
VERTEX
8
0
10
18.493615625
20
17.275721875000002
30
0
0
VERTEX
8
0
10
18.545721875
20
17.223615625
30
0
0
VERTEX
8
0
10
18.602687500000002
20
17.17686875
30
0
0
VERTEX
8
0
10
18.663959375
20
17.135928125
30
0
0
VERTEX
8
0
10
18.728946875000002
20
17.101190625
30
0
0
VERTEX
8
0
10
18.797028125
20
17.072990625
30
0
0
VERTEX
8
0
10
18.86754375
20
17.0516
30
0
0
VERTEX
8
0
10
18.93981875
20
17.037221875
30
0
0
VERTEX
8
0
10
19.01315625
20
17.03
30
0
0
VERTEX
8
0
10
19.08684375
20
17.03
30
0
0
SEQEND
0
POLYLINE
66
1
8
16_copper
10
0.0
20
0.0
30
0.0
70
1
0
VERTEX
8
0
10
34.40018125
20
17.037221875
30
0
42
0.5028927754174742
0
VERTEX
8
0
10
34.969234375
20
18.100021875
30
0
0
VERTEX
8
0
10
35.73960625
20
18.87039375
30
0
42
0.198912367379658
0
VERTEX
8
0
10
35.814
20
19.05
30
0
0
VERTEX
8
0
10
35.814
20
20.32
30
0
42
0.9999999999999999
0
VERTEX
8
0
10
35.306000000000004
20
20.32
30
0
0
VERTEX
8
0
10
35.306000000000004
20
19.1552125
30
0
0
VERTEX
8
0
10
34.610021875
20
18.459234375
30
0
0
VERTEX
8
0
10
34.542971875
20
18.487009375
30
0
0
VERTEX
8
0
10
34.47245625
20
18.5084
30
0
0
VERTEX
8
0
10
34.40018125
20
18.522778125000002
30
0
0
VERTEX
8
0
10
34.32684375
20
18.53
30
0
0
VERTEX
8
0
10
34.25315625
20
18.53
30
0
0
VERTEX
8
0
10
34.17981875
20
18.522778125000002
30
0
0
VERTEX
8
0
10
34.107543750000005
20
18.5084
30
0
0
VERTEX
8
0
10
34.037028125
20
18.487009375
30
0
0
VERTEX
8
0
10
33.968946875
20
18.458809375
30
0
0
VERTEX
8
0
10
33.903959375
20
18.424071875
30
0
0
VERTEX
8
0
10
33.842687500000004
20
18.38313125
30
0
0
VERTEX
8
0
10
33.785721875
20
18.336384375
30
0
0
VERTEX
8
0
10
33.733615625
20
18.284278125
30
0
0
VERTEX
8
0
10
33.68686875
20
18.2273125
30
0
0
VERTEX
8
0
10
33.645928125000005
20
18.166040625
30
0
0
VERTEX
8
0
10
33.611190625
20
18.101053125
30
0
0
VERTEX
8
0
10
33.582990625
20
18.032971875
30
0
0
VERTEX
8
0
10
33.5616
20
17.962456250000002
30
0
0
VERTEX
8
0
10
33.547221875
20
17.89018125
30
0
0
VERTEX
8
0
10
33.54
20
17.81684375
30
0
0
VERTEX
8
0
10
33.54
20
17.743156250000002
30
0
0
VERTEX
8
0
10
33.547221875
20
17.66981875
30
0
0
VERTEX
8
0
10
33.5616
20
17.59754375
30
0
0
VERTEX
8
0
10
33.582990625
20
17.527028125
30
0
0
VERTEX
8
0
10
33.611190625
20
17.458946875000002
30
0
0
VERTEX
8
0
10
33.645928125000005
20
17.393959375
30
0
0
VERTEX
8
0
10
33.68686875
20
17.332687500000002
30
0
0
VERTEX
8
0
10
33.733615625
20
17.275721875000002
30
0
0
VERTEX
8
0
10
33.785721875
20
17.223615625
30
0
0
VERTEX
8
0
10
33.842687500000004
20
17.17686875
30
0
0
VERTEX
8
0
10
33.903959375
20
17.135928125
30
0
0
VERTEX
8
0
10
33.968946875
20
17.101190625
30
0
0
VERTEX
8
0
10
34.037028125
20
17.072990625
30
0
0
VERTEX
8
0
10
34.107543750000005
20
17.0516
30
0
0
VERTEX
8
0
10
34.17981875
20
17.037221875
30
0
0
VERTEX
8
0
10
34.25315625
20
17.03
30
0
0
VERTEX
8
0
10
34.32684375
20
17.03
30
0
0
SEQEND
0
POLYLINE
66
1
8
1_copper
10
0.0
20
0.0
30
0.0
70
1
0
VERTEX
8
0
10
4.5212
20
59.395412500000006
30
0
0
VERTEX
8
0
10
4.5212
20
59.9845875
30
0
0
VERTEX
8
0
10
4.1045875
20
60.4012
30
0
0
VERTEX
8
0
10
3.5154125
20
60.4012
30
0
0
VERTEX
8
0
10
3.0988
20
59.9845875
30
0
0
VERTEX
8
0
10
3.0988
20
59.395412500000006
30
0
0
VERTEX
8
0
10
3.5154125
20
58.9788
30
0
0
VERTEX
8
0
10
4.1045875
20
58.9788
30
0
0
SEQEND
0
POLYLINE
66
1
8
1_copper
10
0.0
20
0.0
30
0.0
70
1
0
VERTEX
8
0
10
17.89018125
20
15.767221875
30
0
42
0.27633885160135374
0
VERTEX
8
0
10
18.486584375
20
16.256
30
0
0
VERTEX
8
0
10
36.123415625
20
16.256
30
0
42
0.9992603110310138
0
VERTEX
8
0
10
37.537009375000004
20
16.762971875
30
0
0
VERTEX
8
0
10
37.508809375
20
16.831053125
30
0
42
0.6676435748927864
0
VERTEX
8
0
10
36.123415625
20
16.764
30
0
0
VERTEX
8
0
10
18.486584375
20
16.764
30
0
0
VERTEX
8
0
10
18.458809375
20
16.831053125
30
0
0
VERTEX
8
0
10
18.424071875
20
16.896040625
30
0
0
VERTEX
8
0
10
18.38313125
20
16.9573125
30
0
0
VERTEX
8
0
10
18.336384375
20
17.014278125
30
0
0
VERTEX
8
0
10
18.284278125
20
17.066384375000002
30
0
0
VERTEX
8
0
10
18.2273125
20
17.113131250000002
30
0
0
VERTEX
8
0
10
18.166040625
20
17.154071875
30
0
0
VERTEX
8
0
10
18.101053125
20
17.188809375
30
0
0
VERTEX
8
0
10
18.032971875
20
17.217009375
30
0
0
VERTEX
8
0
10
17.962456250000002
20
17.238400000000002
30
0
0
VERTEX
8
0
10
17.89018125
20
17.252778125000003
30
0
0
VERTEX
8
0
10
17.81684375
20
17.26
30
0
0
VERTEX
8
0
10
17.743156250000002
20
17.26
30
0
0
VERTEX
8
0
10
17.66981875
20
17.252778125000003
30
0
0
VERTEX
8
0
10
17.59754375
20
17.238400000000002
30
0
0
VERTEX
8
0
10
17.527028125
20
17.217009375
30
0
0
VERTEX
8
0
10
17.458946875000002
20
17.188809375
30
0
0
VERTEX
8
0
10
17.393959375
20
17.154071875
30
0
0
VERTEX
8
0
10
17.332687500000002
20
17.113131250000002
30
0
0
VERTEX
8
0
10
17.275721875000002
20
17.066384375000002
30
0
0
VERTEX
8
0
10
17.223615625
20
17.014278125
30
0
0
VERTEX
8
0
10
17.17686875
20
16.9573125
30
0
0
VERTEX
8
0
10
17.135928125
20
16.896040625
30
0
0
VERTEX
8
0
10
17.101190625
20
16.831053125
30
0
0
VERTEX
8
0
10
17.072990625
20
16.762971875
30
0
0
VERTEX
8
0
10
17.0516
20
16.69245625
30
0
0
VERTEX
8
0
10
17.037221875
20
16.62018125
30
0
0
VERTEX
8
0
10
17.03
20
16.54684375
30
0
0
VERTEX
8
0
10
17.03
20
16.473156250000002
30
0
0
VERTEX
8
0
10
17.037221875
20
16.39981875
30
0
0
VERTEX
8
0
10
17.0516
20
16.32754375
30
0
0
VERTEX
8
0
10
17.072990625
20
16.257028125
30
0
0
VERTEX
8
0
10
17.101190625
20
16.188946875
30
0
0
VERTEX
8
0
10
17.135928125
20
16.123959375000002
30
0
0
VERTEX
8
0
10
17.17686875
20
16.0626875
30
0
0
VERTEX
8
0
10
17.223615625
20
16.005721875000003
30
0
0
VERTEX
8
0
10
17.275721875000002
20
15.953615625000001
30
0
0
VERTEX
8
0
10
17.332687500000002
20
15.906868750000001
30
0
0
VERTEX
8
0
10
17.393959375
20
15.865928125
30
0
0
VERTEX
8
0
10
17.458946875000002
20
15.831190625000001
30
0
0
VERTEX
8
0
10
17.527028125
20
15.802990625000001
30
0
0
VERTEX
8
0
10
17.59754375
20
15.781600000000001
30
0
0
VERTEX
8
0
10
17.66981875
20
15.767221875
30
0
0
VERTEX
8
0
10
17.743156250000002
20
15.760000000000002
30
0
0
VERTEX
8
0
10
17.81684375
20
15.760000000000002
30
0
0
SEQEND
0
POLYLINE
66
1
8
16_copper
10
0.0
20
0.0
30
0.0
70
1
0
VERTEX
8
0
10
17.89018125
20
15.767221875
30
0
42
0.9999999999999999
0
VERTEX
8
0
10
17.66981875
20
17.252778125000003
30
0
0
VERTEX
8
0
10
17.59754375
20
17.238400000000002
30
0
42
0.04875462367107236
0
VERTEX
8
0
10
17.459978125
20
17.189234375
30
0
0
VERTEX
8
0
10
16.764
20
17.8852125
30
0
0
VERTEX
8
0
10
16.764
20
35.56
30
0
42
0.198912367379658
0
VERTEX
8
0
10
16.68960625
20
35.73960625
30
0
0
VERTEX
8
0
10
14.739606250000001
20
37.689606250000004
30
0
42
0.198912367379658
0
VERTEX
8
0
10
14.56
20
37.764
30
0
0
VERTEX
8
0
10
13.48641875
20
37.764
30
0
0
VERTEX
8
0
10
2.9464
20
48.304018750000004
30
0
0
VERTEX
8
0
10
2.9464
20
57.50771875
30
0
0
VERTEX
8
0
10
3.98960625
20
58.550925
30
0
42
0.198912367379658
0
VERTEX
8
0
10
4.064
20
58.730531250000006
30
0
0
VERTEX
8
0
10
4.064
20
58.9788
30
0
0
VERTEX
8
0
10
4.1045875
20
58.9788
30
0
0
VERTEX
8
0
10
4.5212
20
59.395412500000006
30
0
0
VERTEX
8
0
10
4.5212
20
59.9845875
30
0
0
VERTEX
8
0
10
4.1045875
20
60.4012
30
0
0
VERTEX
8
0
10
3.5154125
20
60.4012
30
0
0
VERTEX
8
0
10
3.0988
20
59.9845875
30
0
0
VERTEX
8
0
10
3.0988
20
59.395412500000006
30
0
0
VERTEX
8
0
10
3.5154125
20
58.9788
30
0
0
VERTEX
8
0
10
3.556
20
58.9788
30
0
0
VERTEX
8
0
10
3.556
20
58.835743750000006
30
0
0
VERTEX
8
0
10
2.51279375
20
57.7925375
30
0
42
0.198912367379658
0
VERTEX
8
0
10
2.4384
20
57.61293125
30
0
0
VERTEX
8
0
10
2.4384
20
48.198806250000004
30
0
42
0.198912367379658
0
VERTEX
8
0
10
2.51279375
20
48.019200000000005
30
0
0
VERTEX
8
0
10
13.201600000000001
20
37.33039375
30
0
42
0.198912367379658
0
VERTEX
8
0
10
13.38120625
20
37.256
30
0
0
VERTEX
8
0
10
14.4547875
20
37.256
30
0
0
VERTEX
8
0
10
16.256
20
35.4547875
30
0
0
VERTEX
8
0
10
16.256
20
17.78
30
0
42
0.198912367379658
0
VERTEX
8
0
10
16.330393750000002
20
17.600393750000002
30
0
0
VERTEX
8
0
10
17.100765625
20
16.830021875
30
0
0
VERTEX
8
0
10
17.072990625
20
16.762971875
30
0
0
VERTEX
8
0
10
17.0516
20
16.69245625
30
0
0
VERTEX
8
0
10
17.037221875
20
16.62018125
30
0
0
VERTEX
8
0
10
17.03
20
16.54684375
30
0
0
VERTEX
8
0
10
17.03
20
16.473156250000002
30
0
0
VERTEX
8
0
10
17.037221875
20
16.39981875
30
0
0
VERTEX
8
0
10
17.0516
20
16.32754375
30
0
0
VERTEX
8
0
10
17.072990625
20
16.257028125
30
0
0
VERTEX
8
0
10
17.101190625
20
16.188946875
30
0
0
VERTEX
8
0
10
17.135928125
20
16.123959375000002
30
0
0
VERTEX
8
0
10
17.17686875
20
16.0626875
30
0
0
VERTEX
8
0
10
17.223615625
20
16.005721875000003
30
0
0
VERTEX
8
0
10
17.275721875000002
20
15.953615625000001
30
0
0
VERTEX
8
0
10
17.332687500000002
20
15.906868750000001
30
0
0
VERTEX
8
0
10
17.393959375
20
15.865928125
30
0
0
VERTEX
8
0
10
17.458946875000002
20
15.831190625000001
30
0
0
VERTEX
8
0
10
17.527028125
20
15.802990625000001
30
0
0
VERTEX
8
0
10
17.59754375
20
15.781600000000001
30
0
0
VERTEX
8
0
10
17.66981875
20
15.767221875
30
0
0
VERTEX
8
0
10
17.743156250000002
20
15.760000000000002
30
0
0
VERTEX
8
0
10
17.81684375
20
15.760000000000002
30
0
0
SEQEND
0
POLYLINE
66
1
8
16_copper
10
0.0
20
0.0
30
0.0
70
1
0
VERTEX
8
0
10
36.94018125
20
15.767221875
30
0
42
0.5028927754174742
0
VERTEX
8
0
10
37.509234375
20
16.830021875
30
0
0
VERTEX
8
0
10
38.27960625
20
17.600393750000002
30
0
42
0.198912367379658
0
VERTEX
8
0
10
38.354
20
17.78
30
0
0
VERTEX
8
0
10
38.354
20
20.32
30
0
42
0.9999999999999999
0
VERTEX
8
0
10
37.846000000000004
20
20.32
30
0
0
VERTEX
8
0
10
37.846000000000004
20
17.8852125
30
0
0
VERTEX
8
0
10
37.150021875
20
17.189234375
30
0
0
VERTEX
8
0
10
37.082971875
20
17.217009375
30
0
0
VERTEX
8
0
10
37.01245625
20
17.238400000000002
30
0
0
VERTEX
8
0
10
36.94018125
20
17.252778125000003
30
0
0
VERTEX
8
0
10
36.86684375
20
17.26
30
0
0
VERTEX
8
0
10
36.79315625
20
17.26
30
0
0
VERTEX
8
0
10
36.71981875
20
17.252778125000003
30
0
0
VERTEX
8
0
10
36.647543750000004
20
17.238400000000002
30
0
0
VERTEX
8
0
10
36.577028125
20
17.217009375
30
0
0
VERTEX
8
0
10
36.508946875
20
17.188809375
30
0
0
VERTEX
8
0
10
36.443959375
20
17.154071875
30
0
0
VERTEX
8
0
10
36.3826875
20
17.113131250000002
30
0
0
VERTEX
8
0
10
36.325721875
20
17.066384375000002
30
0
0
VERTEX
8
0
10
36.273615625000005
20
17.014278125
30
0
0
VERTEX
8
0
10
36.22686875
20
16.9573125
30
0
0
VERTEX
8
0
10
36.185928125000004
20
16.896040625
30
0
0
VERTEX
8
0
10
36.151190625000005
20
16.831053125
30
0
0
VERTEX
8
0
10
36.122990625
20
16.762971875
30
0
0
VERTEX
8
0
10
36.101600000000005
20
16.69245625
30
0
0
VERTEX
8
0
10
36.087221875000004
20
16.62018125
30
0
0
VERTEX
8
0
10
36.08
20
16.54684375
30
0
0
VERTEX
8
0
10
36.08
20
16.473156250000002
30
0
0
VERTEX
8
0
10
36.087221875000004
20
16.39981875
30
0
0
VERTEX
8
0
10
36.101600000000005
20
16.32754375
30
0
0
VERTEX
8
0
10
36.122990625
20
16.257028125
30
0
0
VERTEX
8
0
10
36.151190625000005
20
16.188946875
30
0
0
VERTEX
8
0
10
36.185928125000004
20
16.123959375000002
30
0
0
VERTEX
8
0
10
36.22686875
20
16.0626875
30
0
0
VERTEX
8
0
10
36.273615625000005
20
16.005721875000003
30
0
0
VERTEX
8
0
10
36.325721875
20
15.953615625000001
30
0
0
VERTEX
8
0
10
36.3826875
20
15.906868750000001
30
0
0
VERTEX
8
0
10
36.443959375
20
15.865928125
30
0
0
VERTEX
8
0
10
36.508946875
20
15.831190625000001
30
0
0
VERTEX
8
0
10
36.577028125
20
15.802990625000001
30
0
0
VERTEX
8
0
10
36.647543750000004
20
15.781600000000001
30
0
0
VERTEX
8
0
10
36.71981875
20
15.767221875
30
0
0
VERTEX
8
0
10
36.79315625
20
15.760000000000002
30
0
0
VERTEX
8
0
10
36.86684375
20
15.760000000000002
30
0
0
SEQEND
0
POLYLINE
66
1
8
1_copper
10
0.0
20
0.0
30
0.0
70
1
0
VERTEX
8
0
10
25.562743750000003
20
9.125937500000001
30
0
42
0.9063472543261978
0
VERTEX
8
0
10
25.488234375
20
10.6426
30
0
0
VERTEX
8
0
10
23.889365625
20
10.6426
30
0
42
0.9520795017710562
0
VERTEX
8
0
10
23.889365625
20
9.1186
30
0
0
VERTEX
8
0
10
25.488234375
20
9.1186
30
0
0
SEQEND
0
POLYLINE
66
1
8
16_copper
10
0.0
20
0.0
30
0.0
70
1
0
VERTEX
8
0
10
24.110584375000002
20
29.462475
30
0
42
0.1790390709365824
0
VERTEX
8
0
10
23.95039375
20
29.38960625
30
0
0
VERTEX
8
0
10
21.41039375
20
26.84960625
30
0
42
0.198912367379658
0
VERTEX
8
0
10
21.336000000000002
20
26.67
30
0
0
VERTEX
8
0
10
21.336000000000002
20
12.9794
30
0
42
0.198912367379658
0
VERTEX
8
0
10
21.41039375
20
12.799793750000001
30
0
0
VERTEX
8
0
10
23.628403125000002
20
10.581784375
30
0
42
0.7963966849433909
0
VERTEX
8
0
10
23.889365625
20
9.1186
30
0
0
VERTEX
8
0
10
25.488234375
20
9.1186
30
0
42
0.9520795017710562
0
VERTEX
8
0
10
25.488234375
20
10.6426
30
0
0
VERTEX
8
0
10
24.286012500000002
20
10.6426
30
0
0
VERTEX
8
0
10
21.844
20
13.0846125
30
0
0
VERTEX
8
0
10
21.844
20
26.5647875
30
0
0
VERTEX
8
0
10
24.235212500000003
20
28.956000000000003
30
0
0
VERTEX
8
0
10
26.5647875
20
28.956000000000003
30
0
0
VERTEX
8
0
10
27.760393750000002
20
27.760393750000002
30
0
42
0.9999999999999999
0
VERTEX
8
0
10
28.11960625
20
28.11960625
30
0
0
VERTEX
8
0
10
26.84960625
20
29.38960625
30
0
42
0.198912367379658
0
VERTEX
8
0
10
26.67
20
29.464000000000002
30
0
0
VERTEX
8
0
10
24.130000000000003
20
29.464000000000002
30
0
0
SEQEND
0
POLYLINE
66
1
8
1_copper
10
0.0
20
0.0
30
0.0
70
1
0
VERTEX
8
0
10
36.99274375
20
9.125937500000001
30
0
42
0.9063472543261978
0
VERTEX
8
0
10
36.918234375000004
20
10.6426
30
0
0
VERTEX
8
0
10
35.319365625
20
10.6426
30
0
42
0.9520795017710562
0
VERTEX
8
0
10
35.319365625
20
9.1186
30
0
0
VERTEX
8
0
10
36.918234375000004
20
9.1186
30
0
0
SEQEND
0
POLYLINE
66
1
8
16_copper
10
0.0
20
0.0
30
0.0
70
1
0
VERTEX
8
0
10
36.99274375
20
9.125937500000001
30
0
42
0.9063472543261978
0
VERTEX
8
0
10
36.918234375000004
20
10.6426
30
0
0
VERTEX
8
0
10
35.716012500000005
20
10.6426
30
0
0
VERTEX
8
0
10
28.194000000000003
20
18.1646125
30
0
0
VERTEX
8
0
10
28.194000000000003
20
20.32
30
0
42
0.9999999999999999
0
VERTEX
8
0
10
27.686
20
20.32
30
0
0
VERTEX
8
0
10
27.686
20
18.0594
30
0
42
0.198912367379658
0
VERTEX
8
0
10
27.760393750000002
20
17.87979375
30
0
0
VERTEX
8
0
10
35.058403125000005
20
10.581784375
30
0
42
0.7963966849433909
0
VERTEX
8
0
10
35.319365625
20
9.1186
30
0
0
VERTEX
8
0
10
36.918234375000004
20
9.1186
30
0
0
SEQEND
0
POLYLINE
66
1
8
1_copper
10
0.0
20
0.0
30
0.0
70
1
0
VERTEX
8
0
10
48.42274375
20
9.125937500000001
30
0
42
0.9063472543261978
0
VERTEX
8
0
10
48.348234375000004
20
10.6426
30
0
0
VERTEX
8
0
10
46.749365625
20
10.6426
30
0
42
0.9520795017710562
0
VERTEX
8
0
10
46.749365625
20
9.1186
30
0
0
VERTEX
8
0
10
48.348234375000004
20
9.1186
30
0
0
SEQEND
0
POLYLINE
66
1
8
16_copper
10
0.0
20
0.0
30
0.0
70
1
0
VERTEX
8
0
10
48.42274375
20
9.125937500000001
30
0
42
0.9063472543261978
0
VERTEX
8
0
10
48.348234375000004
20
10.6426
30
0
0
VERTEX
8
0
10
47.146012500000005
20
10.6426
30
0
0
VERTEX
8
0
10
44.909006250000004
20
12.87960625
30
0
42
0.198912367379658
0
VERTEX
8
0
10
44.729400000000005
20
12.954
30
0
0
VERTEX
8
0
10
34.3952125
20
12.954
30
0
0
VERTEX
8
0
10
30.734
20
16.615212500000002
30
0
0
VERTEX
8
0
10
30.734
20
20.32
30
0
42
0.9999999999999999
0
VERTEX
8
0
10
30.226000000000003
20
20.32
30
0
0
VERTEX
8
0
10
30.226000000000003
20
16.51
30
0
42
0.198912367379658
0
VERTEX
8
0
10
30.30039375
20
16.330393750000002
30
0
0
VERTEX
8
0
10
34.11039375
20
12.52039375
30
0
42
0.198912367379658
0
VERTEX
8
0
10
34.29
20
12.446
30
0
0
VERTEX
8
0
10
44.624187500000005
20
12.446
30
0
0
VERTEX
8
0
10
46.488403125000005
20
10.581784375
30
0
42
0.7963966849433909
0
VERTEX
8
0
10
46.749365625
20
9.1186
30
0
0
VERTEX
8
0
10
48.348234375000004
20
9.1186
30
0
0
SEQEND
0
POLYLINE
66
1
8
1_copper
10
0.0
20
0.0
30
0.0
70
1
0
VERTEX
8
0
10
52.7304
20
75.92645625
30
0
0
VERTEX
8
0
10
52.7304
20
76.47354375
30
0
0
VERTEX
8
0
10
52.34354375
20
76.8604
30
0
0
VERTEX
8
0
10
51.796456250000006
20
76.8604
30
0
0
VERTEX
8
0
10
51.409600000000005
20
76.47354375
30
0
0
VERTEX
8
0
10
51.409600000000005
20
75.92645625
30
0
0
VERTEX
8
0
10
51.796456250000006
20
75.53960000000001
30
0
0
VERTEX
8
0
10
52.34354375
20
75.53960000000001
30
0
0
SEQEND
0
POLYLINE
66
1
8
16_copper
10
0.0
20
0.0
30
0.0
70
1
0
VERTEX
8
0
10
52.7304
20
75.92645625
30
0
0
VERTEX
8
0
10
52.7304
20
76.47354375
30
0
0
VERTEX
8
0
10
52.34354375
20
76.8604
30
0
0
VERTEX
8
0
10
51.796456250000006
20
76.8604
30
0
0
VERTEX
8
0
10
51.409600000000005
20
76.47354375
30
0
0
VERTEX
8
0
10
51.409600000000005
20
75.92645625
30
0
0
VERTEX
8
0
10
51.796456250000006
20
75.53960000000001
30
0
0
VERTEX
8
0
10
52.34354375
20
75.53960000000001
30
0
0
SEQEND
0
POLYLINE
66
1
8
1_copper
10
0.0
20
0.0
30
0.0
70
1
0
VERTEX
8
0
10
2.84021875
20
42.525959375
30
0
42
0.9063462356499619
0
VERTEX
8
0
10
2.77564375
20
43.8404
30
0
0
VERTEX
8
0
10
1.38995625
20
43.8404
30
0
42
0.9520786018124834
0
VERTEX
8
0
10
1.38995625
20
42.519600000000004
30
0
0
VERTEX
8
0
10
2.77564375
20
42.519600000000004
30
0
0
SEQEND
0
POLYLINE
66
1
8
1_copper
10
0.0
20
0.0
30
0.0
70
1
0
VERTEX
8
0
10
13.39065
20
5.6276093750000005
30
0
42
0.3639699917874411
0
VERTEX
8
0
10
14.260000000000002
20
6.5763375
30
0
0
VERTEX
8
0
10
14.260000000000002
20
8.663662500000001
30
0
42
0.9572902530839056
0
VERTEX
8
0
10
12.26
20
8.663662500000001
30
0
0
VERTEX
8
0
10
12.26
20
6.5763375
30
0
0
VERTEX
8
0
10
12.267609375000001
20
6.48935
30
0
0
VERTEX
8
0
10
12.282775
20
6.403353125000001
30
0
0
VERTEX
8
0
10
12.305375
20
6.31900625
30
0
0
VERTEX
8
0
10
12.335240625
20
6.236953125
30
0
0
VERTEX
8
0
10
12.372143750000001
20
6.1578125
30
0
0
VERTEX
8
0
10
12.415806250000001
20
6.0821875
30
0
0
VERTEX
8
0
10
12.465890625
20
6.010659375
30
0
0
VERTEX
8
0
10
12.52201875
20
5.943765625
30
0
0
VERTEX
8
0
10
12.583765625
20
5.88201875
30
0
0
VERTEX
8
0
10
12.650659375
20
5.825890625
30
0
0
VERTEX
8
0
10
12.7221875
20
5.7758062500000005
30
0
0
VERTEX
8
0
10
12.797812500000001
20
5.7321437500000005
30
0
0
VERTEX
8
0
10
12.876953125
20
5.695240625
30
0
0
VERTEX
8
0
10
12.95900625
20
5.665375
30
0
0
VERTEX
8
0
10
13.043353125000001
20
5.642775
30
0
0
VERTEX
8
0
10
13.12935
20
5.6276093750000005
30
0
0
VERTEX
8
0
10
13.2163375
20
5.62
30
0
0
VERTEX
8
0
10
13.303662500000002
20
5.62
30
0
0
SEQEND
0
POLYLINE
66
1
8
16_copper
10
0.0
20
0.0
30
0.0
70
1
0
VERTEX
8
0
10
2.84021875
20
42.525959375
30
0
42
0.9063462356499619
0
VERTEX
8
0
10
2.77564375
20
43.8404
30
0
0
VERTEX
8
0
10
1.38995625
20
43.8404
30
0
42
0.9520786018124834
0
VERTEX
8
0
10
1.38995625
20
42.519600000000004
30
0
0
VERTEX
8
0
10
2.77564375
20
42.519600000000004
30
0
0
SEQEND
0
POLYLINE
66
1
8
16_copper
10
0.0
20
0.0
30
0.0
70
1
0
VERTEX
8
0
10
13.39065
20
5.6276093750000005
30
0
42
0.3639699917874411
0
VERTEX
8
0
10
14.260000000000002
20
6.5763375
30
0
0
VERTEX
8
0
10
14.260000000000002
20
8.663662500000001
30
0
42
0.9572902530839056
0
VERTEX
8
0
10
12.26
20
8.663662500000001
30
0
0
VERTEX
8
0
10
12.26
20
6.5763375
30
0
0
VERTEX
8
0
10
12.267609375000001
20
6.48935
30
0
0
VERTEX
8
0
10
12.282775
20
6.403353125000001
30
0
0
VERTEX
8
0
10
12.305375
20
6.31900625
30
0
0
VERTEX
8
0
10
12.335240625
20
6.236953125
30
0
0
VERTEX
8
0
10
12.372143750000001
20
6.1578125
30
0
0
VERTEX
8
0
10
12.415806250000001
20
6.0821875
30
0
0
VERTEX
8
0
10
12.465890625
20
6.010659375
30
0
0
VERTEX
8
0
10
12.52201875
20
5.943765625
30
0
0
VERTEX
8
0
10
12.583765625
20
5.88201875
30
0
0
VERTEX
8
0
10
12.650659375
20
5.825890625
30
0
0
VERTEX
8
0
10
12.7221875
20
5.7758062500000005
30
0
0
VERTEX
8
0
10
12.797812500000001
20
5.7321437500000005
30
0
0
VERTEX
8
0
10
12.876953125
20
5.695240625
30
0
0
VERTEX
8
0
10
12.95900625
20
5.665375
30
0
0
VERTEX
8
0
10
13.043353125000001
20
5.642775
30
0
0
VERTEX
8
0
10
13.12935
20
5.6276093750000005
30
0
0
VERTEX
8
0
10
13.2163375
20
5.62
30
0
0
VERTEX
8
0
10
13.303662500000002
20
5.62
30
0
0
SEQEND
0
POLYLINE
66
1
8
1_copper
10
0.0
20
0.0
30
0.0
70
1
0
VERTEX
8
0
10
2.84021875
20
40.036759375
30
0
42
0.9063462356499619
0
VERTEX
8
0
10
2.77564375
20
41.3512
30
0
0
VERTEX
8
0
10
1.38995625
20
41.3512
30
0
42
0.9520786018124834
0
VERTEX
8
0
10
1.38995625
20
40.0304
30
0
0
VERTEX
8
0
10
2.77564375
20
40.0304
30
0
0
SEQEND
0
POLYLINE
66
1
8
1_copper
10
0.0
20
0.0
30
0.0
70
1
0
VERTEX
8
0
10
8.077200000000001
20
17.8562
30
0
0
VERTEX
8
0
10
6.146800000000001
20
17.8562
30
0
0
VERTEX
8
0
10
6.146800000000001
20
15.9258
30
0
0
VERTEX
8
0
10
8.077200000000001
20
15.9258
30
0
0
SEQEND
0
POLYLINE
66
1
8
16_copper
10
0.0
20
0.0
30
0.0
70
1
0
VERTEX
8
0
10
2.84021875
20
40.036759375
30
0
42
0.9063462356499619
0
VERTEX
8
0
10
2.77564375
20
41.3512
30
0
0
VERTEX
8
0
10
1.38995625
20
41.3512
30
0
42
0.9520786018124834
0
VERTEX
8
0
10
1.38995625
20
40.0304
30
0
0
VERTEX
8
0
10
2.77564375
20
40.0304
30
0
0
SEQEND
0
POLYLINE
66
1
8
16_copper
10
0.0
20
0.0
30
0.0
70
1
0
VERTEX
8
0
10
8.077200000000001
20
17.8562
30
0
0
VERTEX
8
0
10
6.146800000000001
20
17.8562
30
0
0
VERTEX
8
0
10
6.146800000000001
20
15.9258
30
0
0
VERTEX
8
0
10
8.077200000000001
20
15.9258
30
0
0
SEQEND
0
POLYLINE
66
1
8
1_copper
10
0.0
20
0.0
30
0.0
70
1
0
VERTEX
8
0
10
43.8404
20
17.50645625
30
0
0
VERTEX
8
0
10
43.8404
20
18.05354375
30
0
0
VERTEX
8
0
10
43.45354375
20
18.4404
30
0
0
VERTEX
8
0
10
42.906456250000005
20
18.4404
30
0
0
VERTEX
8
0
10
42.519600000000004
20
18.05354375
30
0
0
VERTEX
8
0
10
42.519600000000004
20
17.50645625
30
0
0
VERTEX
8
0
10
42.906456250000005
20
17.119600000000002
30
0
0
VERTEX
8
0
10
43.45354375
20
17.119600000000002
30
0
0
SEQEND
0
POLYLINE
66
1
8
16_copper
10
0.0
20
0.0
30
0.0
70
1
0
VERTEX
8
0
10
43.8404
20
17.50645625
30
0
0
VERTEX
8
0
10
43.8404
20
18.05354375
30
0
0
VERTEX
8
0
10
43.45354375
20
18.4404
30
0
0
VERTEX
8
0
10
43.434000000000005
20
18.4404
30
0
0
VERTEX
8
0
10
43.434000000000005
20
20.32
30
0
42
0.9999999999999999
0
VERTEX
8
0
10
42.926
20
20.32
30
0
0
VERTEX
8
0
10
42.926
20
18.4404
30
0
0
VERTEX
8
0
10
42.906456250000005
20
18.4404
30
0
0
VERTEX
8
0
10
42.519600000000004
20
18.05354375
30
0
0
VERTEX
8
0
10
42.519600000000004
20
17.50645625
30
0
0
VERTEX
8
0
10
42.906456250000005
20
17.119600000000002
30
0
0
VERTEX
8
0
10
43.45354375
20
17.119600000000002
30
0
0
SEQEND
0
CIRCLE
8
drills_NPTH
10
14.57
20
40.38
30
0
40
1.6
0
CIRCLE
8
drills_NPTH
10
89.57000000000001
20
71.38000000000001
30
0
40
1.6
0
CIRCLE
8
drills_NPTH
10
14.57
20
71.38000000000001
30
0
40
1.6
0
CIRCLE
8
drills_NPTH
10
-8.89
20
19.304000000000002
30
0
40
1.4000000000000001
0
CIRCLE
8
drills_PTH
10
27.94
20
20.32
30
0
40
0.5588000000000001
0
CIRCLE
8
drills_PTH
10
58.42
20
20.32
30
0
40
0.5588000000000001
0
CIRCLE
8
drills_PTH
10
30.48
20
20.32
30
0
40
0.5588000000000001
0
CIRCLE
8
drills_PTH
10
33.02
20
20.32
30
0
40
0.5588000000000001
0
CIRCLE
8
drills_PTH
10
35.56
20
20.32
30
0
40
0.5588000000000001
0
CIRCLE
8
drills_PTH
10
38.1
20
20.32
30
0
40
0.5588000000000001
0
CIRCLE
8
drills_PTH
10
40.64
20
20.32
30
0
40
0.5588000000000001
0
CIRCLE
8
drills_PTH
10
43.18
20
20.32
30
0
40
0.5588000000000001
0
CIRCLE
8
drills_PTH
10
45.72
20
20.32
30
0
40
0.5588000000000001
0
CIRCLE
8
drills_PTH
10
48.260000000000005
20
20.32
30
0
40
0.5588000000000001
0
CIRCLE
8
drills_PTH
10
50.800000000000004
20
20.32
30
0
40
0.5588000000000001
0
CIRCLE
8
drills_PTH
10
53.34
20
20.32
30
0
40
0.5588000000000001
0
CIRCLE
8
drills_PTH
10
55.88
20
20.32
30
0
40
0.5588000000000001
0
CIRCLE
8
drills_PTH
10
27.94
20
27.94
30
0
40
0.5588000000000001
0
CIRCLE
8
drills_PTH
10
60.96
20
27.94
30
0
40
0.5588000000000001
0
CIRCLE
8
drills_PTH
10
58.42
20
27.94
30
0
40
0.5588000000000001
0
CIRCLE
8
drills_PTH
10
55.88
20
27.94
30
0
40
0.5588000000000001
0
CIRCLE
8
drills_PTH
10
53.34
20
27.94
30
0
40
0.5588000000000001
0
CIRCLE
8
drills_PTH
10
50.800000000000004
20
27.94
30
0
40
0.5588000000000001
0
CIRCLE
8
drills_PTH
10
48.260000000000005
20
27.94
30
0
40
0.5588000000000001
0
CIRCLE
8
drills_PTH
10
45.72
20
27.94
30
0
40
0.5588000000000001
0
CIRCLE
8
drills_PTH
10
43.18
20
27.94
30
0
40
0.5588000000000001
0
CIRCLE
8
drills_PTH
10
40.64
20
27.94
30
0
40
0.5588000000000001
0
CIRCLE
8
drills_PTH
10
38.1
20
27.94
30
0
40
0.5588000000000001
0
CIRCLE
8
drills_PTH
10
35.56
20
27.94
30
0
40
0.5588000000000001
0
CIRCLE
8
drills_PTH
10
33.02
20
27.94
30
0
40
0.5588000000000001
0
CIRCLE
8
drills_PTH
10
30.48
20
27.94
30
0
40
0.5588000000000001
0
CIRCLE
8
drills_PTH
10
60.96
20
20.32
30
0
40
0.5588000000000001
0
CIRCLE
8
drills_PTH
10
7.112
20
21.463
30
0
40
0.55
0
CIRCLE
8
drills_PTH
10
7.112
20
19.177
30
0
40
0.55
0
CIRCLE
8
drills_PTH
10
7.112
20
16.891000000000002
30
0
40
0.55
0
CIRCLE
8
drills_PTH
10
42.6212
20
9.880600000000001
30
0
40
0.508
0
CIRCLE
8
drills_PTH
10
25.150000000000002
20
71.38000000000001
30
0
40
0.508
0
CIRCLE
8
drills_PTH
10
42.6212
20
5.3594
30
0
40
0.508
0
CIRCLE
8
drills_PTH
10
47.5488
20
9.880600000000001
30
0
40
0.508
0
CIRCLE
8
drills_PTH
10
47.5488
20
5.3594
30
0
40
0.508
0
CIRCLE
8
drills_PTH
10
54.0512
20
9.880600000000001
30
0
40
0.508
0
CIRCLE
8
drills_PTH
10
54.0512
20
5.3594
30
0
40
0.508
0
CIRCLE
8
drills_PTH
10
58.9788
20
9.880600000000001
30
0
40
0.508
0
CIRCLE
8
drills_PTH
10
58.9788
20
5.3594
30
0
40
0.508
0
CIRCLE
8
drills_PTH
10
65.4812
20
9.880600000000001
30
0
40
0.508
0
CIRCLE
8
drills_PTH
10
65.4812
20
5.3594
30
0
40
0.508
0
CIRCLE
8
drills_PTH
10
76.2
20
76.2
30
0
40
0.508
0
CIRCLE
8
drills_PTH
10
78.74000000000001
20
76.2
30
0
40
0.508
0
CIRCLE
8
drills_PTH
10
81.28
20
76.2
30
0
40
0.508
0
CIRCLE
8
drills_PTH
10
66.04
20
76.2
30
0
40
0.508
0
CIRCLE
8
drills_PTH
10
68.58
20
76.2
30
0
40
0.508
0
CIRCLE
8
drills_PTH
10
71.12
20
76.2
30
0
40
0.508
0
CIRCLE
8
drills_PTH
10
55.88
20
76.2
30
0
40
0.508
0
CIRCLE
8
drills_PTH
10
58.42
20
76.2
30
0
40
0.508
0
CIRCLE
8
drills_PTH
10
60.96
20
76.2
30
0
40
0.508
0
CIRCLE
8
drills_PTH
10
86.36
20
76.2
30
0
40
0.508
0
CIRCLE
8
drills_PTH
10
88.9
20
76.2
30
0
40
0.508
0
CIRCLE
8
drills_PTH
10
91.44
20
76.2
30
0
40
0.508
0
CIRCLE
8
drills_PTH
10
36.1188
20
9.880600000000001
30
0
40
0.508
0
CIRCLE
8
drills_PTH
10
22.61
20
71.38000000000001
30
0
40
0.508
0
CIRCLE
8
drills_PTH
10
27.69
20
71.38000000000001
30
0
40
0.508
0
CIRCLE
8
drills_PTH
10
30.23
20
71.38000000000001
30
0
40
0.508
0
CIRCLE
8
drills_PTH
10
32.77
20
71.38000000000001
30
0
40
0.508
0
CIRCLE
8
drills_PTH
10
35.31
20
71.38000000000001
30
0
40
0.508
0
CIRCLE
8
drills_PTH
10
37.85
20
71.38000000000001
30
0
40
0.508
0
CIRCLE
8
drills_PTH
10
40.39
20
71.38000000000001
30
0
40
0.508
0
CIRCLE
8
drills_PTH
10
42.93
20
71.38000000000001
30
0
40
0.508
0
CIRCLE
8
drills_PTH
10
45.47
20
71.38000000000001
30
0
40
0.508
0
CIRCLE
8
drills_PTH
10
48.010000000000005
20
71.38000000000001
30
0
40
0.508
0
CIRCLE
8
drills_PTH
10
50.550000000000004
20
71.38000000000001
30
0
40
0.508
0
CIRCLE
8
drills_PTH
10
53.09
20
71.38000000000001
30
0
40
0.508
0
CIRCLE
8
drills_PTH
10
55.63
20
71.38000000000001
30
0
40
0.508
0
CIRCLE
8
drills_PTH
10
58.17
20
71.38000000000001
30
0
40
0.508
0
CIRCLE
8
drills_PTH
10
20.07
20
71.38000000000001
30
0
40
0.508
0
CIRCLE
8
drills_PTH
10
36.1188
20
5.3594
30
0
40
0.508
0
CIRCLE
8
drills_PTH
10
78.74000000000001
20
33.02
30
0
40
0.508
0
CIRCLE
8
drills_PTH
10
81.28
20
33.02
30
0
40
0.508
0
CIRCLE
8
drills_PTH
10
83.82000000000001
20
33.02
30
0
40
0.508
0
CIRCLE
8
drills_PTH
10
86.36
20
33.02
30
0
40
0.508
0
CIRCLE
8
drills_PTH
10
88.9
20
33.02
30
0
40
0.508
0
CIRCLE
8
drills_PTH
10
24.6888
20
9.880600000000001
30
0
40
0.508
0
CIRCLE
8
drills_PTH
10
24.6888
20
5.3594
30
0
40
0.508
0
CIRCLE
8
drills_PTH
10
31.191200000000002
20
9.880600000000001
30
0
40
0.508
0
CIRCLE
8
drills_PTH
10
31.191200000000002
20
5.3594
30
0
40
0.508
0
CIRCLE
8
drills_via_1_16
10
66.04
20
40.64
30
0
40
0.5
0
CIRCLE
8
drills_via_1_16
10
17.78
20
16.51
30
0
40
0.5
0
CIRCLE
8
drills_via_1_16
10
77.47
20
43.18
30
0
40
0.5
0
CIRCLE
8
drills_via_1_16
10
62.230000000000004
20
43.18
30
0
40
0.5
0
CIRCLE
8
drills_via_1_16
10
39.370000000000005
20
13.97
30
0
40
0.5
0
CIRCLE
8
drills_via_1_16
10
26.67
20
13.97
30
0
40
0.5
0
CIRCLE
8
drills_via_1_16
10
34.29
20
17.78
30
0
40
0.5
0
CIRCLE
8
drills_via_1_16
10
19.05
20
17.78
30
0
40
0.5
0
CIRCLE
8
drills_via_1_16
10
36.83
20
16.51
30
0
40
0.5
0
CIRCLE
8
drills_via_1_16
10
15.24
20
21.59
30
0
40
0.5
0
CIRCLE
8
drills_via_1_16
10
66.04
20
33.02
30
0
40
0.5
0
CIRCLE
8
drills_via_1_16
10
73.66
20
44.45
30
0
40
0.5
0
CIRCLE
8
drills_via_1_16
10
64.77
20
44.45
30
0
40
0.5
0
CIRCLE
8
drills_via_1_16
10
76.2
20
30.48
30
0
40
0.5
0
CIRCLE
8
drills_via_1_16
10
76.2
20
16.51
30
0
40
0.5
0
CIRCLE
8
drills_via_1_16
10
64.77
20
46.99
30
0
40
0.5
0
CIRCLE
8
drills_via_1_16
10
78.74000000000001
20
46.99
30
0
40
0.5
0
CIRCLE
8
drills_via_1_16
10
64.77
20
49.53
30
0
40
0.5
0
CIRCLE
8
drills_via_1_16
10
83.82000000000001
20
49.53
30
0
40
0.5
0
CIRCLE
8
drills_via_1_16
10
25.400000000000002
20
21.59
30
0
40
0.5
0
CIRCLE
8
drills_PTH
10
13.26
20
7.62
30
0
40
0.5
0
CIRCLE
8
drills_PTH
10
7.16
20
7.62
30
0
40
0.5
0
CIRCLE
8
drills_PTH
10
10.16
20
2.8200000000000003
30
0
40
0.5
0
CIRCLE
8
drills_PTH
10
3.81
20
64.77
30
0
40
0.4572
0
CIRCLE
8
drills_PTH
10
3.81
20
62.230000000000004
30
0
40
0.4572
0
CIRCLE
8
drills_PTH
10
6.3500000000000005
20
62.230000000000004
30
0
40
0.4572
0
CIRCLE
8
drills_PTH
10
3.81
20
59.690000000000005
30
0
40
0.4572
0
CIRCLE
8
drills_PTH
10
6.3500000000000005
20
59.690000000000005
30
0
40
0.4572
0
CIRCLE
8
drills_PTH
10
3.81
20
57.150000000000006
30
0
40
0.4572
0
CIRCLE
8
drills_PTH
10
6.3500000000000005
20
57.150000000000006
30
0
40
0.4572
0
CIRCLE
8
drills_PTH
10
6.3500000000000005
20
64.77
30
0
40
0.4572
0
CIRCLE
8
drills_PTH
10
6.3500000000000005
20
67.31
30
0
40
0.4572
0
CIRCLE
8
drills_PTH
10
3.81
20
67.31
30
0
40
0.4572
0
CIRCLE
8
drills_PTH
10
9.398
20
30.48
30
0
40
0.40640000000000004
0
CIRCLE
8
drills_PTH
10
41.910000000000004
20
38.1
30
0
40
0.40640000000000004
0
CIRCLE
8
drills_PTH
10
44.45
20
38.1
30
0
40
0.40640000000000004
0
CIRCLE
8
drills_PTH
10
43.18
20
17.78
30
0
40
0.40640000000000004
0
CIRCLE
8
drills_PTH
10
45.72
20
17.78
30
0
40
0.40640000000000004
0
CIRCLE
8
drills_PTH
10
44.45
20
33.02
30
0
40
0.40640000000000004
0
CIRCLE
8
drills_PTH
10
41.910000000000004
20
33.02
30
0
40
0.40640000000000004
0
CIRCLE
8
drills_PTH
10
5.8420000000000005
20
30.48
30
0
40
0.40640000000000004
0
CIRCLE
8
drills_PTH
10
8.077200000000001
20
43.18
30
0
40
0.40640000000000004
0
CIRCLE
8
drills_PTH
10
60.96
20
31.75
30
0
40
0.40640000000000004
0
CIRCLE
8
drills_PTH
10
53.34
20
31.75
30
0
40
0.40640000000000004
0
CIRCLE
8
drills_PTH
10
44.45
20
76.2
30
0
40
0.40640000000000004
0
CIRCLE
8
drills_PTH
10
52.07
20
76.2
30
0
40
0.40640000000000004
0
CIRCLE
8
drills_PTH
10
2.0828
20
40.6908
30
0
40
0.40640000000000004
0
CIRCLE
8
drills_PTH
10
2.0828
20
45.669200000000004
30
0
40
0.40640000000000004
0
CIRCLE
8
drills_PTH
10
8.077200000000001
20
40.6908
30
0
40
0.40640000000000004
0
CIRCLE
8
drills_PTH
10
8.077200000000001
20
45.669200000000004
30
0
40
0.40640000000000004
0
CIRCLE
8
drills_PTH
10
2.0828
20
43.18
30
0
40
0.40640000000000004
0
CIRCLE
8
drills_PTH
10
10.16
20
74.93
30
0
40
0.3048
0
CIRCLE
8
drills_PTH
10
12.700000000000001
20
72.39
30
0
40
0.3048
0
CIRCLE
8
drills_PTH
10
15.24
20
74.93
30
0
40
0.3048
0
ENDSEC
0
EOF