G04 EAGLE Gerber RS-274X export*
G75*
%MOMM*%
%FSLAX34Y34*%
%LPD*%
%INTop Copper*%
%IPPOS*%
%AMOC8*
5,1,8,0,0,1.08239X$1,22.5*%
G01*
%ADD10C,0.152400*%
%ADD11P,1.732040X8X202.500000*%
%ADD12C,1.600200*%
%ADD13P,1.429621X8X202.500000*%
%ADD14P,1.539592X8X292.500000*%
%ADD15C,2.000000*%
%ADD16C,1.524000*%
%ADD17R,1.524000X1.524000*%
%ADD18C,1.524000*%
%ADD19C,1.117600*%
%ADD20P,1.429621X8X22.500000*%
%ADD21C,1.320800*%
%ADD22R,1.930400X1.930400*%
%ADD23C,1.930400*%
%ADD24R,1.676400X1.676400*%
%ADD25C,1.676400*%
%ADD26C,1.500000*%
%ADD27C,0.508000*%


D10*
X717381Y42418D02*
X717381Y29774D01*
X717380Y29774D02*
X717378Y29656D01*
X717372Y29538D01*
X717363Y29420D01*
X717349Y29303D01*
X717332Y29186D01*
X717311Y29069D01*
X717286Y28954D01*
X717257Y28839D01*
X717224Y28725D01*
X717188Y28613D01*
X717148Y28502D01*
X717105Y28392D01*
X717058Y28283D01*
X717008Y28176D01*
X716953Y28071D01*
X716896Y27968D01*
X716835Y27867D01*
X716771Y27767D01*
X716704Y27670D01*
X716634Y27575D01*
X716560Y27483D01*
X716484Y27392D01*
X716404Y27305D01*
X716322Y27220D01*
X716237Y27138D01*
X716150Y27058D01*
X716059Y26982D01*
X715967Y26908D01*
X715872Y26838D01*
X715775Y26771D01*
X715675Y26707D01*
X715574Y26646D01*
X715471Y26589D01*
X715366Y26534D01*
X715259Y26484D01*
X715150Y26437D01*
X715040Y26394D01*
X714929Y26354D01*
X714817Y26318D01*
X714703Y26285D01*
X714588Y26256D01*
X714473Y26231D01*
X714356Y26210D01*
X714239Y26193D01*
X714122Y26179D01*
X714004Y26170D01*
X713886Y26164D01*
X713768Y26162D01*
X711962Y26162D01*
X724309Y29774D02*
X724309Y33387D01*
X724311Y33506D01*
X724317Y33626D01*
X724327Y33745D01*
X724341Y33863D01*
X724358Y33982D01*
X724380Y34099D01*
X724405Y34216D01*
X724435Y34331D01*
X724468Y34446D01*
X724505Y34560D01*
X724545Y34672D01*
X724590Y34783D01*
X724638Y34892D01*
X724689Y35000D01*
X724744Y35106D01*
X724803Y35210D01*
X724865Y35312D01*
X724930Y35412D01*
X724999Y35510D01*
X725071Y35606D01*
X725146Y35699D01*
X725223Y35789D01*
X725304Y35877D01*
X725388Y35962D01*
X725475Y36044D01*
X725564Y36124D01*
X725656Y36200D01*
X725750Y36274D01*
X725847Y36344D01*
X725945Y36411D01*
X726046Y36475D01*
X726150Y36535D01*
X726255Y36592D01*
X726362Y36645D01*
X726470Y36695D01*
X726580Y36741D01*
X726692Y36783D01*
X726805Y36822D01*
X726919Y36857D01*
X727034Y36888D01*
X727151Y36916D01*
X727268Y36939D01*
X727385Y36959D01*
X727504Y36975D01*
X727623Y36987D01*
X727742Y36995D01*
X727861Y36999D01*
X727981Y36999D01*
X728100Y36995D01*
X728219Y36987D01*
X728338Y36975D01*
X728457Y36959D01*
X728574Y36939D01*
X728691Y36916D01*
X728808Y36888D01*
X728923Y36857D01*
X729037Y36822D01*
X729150Y36783D01*
X729262Y36741D01*
X729372Y36695D01*
X729480Y36645D01*
X729587Y36592D01*
X729692Y36535D01*
X729796Y36475D01*
X729897Y36411D01*
X729995Y36344D01*
X730092Y36274D01*
X730186Y36200D01*
X730278Y36124D01*
X730367Y36044D01*
X730454Y35962D01*
X730538Y35877D01*
X730619Y35789D01*
X730696Y35699D01*
X730771Y35606D01*
X730843Y35510D01*
X730912Y35412D01*
X730977Y35312D01*
X731039Y35210D01*
X731098Y35106D01*
X731153Y35000D01*
X731204Y34892D01*
X731252Y34783D01*
X731297Y34672D01*
X731337Y34560D01*
X731374Y34446D01*
X731407Y34331D01*
X731437Y34216D01*
X731462Y34099D01*
X731484Y33982D01*
X731501Y33863D01*
X731515Y33745D01*
X731525Y33626D01*
X731531Y33506D01*
X731533Y33387D01*
X731534Y33387D02*
X731534Y29774D01*
X731533Y29774D02*
X731531Y29655D01*
X731525Y29535D01*
X731515Y29416D01*
X731501Y29298D01*
X731484Y29179D01*
X731462Y29062D01*
X731437Y28945D01*
X731407Y28830D01*
X731374Y28715D01*
X731337Y28601D01*
X731297Y28489D01*
X731252Y28378D01*
X731204Y28269D01*
X731153Y28161D01*
X731098Y28055D01*
X731039Y27951D01*
X730977Y27849D01*
X730912Y27749D01*
X730843Y27651D01*
X730771Y27555D01*
X730696Y27462D01*
X730619Y27372D01*
X730538Y27284D01*
X730454Y27199D01*
X730367Y27117D01*
X730278Y27037D01*
X730186Y26961D01*
X730092Y26887D01*
X729995Y26817D01*
X729897Y26750D01*
X729796Y26686D01*
X729692Y26626D01*
X729587Y26569D01*
X729480Y26516D01*
X729372Y26466D01*
X729262Y26420D01*
X729150Y26378D01*
X729037Y26339D01*
X728923Y26304D01*
X728808Y26273D01*
X728691Y26245D01*
X728574Y26222D01*
X728457Y26202D01*
X728338Y26186D01*
X728219Y26174D01*
X728100Y26166D01*
X727981Y26162D01*
X727861Y26162D01*
X727742Y26166D01*
X727623Y26174D01*
X727504Y26186D01*
X727385Y26202D01*
X727268Y26222D01*
X727151Y26245D01*
X727034Y26273D01*
X726919Y26304D01*
X726805Y26339D01*
X726692Y26378D01*
X726580Y26420D01*
X726470Y26466D01*
X726362Y26516D01*
X726255Y26569D01*
X726150Y26626D01*
X726046Y26686D01*
X725945Y26750D01*
X725847Y26817D01*
X725750Y26887D01*
X725656Y26961D01*
X725564Y27037D01*
X725475Y27117D01*
X725388Y27199D01*
X725304Y27284D01*
X725223Y27372D01*
X725146Y27462D01*
X725071Y27555D01*
X724999Y27651D01*
X724930Y27749D01*
X724865Y27849D01*
X724803Y27951D01*
X724744Y28055D01*
X724689Y28161D01*
X724638Y28269D01*
X724590Y28378D01*
X724545Y28489D01*
X724505Y28601D01*
X724468Y28715D01*
X724435Y28830D01*
X724405Y28945D01*
X724380Y29062D01*
X724358Y29179D01*
X724341Y29298D01*
X724327Y29416D01*
X724317Y29535D01*
X724311Y29655D01*
X724309Y29774D01*
X737821Y26162D02*
X737821Y36999D01*
X737369Y41515D02*
X737369Y42418D01*
X738273Y42418D01*
X738273Y41515D01*
X737369Y41515D01*
X745463Y32484D02*
X749978Y30678D01*
X745463Y32484D02*
X745375Y32521D01*
X745289Y32562D01*
X745204Y32606D01*
X745121Y32654D01*
X745041Y32705D01*
X744962Y32759D01*
X744886Y32817D01*
X744812Y32877D01*
X744740Y32941D01*
X744672Y33007D01*
X744606Y33077D01*
X744543Y33148D01*
X744482Y33223D01*
X744425Y33299D01*
X744372Y33378D01*
X744321Y33459D01*
X744274Y33542D01*
X744230Y33627D01*
X744190Y33714D01*
X744153Y33802D01*
X744120Y33892D01*
X744090Y33983D01*
X744065Y34075D01*
X744043Y34168D01*
X744025Y34262D01*
X744010Y34356D01*
X744000Y34451D01*
X743994Y34547D01*
X743991Y34642D01*
X743992Y34738D01*
X743998Y34833D01*
X744007Y34929D01*
X744020Y35023D01*
X744036Y35117D01*
X744057Y35211D01*
X744082Y35303D01*
X744110Y35394D01*
X744142Y35484D01*
X744177Y35573D01*
X744216Y35660D01*
X744259Y35746D01*
X744305Y35830D01*
X744355Y35911D01*
X744407Y35991D01*
X744463Y36069D01*
X744523Y36144D01*
X744585Y36216D01*
X744650Y36286D01*
X744718Y36354D01*
X744788Y36418D01*
X744861Y36480D01*
X744937Y36538D01*
X745015Y36594D01*
X745095Y36646D01*
X745177Y36695D01*
X745261Y36740D01*
X745347Y36782D01*
X745434Y36821D01*
X745523Y36856D01*
X745614Y36887D01*
X745705Y36914D01*
X745798Y36938D01*
X745891Y36958D01*
X745985Y36974D01*
X746080Y36986D01*
X746175Y36995D01*
X746271Y36999D01*
X746366Y37000D01*
X746613Y36993D01*
X746859Y36981D01*
X747105Y36963D01*
X747351Y36938D01*
X747595Y36908D01*
X747839Y36872D01*
X748082Y36831D01*
X748324Y36783D01*
X748565Y36729D01*
X748804Y36670D01*
X749042Y36605D01*
X749278Y36534D01*
X749513Y36458D01*
X749746Y36376D01*
X749976Y36288D01*
X750204Y36195D01*
X750431Y36097D01*
X749979Y30677D02*
X750067Y30640D01*
X750153Y30599D01*
X750238Y30555D01*
X750321Y30507D01*
X750401Y30456D01*
X750480Y30402D01*
X750556Y30344D01*
X750630Y30284D01*
X750702Y30220D01*
X750770Y30154D01*
X750836Y30084D01*
X750899Y30013D01*
X750960Y29938D01*
X751017Y29862D01*
X751070Y29783D01*
X751121Y29702D01*
X751168Y29619D01*
X751212Y29534D01*
X751252Y29447D01*
X751289Y29359D01*
X751322Y29269D01*
X751352Y29178D01*
X751377Y29086D01*
X751399Y28993D01*
X751417Y28899D01*
X751432Y28805D01*
X751442Y28710D01*
X751448Y28614D01*
X751451Y28519D01*
X751450Y28423D01*
X751444Y28328D01*
X751435Y28232D01*
X751422Y28138D01*
X751406Y28044D01*
X751385Y27950D01*
X751360Y27858D01*
X751332Y27767D01*
X751300Y27677D01*
X751265Y27588D01*
X751226Y27501D01*
X751183Y27415D01*
X751137Y27331D01*
X751087Y27250D01*
X751035Y27170D01*
X750979Y27092D01*
X750919Y27017D01*
X750857Y26945D01*
X750792Y26875D01*
X750724Y26807D01*
X750654Y26743D01*
X750581Y26681D01*
X750505Y26623D01*
X750427Y26567D01*
X750347Y26515D01*
X750265Y26466D01*
X750181Y26421D01*
X750095Y26379D01*
X750008Y26340D01*
X749919Y26305D01*
X749828Y26274D01*
X749737Y26247D01*
X749644Y26223D01*
X749551Y26203D01*
X749457Y26187D01*
X749362Y26175D01*
X749267Y26166D01*
X749171Y26162D01*
X749076Y26161D01*
X749075Y26162D02*
X748713Y26171D01*
X748351Y26189D01*
X747990Y26216D01*
X747630Y26251D01*
X747270Y26294D01*
X746911Y26346D01*
X746554Y26407D01*
X746199Y26476D01*
X745845Y26553D01*
X745493Y26639D01*
X745143Y26733D01*
X744795Y26836D01*
X744450Y26946D01*
X744108Y27065D01*
X756358Y36999D02*
X761777Y36999D01*
X758164Y42418D02*
X758164Y28871D01*
X758165Y28871D02*
X758167Y28770D01*
X758173Y28669D01*
X758182Y28568D01*
X758195Y28467D01*
X758212Y28367D01*
X758233Y28268D01*
X758257Y28170D01*
X758285Y28073D01*
X758317Y27976D01*
X758352Y27881D01*
X758391Y27788D01*
X758433Y27696D01*
X758479Y27605D01*
X758528Y27516D01*
X758580Y27430D01*
X758636Y27345D01*
X758694Y27262D01*
X758756Y27182D01*
X758821Y27104D01*
X758888Y27028D01*
X758958Y26955D01*
X759031Y26885D01*
X759107Y26818D01*
X759185Y26753D01*
X759265Y26691D01*
X759348Y26633D01*
X759433Y26577D01*
X759520Y26525D01*
X759608Y26476D01*
X759699Y26430D01*
X759791Y26388D01*
X759884Y26349D01*
X759979Y26314D01*
X760076Y26282D01*
X760173Y26254D01*
X760271Y26230D01*
X760370Y26209D01*
X760470Y26192D01*
X760571Y26179D01*
X760672Y26170D01*
X760773Y26164D01*
X760874Y26162D01*
X761777Y26162D01*
X767520Y26162D02*
X767520Y36999D01*
X767069Y41515D02*
X767069Y42418D01*
X767972Y42418D01*
X767972Y41515D01*
X767069Y41515D01*
X776534Y26162D02*
X780147Y26162D01*
X776534Y26162D02*
X776433Y26164D01*
X776332Y26170D01*
X776231Y26179D01*
X776130Y26192D01*
X776030Y26209D01*
X775931Y26230D01*
X775833Y26254D01*
X775736Y26282D01*
X775639Y26314D01*
X775544Y26349D01*
X775451Y26388D01*
X775359Y26430D01*
X775268Y26476D01*
X775180Y26525D01*
X775093Y26577D01*
X775008Y26633D01*
X774925Y26691D01*
X774845Y26753D01*
X774767Y26818D01*
X774691Y26885D01*
X774618Y26955D01*
X774548Y27028D01*
X774481Y27104D01*
X774416Y27182D01*
X774354Y27262D01*
X774296Y27345D01*
X774240Y27430D01*
X774188Y27516D01*
X774139Y27605D01*
X774093Y27696D01*
X774051Y27788D01*
X774012Y27881D01*
X773977Y27976D01*
X773945Y28073D01*
X773917Y28170D01*
X773893Y28268D01*
X773872Y28367D01*
X773855Y28467D01*
X773842Y28568D01*
X773833Y28669D01*
X773827Y28770D01*
X773825Y28871D01*
X773825Y34290D01*
X773827Y34391D01*
X773833Y34492D01*
X773842Y34593D01*
X773855Y34694D01*
X773872Y34794D01*
X773893Y34893D01*
X773917Y34991D01*
X773945Y35088D01*
X773977Y35185D01*
X774012Y35280D01*
X774051Y35373D01*
X774093Y35465D01*
X774139Y35556D01*
X774188Y35645D01*
X774240Y35731D01*
X774296Y35816D01*
X774354Y35899D01*
X774416Y35979D01*
X774481Y36057D01*
X774548Y36133D01*
X774618Y36206D01*
X774691Y36276D01*
X774767Y36343D01*
X774845Y36408D01*
X774925Y36470D01*
X775008Y36528D01*
X775093Y36584D01*
X775180Y36636D01*
X775268Y36685D01*
X775359Y36731D01*
X775451Y36773D01*
X775544Y36812D01*
X775639Y36847D01*
X775736Y36879D01*
X775833Y36907D01*
X775931Y36931D01*
X776030Y36952D01*
X776130Y36969D01*
X776231Y36982D01*
X776332Y36991D01*
X776433Y36997D01*
X776534Y36999D01*
X780147Y36999D01*
X786481Y42418D02*
X786481Y26162D01*
X786481Y31581D02*
X793706Y36999D01*
X789642Y33838D02*
X793706Y26162D01*
X812781Y42418D02*
X812906Y42416D01*
X813031Y42410D01*
X813156Y42401D01*
X813280Y42387D01*
X813404Y42370D01*
X813528Y42349D01*
X813650Y42324D01*
X813772Y42295D01*
X813893Y42263D01*
X814013Y42227D01*
X814132Y42187D01*
X814249Y42144D01*
X814365Y42097D01*
X814480Y42046D01*
X814592Y41992D01*
X814704Y41934D01*
X814813Y41874D01*
X814920Y41809D01*
X815026Y41742D01*
X815129Y41671D01*
X815230Y41597D01*
X815329Y41520D01*
X815425Y41440D01*
X815519Y41357D01*
X815610Y41272D01*
X815699Y41183D01*
X815784Y41092D01*
X815867Y40998D01*
X815947Y40902D01*
X816024Y40803D01*
X816098Y40702D01*
X816169Y40599D01*
X816236Y40493D01*
X816301Y40386D01*
X816361Y40277D01*
X816419Y40165D01*
X816473Y40053D01*
X816524Y39938D01*
X816571Y39822D01*
X816614Y39705D01*
X816654Y39586D01*
X816690Y39466D01*
X816722Y39345D01*
X816751Y39223D01*
X816776Y39101D01*
X816797Y38977D01*
X816814Y38853D01*
X816828Y38729D01*
X816837Y38604D01*
X816843Y38479D01*
X816845Y38354D01*
X812781Y42418D02*
X812638Y42416D01*
X812496Y42410D01*
X812353Y42400D01*
X812211Y42387D01*
X812070Y42369D01*
X811928Y42348D01*
X811788Y42323D01*
X811648Y42294D01*
X811509Y42261D01*
X811371Y42224D01*
X811234Y42184D01*
X811099Y42140D01*
X810964Y42092D01*
X810831Y42040D01*
X810699Y41985D01*
X810569Y41926D01*
X810441Y41864D01*
X810314Y41798D01*
X810189Y41729D01*
X810066Y41657D01*
X809946Y41581D01*
X809827Y41502D01*
X809710Y41419D01*
X809596Y41334D01*
X809484Y41245D01*
X809375Y41154D01*
X809268Y41059D01*
X809163Y40962D01*
X809062Y40861D01*
X808963Y40758D01*
X808867Y40653D01*
X808774Y40544D01*
X808684Y40433D01*
X808597Y40320D01*
X808513Y40205D01*
X808433Y40087D01*
X808355Y39967D01*
X808281Y39845D01*
X808211Y39721D01*
X808143Y39595D01*
X808080Y39467D01*
X808019Y39338D01*
X807962Y39207D01*
X807909Y39075D01*
X807860Y38941D01*
X807814Y38806D01*
X815490Y35193D02*
X815584Y35285D01*
X815674Y35379D01*
X815762Y35476D01*
X815847Y35576D01*
X815929Y35678D01*
X816008Y35783D01*
X816083Y35890D01*
X816155Y35999D01*
X816224Y36110D01*
X816290Y36224D01*
X816352Y36339D01*
X816411Y36456D01*
X816466Y36575D01*
X816517Y36695D01*
X816565Y36817D01*
X816610Y36940D01*
X816650Y37064D01*
X816687Y37190D01*
X816720Y37317D01*
X816749Y37444D01*
X816775Y37573D01*
X816796Y37702D01*
X816814Y37832D01*
X816827Y37962D01*
X816837Y38092D01*
X816843Y38223D01*
X816845Y38354D01*
X815491Y35193D02*
X807814Y26162D01*
X816845Y26162D01*
X823445Y38806D02*
X827961Y42418D01*
X827961Y26162D01*
X823445Y26162D02*
X832477Y26162D01*
X844113Y32484D02*
X844113Y37902D01*
X844113Y32484D02*
X847274Y28420D01*
X844113Y32484D02*
X840952Y28420D01*
X844113Y32484D02*
X849080Y34290D01*
X844113Y32484D02*
X839146Y34290D01*
X855750Y26162D02*
X861169Y26162D01*
X861287Y26164D01*
X861405Y26170D01*
X861523Y26179D01*
X861640Y26193D01*
X861757Y26210D01*
X861874Y26231D01*
X861989Y26256D01*
X862104Y26285D01*
X862218Y26318D01*
X862330Y26354D01*
X862441Y26394D01*
X862551Y26437D01*
X862660Y26484D01*
X862767Y26534D01*
X862872Y26589D01*
X862975Y26646D01*
X863076Y26707D01*
X863176Y26771D01*
X863273Y26838D01*
X863368Y26908D01*
X863460Y26982D01*
X863551Y27058D01*
X863638Y27138D01*
X863723Y27220D01*
X863805Y27305D01*
X863885Y27392D01*
X863961Y27483D01*
X864035Y27575D01*
X864105Y27670D01*
X864172Y27767D01*
X864236Y27867D01*
X864297Y27968D01*
X864354Y28071D01*
X864409Y28176D01*
X864459Y28283D01*
X864506Y28392D01*
X864549Y28502D01*
X864589Y28613D01*
X864625Y28725D01*
X864658Y28839D01*
X864687Y28954D01*
X864712Y29069D01*
X864733Y29186D01*
X864750Y29303D01*
X864764Y29420D01*
X864773Y29538D01*
X864779Y29656D01*
X864781Y29774D01*
X864781Y31581D01*
X864779Y31699D01*
X864773Y31817D01*
X864764Y31935D01*
X864750Y32052D01*
X864733Y32169D01*
X864712Y32286D01*
X864687Y32401D01*
X864658Y32516D01*
X864625Y32630D01*
X864589Y32742D01*
X864549Y32853D01*
X864506Y32963D01*
X864459Y33072D01*
X864409Y33179D01*
X864354Y33284D01*
X864297Y33387D01*
X864236Y33488D01*
X864172Y33588D01*
X864105Y33685D01*
X864035Y33780D01*
X863961Y33872D01*
X863885Y33963D01*
X863805Y34050D01*
X863723Y34135D01*
X863638Y34217D01*
X863551Y34297D01*
X863460Y34373D01*
X863368Y34447D01*
X863273Y34517D01*
X863176Y34584D01*
X863076Y34648D01*
X862975Y34709D01*
X862872Y34766D01*
X862767Y34821D01*
X862660Y34871D01*
X862551Y34918D01*
X862441Y34961D01*
X862330Y35001D01*
X862218Y35037D01*
X862104Y35070D01*
X861989Y35099D01*
X861874Y35124D01*
X861757Y35145D01*
X861640Y35162D01*
X861523Y35176D01*
X861405Y35185D01*
X861287Y35191D01*
X861169Y35193D01*
X855750Y35193D01*
X855750Y42418D01*
X864781Y42418D01*
X872736Y40160D02*
X872599Y39871D01*
X872469Y39579D01*
X872346Y39283D01*
X872231Y38985D01*
X872122Y38684D01*
X872021Y38381D01*
X871927Y38075D01*
X871840Y37768D01*
X871761Y37458D01*
X871689Y37146D01*
X871625Y36833D01*
X871568Y36518D01*
X871518Y36202D01*
X871476Y35885D01*
X871442Y35567D01*
X871415Y35249D01*
X871396Y34929D01*
X871385Y34610D01*
X871381Y34290D01*
X872736Y40161D02*
X872775Y40269D01*
X872818Y40376D01*
X872864Y40481D01*
X872915Y40585D01*
X872968Y40687D01*
X873025Y40787D01*
X873086Y40885D01*
X873150Y40980D01*
X873217Y41074D01*
X873288Y41165D01*
X873361Y41254D01*
X873438Y41340D01*
X873517Y41423D01*
X873599Y41504D01*
X873684Y41582D01*
X873772Y41656D01*
X873862Y41728D01*
X873954Y41796D01*
X874049Y41862D01*
X874146Y41924D01*
X874245Y41982D01*
X874347Y42038D01*
X874449Y42089D01*
X874554Y42137D01*
X874660Y42182D01*
X874768Y42223D01*
X874877Y42260D01*
X874987Y42293D01*
X875099Y42322D01*
X875211Y42348D01*
X875324Y42370D01*
X875438Y42387D01*
X875552Y42401D01*
X875667Y42411D01*
X875782Y42417D01*
X875897Y42419D01*
X875897Y42418D02*
X876012Y42416D01*
X876127Y42410D01*
X876242Y42400D01*
X876356Y42386D01*
X876470Y42369D01*
X876583Y42347D01*
X876695Y42321D01*
X876807Y42292D01*
X876917Y42259D01*
X877026Y42222D01*
X877134Y42181D01*
X877240Y42136D01*
X877345Y42088D01*
X877447Y42037D01*
X877548Y41981D01*
X877648Y41923D01*
X877745Y41861D01*
X877839Y41796D01*
X877932Y41727D01*
X878022Y41655D01*
X878110Y41581D01*
X878195Y41503D01*
X878277Y41422D01*
X878356Y41339D01*
X878433Y41253D01*
X878506Y41164D01*
X878577Y41073D01*
X878644Y40979D01*
X878708Y40884D01*
X878769Y40786D01*
X878826Y40686D01*
X878879Y40584D01*
X878930Y40480D01*
X878976Y40375D01*
X879019Y40268D01*
X879058Y40160D01*
X879057Y40160D02*
X879194Y39871D01*
X879324Y39579D01*
X879447Y39283D01*
X879562Y38985D01*
X879671Y38684D01*
X879772Y38381D01*
X879866Y38075D01*
X879953Y37768D01*
X880032Y37458D01*
X880104Y37146D01*
X880168Y36833D01*
X880225Y36518D01*
X880275Y36202D01*
X880317Y35885D01*
X880351Y35567D01*
X880378Y35249D01*
X880397Y34929D01*
X880408Y34610D01*
X880412Y34290D01*
X871382Y34290D02*
X871386Y33970D01*
X871397Y33651D01*
X871416Y33331D01*
X871443Y33013D01*
X871477Y32695D01*
X871519Y32378D01*
X871569Y32062D01*
X871626Y31747D01*
X871690Y31434D01*
X871762Y31122D01*
X871841Y30812D01*
X871928Y30505D01*
X872022Y30199D01*
X872123Y29896D01*
X872232Y29595D01*
X872347Y29297D01*
X872470Y29001D01*
X872600Y28709D01*
X872737Y28420D01*
X872736Y28420D02*
X872775Y28312D01*
X872818Y28205D01*
X872864Y28100D01*
X872915Y27996D01*
X872968Y27894D01*
X873025Y27794D01*
X873086Y27696D01*
X873150Y27601D01*
X873217Y27507D01*
X873288Y27416D01*
X873361Y27327D01*
X873438Y27241D01*
X873517Y27158D01*
X873599Y27077D01*
X873684Y26999D01*
X873772Y26925D01*
X873862Y26853D01*
X873955Y26784D01*
X874049Y26719D01*
X874146Y26657D01*
X874246Y26599D01*
X874347Y26543D01*
X874449Y26492D01*
X874554Y26444D01*
X874660Y26399D01*
X874768Y26358D01*
X874877Y26321D01*
X874987Y26288D01*
X875099Y26259D01*
X875211Y26233D01*
X875324Y26211D01*
X875438Y26194D01*
X875552Y26180D01*
X875667Y26170D01*
X875782Y26164D01*
X875897Y26162D01*
X879057Y28420D02*
X879194Y28709D01*
X879324Y29001D01*
X879447Y29297D01*
X879562Y29595D01*
X879671Y29896D01*
X879772Y30199D01*
X879866Y30505D01*
X879953Y30812D01*
X880032Y31122D01*
X880104Y31434D01*
X880168Y31747D01*
X880225Y32062D01*
X880275Y32378D01*
X880317Y32695D01*
X880351Y33013D01*
X880378Y33331D01*
X880397Y33651D01*
X880408Y33970D01*
X880412Y34290D01*
X879058Y28420D02*
X879019Y28312D01*
X878976Y28205D01*
X878930Y28100D01*
X878879Y27996D01*
X878826Y27894D01*
X878769Y27794D01*
X878708Y27696D01*
X878644Y27601D01*
X878577Y27507D01*
X878506Y27416D01*
X878433Y27327D01*
X878356Y27241D01*
X878277Y27158D01*
X878195Y27077D01*
X878110Y26999D01*
X878022Y26925D01*
X877932Y26853D01*
X877839Y26784D01*
X877745Y26719D01*
X877648Y26657D01*
X877548Y26599D01*
X877447Y26543D01*
X877344Y26492D01*
X877240Y26444D01*
X877134Y26399D01*
X877026Y26358D01*
X876917Y26321D01*
X876807Y26288D01*
X876695Y26259D01*
X876583Y26233D01*
X876470Y26211D01*
X876356Y26194D01*
X876242Y26180D01*
X876127Y26170D01*
X876012Y26164D01*
X875897Y26162D01*
X872284Y29774D02*
X879509Y38806D01*
X894689Y24356D02*
X901914Y44224D01*
X921158Y42418D02*
X921283Y42416D01*
X921408Y42410D01*
X921533Y42401D01*
X921657Y42387D01*
X921781Y42370D01*
X921905Y42349D01*
X922027Y42324D01*
X922149Y42295D01*
X922270Y42263D01*
X922390Y42227D01*
X922509Y42187D01*
X922626Y42144D01*
X922742Y42097D01*
X922857Y42046D01*
X922969Y41992D01*
X923081Y41934D01*
X923190Y41874D01*
X923297Y41809D01*
X923403Y41742D01*
X923506Y41671D01*
X923607Y41597D01*
X923706Y41520D01*
X923802Y41440D01*
X923896Y41357D01*
X923987Y41272D01*
X924076Y41183D01*
X924161Y41092D01*
X924244Y40998D01*
X924324Y40902D01*
X924401Y40803D01*
X924475Y40702D01*
X924546Y40599D01*
X924613Y40493D01*
X924678Y40386D01*
X924738Y40277D01*
X924796Y40165D01*
X924850Y40053D01*
X924901Y39938D01*
X924948Y39822D01*
X924991Y39705D01*
X925031Y39586D01*
X925067Y39466D01*
X925099Y39345D01*
X925128Y39223D01*
X925153Y39101D01*
X925174Y38977D01*
X925191Y38853D01*
X925205Y38729D01*
X925214Y38604D01*
X925220Y38479D01*
X925222Y38354D01*
X921158Y42418D02*
X921015Y42416D01*
X920873Y42410D01*
X920730Y42400D01*
X920588Y42387D01*
X920447Y42369D01*
X920305Y42348D01*
X920165Y42323D01*
X920025Y42294D01*
X919886Y42261D01*
X919748Y42224D01*
X919611Y42184D01*
X919476Y42140D01*
X919341Y42092D01*
X919208Y42040D01*
X919076Y41985D01*
X918946Y41926D01*
X918818Y41864D01*
X918691Y41798D01*
X918566Y41729D01*
X918443Y41657D01*
X918323Y41581D01*
X918204Y41502D01*
X918087Y41419D01*
X917973Y41334D01*
X917861Y41245D01*
X917752Y41154D01*
X917645Y41059D01*
X917540Y40962D01*
X917439Y40861D01*
X917340Y40758D01*
X917244Y40653D01*
X917151Y40544D01*
X917061Y40433D01*
X916974Y40320D01*
X916890Y40205D01*
X916810Y40087D01*
X916732Y39967D01*
X916658Y39845D01*
X916588Y39721D01*
X916520Y39595D01*
X916457Y39467D01*
X916396Y39338D01*
X916339Y39207D01*
X916286Y39075D01*
X916237Y38941D01*
X916191Y38806D01*
X923867Y35193D02*
X923961Y35285D01*
X924051Y35379D01*
X924139Y35476D01*
X924224Y35576D01*
X924306Y35678D01*
X924385Y35783D01*
X924460Y35890D01*
X924532Y35999D01*
X924601Y36110D01*
X924667Y36224D01*
X924729Y36339D01*
X924788Y36456D01*
X924843Y36575D01*
X924894Y36695D01*
X924942Y36817D01*
X924987Y36940D01*
X925027Y37064D01*
X925064Y37190D01*
X925097Y37317D01*
X925126Y37444D01*
X925152Y37573D01*
X925173Y37702D01*
X925191Y37832D01*
X925204Y37962D01*
X925214Y38092D01*
X925220Y38223D01*
X925222Y38354D01*
X923867Y35193D02*
X916191Y26162D01*
X925222Y26162D01*
X931822Y40612D02*
X931822Y42418D01*
X940853Y42418D01*
X936337Y26162D01*
X952490Y32484D02*
X952490Y37902D01*
X952490Y32484D02*
X955651Y28420D01*
X952490Y32484D02*
X949329Y28420D01*
X952490Y32484D02*
X957457Y34290D01*
X952490Y32484D02*
X947523Y34290D01*
X964126Y26162D02*
X969545Y26162D01*
X969663Y26164D01*
X969781Y26170D01*
X969899Y26179D01*
X970016Y26193D01*
X970133Y26210D01*
X970250Y26231D01*
X970365Y26256D01*
X970480Y26285D01*
X970594Y26318D01*
X970706Y26354D01*
X970817Y26394D01*
X970927Y26437D01*
X971036Y26484D01*
X971143Y26534D01*
X971248Y26589D01*
X971351Y26646D01*
X971452Y26707D01*
X971552Y26771D01*
X971649Y26838D01*
X971744Y26908D01*
X971836Y26982D01*
X971927Y27058D01*
X972014Y27138D01*
X972099Y27220D01*
X972181Y27305D01*
X972261Y27392D01*
X972337Y27483D01*
X972411Y27575D01*
X972481Y27670D01*
X972548Y27767D01*
X972612Y27867D01*
X972673Y27968D01*
X972730Y28071D01*
X972785Y28176D01*
X972835Y28283D01*
X972882Y28392D01*
X972925Y28502D01*
X972965Y28613D01*
X973001Y28725D01*
X973034Y28839D01*
X973063Y28954D01*
X973088Y29069D01*
X973109Y29186D01*
X973126Y29303D01*
X973140Y29420D01*
X973149Y29538D01*
X973155Y29656D01*
X973157Y29774D01*
X973157Y31581D01*
X973155Y31699D01*
X973149Y31817D01*
X973140Y31935D01*
X973126Y32052D01*
X973109Y32169D01*
X973088Y32286D01*
X973063Y32401D01*
X973034Y32516D01*
X973001Y32630D01*
X972965Y32742D01*
X972925Y32853D01*
X972882Y32963D01*
X972835Y33072D01*
X972785Y33179D01*
X972730Y33284D01*
X972673Y33387D01*
X972612Y33488D01*
X972548Y33588D01*
X972481Y33685D01*
X972411Y33780D01*
X972337Y33872D01*
X972261Y33963D01*
X972181Y34050D01*
X972099Y34135D01*
X972014Y34217D01*
X971927Y34297D01*
X971836Y34373D01*
X971744Y34447D01*
X971649Y34517D01*
X971552Y34584D01*
X971452Y34648D01*
X971351Y34709D01*
X971248Y34766D01*
X971143Y34821D01*
X971036Y34871D01*
X970927Y34918D01*
X970817Y34961D01*
X970706Y35001D01*
X970594Y35037D01*
X970480Y35070D01*
X970365Y35099D01*
X970250Y35124D01*
X970133Y35145D01*
X970016Y35162D01*
X969899Y35176D01*
X969781Y35185D01*
X969663Y35191D01*
X969545Y35193D01*
X964126Y35193D01*
X964126Y42418D01*
X973157Y42418D01*
X981113Y40160D02*
X980976Y39871D01*
X980846Y39579D01*
X980723Y39283D01*
X980608Y38985D01*
X980499Y38684D01*
X980398Y38381D01*
X980304Y38075D01*
X980217Y37768D01*
X980138Y37458D01*
X980066Y37146D01*
X980002Y36833D01*
X979945Y36518D01*
X979895Y36202D01*
X979853Y35885D01*
X979819Y35567D01*
X979792Y35249D01*
X979773Y34929D01*
X979762Y34610D01*
X979758Y34290D01*
X981112Y40161D02*
X981151Y40269D01*
X981194Y40376D01*
X981240Y40481D01*
X981291Y40585D01*
X981344Y40687D01*
X981401Y40787D01*
X981462Y40885D01*
X981526Y40980D01*
X981593Y41074D01*
X981664Y41165D01*
X981737Y41254D01*
X981814Y41340D01*
X981893Y41423D01*
X981975Y41504D01*
X982060Y41582D01*
X982148Y41656D01*
X982238Y41728D01*
X982330Y41796D01*
X982425Y41862D01*
X982522Y41924D01*
X982621Y41982D01*
X982723Y42038D01*
X982825Y42089D01*
X982930Y42137D01*
X983036Y42182D01*
X983144Y42223D01*
X983253Y42260D01*
X983363Y42293D01*
X983475Y42322D01*
X983587Y42348D01*
X983700Y42370D01*
X983814Y42387D01*
X983928Y42401D01*
X984043Y42411D01*
X984158Y42417D01*
X984273Y42419D01*
X984273Y42418D02*
X984388Y42416D01*
X984503Y42410D01*
X984618Y42400D01*
X984732Y42386D01*
X984846Y42369D01*
X984959Y42347D01*
X985071Y42321D01*
X985183Y42292D01*
X985293Y42259D01*
X985402Y42222D01*
X985510Y42181D01*
X985616Y42136D01*
X985721Y42088D01*
X985823Y42037D01*
X985924Y41981D01*
X986024Y41923D01*
X986121Y41861D01*
X986215Y41796D01*
X986308Y41727D01*
X986398Y41655D01*
X986486Y41581D01*
X986571Y41503D01*
X986653Y41422D01*
X986732Y41339D01*
X986809Y41253D01*
X986882Y41164D01*
X986953Y41073D01*
X987020Y40979D01*
X987084Y40884D01*
X987145Y40786D01*
X987202Y40686D01*
X987255Y40584D01*
X987306Y40480D01*
X987352Y40375D01*
X987395Y40268D01*
X987434Y40160D01*
X987571Y39871D01*
X987701Y39579D01*
X987824Y39283D01*
X987939Y38985D01*
X988048Y38684D01*
X988149Y38381D01*
X988243Y38075D01*
X988330Y37768D01*
X988409Y37458D01*
X988481Y37146D01*
X988545Y36833D01*
X988602Y36518D01*
X988652Y36202D01*
X988694Y35885D01*
X988728Y35567D01*
X988755Y35249D01*
X988774Y34929D01*
X988785Y34610D01*
X988789Y34290D01*
X979758Y34290D02*
X979762Y33970D01*
X979773Y33651D01*
X979792Y33331D01*
X979819Y33013D01*
X979853Y32695D01*
X979895Y32378D01*
X979945Y32062D01*
X980002Y31747D01*
X980066Y31434D01*
X980138Y31122D01*
X980217Y30812D01*
X980304Y30505D01*
X980398Y30199D01*
X980499Y29896D01*
X980608Y29595D01*
X980723Y29297D01*
X980846Y29001D01*
X980976Y28709D01*
X981113Y28420D01*
X981112Y28420D02*
X981151Y28312D01*
X981194Y28205D01*
X981240Y28100D01*
X981291Y27996D01*
X981344Y27894D01*
X981401Y27794D01*
X981462Y27696D01*
X981526Y27601D01*
X981593Y27507D01*
X981664Y27416D01*
X981737Y27327D01*
X981814Y27241D01*
X981893Y27158D01*
X981975Y27077D01*
X982060Y26999D01*
X982148Y26925D01*
X982238Y26853D01*
X982331Y26784D01*
X982425Y26719D01*
X982522Y26657D01*
X982622Y26599D01*
X982723Y26543D01*
X982825Y26492D01*
X982930Y26444D01*
X983036Y26399D01*
X983144Y26358D01*
X983253Y26321D01*
X983363Y26288D01*
X983475Y26259D01*
X983587Y26233D01*
X983700Y26211D01*
X983814Y26194D01*
X983928Y26180D01*
X984043Y26170D01*
X984158Y26164D01*
X984273Y26162D01*
X987433Y28420D02*
X987570Y28709D01*
X987700Y29001D01*
X987823Y29297D01*
X987938Y29595D01*
X988047Y29896D01*
X988148Y30199D01*
X988242Y30505D01*
X988329Y30812D01*
X988408Y31122D01*
X988480Y31434D01*
X988544Y31747D01*
X988601Y32062D01*
X988651Y32378D01*
X988693Y32695D01*
X988727Y33013D01*
X988754Y33331D01*
X988773Y33651D01*
X988784Y33970D01*
X988788Y34290D01*
X987434Y28420D02*
X987395Y28312D01*
X987352Y28205D01*
X987306Y28100D01*
X987255Y27996D01*
X987202Y27894D01*
X987145Y27794D01*
X987084Y27696D01*
X987020Y27601D01*
X986953Y27507D01*
X986882Y27416D01*
X986809Y27327D01*
X986732Y27241D01*
X986653Y27158D01*
X986571Y27077D01*
X986486Y26999D01*
X986398Y26925D01*
X986308Y26853D01*
X986215Y26784D01*
X986121Y26719D01*
X986024Y26657D01*
X985924Y26599D01*
X985823Y26543D01*
X985720Y26492D01*
X985616Y26444D01*
X985510Y26399D01*
X985402Y26358D01*
X985293Y26321D01*
X985183Y26288D01*
X985071Y26259D01*
X984959Y26233D01*
X984846Y26211D01*
X984732Y26194D01*
X984618Y26180D01*
X984503Y26170D01*
X984388Y26164D01*
X984273Y26162D01*
X980661Y29774D02*
X987886Y38806D01*
X1004385Y36999D02*
X1004385Y26162D01*
X1004385Y36999D02*
X1012513Y36999D01*
X1012614Y36997D01*
X1012715Y36991D01*
X1012816Y36982D01*
X1012917Y36969D01*
X1013017Y36952D01*
X1013116Y36931D01*
X1013214Y36907D01*
X1013311Y36879D01*
X1013408Y36847D01*
X1013503Y36812D01*
X1013596Y36773D01*
X1013688Y36731D01*
X1013779Y36685D01*
X1013868Y36636D01*
X1013954Y36584D01*
X1014039Y36528D01*
X1014122Y36470D01*
X1014202Y36408D01*
X1014280Y36343D01*
X1014356Y36276D01*
X1014429Y36206D01*
X1014499Y36133D01*
X1014566Y36057D01*
X1014631Y35979D01*
X1014693Y35899D01*
X1014751Y35816D01*
X1014807Y35731D01*
X1014859Y35645D01*
X1014908Y35556D01*
X1014954Y35465D01*
X1014996Y35373D01*
X1015035Y35280D01*
X1015070Y35185D01*
X1015102Y35088D01*
X1015130Y34991D01*
X1015154Y34893D01*
X1015175Y34794D01*
X1015192Y34694D01*
X1015205Y34593D01*
X1015214Y34492D01*
X1015220Y34391D01*
X1015222Y34290D01*
X1015223Y34290D02*
X1015223Y26162D01*
X1009804Y26162D02*
X1009804Y36999D01*
X1022309Y36999D02*
X1022309Y26162D01*
X1021858Y41515D02*
X1021858Y42418D01*
X1022761Y42418D01*
X1022761Y41515D01*
X1021858Y41515D01*
X1028833Y42418D02*
X1028833Y28871D01*
X1028834Y28871D02*
X1028836Y28770D01*
X1028842Y28669D01*
X1028851Y28568D01*
X1028864Y28467D01*
X1028881Y28367D01*
X1028902Y28268D01*
X1028926Y28170D01*
X1028954Y28073D01*
X1028986Y27976D01*
X1029021Y27881D01*
X1029060Y27788D01*
X1029102Y27696D01*
X1029148Y27605D01*
X1029197Y27516D01*
X1029249Y27430D01*
X1029305Y27345D01*
X1029363Y27262D01*
X1029425Y27182D01*
X1029490Y27104D01*
X1029557Y27028D01*
X1029627Y26955D01*
X1029700Y26885D01*
X1029776Y26818D01*
X1029854Y26753D01*
X1029934Y26691D01*
X1030017Y26633D01*
X1030102Y26577D01*
X1030189Y26525D01*
X1030277Y26476D01*
X1030368Y26430D01*
X1030460Y26388D01*
X1030553Y26349D01*
X1030648Y26314D01*
X1030745Y26282D01*
X1030842Y26254D01*
X1030940Y26230D01*
X1031039Y26209D01*
X1031139Y26192D01*
X1031240Y26179D01*
X1031341Y26170D01*
X1031442Y26164D01*
X1031543Y26162D01*
X1038288Y32484D02*
X1042803Y30678D01*
X1038287Y32484D02*
X1038199Y32521D01*
X1038113Y32562D01*
X1038028Y32606D01*
X1037945Y32654D01*
X1037865Y32705D01*
X1037786Y32759D01*
X1037710Y32817D01*
X1037636Y32877D01*
X1037564Y32941D01*
X1037496Y33007D01*
X1037430Y33077D01*
X1037367Y33148D01*
X1037306Y33223D01*
X1037249Y33299D01*
X1037196Y33378D01*
X1037145Y33459D01*
X1037098Y33542D01*
X1037054Y33627D01*
X1037014Y33714D01*
X1036977Y33802D01*
X1036944Y33892D01*
X1036914Y33983D01*
X1036889Y34075D01*
X1036867Y34168D01*
X1036849Y34262D01*
X1036834Y34356D01*
X1036824Y34451D01*
X1036818Y34547D01*
X1036815Y34642D01*
X1036816Y34738D01*
X1036822Y34833D01*
X1036831Y34929D01*
X1036844Y35023D01*
X1036860Y35117D01*
X1036881Y35211D01*
X1036906Y35303D01*
X1036934Y35394D01*
X1036966Y35484D01*
X1037001Y35573D01*
X1037040Y35660D01*
X1037083Y35746D01*
X1037129Y35830D01*
X1037179Y35911D01*
X1037231Y35991D01*
X1037287Y36069D01*
X1037347Y36144D01*
X1037409Y36216D01*
X1037474Y36286D01*
X1037542Y36354D01*
X1037612Y36418D01*
X1037685Y36480D01*
X1037761Y36538D01*
X1037839Y36594D01*
X1037919Y36646D01*
X1038001Y36695D01*
X1038085Y36740D01*
X1038171Y36782D01*
X1038258Y36821D01*
X1038347Y36856D01*
X1038438Y36887D01*
X1038529Y36914D01*
X1038622Y36938D01*
X1038715Y36958D01*
X1038809Y36974D01*
X1038904Y36986D01*
X1038999Y36995D01*
X1039095Y36999D01*
X1039190Y37000D01*
X1039437Y36993D01*
X1039683Y36981D01*
X1039929Y36963D01*
X1040175Y36938D01*
X1040419Y36908D01*
X1040663Y36872D01*
X1040906Y36831D01*
X1041148Y36783D01*
X1041389Y36729D01*
X1041628Y36670D01*
X1041866Y36605D01*
X1042102Y36534D01*
X1042337Y36458D01*
X1042570Y36376D01*
X1042800Y36288D01*
X1043028Y36195D01*
X1043255Y36097D01*
X1042804Y30677D02*
X1042892Y30640D01*
X1042978Y30599D01*
X1043063Y30555D01*
X1043146Y30507D01*
X1043226Y30456D01*
X1043305Y30402D01*
X1043381Y30344D01*
X1043455Y30284D01*
X1043527Y30220D01*
X1043595Y30154D01*
X1043661Y30084D01*
X1043724Y30013D01*
X1043785Y29938D01*
X1043842Y29862D01*
X1043895Y29783D01*
X1043946Y29702D01*
X1043993Y29619D01*
X1044037Y29534D01*
X1044077Y29447D01*
X1044114Y29359D01*
X1044147Y29269D01*
X1044177Y29178D01*
X1044202Y29086D01*
X1044224Y28993D01*
X1044242Y28899D01*
X1044257Y28805D01*
X1044267Y28710D01*
X1044273Y28614D01*
X1044276Y28519D01*
X1044275Y28423D01*
X1044269Y28328D01*
X1044260Y28232D01*
X1044247Y28138D01*
X1044231Y28044D01*
X1044210Y27950D01*
X1044185Y27858D01*
X1044157Y27767D01*
X1044125Y27677D01*
X1044090Y27588D01*
X1044051Y27501D01*
X1044008Y27415D01*
X1043962Y27331D01*
X1043912Y27250D01*
X1043860Y27170D01*
X1043804Y27092D01*
X1043744Y27017D01*
X1043682Y26945D01*
X1043617Y26875D01*
X1043549Y26807D01*
X1043479Y26743D01*
X1043406Y26681D01*
X1043330Y26623D01*
X1043252Y26567D01*
X1043172Y26515D01*
X1043090Y26466D01*
X1043006Y26421D01*
X1042920Y26379D01*
X1042833Y26340D01*
X1042744Y26305D01*
X1042653Y26274D01*
X1042562Y26247D01*
X1042469Y26223D01*
X1042376Y26203D01*
X1042282Y26187D01*
X1042187Y26175D01*
X1042092Y26166D01*
X1041996Y26162D01*
X1041901Y26161D01*
X1041900Y26162D02*
X1041538Y26171D01*
X1041176Y26189D01*
X1040815Y26216D01*
X1040455Y26251D01*
X1040095Y26294D01*
X1039736Y26346D01*
X1039379Y26407D01*
X1039024Y26476D01*
X1038670Y26553D01*
X1038318Y26639D01*
X1037968Y26733D01*
X1037620Y26836D01*
X1037275Y26946D01*
X1036933Y27065D01*
D11*
X134620Y330200D03*
D12*
X170180Y330200D03*
D11*
X444500Y342900D03*
D12*
X469900Y342900D03*
D13*
X482600Y190500D03*
X457200Y190500D03*
X469900Y393700D03*
X444500Y393700D03*
D14*
X63500Y685800D03*
X88900Y685800D03*
X63500Y660400D03*
X88900Y660400D03*
X63500Y635000D03*
X88900Y635000D03*
X63500Y609600D03*
X88900Y609600D03*
X63500Y584200D03*
X88900Y584200D03*
D15*
X132600Y98900D02*
X132600Y78900D01*
X71600Y78900D02*
X71600Y98900D01*
X91600Y40900D02*
X111600Y40900D01*
D16*
X914400Y335280D02*
X914400Y350520D01*
X889000Y350520D02*
X889000Y335280D01*
X863600Y335280D02*
X863600Y350520D01*
X838200Y350520D02*
X838200Y335280D01*
X812800Y335280D02*
X812800Y350520D01*
D17*
X226100Y726500D03*
D18*
X251500Y726500D03*
X276900Y726500D03*
X302300Y726500D03*
X327700Y726500D03*
X353100Y726500D03*
X378500Y726500D03*
X403900Y726500D03*
X429300Y726500D03*
X454700Y726500D03*
X480100Y726500D03*
X505500Y726500D03*
X530900Y726500D03*
X556300Y726500D03*
X581700Y726500D03*
X607100Y726500D03*
D13*
X596900Y330200D03*
X520700Y330200D03*
D19*
X88900Y762000D03*
X114300Y787400D03*
X88900Y812800D03*
D20*
X469900Y774700D03*
X546100Y774700D03*
D16*
X279908Y111506D02*
X264668Y111506D01*
X264668Y66294D02*
X279908Y66294D01*
X329692Y111506D02*
X344932Y111506D01*
X344932Y66294D02*
X329692Y66294D01*
X378968Y111506D02*
X394208Y111506D01*
X394208Y66294D02*
X378968Y66294D01*
X443992Y111506D02*
X459232Y111506D01*
X459232Y66294D02*
X443992Y66294D01*
X493268Y111506D02*
X508508Y111506D01*
X508508Y66294D02*
X493268Y66294D01*
X558292Y111506D02*
X573532Y111506D01*
X573532Y66294D02*
X558292Y66294D01*
X607568Y111506D02*
X622808Y111506D01*
X622808Y66294D02*
X607568Y66294D01*
X672592Y111506D02*
X687832Y111506D01*
X687832Y66294D02*
X672592Y66294D01*
D21*
X125476Y228092D02*
X112268Y228092D01*
X112268Y178308D02*
X125476Y178308D01*
X65532Y228092D02*
X52324Y228092D01*
X52324Y178308D02*
X65532Y178308D01*
X112268Y203200D02*
X125476Y203200D01*
X65532Y203200D02*
X52324Y203200D01*
D16*
X787400Y767080D02*
X787400Y782320D01*
X812800Y782320D02*
X812800Y767080D01*
X838200Y767080D02*
X838200Y782320D01*
X685800Y782320D02*
X685800Y767080D01*
X711200Y767080D02*
X711200Y782320D01*
X736600Y782320D02*
X736600Y767080D01*
X584200Y767080D02*
X584200Y782320D01*
X609600Y782320D02*
X609600Y767080D01*
X635000Y767080D02*
X635000Y782320D01*
X889000Y782320D02*
X889000Y767080D01*
X914400Y767080D02*
X914400Y782320D01*
X939800Y782320D02*
X939800Y767080D01*
D22*
X29210Y297180D03*
D23*
X52070Y297180D03*
D22*
X74930Y297180D03*
D24*
X635000Y292100D03*
D25*
X609600Y292100D03*
X584200Y292100D03*
X558800Y292100D03*
X533400Y292100D03*
X508000Y292100D03*
X482600Y292100D03*
X457200Y292100D03*
X431800Y292100D03*
X406400Y292100D03*
X381000Y292100D03*
X355600Y292100D03*
X330200Y292100D03*
X304800Y292100D03*
X304800Y215900D03*
X330200Y215900D03*
X355600Y215900D03*
X381000Y215900D03*
X406400Y215900D03*
X431800Y215900D03*
X457200Y215900D03*
X482600Y215900D03*
X508000Y215900D03*
X533400Y215900D03*
X558800Y215900D03*
X584200Y215900D03*
X609600Y215900D03*
X635000Y215900D03*
D26*
X520700Y482600D03*
X866140Y482600D03*
D27*
X520700Y482600D01*
D26*
X520700Y508000D03*
D27*
X901700Y508000D01*
D26*
X901700Y508000D03*
X279400Y228600D03*
D27*
X190500Y228600D01*
D26*
X190500Y228600D03*
X787400Y165100D03*
D27*
X787400Y419100D01*
D26*
X787400Y419100D03*
X571500Y457200D03*
D27*
X572770Y458470D02*
X777240Y458470D01*
X572770Y458470D02*
X571500Y457200D01*
D26*
X777240Y458470D03*
X622300Y342900D03*
D27*
X622300Y419100D01*
D26*
X622300Y419100D03*
X812800Y292100D03*
D27*
X901700Y292100D01*
D26*
X901700Y292100D03*
X508000Y254000D03*
X431800Y254000D03*
D27*
X508000Y254000D01*
D26*
X139700Y698500D03*
X139700Y647700D03*
D27*
X139700Y698500D01*
D26*
X200660Y381000D03*
D27*
X279400Y381000D01*
D26*
X279400Y381000D03*
X330200Y431800D03*
D27*
X457200Y431800D01*
D26*
X457200Y431800D03*
X495300Y469900D03*
D27*
X889000Y469900D01*
D26*
X889000Y469900D03*
X304800Y533400D03*
D27*
X304800Y596900D01*
D26*
X304800Y596900D03*
X304800Y774700D03*
D27*
X241300Y774700D01*
D26*
X241300Y774700D03*
X863600Y444500D03*
X549910Y444500D03*
D27*
X863600Y444500D01*
D26*
X506730Y147320D03*
D27*
X297180Y147320D01*
X292100Y152400D01*
D26*
X292100Y152400D03*
X373380Y193040D03*
D27*
X243840Y193040D01*
X241300Y190500D01*
D26*
X241300Y190500D03*
X393700Y177800D03*
D27*
X215900Y177800D01*
D26*
X215900Y177800D03*
M02*
