G04 EAGLE Gerber RS-274X export*
G75*
%MOMM*%
%FSLAX34Y34*%
%LPD*%
%INBottom Copper*%
%IPPOS*%
%AMOC8*
5,1,8,0,0,1.08239X$1,22.5*%
G01*
%ADD10P,1.732040X8X202.500000*%
%ADD11C,1.600200*%
%ADD12P,1.429621X8X202.500000*%
%ADD13P,1.539592X8X292.500000*%
%ADD14C,2.000000*%
%ADD15C,1.524000*%
%ADD16R,1.524000X1.524000*%
%ADD17C,1.524000*%
%ADD18C,1.117600*%
%ADD19P,1.429621X8X22.500000*%
%ADD20C,1.320800*%
%ADD21R,1.930400X1.930400*%
%ADD22C,1.930400*%
%ADD23R,1.676400X1.676400*%
%ADD24C,1.676400*%
%ADD25C,0.508000*%
%ADD26C,1.500000*%

G36*
X987335Y10164D02*
X987335Y10164D01*
X987369Y10162D01*
X987558Y10184D01*
X987749Y10201D01*
X987782Y10210D01*
X987816Y10214D01*
X987999Y10269D01*
X988183Y10319D01*
X988214Y10334D01*
X988247Y10344D01*
X988418Y10431D01*
X988590Y10513D01*
X988618Y10533D01*
X988649Y10548D01*
X988801Y10664D01*
X988956Y10775D01*
X988980Y10800D01*
X989007Y10820D01*
X989136Y10960D01*
X989270Y11097D01*
X989289Y11126D01*
X989313Y11152D01*
X989415Y11313D01*
X989522Y11470D01*
X989536Y11502D01*
X989554Y11531D01*
X989627Y11708D01*
X989704Y11882D01*
X989712Y11916D01*
X989725Y11948D01*
X989765Y12135D01*
X989811Y12320D01*
X989813Y12354D01*
X989820Y12388D01*
X989839Y12700D01*
X989839Y838100D01*
X989836Y838135D01*
X989838Y838169D01*
X989816Y838358D01*
X989799Y838549D01*
X989790Y838582D01*
X989786Y838616D01*
X989731Y838799D01*
X989681Y838983D01*
X989666Y839014D01*
X989656Y839047D01*
X989569Y839218D01*
X989487Y839390D01*
X989467Y839418D01*
X989452Y839449D01*
X989336Y839601D01*
X989225Y839756D01*
X989200Y839780D01*
X989180Y839807D01*
X989040Y839936D01*
X988903Y840070D01*
X988874Y840089D01*
X988848Y840113D01*
X988687Y840215D01*
X988530Y840322D01*
X988498Y840336D01*
X988469Y840354D01*
X988292Y840427D01*
X988118Y840504D01*
X988084Y840512D01*
X988052Y840525D01*
X987865Y840565D01*
X987680Y840611D01*
X987646Y840613D01*
X987612Y840620D01*
X987300Y840639D01*
X12700Y840639D01*
X12665Y840636D01*
X12631Y840638D01*
X12442Y840616D01*
X12251Y840599D01*
X12218Y840590D01*
X12184Y840586D01*
X12001Y840531D01*
X11817Y840481D01*
X11786Y840466D01*
X11753Y840456D01*
X11582Y840369D01*
X11410Y840287D01*
X11382Y840267D01*
X11351Y840252D01*
X11199Y840136D01*
X11044Y840025D01*
X11020Y840000D01*
X10993Y839980D01*
X10864Y839840D01*
X10730Y839703D01*
X10711Y839674D01*
X10687Y839648D01*
X10585Y839487D01*
X10478Y839330D01*
X10464Y839298D01*
X10446Y839269D01*
X10373Y839092D01*
X10296Y838918D01*
X10288Y838884D01*
X10275Y838852D01*
X10235Y838665D01*
X10189Y838480D01*
X10187Y838446D01*
X10180Y838412D01*
X10161Y838100D01*
X10161Y651554D01*
X10176Y651376D01*
X10186Y651199D01*
X10196Y651153D01*
X10201Y651105D01*
X10247Y650934D01*
X10288Y650761D01*
X10307Y650717D01*
X10319Y650671D01*
X10395Y650510D01*
X10466Y650347D01*
X10492Y650307D01*
X10513Y650264D01*
X10616Y650120D01*
X10714Y649971D01*
X10747Y649937D01*
X10775Y649898D01*
X10902Y649774D01*
X11025Y649646D01*
X11063Y649617D01*
X11097Y649584D01*
X11245Y649484D01*
X11388Y649380D01*
X11431Y649359D01*
X11470Y649332D01*
X11633Y649260D01*
X11792Y649182D01*
X11838Y649169D01*
X11882Y649150D01*
X12055Y649107D01*
X12226Y649059D01*
X12273Y649054D01*
X12320Y649043D01*
X12497Y649032D01*
X12674Y649014D01*
X12721Y649018D01*
X12769Y649015D01*
X12946Y649036D01*
X13123Y649050D01*
X13169Y649062D01*
X13216Y649067D01*
X13387Y649119D01*
X13558Y649164D01*
X13601Y649184D01*
X13647Y649198D01*
X13806Y649278D01*
X13967Y649353D01*
X14006Y649380D01*
X14049Y649402D01*
X14190Y649509D01*
X14336Y649611D01*
X14369Y649645D01*
X14407Y649674D01*
X14528Y649804D01*
X14653Y649931D01*
X14680Y649970D01*
X14712Y650005D01*
X14808Y650155D01*
X14909Y650301D01*
X14935Y650354D01*
X14954Y650385D01*
X14978Y650443D01*
X15046Y650582D01*
X16355Y653743D01*
X47516Y684903D01*
X47621Y685030D01*
X47733Y685151D01*
X47765Y685202D01*
X47804Y685249D01*
X47886Y685391D01*
X47974Y685530D01*
X47998Y685587D01*
X48028Y685640D01*
X48083Y685795D01*
X48145Y685947D01*
X48158Y686006D01*
X48179Y686064D01*
X48205Y686226D01*
X48240Y686387D01*
X48245Y686464D01*
X48252Y686508D01*
X48251Y686569D01*
X48259Y686699D01*
X48259Y692113D01*
X57187Y701041D01*
X69813Y701041D01*
X73896Y696957D01*
X73996Y696874D01*
X74089Y696783D01*
X74169Y696729D01*
X74242Y696668D01*
X74355Y696604D01*
X74462Y696531D01*
X74550Y696492D01*
X74633Y696445D01*
X74755Y696401D01*
X74874Y696349D01*
X74967Y696326D01*
X75057Y696294D01*
X75185Y696273D01*
X75312Y696242D01*
X75407Y696236D01*
X75501Y696221D01*
X75631Y696222D01*
X75761Y696214D01*
X75856Y696225D01*
X75952Y696227D01*
X76079Y696251D01*
X76208Y696266D01*
X76300Y696294D01*
X76394Y696312D01*
X76515Y696359D01*
X76639Y696397D01*
X76724Y696440D01*
X76814Y696475D01*
X76925Y696542D01*
X77041Y696601D01*
X77117Y696659D01*
X77198Y696708D01*
X77296Y696795D01*
X77399Y696873D01*
X77464Y696943D01*
X77536Y697007D01*
X77616Y697109D01*
X77705Y697204D01*
X77756Y697285D01*
X77815Y697360D01*
X77876Y697474D01*
X77946Y697584D01*
X77983Y697672D01*
X78028Y697757D01*
X78068Y697880D01*
X78117Y698001D01*
X78137Y698094D01*
X78167Y698185D01*
X78185Y698314D01*
X78212Y698441D01*
X78220Y698570D01*
X78228Y698631D01*
X78227Y698676D01*
X78231Y698753D01*
X78231Y718429D01*
X78217Y718592D01*
X78210Y718757D01*
X78197Y718817D01*
X78191Y718878D01*
X78148Y719036D01*
X78112Y719197D01*
X78089Y719253D01*
X78073Y719312D01*
X78002Y719460D01*
X77939Y719612D01*
X77906Y719664D01*
X77879Y719719D01*
X77784Y719852D01*
X77694Y719990D01*
X77643Y720048D01*
X77617Y720085D01*
X77574Y720127D01*
X77488Y720225D01*
X41755Y755957D01*
X40131Y759878D01*
X40131Y789522D01*
X41755Y793443D01*
X45114Y796801D01*
X45114Y796802D01*
X66798Y818486D01*
X70157Y821845D01*
X74078Y823469D01*
X79119Y823469D01*
X79282Y823483D01*
X79447Y823490D01*
X79506Y823503D01*
X79567Y823509D01*
X79726Y823552D01*
X79886Y823588D01*
X79943Y823611D01*
X80001Y823627D01*
X80149Y823698D01*
X80302Y823761D01*
X80353Y823794D01*
X80408Y823821D01*
X80541Y823916D01*
X80680Y824006D01*
X80738Y824057D01*
X80774Y824083D01*
X80817Y824126D01*
X80914Y824212D01*
X81130Y824429D01*
X86172Y826517D01*
X91628Y826517D01*
X96670Y824429D01*
X100529Y820570D01*
X102617Y815528D01*
X102617Y810072D01*
X100529Y805030D01*
X96670Y801171D01*
X91628Y799083D01*
X86172Y799083D01*
X81658Y800953D01*
X81454Y801017D01*
X81254Y801082D01*
X81241Y801084D01*
X81228Y801088D01*
X81017Y801115D01*
X80808Y801143D01*
X80794Y801143D01*
X80781Y801144D01*
X80571Y801134D01*
X80358Y801125D01*
X80345Y801122D01*
X80332Y801121D01*
X80126Y801073D01*
X79918Y801027D01*
X79906Y801022D01*
X79893Y801019D01*
X79698Y800936D01*
X79503Y800854D01*
X79492Y800847D01*
X79480Y800841D01*
X79302Y800724D01*
X79125Y800609D01*
X79113Y800599D01*
X79104Y800593D01*
X79075Y800566D01*
X78890Y800403D01*
X62212Y783725D01*
X62107Y783598D01*
X61995Y783478D01*
X61963Y783426D01*
X61924Y783379D01*
X61842Y783237D01*
X61754Y783098D01*
X61730Y783041D01*
X61700Y782988D01*
X61645Y782833D01*
X61583Y782681D01*
X61570Y782622D01*
X61549Y782564D01*
X61523Y782402D01*
X61488Y782241D01*
X61483Y782164D01*
X61476Y782120D01*
X61477Y782059D01*
X61469Y781929D01*
X61469Y767471D01*
X61483Y767307D01*
X61490Y767143D01*
X61503Y767083D01*
X61509Y767022D01*
X61552Y766864D01*
X61588Y766703D01*
X61611Y766647D01*
X61627Y766588D01*
X61698Y766440D01*
X61761Y766288D01*
X61794Y766236D01*
X61821Y766181D01*
X61916Y766048D01*
X62006Y765910D01*
X62057Y765852D01*
X62083Y765815D01*
X62126Y765773D01*
X62212Y765675D01*
X97945Y729943D01*
X99569Y726022D01*
X99569Y697737D01*
X99583Y697573D01*
X99590Y697409D01*
X99603Y697349D01*
X99609Y697288D01*
X99652Y697129D01*
X99688Y696969D01*
X99711Y696913D01*
X99727Y696854D01*
X99798Y696706D01*
X99861Y696554D01*
X99894Y696502D01*
X99921Y696447D01*
X100016Y696314D01*
X100106Y696175D01*
X100157Y696118D01*
X100183Y696081D01*
X100226Y696039D01*
X100312Y695941D01*
X104141Y692113D01*
X104141Y686699D01*
X104155Y686535D01*
X104162Y686371D01*
X104175Y686311D01*
X104181Y686250D01*
X104224Y686091D01*
X104260Y685931D01*
X104283Y685875D01*
X104299Y685816D01*
X104370Y685668D01*
X104433Y685516D01*
X104466Y685464D01*
X104493Y685409D01*
X104588Y685276D01*
X104678Y685137D01*
X104729Y685080D01*
X104755Y685043D01*
X104798Y685001D01*
X104885Y684903D01*
X105276Y684512D01*
X105401Y684407D01*
X105523Y684295D01*
X105574Y684263D01*
X105621Y684224D01*
X105763Y684142D01*
X105902Y684054D01*
X105959Y684030D01*
X106012Y684000D01*
X106167Y683945D01*
X106319Y683883D01*
X106378Y683870D01*
X106436Y683849D01*
X106598Y683823D01*
X106759Y683788D01*
X106836Y683783D01*
X106880Y683776D01*
X106941Y683777D01*
X107071Y683769D01*
X177292Y683769D01*
X177327Y683772D01*
X177361Y683770D01*
X177550Y683792D01*
X177741Y683809D01*
X177774Y683818D01*
X177808Y683822D01*
X177991Y683877D01*
X178175Y683927D01*
X178206Y683942D01*
X178239Y683952D01*
X178410Y684039D01*
X178582Y684121D01*
X178610Y684141D01*
X178641Y684156D01*
X178793Y684272D01*
X178948Y684383D01*
X178972Y684408D01*
X178999Y684428D01*
X179128Y684568D01*
X179262Y684705D01*
X179281Y684734D01*
X179305Y684760D01*
X179407Y684921D01*
X179514Y685078D01*
X179528Y685110D01*
X179546Y685139D01*
X179619Y685316D01*
X179696Y685490D01*
X179704Y685524D01*
X179717Y685556D01*
X179757Y685743D01*
X179803Y685928D01*
X179805Y685962D01*
X179812Y685996D01*
X179831Y686308D01*
X179831Y687922D01*
X181455Y691843D01*
X197157Y707545D01*
X201078Y709169D01*
X235829Y709169D01*
X235993Y709183D01*
X236157Y709190D01*
X236217Y709203D01*
X236278Y709209D01*
X236436Y709252D01*
X236597Y709288D01*
X236653Y709311D01*
X236712Y709327D01*
X236860Y709398D01*
X237012Y709461D01*
X237064Y709494D01*
X237119Y709521D01*
X237252Y709616D01*
X237390Y709706D01*
X237448Y709757D01*
X237485Y709783D01*
X237527Y709826D01*
X237625Y709912D01*
X239925Y712212D01*
X239947Y712239D01*
X239973Y712262D01*
X240090Y712411D01*
X240213Y712558D01*
X240231Y712588D01*
X240252Y712615D01*
X240342Y712783D01*
X240437Y712949D01*
X240448Y712981D01*
X240465Y713012D01*
X240524Y713193D01*
X240588Y713373D01*
X240593Y713407D01*
X240604Y713440D01*
X240630Y713629D01*
X240661Y713817D01*
X240661Y713852D01*
X240665Y713886D01*
X240658Y714077D01*
X240655Y714267D01*
X240648Y714301D01*
X240647Y714336D01*
X240606Y714522D01*
X240569Y714710D01*
X240557Y714742D01*
X240549Y714776D01*
X240476Y714952D01*
X240407Y715130D01*
X240389Y715159D01*
X240376Y715191D01*
X240272Y715351D01*
X240173Y715514D01*
X240150Y715540D01*
X240131Y715569D01*
X239925Y715803D01*
X238876Y716852D01*
X238849Y716874D01*
X238826Y716900D01*
X238677Y717018D01*
X238531Y717141D01*
X238501Y717158D01*
X238473Y717180D01*
X238305Y717270D01*
X238140Y717364D01*
X238107Y717376D01*
X238076Y717392D01*
X237895Y717451D01*
X237715Y717515D01*
X237681Y717521D01*
X237648Y717531D01*
X237459Y717557D01*
X237271Y717588D01*
X237236Y717588D01*
X237202Y717593D01*
X237012Y717585D01*
X236821Y717582D01*
X236787Y717576D01*
X236752Y717574D01*
X236566Y717533D01*
X236379Y717497D01*
X236347Y717484D01*
X236313Y717477D01*
X236137Y717403D01*
X235959Y717334D01*
X235929Y717316D01*
X235897Y717303D01*
X235737Y717200D01*
X235574Y717101D01*
X235548Y717078D01*
X235519Y717059D01*
X235285Y716852D01*
X235280Y716847D01*
X234701Y716512D01*
X234055Y716339D01*
X228639Y716339D01*
X228639Y726500D01*
X228636Y726534D01*
X228638Y726569D01*
X228616Y726758D01*
X228599Y726948D01*
X228590Y726982D01*
X228586Y727016D01*
X228531Y727199D01*
X228481Y727383D01*
X228466Y727414D01*
X228456Y727447D01*
X228369Y727618D01*
X228288Y727789D01*
X228267Y727817D01*
X228252Y727848D01*
X228136Y728000D01*
X228025Y728155D01*
X228025Y728156D01*
X228001Y728180D01*
X227980Y728207D01*
X227979Y728207D01*
X227839Y728337D01*
X227702Y728470D01*
X227674Y728489D01*
X227648Y728513D01*
X227487Y728615D01*
X227329Y728722D01*
X227298Y728736D01*
X227268Y728754D01*
X227092Y728827D01*
X226917Y728904D01*
X226884Y728912D01*
X226852Y728925D01*
X226665Y728966D01*
X226480Y729011D01*
X226446Y729013D01*
X226412Y729020D01*
X226100Y729039D01*
X215939Y729039D01*
X215939Y734455D01*
X216112Y735101D01*
X216447Y735680D01*
X216920Y736153D01*
X217499Y736488D01*
X218145Y736661D01*
X220021Y736661D01*
X220151Y736672D01*
X220281Y736674D01*
X220374Y736692D01*
X220470Y736701D01*
X220595Y736735D01*
X220723Y736760D01*
X220812Y736794D01*
X220904Y736819D01*
X221021Y736875D01*
X221143Y736922D01*
X221225Y736972D01*
X221311Y737013D01*
X221416Y737088D01*
X221527Y737156D01*
X221599Y737219D01*
X221677Y737275D01*
X221767Y737368D01*
X221865Y737454D01*
X221924Y737529D01*
X221991Y737597D01*
X222064Y737705D01*
X222144Y737807D01*
X222189Y737891D01*
X222243Y737970D01*
X222295Y738089D01*
X222357Y738204D01*
X222386Y738295D01*
X222425Y738382D01*
X222456Y738509D01*
X222496Y738632D01*
X222509Y738727D01*
X222532Y738820D01*
X222540Y738949D01*
X222557Y739078D01*
X222554Y739174D01*
X222559Y739269D01*
X222544Y739398D01*
X222539Y739528D01*
X222518Y739621D01*
X222507Y739716D01*
X222470Y739841D01*
X222442Y739968D01*
X222405Y740056D01*
X222377Y740147D01*
X222318Y740263D01*
X222268Y740383D01*
X222216Y740463D01*
X222173Y740549D01*
X222094Y740652D01*
X222024Y740761D01*
X221938Y740859D01*
X221901Y740907D01*
X221868Y740938D01*
X221817Y740996D01*
X219555Y743257D01*
X217931Y747178D01*
X217931Y764122D01*
X219555Y768043D01*
X224928Y773415D01*
X225033Y773542D01*
X225145Y773663D01*
X225177Y773714D01*
X225216Y773761D01*
X225298Y773903D01*
X225386Y774042D01*
X225410Y774099D01*
X225440Y774152D01*
X225495Y774307D01*
X225557Y774459D01*
X225570Y774518D01*
X225591Y774576D01*
X225617Y774738D01*
X225652Y774899D01*
X225657Y774976D01*
X225664Y775020D01*
X225663Y775081D01*
X225671Y775211D01*
X225671Y777809D01*
X228051Y783553D01*
X229594Y785096D01*
X229677Y785196D01*
X229768Y785289D01*
X229822Y785369D01*
X229883Y785442D01*
X229948Y785555D01*
X230020Y785662D01*
X230059Y785750D01*
X230106Y785833D01*
X230150Y785955D01*
X230203Y786074D01*
X230225Y786167D01*
X230257Y786257D01*
X230278Y786385D01*
X230309Y786512D01*
X230315Y786607D01*
X230331Y786701D01*
X230329Y786831D01*
X230337Y786961D01*
X230326Y787056D01*
X230325Y787152D01*
X230300Y787279D01*
X230285Y787408D01*
X230257Y787500D01*
X230239Y787594D01*
X230192Y787715D01*
X230155Y787839D01*
X230111Y787925D01*
X230077Y788014D01*
X230009Y788125D01*
X229950Y788241D01*
X229893Y788317D01*
X229843Y788398D01*
X229757Y788496D01*
X229678Y788599D01*
X229608Y788664D01*
X229545Y788736D01*
X229443Y788816D01*
X229347Y788905D01*
X229266Y788956D01*
X229192Y789015D01*
X229077Y789077D01*
X228967Y789146D01*
X228879Y789183D01*
X228795Y789228D01*
X228671Y789268D01*
X228551Y789317D01*
X228457Y789337D01*
X228366Y789367D01*
X228238Y789385D01*
X228111Y789412D01*
X227981Y789420D01*
X227920Y789428D01*
X227876Y789427D01*
X227799Y789431D01*
X132471Y789431D01*
X132307Y789417D01*
X132143Y789410D01*
X132083Y789397D01*
X132022Y789391D01*
X131864Y789348D01*
X131703Y789312D01*
X131647Y789289D01*
X131588Y789273D01*
X131440Y789202D01*
X131288Y789139D01*
X131236Y789106D01*
X131181Y789079D01*
X131048Y788984D01*
X130910Y788895D01*
X130852Y788843D01*
X130815Y788817D01*
X130773Y788774D01*
X130675Y788688D01*
X128760Y786773D01*
X128655Y786647D01*
X128543Y786526D01*
X128511Y786474D01*
X128472Y786427D01*
X128390Y786285D01*
X128302Y786146D01*
X128278Y786089D01*
X128248Y786036D01*
X128193Y785881D01*
X128131Y785729D01*
X128118Y785670D01*
X128097Y785612D01*
X128071Y785450D01*
X128036Y785289D01*
X128031Y785212D01*
X128024Y785168D01*
X128025Y785107D01*
X128017Y784977D01*
X128017Y784672D01*
X125929Y779630D01*
X122070Y775771D01*
X117028Y773683D01*
X111572Y773683D01*
X106530Y775771D01*
X102671Y779630D01*
X100583Y784672D01*
X100583Y790128D01*
X102671Y795170D01*
X106530Y799029D01*
X111572Y801117D01*
X111877Y801117D01*
X112041Y801131D01*
X112205Y801138D01*
X112265Y801151D01*
X112326Y801157D01*
X112484Y801200D01*
X112645Y801236D01*
X112701Y801259D01*
X112760Y801275D01*
X112908Y801346D01*
X113060Y801409D01*
X113112Y801442D01*
X113167Y801469D01*
X113300Y801564D01*
X113438Y801654D01*
X113496Y801705D01*
X113533Y801731D01*
X113575Y801774D01*
X113673Y801860D01*
X117598Y805786D01*
X120957Y809145D01*
X124878Y810769D01*
X256122Y810769D01*
X260043Y809145D01*
X285945Y783243D01*
X286337Y782295D01*
X286398Y782179D01*
X286449Y782060D01*
X286502Y781980D01*
X286546Y781896D01*
X286626Y781793D01*
X286697Y781684D01*
X286763Y781615D01*
X286822Y781540D01*
X286918Y781452D01*
X287008Y781358D01*
X287085Y781302D01*
X287156Y781238D01*
X287266Y781169D01*
X287371Y781092D01*
X287457Y781050D01*
X287538Y781000D01*
X287659Y780952D01*
X287776Y780895D01*
X287868Y780869D01*
X287957Y780833D01*
X288084Y780807D01*
X288209Y780772D01*
X288304Y780762D01*
X288398Y780743D01*
X288528Y780740D01*
X288657Y780727D01*
X288752Y780735D01*
X288848Y780732D01*
X288976Y780752D01*
X289106Y780763D01*
X289199Y780787D01*
X289293Y780801D01*
X289416Y780844D01*
X289542Y780877D01*
X289628Y780917D01*
X289719Y780948D01*
X289832Y781011D01*
X289950Y781066D01*
X290028Y781120D01*
X290112Y781167D01*
X290212Y781249D01*
X290319Y781324D01*
X290386Y781392D01*
X290460Y781452D01*
X290545Y781551D01*
X290636Y781643D01*
X290691Y781722D01*
X290753Y781795D01*
X290818Y781907D01*
X290892Y782014D01*
X290949Y782131D01*
X290980Y782183D01*
X290996Y782225D01*
X291029Y782295D01*
X291551Y783553D01*
X295947Y787949D01*
X301691Y790329D01*
X307909Y790329D01*
X313653Y787949D01*
X315490Y786112D01*
X315616Y786007D01*
X315737Y785895D01*
X315788Y785863D01*
X315835Y785824D01*
X315978Y785742D01*
X316117Y785654D01*
X316173Y785630D01*
X316226Y785600D01*
X316381Y785545D01*
X316533Y785483D01*
X316593Y785470D01*
X316650Y785449D01*
X316813Y785423D01*
X316973Y785388D01*
X317051Y785383D01*
X317095Y785376D01*
X317155Y785377D01*
X317285Y785369D01*
X426329Y785369D01*
X426493Y785383D01*
X426657Y785390D01*
X426717Y785403D01*
X426778Y785409D01*
X426936Y785452D01*
X427097Y785488D01*
X427153Y785511D01*
X427212Y785527D01*
X427360Y785598D01*
X427512Y785661D01*
X427564Y785694D01*
X427619Y785721D01*
X427752Y785816D01*
X427890Y785906D01*
X427948Y785957D01*
X427985Y785983D01*
X428027Y786026D01*
X428125Y786112D01*
X451057Y809045D01*
X454978Y810669D01*
X903922Y810669D01*
X907843Y809045D01*
X919372Y797516D01*
X919462Y797441D01*
X919544Y797359D01*
X919634Y797297D01*
X919717Y797227D01*
X919819Y797169D01*
X919915Y797103D01*
X920053Y797035D01*
X920108Y797004D01*
X920142Y796992D01*
X920196Y796966D01*
X923321Y795671D01*
X927751Y791241D01*
X928230Y790085D01*
X928268Y790012D01*
X928298Y789935D01*
X928372Y789813D01*
X928439Y789686D01*
X928489Y789621D01*
X928532Y789550D01*
X928627Y789443D01*
X928714Y789330D01*
X928775Y789274D01*
X928830Y789213D01*
X928942Y789124D01*
X929049Y789028D01*
X929118Y788984D01*
X929183Y788933D01*
X929309Y788866D01*
X929431Y788790D01*
X929507Y788760D01*
X929580Y788721D01*
X929716Y788676D01*
X929849Y788624D01*
X929930Y788607D01*
X930008Y788582D01*
X930150Y788562D01*
X930290Y788533D01*
X930373Y788531D01*
X930454Y788520D01*
X930597Y788526D01*
X930740Y788523D01*
X930822Y788535D01*
X930904Y788539D01*
X931044Y788570D01*
X931185Y788591D01*
X931263Y788618D01*
X931344Y788636D01*
X931476Y788691D01*
X931611Y788738D01*
X931683Y788778D01*
X931759Y788810D01*
X931880Y788888D01*
X932004Y788957D01*
X932068Y789009D01*
X932137Y789054D01*
X932322Y789217D01*
X932353Y789242D01*
X932360Y789251D01*
X932372Y789261D01*
X933181Y790070D01*
X934475Y791010D01*
X935900Y791736D01*
X937261Y792179D01*
X937261Y774700D01*
X937261Y757221D01*
X935900Y757664D01*
X934475Y758390D01*
X933181Y759330D01*
X932372Y760139D01*
X932308Y760192D01*
X932251Y760252D01*
X932136Y760336D01*
X932026Y760428D01*
X931955Y760469D01*
X931888Y760517D01*
X931759Y760580D01*
X931635Y760651D01*
X931558Y760679D01*
X931484Y760715D01*
X931346Y760754D01*
X931211Y760802D01*
X931129Y760816D01*
X931050Y760838D01*
X930908Y760852D01*
X930767Y760876D01*
X930684Y760874D01*
X930602Y760883D01*
X930460Y760871D01*
X930316Y760869D01*
X930235Y760854D01*
X930153Y760847D01*
X930015Y760811D01*
X929874Y760784D01*
X929797Y760754D01*
X929718Y760733D01*
X929588Y760673D01*
X929454Y760622D01*
X929384Y760579D01*
X929309Y760544D01*
X929192Y760462D01*
X929070Y760388D01*
X929008Y760333D01*
X928940Y760286D01*
X928839Y760184D01*
X928732Y760090D01*
X928681Y760025D01*
X928623Y759966D01*
X928541Y759848D01*
X928453Y759736D01*
X928414Y759664D01*
X928367Y759596D01*
X928259Y759374D01*
X928240Y759340D01*
X928237Y759329D01*
X928230Y759315D01*
X927751Y758159D01*
X925847Y756255D01*
X925832Y756237D01*
X925815Y756222D01*
X925688Y756065D01*
X925558Y755910D01*
X925547Y755889D01*
X925532Y755871D01*
X925435Y755695D01*
X925335Y755519D01*
X925327Y755497D01*
X925316Y755477D01*
X925252Y755286D01*
X925184Y755094D01*
X925180Y755071D01*
X925173Y755050D01*
X925143Y754850D01*
X925110Y754650D01*
X925111Y754627D01*
X925107Y754604D01*
X925114Y754402D01*
X925116Y754200D01*
X925121Y754177D01*
X925122Y754154D01*
X925164Y753955D01*
X925202Y753758D01*
X925210Y753736D01*
X925215Y753714D01*
X925292Y753526D01*
X925364Y753338D01*
X925376Y753318D01*
X925385Y753297D01*
X925493Y753126D01*
X925598Y752953D01*
X925614Y752936D01*
X925626Y752916D01*
X925762Y752768D01*
X925896Y752616D01*
X925915Y752601D01*
X925930Y752584D01*
X926091Y752462D01*
X926250Y752336D01*
X926270Y752325D01*
X926288Y752311D01*
X926469Y752219D01*
X926646Y752124D01*
X926668Y752116D01*
X926689Y752106D01*
X926985Y752007D01*
X931198Y750878D01*
X937163Y747434D01*
X942034Y742563D01*
X945478Y736598D01*
X947261Y729944D01*
X947261Y723056D01*
X945478Y716402D01*
X942034Y710437D01*
X937163Y705566D01*
X931198Y702122D01*
X924544Y700339D01*
X917656Y700339D01*
X911002Y702122D01*
X905037Y705566D01*
X904004Y706600D01*
X903904Y706683D01*
X903811Y706774D01*
X903731Y706827D01*
X903658Y706889D01*
X903545Y706953D01*
X903438Y707026D01*
X903350Y707065D01*
X903267Y707112D01*
X903145Y707155D01*
X903026Y707208D01*
X902933Y707231D01*
X902843Y707263D01*
X902715Y707284D01*
X902588Y707315D01*
X902493Y707321D01*
X902399Y707336D01*
X902269Y707334D01*
X902139Y707342D01*
X902044Y707331D01*
X901948Y707330D01*
X901821Y707305D01*
X901692Y707290D01*
X901600Y707263D01*
X901506Y707245D01*
X901385Y707198D01*
X901261Y707160D01*
X901175Y707117D01*
X901086Y707082D01*
X900975Y707015D01*
X900859Y706956D01*
X900783Y706898D01*
X900702Y706848D01*
X900604Y706762D01*
X900501Y706684D01*
X900436Y706613D01*
X900364Y706550D01*
X900284Y706448D01*
X900195Y706353D01*
X900144Y706272D01*
X900085Y706197D01*
X900023Y706082D01*
X899954Y705973D01*
X899917Y705884D01*
X899872Y705800D01*
X899832Y705676D01*
X899783Y705556D01*
X899763Y705463D01*
X899733Y705372D01*
X899715Y705243D01*
X899688Y705116D01*
X899680Y704986D01*
X899672Y704926D01*
X899673Y704881D01*
X899669Y704804D01*
X899669Y602371D01*
X899683Y602207D01*
X899690Y602043D01*
X899703Y601983D01*
X899709Y601922D01*
X899752Y601764D01*
X899788Y601603D01*
X899811Y601547D01*
X899827Y601488D01*
X899898Y601340D01*
X899961Y601188D01*
X899994Y601136D01*
X900021Y601081D01*
X900116Y600948D01*
X900206Y600810D01*
X900257Y600752D01*
X900283Y600715D01*
X900326Y600673D01*
X900412Y600575D01*
X923445Y577543D01*
X925069Y573622D01*
X925069Y518578D01*
X923445Y514657D01*
X918072Y509285D01*
X917967Y509158D01*
X917855Y509037D01*
X917823Y508986D01*
X917784Y508939D01*
X917702Y508797D01*
X917614Y508658D01*
X917590Y508601D01*
X917560Y508548D01*
X917505Y508393D01*
X917443Y508241D01*
X917430Y508182D01*
X917409Y508124D01*
X917383Y507962D01*
X917348Y507801D01*
X917343Y507724D01*
X917336Y507680D01*
X917337Y507619D01*
X917329Y507489D01*
X917329Y504891D01*
X914949Y499147D01*
X910553Y494751D01*
X904809Y492371D01*
X898591Y492371D01*
X892847Y494751D01*
X888451Y499147D01*
X886071Y504891D01*
X886071Y511109D01*
X888451Y516853D01*
X892847Y521249D01*
X898591Y523629D01*
X901189Y523629D01*
X901244Y523634D01*
X901261Y523633D01*
X901352Y523643D01*
X901353Y523643D01*
X901517Y523650D01*
X901577Y523663D01*
X901638Y523669D01*
X901688Y523682D01*
X901708Y523685D01*
X901804Y523714D01*
X901957Y523748D01*
X902013Y523771D01*
X902072Y523787D01*
X902115Y523808D01*
X902139Y523815D01*
X902236Y523864D01*
X902372Y523921D01*
X902424Y523954D01*
X902479Y523981D01*
X902514Y524006D01*
X902541Y524019D01*
X902635Y524091D01*
X902750Y524166D01*
X902808Y524217D01*
X902845Y524243D01*
X902872Y524270D01*
X902899Y524291D01*
X902928Y524322D01*
X902985Y524372D01*
X902988Y524375D01*
X903072Y524476D01*
X903159Y524565D01*
X903177Y524593D01*
X903205Y524623D01*
X903237Y524674D01*
X903276Y524721D01*
X903346Y524843D01*
X903411Y524938D01*
X903422Y524965D01*
X903446Y525002D01*
X903470Y525059D01*
X903500Y525112D01*
X903550Y525253D01*
X903593Y525350D01*
X903599Y525373D01*
X903617Y525419D01*
X903630Y525478D01*
X903651Y525536D01*
X903677Y525693D01*
X903700Y525788D01*
X903701Y525807D01*
X903712Y525859D01*
X903717Y525936D01*
X903724Y525980D01*
X903723Y526041D01*
X903731Y526171D01*
X903731Y566029D01*
X903717Y566193D01*
X903710Y566357D01*
X903697Y566417D01*
X903691Y566478D01*
X903648Y566636D01*
X903612Y566797D01*
X903589Y566853D01*
X903573Y566912D01*
X903502Y567060D01*
X903439Y567212D01*
X903406Y567264D01*
X903379Y567319D01*
X903284Y567452D01*
X903194Y567590D01*
X903143Y567648D01*
X903117Y567685D01*
X903074Y567727D01*
X902988Y567825D01*
X879955Y590857D01*
X878331Y594778D01*
X878331Y754425D01*
X878317Y754589D01*
X878310Y754753D01*
X878297Y754813D01*
X878291Y754873D01*
X878248Y755032D01*
X878212Y755193D01*
X878189Y755249D01*
X878173Y755308D01*
X878102Y755456D01*
X878039Y755608D01*
X878006Y755659D01*
X877979Y755714D01*
X877884Y755848D01*
X877794Y755986D01*
X877743Y756044D01*
X877717Y756080D01*
X877674Y756123D01*
X877588Y756220D01*
X875649Y758159D01*
X873251Y763947D01*
X873251Y785453D01*
X873404Y785820D01*
X873428Y785899D01*
X873462Y785974D01*
X873496Y786113D01*
X873538Y786250D01*
X873549Y786332D01*
X873568Y786412D01*
X873577Y786554D01*
X873595Y786697D01*
X873591Y786779D01*
X873596Y786861D01*
X873579Y787003D01*
X873572Y787146D01*
X873553Y787226D01*
X873544Y787308D01*
X873502Y787445D01*
X873470Y787585D01*
X873437Y787660D01*
X873414Y787739D01*
X873349Y787867D01*
X873292Y787998D01*
X873247Y788067D01*
X873209Y788141D01*
X873123Y788255D01*
X873044Y788374D01*
X872987Y788434D01*
X872937Y788499D01*
X872832Y788596D01*
X872733Y788700D01*
X872667Y788749D01*
X872606Y788805D01*
X872485Y788881D01*
X872370Y788966D01*
X872296Y789002D01*
X872226Y789046D01*
X872094Y789101D01*
X871965Y789164D01*
X871886Y789186D01*
X871810Y789217D01*
X871670Y789247D01*
X871532Y789287D01*
X871450Y789295D01*
X871370Y789312D01*
X871124Y789327D01*
X871084Y789331D01*
X871073Y789330D01*
X871058Y789331D01*
X850100Y789331D01*
X849893Y789313D01*
X849686Y789297D01*
X849670Y789293D01*
X849652Y789291D01*
X849451Y789237D01*
X849250Y789185D01*
X849234Y789177D01*
X849218Y789173D01*
X849031Y789084D01*
X848841Y788997D01*
X848827Y788987D01*
X848811Y788979D01*
X848642Y788859D01*
X848471Y788740D01*
X848459Y788728D01*
X848445Y788717D01*
X848299Y788568D01*
X848153Y788422D01*
X848143Y788407D01*
X848131Y788395D01*
X848015Y788222D01*
X847896Y788052D01*
X847889Y788036D01*
X847879Y788022D01*
X847795Y787831D01*
X847708Y787643D01*
X847704Y787626D01*
X847697Y787610D01*
X847647Y787408D01*
X847595Y787207D01*
X847594Y787189D01*
X847590Y787172D01*
X847577Y786966D01*
X847561Y786758D01*
X847563Y786740D01*
X847562Y786723D01*
X847586Y786517D01*
X847607Y786310D01*
X847613Y786290D01*
X847614Y786276D01*
X847628Y786231D01*
X847686Y786007D01*
X848111Y784699D01*
X848361Y783120D01*
X848361Y777239D01*
X838200Y777239D01*
X838166Y777236D01*
X838131Y777238D01*
X837942Y777216D01*
X837752Y777199D01*
X837718Y777190D01*
X837684Y777186D01*
X837501Y777131D01*
X837317Y777081D01*
X837286Y777066D01*
X837253Y777056D01*
X837082Y776969D01*
X836911Y776888D01*
X836883Y776867D01*
X836852Y776852D01*
X836700Y776736D01*
X836545Y776625D01*
X836544Y776625D01*
X836520Y776600D01*
X836493Y776580D01*
X836493Y776579D01*
X836492Y776579D01*
X836363Y776439D01*
X836230Y776302D01*
X836211Y776274D01*
X836187Y776248D01*
X836085Y776087D01*
X835978Y775929D01*
X835964Y775898D01*
X835945Y775868D01*
X835873Y775692D01*
X835796Y775517D01*
X835788Y775484D01*
X835775Y775452D01*
X835734Y775265D01*
X835689Y775080D01*
X835687Y775046D01*
X835680Y775012D01*
X835661Y774700D01*
X835661Y757221D01*
X834300Y757664D01*
X832875Y758390D01*
X831581Y759330D01*
X830772Y760139D01*
X830708Y760192D01*
X830651Y760252D01*
X830536Y760336D01*
X830426Y760428D01*
X830355Y760469D01*
X830288Y760518D01*
X830160Y760580D01*
X830035Y760651D01*
X829957Y760679D01*
X829884Y760715D01*
X829746Y760754D01*
X829611Y760802D01*
X829530Y760816D01*
X829450Y760838D01*
X829308Y760852D01*
X829167Y760876D01*
X829084Y760874D01*
X829002Y760883D01*
X828860Y760871D01*
X828717Y760870D01*
X828636Y760854D01*
X828553Y760847D01*
X828415Y760811D01*
X828274Y760784D01*
X828198Y760754D01*
X828118Y760733D01*
X827988Y760673D01*
X827854Y760622D01*
X827784Y760579D01*
X827709Y760544D01*
X827592Y760462D01*
X827470Y760388D01*
X827408Y760333D01*
X827340Y760286D01*
X827239Y760184D01*
X827132Y760090D01*
X827081Y760025D01*
X827023Y759966D01*
X826942Y759849D01*
X826853Y759737D01*
X826814Y759664D01*
X826767Y759596D01*
X826659Y759374D01*
X826640Y759340D01*
X826637Y759329D01*
X826630Y759315D01*
X826151Y758159D01*
X821721Y753729D01*
X815933Y751331D01*
X812937Y751331D01*
X812808Y751320D01*
X812677Y751318D01*
X812584Y751300D01*
X812488Y751291D01*
X812363Y751257D01*
X812235Y751232D01*
X812146Y751198D01*
X812054Y751173D01*
X811937Y751117D01*
X811815Y751070D01*
X811733Y751020D01*
X811647Y750979D01*
X811542Y750904D01*
X811431Y750836D01*
X811359Y750773D01*
X811281Y750717D01*
X811190Y750624D01*
X811093Y750538D01*
X811034Y750463D01*
X810967Y750395D01*
X810894Y750287D01*
X810814Y750185D01*
X810769Y750101D01*
X810715Y750022D01*
X810663Y749903D01*
X810601Y749788D01*
X810572Y749697D01*
X810533Y749610D01*
X810502Y749483D01*
X810462Y749360D01*
X810449Y749265D01*
X810426Y749172D01*
X810418Y749043D01*
X810401Y748914D01*
X810404Y748818D01*
X810399Y748723D01*
X810414Y748594D01*
X810419Y748464D01*
X810440Y748371D01*
X810451Y748276D01*
X810488Y748151D01*
X810516Y748024D01*
X810553Y747936D01*
X810581Y747845D01*
X810640Y747729D01*
X810690Y747609D01*
X810742Y747528D01*
X810785Y747443D01*
X810864Y747340D01*
X810934Y747231D01*
X811021Y747133D01*
X811057Y747085D01*
X811090Y747054D01*
X811141Y746996D01*
X843886Y714252D01*
X847245Y710893D01*
X848869Y706972D01*
X848869Y576971D01*
X848883Y576807D01*
X848890Y576643D01*
X848903Y576583D01*
X848909Y576522D01*
X848952Y576364D01*
X848988Y576203D01*
X849011Y576147D01*
X849027Y576088D01*
X849098Y575940D01*
X849161Y575788D01*
X849194Y575736D01*
X849221Y575681D01*
X849316Y575548D01*
X849406Y575410D01*
X849457Y575352D01*
X849483Y575315D01*
X849526Y575273D01*
X849612Y575175D01*
X869286Y555502D01*
X872645Y552143D01*
X874269Y548222D01*
X874269Y497625D01*
X874283Y497462D01*
X874290Y497297D01*
X874303Y497238D01*
X874309Y497177D01*
X874352Y497018D01*
X874388Y496858D01*
X874411Y496801D01*
X874427Y496743D01*
X874498Y496594D01*
X874561Y496442D01*
X874594Y496391D01*
X874621Y496336D01*
X874716Y496202D01*
X874806Y496064D01*
X874857Y496006D01*
X874883Y495970D01*
X874926Y495927D01*
X875012Y495830D01*
X879389Y491453D01*
X881464Y486444D01*
X881480Y486413D01*
X881492Y486380D01*
X881585Y486213D01*
X881673Y486044D01*
X881694Y486017D01*
X881711Y485987D01*
X881832Y485839D01*
X881949Y485688D01*
X881974Y485665D01*
X881996Y485638D01*
X882141Y485514D01*
X882283Y485387D01*
X882312Y485369D01*
X882339Y485346D01*
X882504Y485249D01*
X882665Y485149D01*
X882697Y485136D01*
X882727Y485119D01*
X882906Y485053D01*
X883083Y484982D01*
X883117Y484975D01*
X883150Y484963D01*
X883338Y484930D01*
X883525Y484892D01*
X883559Y484891D01*
X883593Y484885D01*
X883784Y484886D01*
X883975Y484881D01*
X884009Y484887D01*
X884044Y484887D01*
X884230Y484921D01*
X884420Y484950D01*
X884453Y484962D01*
X884487Y484968D01*
X884782Y485069D01*
X885891Y485529D01*
X892109Y485529D01*
X897853Y483149D01*
X902249Y478753D01*
X904629Y473009D01*
X904629Y470411D01*
X904643Y470247D01*
X904650Y470083D01*
X904663Y470023D01*
X904669Y469962D01*
X904712Y469804D01*
X904748Y469643D01*
X904771Y469587D01*
X904787Y469528D01*
X904858Y469380D01*
X904921Y469228D01*
X904954Y469176D01*
X904981Y469121D01*
X905076Y468988D01*
X905166Y468850D01*
X905217Y468792D01*
X905243Y468755D01*
X905286Y468713D01*
X905372Y468615D01*
X923445Y450543D01*
X925069Y446622D01*
X925069Y391578D01*
X923445Y387657D01*
X900585Y364798D01*
X900563Y364771D01*
X900537Y364748D01*
X900420Y364599D01*
X900297Y364452D01*
X900279Y364422D01*
X900258Y364395D01*
X900168Y364227D01*
X900073Y364061D01*
X900062Y364029D01*
X900045Y363998D01*
X899986Y363817D01*
X899922Y363637D01*
X899917Y363603D01*
X899906Y363570D01*
X899880Y363382D01*
X899849Y363193D01*
X899849Y363158D01*
X899845Y363124D01*
X899852Y362933D01*
X899855Y362743D01*
X899862Y362709D01*
X899863Y362674D01*
X899904Y362488D01*
X899941Y362301D01*
X899953Y362268D01*
X899961Y362234D01*
X900034Y362058D01*
X900103Y361881D01*
X900121Y361851D01*
X900134Y361819D01*
X900238Y361659D01*
X900337Y361496D01*
X900360Y361470D01*
X900379Y361441D01*
X900585Y361207D01*
X902351Y359441D01*
X902830Y358285D01*
X902868Y358212D01*
X902898Y358135D01*
X902972Y358013D01*
X903039Y357886D01*
X903089Y357821D01*
X903132Y357750D01*
X903227Y357643D01*
X903314Y357530D01*
X903375Y357474D01*
X903430Y357413D01*
X903542Y357324D01*
X903649Y357228D01*
X903718Y357184D01*
X903783Y357133D01*
X903909Y357066D01*
X904031Y356990D01*
X904107Y356960D01*
X904180Y356921D01*
X904316Y356876D01*
X904449Y356824D01*
X904530Y356807D01*
X904608Y356782D01*
X904750Y356762D01*
X904890Y356733D01*
X904973Y356731D01*
X905054Y356720D01*
X905197Y356726D01*
X905340Y356723D01*
X905422Y356735D01*
X905504Y356739D01*
X905644Y356770D01*
X905785Y356791D01*
X905863Y356818D01*
X905944Y356836D01*
X906076Y356891D01*
X906211Y356938D01*
X906283Y356978D01*
X906359Y357010D01*
X906480Y357088D01*
X906604Y357157D01*
X906668Y357209D01*
X906737Y357254D01*
X906922Y357417D01*
X906953Y357442D01*
X906960Y357451D01*
X906972Y357461D01*
X907781Y358270D01*
X909075Y359210D01*
X910500Y359936D01*
X911861Y360379D01*
X911861Y342900D01*
X911861Y325421D01*
X910500Y325864D01*
X909075Y326590D01*
X907781Y327530D01*
X906972Y328339D01*
X906908Y328392D01*
X906851Y328452D01*
X906736Y328536D01*
X906626Y328628D01*
X906555Y328669D01*
X906488Y328717D01*
X906359Y328780D01*
X906235Y328851D01*
X906158Y328879D01*
X906084Y328915D01*
X905946Y328954D01*
X905811Y329002D01*
X905729Y329016D01*
X905650Y329038D01*
X905508Y329052D01*
X905367Y329076D01*
X905284Y329074D01*
X905202Y329083D01*
X905060Y329071D01*
X904916Y329069D01*
X904835Y329054D01*
X904753Y329047D01*
X904615Y329011D01*
X904474Y328984D01*
X904397Y328954D01*
X904318Y328933D01*
X904188Y328873D01*
X904054Y328822D01*
X903984Y328779D01*
X903909Y328744D01*
X903792Y328662D01*
X903670Y328588D01*
X903608Y328533D01*
X903540Y328486D01*
X903439Y328384D01*
X903332Y328290D01*
X903281Y328225D01*
X903223Y328166D01*
X903141Y328048D01*
X903053Y327936D01*
X903014Y327864D01*
X902967Y327796D01*
X902859Y327574D01*
X902840Y327540D01*
X902837Y327529D01*
X902830Y327515D01*
X902351Y326359D01*
X897921Y321929D01*
X892133Y319531D01*
X885867Y319531D01*
X880079Y321929D01*
X878604Y323404D01*
X878504Y323488D01*
X878411Y323579D01*
X878331Y323632D01*
X878258Y323693D01*
X878145Y323758D01*
X878038Y323831D01*
X877950Y323869D01*
X877867Y323917D01*
X877745Y323960D01*
X877626Y324013D01*
X877533Y324035D01*
X877443Y324068D01*
X877315Y324089D01*
X877188Y324120D01*
X877093Y324125D01*
X876999Y324141D01*
X876869Y324139D01*
X876739Y324147D01*
X876644Y324136D01*
X876548Y324135D01*
X876421Y324110D01*
X876292Y324095D01*
X876200Y324067D01*
X876106Y324049D01*
X875985Y324003D01*
X875861Y323965D01*
X875775Y323921D01*
X875686Y323887D01*
X875575Y323820D01*
X875459Y323760D01*
X875383Y323703D01*
X875302Y323653D01*
X875204Y323567D01*
X875101Y323488D01*
X875036Y323418D01*
X874964Y323355D01*
X874884Y323253D01*
X874795Y323157D01*
X874744Y323077D01*
X874685Y323002D01*
X874623Y322887D01*
X874554Y322778D01*
X874517Y322689D01*
X874472Y322605D01*
X874432Y322481D01*
X874383Y322361D01*
X874363Y322268D01*
X874333Y322177D01*
X874315Y322048D01*
X874288Y321921D01*
X874280Y321791D01*
X874272Y321731D01*
X874273Y321686D01*
X874269Y321609D01*
X874269Y251878D01*
X872645Y247957D01*
X818843Y194155D01*
X814922Y192531D01*
X645578Y192531D01*
X641657Y194155D01*
X637167Y198646D01*
X637040Y198751D01*
X636919Y198863D01*
X636868Y198895D01*
X636821Y198934D01*
X636679Y199016D01*
X636540Y199104D01*
X636483Y199128D01*
X636430Y199158D01*
X636275Y199213D01*
X636123Y199275D01*
X636064Y199288D01*
X636006Y199309D01*
X635844Y199335D01*
X635683Y199370D01*
X635606Y199375D01*
X635562Y199382D01*
X635501Y199381D01*
X635371Y199389D01*
X631716Y199389D01*
X625647Y201903D01*
X624096Y203455D01*
X624069Y203477D01*
X624046Y203503D01*
X623897Y203621D01*
X623750Y203744D01*
X623720Y203761D01*
X623693Y203782D01*
X623525Y203872D01*
X623359Y203967D01*
X623327Y203979D01*
X623296Y203995D01*
X623115Y204054D01*
X622935Y204118D01*
X622901Y204124D01*
X622868Y204134D01*
X622679Y204160D01*
X622491Y204191D01*
X622456Y204191D01*
X622422Y204196D01*
X622231Y204188D01*
X622041Y204185D01*
X622006Y204179D01*
X621972Y204177D01*
X621786Y204136D01*
X621598Y204100D01*
X621566Y204087D01*
X621532Y204080D01*
X621356Y204006D01*
X621178Y203937D01*
X621149Y203919D01*
X621117Y203906D01*
X620956Y203802D01*
X620794Y203703D01*
X620768Y203681D01*
X620739Y203662D01*
X620504Y203455D01*
X618953Y201903D01*
X612884Y199389D01*
X606316Y199389D01*
X600247Y201903D01*
X598696Y203455D01*
X598669Y203477D01*
X598646Y203503D01*
X598497Y203621D01*
X598350Y203744D01*
X598320Y203761D01*
X598293Y203782D01*
X598125Y203873D01*
X597959Y203967D01*
X597927Y203979D01*
X597896Y203995D01*
X597715Y204054D01*
X597535Y204118D01*
X597501Y204124D01*
X597468Y204134D01*
X597279Y204160D01*
X597091Y204191D01*
X597056Y204191D01*
X597022Y204196D01*
X596831Y204188D01*
X596640Y204185D01*
X596606Y204179D01*
X596572Y204177D01*
X596386Y204136D01*
X596198Y204100D01*
X596166Y204087D01*
X596132Y204080D01*
X595957Y204006D01*
X595778Y203937D01*
X595749Y203919D01*
X595717Y203906D01*
X595557Y203803D01*
X595394Y203703D01*
X595368Y203681D01*
X595339Y203662D01*
X595104Y203455D01*
X593553Y201903D01*
X587484Y199389D01*
X580916Y199389D01*
X574847Y201903D01*
X573296Y203455D01*
X573269Y203477D01*
X573246Y203503D01*
X573097Y203621D01*
X572950Y203744D01*
X572920Y203761D01*
X572893Y203782D01*
X572725Y203873D01*
X572559Y203967D01*
X572527Y203979D01*
X572496Y203995D01*
X572315Y204054D01*
X572135Y204118D01*
X572101Y204124D01*
X572068Y204134D01*
X571879Y204160D01*
X571691Y204191D01*
X571656Y204191D01*
X571622Y204196D01*
X571431Y204188D01*
X571240Y204185D01*
X571206Y204179D01*
X571172Y204177D01*
X570986Y204136D01*
X570798Y204100D01*
X570766Y204087D01*
X570732Y204080D01*
X570557Y204006D01*
X570378Y203937D01*
X570349Y203919D01*
X570317Y203906D01*
X570157Y203803D01*
X569994Y203703D01*
X569968Y203681D01*
X569939Y203662D01*
X569704Y203455D01*
X568153Y201903D01*
X562084Y199389D01*
X555516Y199389D01*
X549447Y201903D01*
X547896Y203455D01*
X547869Y203477D01*
X547846Y203503D01*
X547697Y203621D01*
X547550Y203744D01*
X547520Y203761D01*
X547493Y203782D01*
X547325Y203873D01*
X547159Y203967D01*
X547127Y203979D01*
X547096Y203995D01*
X546915Y204054D01*
X546735Y204118D01*
X546701Y204124D01*
X546668Y204134D01*
X546479Y204160D01*
X546291Y204191D01*
X546256Y204191D01*
X546222Y204196D01*
X546031Y204188D01*
X545840Y204185D01*
X545806Y204179D01*
X545772Y204177D01*
X545586Y204136D01*
X545398Y204100D01*
X545366Y204087D01*
X545332Y204080D01*
X545157Y204006D01*
X544978Y203937D01*
X544949Y203919D01*
X544917Y203906D01*
X544757Y203803D01*
X544594Y203703D01*
X544568Y203681D01*
X544539Y203662D01*
X544304Y203455D01*
X542753Y201903D01*
X536684Y199389D01*
X530116Y199389D01*
X524047Y201903D01*
X522496Y203455D01*
X522469Y203477D01*
X522446Y203503D01*
X522297Y203621D01*
X522150Y203744D01*
X522120Y203761D01*
X522093Y203782D01*
X521925Y203873D01*
X521759Y203967D01*
X521727Y203979D01*
X521696Y203995D01*
X521515Y204054D01*
X521335Y204118D01*
X521301Y204124D01*
X521268Y204134D01*
X521079Y204160D01*
X520891Y204191D01*
X520856Y204191D01*
X520822Y204196D01*
X520631Y204188D01*
X520440Y204185D01*
X520406Y204179D01*
X520372Y204177D01*
X520186Y204136D01*
X519998Y204100D01*
X519966Y204087D01*
X519932Y204080D01*
X519757Y204006D01*
X519578Y203937D01*
X519549Y203919D01*
X519517Y203906D01*
X519357Y203803D01*
X519194Y203703D01*
X519168Y203681D01*
X519139Y203662D01*
X518904Y203455D01*
X517353Y201903D01*
X511284Y199389D01*
X504716Y199389D01*
X498647Y201903D01*
X494003Y206547D01*
X493902Y206790D01*
X493864Y206863D01*
X493834Y206940D01*
X493760Y207062D01*
X493694Y207189D01*
X493643Y207254D01*
X493601Y207325D01*
X493506Y207432D01*
X493418Y207545D01*
X493357Y207600D01*
X493302Y207662D01*
X493190Y207751D01*
X493084Y207847D01*
X493014Y207890D01*
X492949Y207942D01*
X492823Y208009D01*
X492702Y208085D01*
X492625Y208115D01*
X492552Y208154D01*
X492416Y208198D01*
X492283Y208251D01*
X492203Y208268D01*
X492124Y208293D01*
X491982Y208313D01*
X491842Y208341D01*
X491760Y208343D01*
X491678Y208355D01*
X491535Y208349D01*
X491392Y208352D01*
X491310Y208340D01*
X491228Y208336D01*
X491089Y208305D01*
X490947Y208283D01*
X490869Y208257D01*
X490789Y208239D01*
X490657Y208184D01*
X490521Y208137D01*
X490449Y208097D01*
X490373Y208065D01*
X490253Y207987D01*
X490128Y207918D01*
X490064Y207865D01*
X489995Y207821D01*
X489811Y207658D01*
X489780Y207632D01*
X489773Y207624D01*
X489761Y207614D01*
X489716Y207569D01*
X488325Y206558D01*
X486793Y205778D01*
X485393Y205323D01*
X485393Y215646D01*
X485390Y215680D01*
X485392Y215715D01*
X485375Y215862D01*
X485393Y216154D01*
X485393Y226477D01*
X486793Y226022D01*
X488325Y225242D01*
X489716Y224231D01*
X489761Y224186D01*
X489824Y224133D01*
X489881Y224074D01*
X489954Y224020D01*
X489993Y223984D01*
X490031Y223960D01*
X490106Y223897D01*
X490178Y223856D01*
X490244Y223808D01*
X490356Y223753D01*
X490372Y223743D01*
X490388Y223736D01*
X490497Y223674D01*
X490575Y223646D01*
X490649Y223610D01*
X490786Y223571D01*
X490921Y223523D01*
X491003Y223510D01*
X491082Y223487D01*
X491224Y223473D01*
X491366Y223450D01*
X491448Y223451D01*
X491530Y223443D01*
X491673Y223454D01*
X491816Y223456D01*
X491897Y223471D01*
X491979Y223478D01*
X492117Y223514D01*
X492258Y223541D01*
X492335Y223571D01*
X492415Y223592D01*
X492544Y223652D01*
X492678Y223703D01*
X492748Y223746D01*
X492823Y223781D01*
X492940Y223863D01*
X493063Y223937D01*
X493124Y223992D01*
X493192Y224039D01*
X493293Y224141D01*
X493400Y224236D01*
X493451Y224300D01*
X493509Y224359D01*
X493591Y224476D01*
X493679Y224589D01*
X493718Y224661D01*
X493765Y224729D01*
X493783Y224765D01*
X493784Y224767D01*
X493790Y224779D01*
X493873Y224950D01*
X493892Y224985D01*
X493895Y224996D01*
X493902Y225010D01*
X494003Y225253D01*
X498647Y229897D01*
X504716Y232411D01*
X508371Y232411D01*
X508535Y232425D01*
X508699Y232432D01*
X508759Y232445D01*
X508820Y232451D01*
X508978Y232494D01*
X509139Y232530D01*
X509195Y232553D01*
X509254Y232569D01*
X509402Y232640D01*
X509554Y232703D01*
X509606Y232736D01*
X509661Y232763D01*
X509794Y232858D01*
X509932Y232948D01*
X509990Y232999D01*
X510027Y233025D01*
X510069Y233068D01*
X510167Y233154D01*
X550768Y273756D01*
X550821Y273819D01*
X550880Y273876D01*
X550965Y273991D01*
X551057Y274101D01*
X551098Y274173D01*
X551146Y274239D01*
X551209Y274368D01*
X551280Y274492D01*
X551308Y274570D01*
X551344Y274644D01*
X551383Y274782D01*
X551431Y274916D01*
X551444Y274998D01*
X551467Y275077D01*
X551481Y275219D01*
X551504Y275361D01*
X551503Y275443D01*
X551511Y275525D01*
X551500Y275668D01*
X551498Y275811D01*
X551483Y275892D01*
X551476Y275974D01*
X551440Y276112D01*
X551413Y276253D01*
X551383Y276330D01*
X551362Y276409D01*
X551302Y276539D01*
X551250Y276673D01*
X551208Y276743D01*
X551173Y276818D01*
X551091Y276935D01*
X551017Y277058D01*
X550962Y277119D01*
X550915Y277187D01*
X550813Y277288D01*
X550718Y277395D01*
X550654Y277446D01*
X550595Y277504D01*
X550477Y277586D01*
X550365Y277674D01*
X550293Y277713D01*
X550225Y277760D01*
X550003Y277868D01*
X549968Y277887D01*
X549958Y277890D01*
X549944Y277897D01*
X549447Y278103D01*
X547896Y279655D01*
X547869Y279677D01*
X547846Y279703D01*
X547697Y279821D01*
X547550Y279944D01*
X547520Y279961D01*
X547493Y279982D01*
X547325Y280072D01*
X547159Y280167D01*
X547127Y280179D01*
X547096Y280195D01*
X546915Y280254D01*
X546735Y280318D01*
X546701Y280324D01*
X546668Y280334D01*
X546479Y280360D01*
X546291Y280391D01*
X546256Y280391D01*
X546222Y280396D01*
X546031Y280388D01*
X545841Y280385D01*
X545806Y280379D01*
X545772Y280377D01*
X545586Y280336D01*
X545398Y280300D01*
X545366Y280287D01*
X545332Y280280D01*
X545156Y280206D01*
X544978Y280137D01*
X544949Y280119D01*
X544917Y280106D01*
X544756Y280002D01*
X544594Y279903D01*
X544568Y279881D01*
X544539Y279862D01*
X544304Y279655D01*
X542753Y278103D01*
X536684Y275589D01*
X530116Y275589D01*
X524047Y278103D01*
X522496Y279655D01*
X522469Y279677D01*
X522446Y279703D01*
X522297Y279821D01*
X522150Y279944D01*
X522120Y279961D01*
X522093Y279982D01*
X521925Y280072D01*
X521759Y280167D01*
X521727Y280179D01*
X521696Y280195D01*
X521515Y280254D01*
X521335Y280318D01*
X521301Y280324D01*
X521268Y280334D01*
X521079Y280360D01*
X520891Y280391D01*
X520856Y280391D01*
X520822Y280396D01*
X520631Y280388D01*
X520441Y280385D01*
X520406Y280379D01*
X520372Y280377D01*
X520186Y280336D01*
X519998Y280300D01*
X519966Y280287D01*
X519932Y280280D01*
X519756Y280206D01*
X519578Y280137D01*
X519549Y280119D01*
X519517Y280106D01*
X519356Y280002D01*
X519194Y279903D01*
X519168Y279881D01*
X519139Y279862D01*
X518904Y279655D01*
X517353Y278103D01*
X511284Y275589D01*
X504716Y275589D01*
X498647Y278103D01*
X497604Y279147D01*
X497504Y279230D01*
X497411Y279321D01*
X497331Y279374D01*
X497258Y279436D01*
X497145Y279500D01*
X497038Y279573D01*
X496950Y279612D01*
X496867Y279659D01*
X496745Y279703D01*
X496626Y279755D01*
X496533Y279778D01*
X496443Y279810D01*
X496315Y279831D01*
X496188Y279862D01*
X496093Y279868D01*
X495999Y279883D01*
X495869Y279882D01*
X495739Y279890D01*
X495644Y279879D01*
X495548Y279877D01*
X495421Y279853D01*
X495292Y279838D01*
X495200Y279810D01*
X495106Y279792D01*
X494985Y279745D01*
X494861Y279707D01*
X494775Y279664D01*
X494686Y279629D01*
X494575Y279562D01*
X494459Y279503D01*
X494383Y279445D01*
X494302Y279396D01*
X494204Y279309D01*
X494101Y279231D01*
X494036Y279161D01*
X493964Y279097D01*
X493884Y278995D01*
X493795Y278900D01*
X493744Y278819D01*
X493685Y278744D01*
X493623Y278630D01*
X493554Y278520D01*
X493517Y278432D01*
X493472Y278347D01*
X493432Y278224D01*
X493383Y278103D01*
X493363Y278010D01*
X493333Y277919D01*
X493315Y277791D01*
X493288Y277663D01*
X493280Y277533D01*
X493272Y277473D01*
X493273Y277428D01*
X493269Y277351D01*
X493269Y264578D01*
X491645Y260657D01*
X465232Y234244D01*
X465179Y234181D01*
X465120Y234124D01*
X465035Y234009D01*
X464943Y233899D01*
X464902Y233827D01*
X464854Y233761D01*
X464791Y233632D01*
X464720Y233508D01*
X464692Y233430D01*
X464656Y233356D01*
X464617Y233219D01*
X464569Y233084D01*
X464556Y233002D01*
X464533Y232923D01*
X464519Y232781D01*
X464496Y232639D01*
X464497Y232557D01*
X464489Y232475D01*
X464500Y232332D01*
X464502Y232189D01*
X464517Y232108D01*
X464524Y232026D01*
X464560Y231888D01*
X464587Y231747D01*
X464617Y231670D01*
X464638Y231591D01*
X464698Y231461D01*
X464750Y231327D01*
X464792Y231257D01*
X464827Y231182D01*
X464909Y231065D01*
X464983Y230942D01*
X465038Y230881D01*
X465085Y230813D01*
X465187Y230712D01*
X465282Y230605D01*
X465346Y230554D01*
X465405Y230496D01*
X465523Y230414D01*
X465635Y230326D01*
X465707Y230287D01*
X465775Y230240D01*
X465997Y230132D01*
X466032Y230113D01*
X466042Y230110D01*
X466056Y230103D01*
X466553Y229897D01*
X471197Y225253D01*
X471298Y225010D01*
X471336Y224937D01*
X471366Y224860D01*
X471440Y224738D01*
X471455Y224708D01*
X471486Y224648D01*
X471488Y224645D01*
X471506Y224611D01*
X471557Y224546D01*
X471599Y224475D01*
X471694Y224368D01*
X471782Y224255D01*
X471843Y224200D01*
X471898Y224138D01*
X472010Y224049D01*
X472116Y223953D01*
X472186Y223910D01*
X472251Y223858D01*
X472377Y223791D01*
X472498Y223715D01*
X472575Y223685D01*
X472648Y223646D01*
X472784Y223602D01*
X472917Y223549D01*
X472997Y223532D01*
X473076Y223507D01*
X473218Y223487D01*
X473358Y223459D01*
X473440Y223457D01*
X473522Y223445D01*
X473665Y223451D01*
X473808Y223448D01*
X473890Y223460D01*
X473972Y223464D01*
X474111Y223495D01*
X474253Y223517D01*
X474331Y223543D01*
X474411Y223561D01*
X474543Y223616D01*
X474679Y223663D01*
X474751Y223703D01*
X474827Y223735D01*
X474925Y223799D01*
X474948Y223810D01*
X474973Y223827D01*
X475072Y223882D01*
X475136Y223935D01*
X475205Y223979D01*
X475289Y224053D01*
X475314Y224072D01*
X475345Y224103D01*
X475389Y224142D01*
X475420Y224168D01*
X475427Y224176D01*
X475439Y224186D01*
X475484Y224231D01*
X476875Y225242D01*
X478407Y226022D01*
X479807Y226477D01*
X479807Y216154D01*
X479810Y216120D01*
X479808Y216085D01*
X479825Y215938D01*
X479807Y215646D01*
X479807Y205323D01*
X478407Y205778D01*
X476875Y206558D01*
X475484Y207569D01*
X475439Y207614D01*
X475376Y207667D01*
X475319Y207726D01*
X475204Y207811D01*
X475094Y207903D01*
X475022Y207944D01*
X474956Y207992D01*
X474827Y208055D01*
X474703Y208126D01*
X474625Y208154D01*
X474551Y208190D01*
X474414Y208229D01*
X474279Y208277D01*
X474197Y208290D01*
X474118Y208313D01*
X473976Y208327D01*
X473834Y208350D01*
X473752Y208349D01*
X473670Y208357D01*
X473527Y208346D01*
X473384Y208344D01*
X473303Y208329D01*
X473221Y208322D01*
X473083Y208286D01*
X472942Y208259D01*
X472865Y208229D01*
X472785Y208208D01*
X472656Y208148D01*
X472522Y208097D01*
X472452Y208054D01*
X472377Y208019D01*
X472260Y207937D01*
X472137Y207863D01*
X472076Y207808D01*
X472008Y207761D01*
X471907Y207659D01*
X471800Y207564D01*
X471749Y207500D01*
X471691Y207441D01*
X471609Y207324D01*
X471521Y207211D01*
X471482Y207139D01*
X471435Y207071D01*
X471327Y206850D01*
X471308Y206815D01*
X471305Y206804D01*
X471298Y206790D01*
X471197Y206547D01*
X468612Y203963D01*
X468507Y203836D01*
X468395Y203716D01*
X468363Y203664D01*
X468324Y203617D01*
X468242Y203475D01*
X468154Y203336D01*
X468130Y203279D01*
X468100Y203226D01*
X468045Y203072D01*
X467983Y202919D01*
X467970Y202860D01*
X467949Y202802D01*
X467923Y202640D01*
X467888Y202479D01*
X467883Y202402D01*
X467876Y202358D01*
X467877Y202297D01*
X467869Y202167D01*
X467869Y201718D01*
X467883Y201555D01*
X467890Y201390D01*
X467903Y201331D01*
X467909Y201270D01*
X467952Y201111D01*
X467988Y200951D01*
X468011Y200894D01*
X468027Y200835D01*
X468098Y200687D01*
X468161Y200535D01*
X468194Y200484D01*
X468221Y200429D01*
X468316Y200295D01*
X468406Y200157D01*
X468457Y200099D01*
X468483Y200063D01*
X468526Y200020D01*
X468612Y199923D01*
X472056Y196479D01*
X472082Y196457D01*
X472105Y196431D01*
X472255Y196313D01*
X472401Y196191D01*
X472431Y196173D01*
X472458Y196152D01*
X472626Y196062D01*
X472792Y195967D01*
X472825Y195956D01*
X472855Y195939D01*
X473037Y195880D01*
X473216Y195816D01*
X473251Y195811D01*
X473284Y195800D01*
X473472Y195774D01*
X473661Y195743D01*
X473695Y195743D01*
X473730Y195739D01*
X473921Y195746D01*
X474111Y195749D01*
X474145Y195756D01*
X474179Y195757D01*
X474366Y195798D01*
X474553Y195835D01*
X474585Y195847D01*
X474619Y195855D01*
X474795Y195928D01*
X474973Y195997D01*
X475003Y196015D01*
X475034Y196028D01*
X475195Y196132D01*
X475358Y196231D01*
X475384Y196254D01*
X475413Y196272D01*
X475647Y196479D01*
X478812Y199645D01*
X480061Y199645D01*
X480061Y190500D01*
X480061Y181355D01*
X478812Y181355D01*
X475647Y184521D01*
X475620Y184543D01*
X475597Y184569D01*
X475447Y184687D01*
X475301Y184809D01*
X475272Y184827D01*
X475244Y184848D01*
X475076Y184938D01*
X474911Y185033D01*
X474878Y185044D01*
X474847Y185061D01*
X474666Y185120D01*
X474486Y185184D01*
X474452Y185189D01*
X474419Y185200D01*
X474230Y185226D01*
X474042Y185257D01*
X474008Y185257D01*
X473973Y185261D01*
X473782Y185254D01*
X473592Y185251D01*
X473558Y185244D01*
X473523Y185243D01*
X473337Y185202D01*
X473150Y185165D01*
X473117Y185153D01*
X473084Y185145D01*
X472908Y185072D01*
X472730Y185003D01*
X472700Y184985D01*
X472668Y184972D01*
X472508Y184868D01*
X472345Y184769D01*
X472319Y184746D01*
X472290Y184728D01*
X472056Y184521D01*
X467639Y180104D01*
X467555Y180004D01*
X467465Y179911D01*
X467411Y179831D01*
X467350Y179758D01*
X467285Y179645D01*
X467213Y179538D01*
X467174Y179450D01*
X467126Y179367D01*
X467083Y179245D01*
X467030Y179126D01*
X467008Y179033D01*
X466976Y178943D01*
X466954Y178815D01*
X466924Y178688D01*
X466918Y178593D01*
X466902Y178499D01*
X466904Y178369D01*
X466896Y178239D01*
X466907Y178144D01*
X466908Y178048D01*
X466933Y177921D01*
X466948Y177792D01*
X466976Y177700D01*
X466994Y177606D01*
X467041Y177485D01*
X467078Y177361D01*
X467122Y177276D01*
X467156Y177186D01*
X467224Y177075D01*
X467283Y176959D01*
X467340Y176883D01*
X467390Y176802D01*
X467476Y176704D01*
X467555Y176601D01*
X467625Y176536D01*
X467688Y176464D01*
X467790Y176384D01*
X467886Y176295D01*
X467966Y176244D01*
X468041Y176185D01*
X468156Y176124D01*
X468266Y176054D01*
X468354Y176017D01*
X468438Y175972D01*
X468562Y175932D01*
X468682Y175883D01*
X468776Y175863D01*
X468866Y175833D01*
X468995Y175815D01*
X469122Y175788D01*
X469252Y175780D01*
X469312Y175772D01*
X469357Y175773D01*
X469434Y175769D01*
X687922Y175769D01*
X691843Y174145D01*
X702175Y163812D01*
X702302Y163707D01*
X702423Y163595D01*
X702474Y163563D01*
X702521Y163524D01*
X702663Y163442D01*
X702802Y163354D01*
X702859Y163330D01*
X702912Y163300D01*
X703067Y163245D01*
X703219Y163183D01*
X703278Y163170D01*
X703336Y163149D01*
X703498Y163123D01*
X703659Y163088D01*
X703736Y163083D01*
X703780Y163076D01*
X703841Y163077D01*
X703971Y163069D01*
X769229Y163069D01*
X769284Y163074D01*
X769301Y163073D01*
X769392Y163083D01*
X769393Y163083D01*
X769557Y163090D01*
X769617Y163103D01*
X769678Y163109D01*
X769728Y163122D01*
X769748Y163125D01*
X769844Y163154D01*
X769997Y163188D01*
X770053Y163211D01*
X770112Y163227D01*
X770155Y163248D01*
X770179Y163255D01*
X770276Y163304D01*
X770412Y163361D01*
X770464Y163394D01*
X770519Y163421D01*
X770554Y163446D01*
X770581Y163459D01*
X770675Y163531D01*
X770790Y163606D01*
X770848Y163657D01*
X770885Y163683D01*
X770912Y163710D01*
X770939Y163731D01*
X770968Y163762D01*
X771025Y163812D01*
X771028Y163815D01*
X771112Y163916D01*
X771199Y164005D01*
X771217Y164033D01*
X771245Y164063D01*
X771277Y164114D01*
X771316Y164161D01*
X771386Y164283D01*
X771451Y164378D01*
X771462Y164405D01*
X771486Y164442D01*
X771510Y164499D01*
X771540Y164552D01*
X771590Y164693D01*
X771633Y164790D01*
X771639Y164813D01*
X771657Y164859D01*
X771670Y164918D01*
X771691Y164976D01*
X771717Y165133D01*
X771740Y165228D01*
X771741Y165247D01*
X771752Y165299D01*
X771757Y165376D01*
X771764Y165420D01*
X771763Y165481D01*
X771771Y165611D01*
X771771Y168209D01*
X774151Y173953D01*
X778547Y178349D01*
X784291Y180729D01*
X790509Y180729D01*
X796253Y178349D01*
X800649Y173953D01*
X803029Y168209D01*
X803029Y161991D01*
X800649Y156247D01*
X796253Y151851D01*
X790509Y149471D01*
X787911Y149471D01*
X787747Y149457D01*
X787583Y149450D01*
X787523Y149437D01*
X787462Y149431D01*
X787304Y149388D01*
X787143Y149352D01*
X787087Y149329D01*
X787028Y149313D01*
X786880Y149242D01*
X786728Y149179D01*
X786676Y149146D01*
X786621Y149119D01*
X786488Y149024D01*
X786350Y148934D01*
X786292Y148883D01*
X786255Y148857D01*
X786213Y148814D01*
X786115Y148728D01*
X780743Y143355D01*
X776822Y141731D01*
X696378Y141731D01*
X692457Y143355D01*
X682125Y153688D01*
X681998Y153793D01*
X681877Y153905D01*
X681826Y153937D01*
X681779Y153976D01*
X681637Y154058D01*
X681498Y154146D01*
X681441Y154170D01*
X681388Y154200D01*
X681233Y154255D01*
X681081Y154317D01*
X681022Y154330D01*
X680964Y154351D01*
X680802Y154377D01*
X680641Y154412D01*
X680564Y154417D01*
X680520Y154424D01*
X680459Y154423D01*
X680329Y154431D01*
X593481Y154431D01*
X593352Y154420D01*
X593221Y154418D01*
X593128Y154400D01*
X593032Y154391D01*
X592907Y154357D01*
X592779Y154332D01*
X592690Y154298D01*
X592598Y154273D01*
X592481Y154217D01*
X592359Y154170D01*
X592277Y154120D01*
X592191Y154079D01*
X592086Y154004D01*
X591975Y153936D01*
X591903Y153873D01*
X591825Y153817D01*
X591734Y153724D01*
X591637Y153638D01*
X591578Y153563D01*
X591511Y153495D01*
X591438Y153387D01*
X591358Y153285D01*
X591313Y153201D01*
X591259Y153122D01*
X591207Y153003D01*
X591145Y152888D01*
X591116Y152797D01*
X591077Y152710D01*
X591046Y152583D01*
X591006Y152460D01*
X590993Y152365D01*
X590970Y152272D01*
X590962Y152143D01*
X590945Y152014D01*
X590948Y151918D01*
X590943Y151823D01*
X590958Y151694D01*
X590963Y151564D01*
X590984Y151471D01*
X590995Y151376D01*
X591032Y151251D01*
X591060Y151124D01*
X591097Y151036D01*
X591125Y150945D01*
X591184Y150829D01*
X591234Y150709D01*
X591286Y150628D01*
X591329Y150543D01*
X591408Y150440D01*
X591478Y150331D01*
X591565Y150233D01*
X591601Y150185D01*
X591634Y150154D01*
X591685Y150096D01*
X613783Y127998D01*
X613910Y127893D01*
X614030Y127781D01*
X614082Y127749D01*
X614129Y127710D01*
X614271Y127628D01*
X614410Y127540D01*
X614467Y127516D01*
X614520Y127486D01*
X614675Y127431D01*
X614827Y127369D01*
X614886Y127356D01*
X614944Y127335D01*
X615106Y127309D01*
X615267Y127274D01*
X615344Y127269D01*
X615388Y127262D01*
X615449Y127263D01*
X615579Y127255D01*
X625941Y127255D01*
X631729Y124857D01*
X636159Y120427D01*
X638557Y114639D01*
X638557Y108373D01*
X636159Y102585D01*
X631729Y98155D01*
X625941Y95757D01*
X604435Y95757D01*
X598647Y98155D01*
X594217Y102585D01*
X592896Y105774D01*
X592836Y105889D01*
X592784Y106009D01*
X592732Y106088D01*
X592687Y106173D01*
X592608Y106276D01*
X592536Y106384D01*
X592470Y106454D01*
X592412Y106529D01*
X592315Y106616D01*
X592225Y106710D01*
X592148Y106767D01*
X592077Y106831D01*
X591967Y106899D01*
X591862Y106976D01*
X591776Y107018D01*
X591695Y107069D01*
X591574Y107117D01*
X591458Y107174D01*
X591366Y107200D01*
X591277Y107235D01*
X591149Y107261D01*
X591024Y107297D01*
X590929Y107306D01*
X590836Y107325D01*
X590706Y107329D01*
X590576Y107341D01*
X590481Y107334D01*
X590386Y107336D01*
X590257Y107316D01*
X590127Y107306D01*
X590035Y107282D01*
X589941Y107267D01*
X589818Y107225D01*
X589692Y107192D01*
X589605Y107152D01*
X589515Y107121D01*
X589401Y107058D01*
X589283Y107003D01*
X589205Y106948D01*
X589122Y106902D01*
X589021Y106819D01*
X588914Y106745D01*
X588847Y106677D01*
X588773Y106616D01*
X588689Y106517D01*
X588597Y106425D01*
X588543Y106347D01*
X588481Y106274D01*
X588415Y106162D01*
X588341Y106055D01*
X588284Y105938D01*
X588253Y105885D01*
X588238Y105843D01*
X588204Y105774D01*
X586883Y102585D01*
X582453Y98155D01*
X576665Y95757D01*
X555159Y95757D01*
X549371Y98155D01*
X544941Y102585D01*
X542543Y108373D01*
X542543Y114639D01*
X544941Y120427D01*
X549371Y124857D01*
X555159Y127255D01*
X576665Y127255D01*
X577993Y126705D01*
X578162Y126651D01*
X578330Y126592D01*
X578377Y126584D01*
X578422Y126570D01*
X578599Y126547D01*
X578774Y126518D01*
X578822Y126519D01*
X578869Y126513D01*
X579047Y126522D01*
X579224Y126525D01*
X579271Y126534D01*
X579319Y126536D01*
X579492Y126576D01*
X579666Y126610D01*
X579711Y126627D01*
X579757Y126638D01*
X579920Y126708D01*
X580086Y126772D01*
X580127Y126797D01*
X580171Y126816D01*
X580319Y126914D01*
X580471Y127006D01*
X580507Y127038D01*
X580547Y127064D01*
X580675Y127187D01*
X580808Y127305D01*
X580838Y127342D01*
X580873Y127375D01*
X580978Y127519D01*
X581088Y127658D01*
X581110Y127700D01*
X581139Y127738D01*
X581217Y127898D01*
X581300Y128054D01*
X581315Y128100D01*
X581336Y128143D01*
X581385Y128314D01*
X581440Y128483D01*
X581446Y128530D01*
X581459Y128576D01*
X581477Y128753D01*
X581501Y128929D01*
X581499Y128977D01*
X581504Y129024D01*
X581490Y129201D01*
X581483Y129379D01*
X581472Y129425D01*
X581468Y129473D01*
X581423Y129645D01*
X581385Y129818D01*
X581367Y129862D01*
X581354Y129909D01*
X581280Y130070D01*
X581211Y130234D01*
X581185Y130274D01*
X581165Y130317D01*
X581063Y130463D01*
X580967Y130612D01*
X580928Y130656D01*
X580907Y130686D01*
X580862Y130731D01*
X580760Y130846D01*
X575699Y135908D01*
X575572Y136013D01*
X575451Y136125D01*
X575400Y136157D01*
X575353Y136196D01*
X575211Y136278D01*
X575072Y136366D01*
X575015Y136390D01*
X574962Y136420D01*
X574807Y136475D01*
X574655Y136537D01*
X574596Y136550D01*
X574538Y136571D01*
X574376Y136597D01*
X574215Y136632D01*
X574138Y136637D01*
X574094Y136644D01*
X574033Y136643D01*
X573903Y136651D01*
X519215Y136651D01*
X519052Y136637D01*
X518887Y136630D01*
X518828Y136617D01*
X518767Y136611D01*
X518608Y136568D01*
X518448Y136532D01*
X518391Y136509D01*
X518333Y136493D01*
X518184Y136422D01*
X518032Y136359D01*
X517981Y136326D01*
X517926Y136299D01*
X517792Y136204D01*
X517654Y136114D01*
X517596Y136063D01*
X517560Y136037D01*
X517517Y135994D01*
X517420Y135908D01*
X515583Y134071D01*
X510922Y132140D01*
X510764Y132058D01*
X510604Y131981D01*
X510565Y131954D01*
X510523Y131931D01*
X510382Y131823D01*
X510238Y131719D01*
X510205Y131685D01*
X510167Y131656D01*
X510048Y131524D01*
X509924Y131397D01*
X509897Y131357D01*
X509865Y131321D01*
X509772Y131171D01*
X509672Y131024D01*
X509653Y130980D01*
X509627Y130939D01*
X509562Y130774D01*
X509490Y130612D01*
X509478Y130565D01*
X509461Y130521D01*
X509425Y130347D01*
X509383Y130174D01*
X509380Y130127D01*
X509371Y130080D01*
X509366Y129902D01*
X509355Y129725D01*
X509361Y129677D01*
X509360Y129630D01*
X509387Y129454D01*
X509407Y129278D01*
X509421Y129232D01*
X509429Y129185D01*
X509486Y129017D01*
X509538Y128847D01*
X509559Y128804D01*
X509575Y128759D01*
X509661Y128604D01*
X509742Y128445D01*
X509771Y128407D01*
X509794Y128366D01*
X509907Y128228D01*
X510014Y128087D01*
X510049Y128054D01*
X510080Y128017D01*
X510214Y127902D01*
X510345Y127781D01*
X510386Y127756D01*
X510422Y127725D01*
X510575Y127635D01*
X510725Y127540D01*
X510769Y127521D01*
X510811Y127497D01*
X510977Y127436D01*
X511142Y127369D01*
X511188Y127359D01*
X511233Y127342D01*
X511408Y127311D01*
X511582Y127274D01*
X511596Y127273D01*
X517429Y124857D01*
X521859Y120427D01*
X524257Y114639D01*
X524257Y108373D01*
X521859Y102585D01*
X517429Y98155D01*
X511641Y95757D01*
X490135Y95757D01*
X484347Y98155D01*
X479917Y102585D01*
X478596Y105774D01*
X478536Y105889D01*
X478484Y106009D01*
X478432Y106088D01*
X478387Y106173D01*
X478308Y106276D01*
X478236Y106384D01*
X478170Y106454D01*
X478112Y106529D01*
X478015Y106616D01*
X477925Y106710D01*
X477848Y106767D01*
X477777Y106831D01*
X477667Y106899D01*
X477562Y106976D01*
X477476Y107018D01*
X477395Y107069D01*
X477274Y107117D01*
X477158Y107174D01*
X477066Y107200D01*
X476977Y107235D01*
X476849Y107261D01*
X476724Y107297D01*
X476629Y107306D01*
X476536Y107325D01*
X476406Y107329D01*
X476276Y107341D01*
X476181Y107334D01*
X476086Y107336D01*
X475957Y107316D01*
X475827Y107306D01*
X475735Y107282D01*
X475641Y107267D01*
X475518Y107225D01*
X475392Y107192D01*
X475305Y107152D01*
X475215Y107121D01*
X475101Y107058D01*
X474983Y107003D01*
X474905Y106948D01*
X474822Y106902D01*
X474721Y106819D01*
X474614Y106745D01*
X474547Y106677D01*
X474473Y106616D01*
X474389Y106517D01*
X474297Y106425D01*
X474243Y106347D01*
X474181Y106274D01*
X474115Y106162D01*
X474041Y106055D01*
X473984Y105938D01*
X473953Y105885D01*
X473938Y105843D01*
X473904Y105774D01*
X472583Y102585D01*
X468153Y98155D01*
X462365Y95757D01*
X440859Y95757D01*
X435071Y98155D01*
X430641Y102585D01*
X428243Y108373D01*
X428243Y114639D01*
X430641Y120427D01*
X434910Y124696D01*
X434994Y124796D01*
X435085Y124889D01*
X435138Y124969D01*
X435199Y125042D01*
X435264Y125155D01*
X435337Y125262D01*
X435375Y125350D01*
X435423Y125433D01*
X435466Y125555D01*
X435519Y125674D01*
X435542Y125767D01*
X435574Y125857D01*
X435595Y125985D01*
X435626Y126112D01*
X435631Y126207D01*
X435647Y126301D01*
X435645Y126431D01*
X435653Y126561D01*
X435642Y126656D01*
X435641Y126752D01*
X435616Y126879D01*
X435601Y127008D01*
X435573Y127100D01*
X435555Y127194D01*
X435509Y127315D01*
X435471Y127439D01*
X435427Y127524D01*
X435393Y127614D01*
X435325Y127725D01*
X435266Y127841D01*
X435209Y127917D01*
X435159Y127998D01*
X435073Y128096D01*
X434994Y128199D01*
X434924Y128264D01*
X434861Y128336D01*
X434759Y128416D01*
X434663Y128505D01*
X434583Y128556D01*
X434508Y128615D01*
X434393Y128676D01*
X434284Y128746D01*
X434195Y128783D01*
X434111Y128828D01*
X433987Y128868D01*
X433867Y128917D01*
X433774Y128937D01*
X433683Y128967D01*
X433554Y128985D01*
X433427Y129012D01*
X433297Y129020D01*
X433237Y129028D01*
X433192Y129027D01*
X433115Y129031D01*
X405085Y129031D01*
X404955Y129020D01*
X404826Y129018D01*
X404732Y129000D01*
X404637Y128991D01*
X404511Y128957D01*
X404383Y128932D01*
X404294Y128898D01*
X404202Y128873D01*
X404085Y128817D01*
X403963Y128770D01*
X403882Y128720D01*
X403796Y128679D01*
X403690Y128604D01*
X403579Y128536D01*
X403507Y128473D01*
X403429Y128417D01*
X403339Y128324D01*
X403241Y128238D01*
X403182Y128163D01*
X403115Y128095D01*
X403043Y127987D01*
X402962Y127885D01*
X402917Y127801D01*
X402863Y127722D01*
X402811Y127603D01*
X402749Y127488D01*
X402720Y127397D01*
X402681Y127310D01*
X402650Y127183D01*
X402610Y127060D01*
X402597Y126965D01*
X402574Y126872D01*
X402566Y126743D01*
X402549Y126614D01*
X402553Y126518D01*
X402547Y126423D01*
X402562Y126294D01*
X402567Y126164D01*
X402588Y126071D01*
X402599Y125976D01*
X402637Y125851D01*
X402665Y125724D01*
X402701Y125636D01*
X402729Y125545D01*
X402788Y125429D01*
X402838Y125309D01*
X402890Y125229D01*
X402934Y125143D01*
X403012Y125040D01*
X403083Y124931D01*
X403169Y124833D01*
X403206Y124785D01*
X403238Y124754D01*
X403290Y124696D01*
X407559Y120427D01*
X409957Y114639D01*
X409957Y108373D01*
X407559Y102585D01*
X403129Y98155D01*
X397341Y95757D01*
X375835Y95757D01*
X370047Y98155D01*
X365617Y102585D01*
X364322Y105710D01*
X364268Y105814D01*
X364223Y105922D01*
X364164Y106013D01*
X364114Y106110D01*
X364042Y106202D01*
X363979Y106300D01*
X363877Y106416D01*
X363838Y106466D01*
X363811Y106490D01*
X363772Y106534D01*
X363735Y106572D01*
X363671Y106624D01*
X363615Y106684D01*
X363516Y106756D01*
X363504Y106767D01*
X363492Y106775D01*
X363389Y106860D01*
X363318Y106901D01*
X363251Y106950D01*
X363123Y107013D01*
X362998Y107084D01*
X362921Y107111D01*
X362847Y107148D01*
X362709Y107187D01*
X362574Y107235D01*
X362493Y107248D01*
X362414Y107271D01*
X362271Y107285D01*
X362130Y107308D01*
X362047Y107307D01*
X361965Y107315D01*
X361823Y107304D01*
X361680Y107302D01*
X361599Y107286D01*
X361517Y107280D01*
X361378Y107244D01*
X361238Y107216D01*
X361161Y107187D01*
X361081Y107166D01*
X360951Y107106D01*
X360818Y107054D01*
X360747Y107011D01*
X360672Y106977D01*
X360555Y106895D01*
X360433Y106820D01*
X360371Y106766D01*
X360304Y106718D01*
X360203Y106617D01*
X360095Y106522D01*
X360044Y106457D01*
X359986Y106399D01*
X359905Y106281D01*
X359816Y106169D01*
X359777Y106096D01*
X359730Y106029D01*
X359622Y105807D01*
X359603Y105772D01*
X359600Y105762D01*
X359593Y105748D01*
X358283Y102585D01*
X353853Y98155D01*
X348065Y95757D01*
X326559Y95757D01*
X320771Y98155D01*
X316341Y102585D01*
X313943Y108373D01*
X313943Y114639D01*
X316341Y120427D01*
X320771Y124857D01*
X326559Y127255D01*
X336921Y127255D01*
X337050Y127266D01*
X337181Y127268D01*
X337274Y127286D01*
X337370Y127295D01*
X337495Y127329D01*
X337623Y127354D01*
X337712Y127388D01*
X337804Y127413D01*
X337921Y127469D01*
X338043Y127516D01*
X338125Y127566D01*
X338211Y127607D01*
X338316Y127682D01*
X338427Y127750D01*
X338499Y127813D01*
X338577Y127869D01*
X338668Y127962D01*
X338765Y128048D01*
X338824Y128123D01*
X338891Y128191D01*
X338964Y128299D01*
X339044Y128401D01*
X339089Y128485D01*
X339143Y128564D01*
X339195Y128683D01*
X339257Y128798D01*
X339286Y128889D01*
X339325Y128976D01*
X339356Y129103D01*
X339396Y129226D01*
X339409Y129321D01*
X339432Y129414D01*
X339440Y129543D01*
X339457Y129672D01*
X339454Y129768D01*
X339459Y129863D01*
X339444Y129992D01*
X339439Y130122D01*
X339418Y130215D01*
X339407Y130310D01*
X339370Y130435D01*
X339342Y130562D01*
X339305Y130650D01*
X339277Y130741D01*
X339218Y130857D01*
X339168Y130977D01*
X339116Y131058D01*
X339073Y131143D01*
X338994Y131246D01*
X338924Y131355D01*
X338837Y131453D01*
X338801Y131501D01*
X338768Y131532D01*
X338717Y131590D01*
X311757Y158549D01*
X311621Y158663D01*
X311489Y158782D01*
X311449Y158807D01*
X311412Y158838D01*
X311258Y158926D01*
X311107Y159020D01*
X311062Y159038D01*
X311021Y159061D01*
X310854Y159121D01*
X310688Y159186D01*
X310642Y159196D01*
X310597Y159212D01*
X310421Y159241D01*
X310247Y159277D01*
X310200Y159278D01*
X310152Y159286D01*
X309974Y159283D01*
X309797Y159287D01*
X309750Y159280D01*
X309702Y159279D01*
X309527Y159246D01*
X309352Y159219D01*
X309307Y159203D01*
X309260Y159194D01*
X309094Y159130D01*
X308926Y159072D01*
X308885Y159049D01*
X308840Y159032D01*
X308688Y158939D01*
X308533Y158853D01*
X308496Y158823D01*
X308455Y158798D01*
X308322Y158680D01*
X308185Y158568D01*
X308154Y158531D01*
X308118Y158499D01*
X308008Y158361D01*
X307892Y158225D01*
X307868Y158184D01*
X307839Y158146D01*
X307755Y157990D01*
X307665Y157837D01*
X307648Y157792D01*
X307626Y157750D01*
X307571Y157581D01*
X307510Y157414D01*
X307501Y157367D01*
X307487Y157321D01*
X307462Y157145D01*
X307432Y156970D01*
X307432Y156923D01*
X307425Y156875D01*
X307433Y156697D01*
X307433Y156520D01*
X307442Y156473D01*
X307444Y156425D01*
X307482Y156252D01*
X307514Y156077D01*
X307533Y156021D01*
X307541Y155986D01*
X307566Y155927D01*
X307616Y155782D01*
X307729Y155509D01*
X307729Y149291D01*
X305349Y143547D01*
X300953Y139151D01*
X295209Y136771D01*
X288991Y136771D01*
X283247Y139151D01*
X278851Y143547D01*
X276471Y149291D01*
X276471Y151889D01*
X276457Y152053D01*
X276450Y152217D01*
X276437Y152277D01*
X276431Y152338D01*
X276388Y152496D01*
X276352Y152657D01*
X276329Y152713D01*
X276313Y152772D01*
X276242Y152920D01*
X276179Y153072D01*
X276146Y153124D01*
X276119Y153179D01*
X276024Y153312D01*
X275934Y153450D01*
X275883Y153508D01*
X275857Y153545D01*
X275814Y153587D01*
X275728Y153685D01*
X270274Y159139D01*
X270174Y159222D01*
X270081Y159313D01*
X270001Y159366D01*
X269928Y159428D01*
X269815Y159492D01*
X269708Y159565D01*
X269620Y159604D01*
X269537Y159651D01*
X269415Y159694D01*
X269296Y159747D01*
X269203Y159770D01*
X269113Y159802D01*
X268984Y159823D01*
X268858Y159854D01*
X268763Y159860D01*
X268669Y159875D01*
X268538Y159873D01*
X268409Y159881D01*
X268314Y159870D01*
X268218Y159869D01*
X268091Y159844D01*
X267962Y159829D01*
X267870Y159802D01*
X267776Y159784D01*
X267655Y159737D01*
X267531Y159699D01*
X267446Y159656D01*
X267356Y159621D01*
X267245Y159554D01*
X267129Y159495D01*
X267053Y159437D01*
X266972Y159387D01*
X266874Y159301D01*
X266771Y159223D01*
X266706Y159152D01*
X266634Y159089D01*
X266554Y158987D01*
X266465Y158892D01*
X266414Y158811D01*
X266355Y158736D01*
X266294Y158622D01*
X266224Y158512D01*
X266187Y158423D01*
X266142Y158339D01*
X266102Y158216D01*
X266053Y158095D01*
X266033Y158002D01*
X266003Y157911D01*
X265985Y157782D01*
X265958Y157655D01*
X265950Y157525D01*
X265942Y157465D01*
X265943Y157420D01*
X265939Y157343D01*
X265939Y133995D01*
X265953Y133831D01*
X265960Y133667D01*
X265973Y133607D01*
X265979Y133546D01*
X266022Y133388D01*
X266058Y133227D01*
X266081Y133171D01*
X266097Y133112D01*
X266168Y132964D01*
X266231Y132812D01*
X266264Y132760D01*
X266291Y132705D01*
X266386Y132572D01*
X266476Y132434D01*
X266527Y132376D01*
X266553Y132339D01*
X266596Y132297D01*
X266682Y132199D01*
X270883Y127998D01*
X271009Y127893D01*
X271130Y127781D01*
X271182Y127749D01*
X271229Y127710D01*
X271371Y127628D01*
X271510Y127540D01*
X271567Y127516D01*
X271620Y127486D01*
X271775Y127431D01*
X271927Y127369D01*
X271986Y127356D01*
X272044Y127335D01*
X272206Y127309D01*
X272367Y127274D01*
X272444Y127269D01*
X272488Y127262D01*
X272549Y127263D01*
X272679Y127255D01*
X283041Y127255D01*
X288829Y124857D01*
X293259Y120427D01*
X295657Y114639D01*
X295657Y108373D01*
X293259Y102585D01*
X288829Y98155D01*
X283041Y95757D01*
X261535Y95757D01*
X255747Y98155D01*
X251317Y102585D01*
X248919Y108373D01*
X248919Y114639D01*
X249778Y116711D01*
X249842Y116915D01*
X249907Y117115D01*
X249909Y117128D01*
X249913Y117141D01*
X249939Y117352D01*
X249968Y117561D01*
X249968Y117575D01*
X249969Y117588D01*
X249959Y117798D01*
X249950Y118011D01*
X249947Y118024D01*
X249946Y118037D01*
X249898Y118243D01*
X249852Y118451D01*
X249847Y118463D01*
X249844Y118476D01*
X249761Y118670D01*
X249679Y118866D01*
X249671Y118877D01*
X249666Y118890D01*
X249550Y119066D01*
X249434Y119245D01*
X249424Y119256D01*
X249418Y119265D01*
X249391Y119294D01*
X249227Y119479D01*
X246225Y122481D01*
X244601Y126402D01*
X244601Y172332D01*
X244598Y172367D01*
X244600Y172401D01*
X244578Y172590D01*
X244561Y172781D01*
X244552Y172814D01*
X244548Y172848D01*
X244493Y173031D01*
X244443Y173215D01*
X244428Y173246D01*
X244418Y173279D01*
X244331Y173450D01*
X244249Y173622D01*
X244229Y173650D01*
X244214Y173681D01*
X244098Y173833D01*
X243987Y173988D01*
X243962Y174012D01*
X243942Y174039D01*
X243802Y174168D01*
X243665Y174302D01*
X243636Y174321D01*
X243610Y174345D01*
X243449Y174447D01*
X243292Y174554D01*
X243260Y174568D01*
X243231Y174586D01*
X243054Y174659D01*
X242880Y174736D01*
X242846Y174744D01*
X242814Y174757D01*
X242627Y174797D01*
X242442Y174843D01*
X242408Y174845D01*
X242374Y174852D01*
X242062Y174871D01*
X238191Y174871D01*
X234914Y176229D01*
X234881Y176239D01*
X234850Y176254D01*
X234667Y176306D01*
X234484Y176363D01*
X234450Y176368D01*
X234417Y176377D01*
X234227Y176396D01*
X234038Y176420D01*
X234003Y176418D01*
X233969Y176422D01*
X233778Y176407D01*
X233588Y176397D01*
X233554Y176389D01*
X233520Y176387D01*
X233335Y176338D01*
X233150Y176295D01*
X233118Y176281D01*
X233084Y176273D01*
X232912Y176193D01*
X232736Y176117D01*
X232707Y176098D01*
X232676Y176083D01*
X232520Y175974D01*
X232360Y175869D01*
X232335Y175845D01*
X232307Y175825D01*
X232172Y175690D01*
X232034Y175558D01*
X232014Y175530D01*
X231989Y175506D01*
X231881Y175349D01*
X231768Y175195D01*
X231753Y175164D01*
X231733Y175135D01*
X231596Y174854D01*
X229149Y168947D01*
X224753Y164551D01*
X219009Y162171D01*
X212791Y162171D01*
X207047Y164551D01*
X202651Y168947D01*
X200271Y174691D01*
X200271Y177289D01*
X200257Y177453D01*
X200250Y177617D01*
X200237Y177677D01*
X200231Y177738D01*
X200188Y177896D01*
X200152Y178057D01*
X200129Y178113D01*
X200113Y178172D01*
X200042Y178320D01*
X199979Y178472D01*
X199946Y178524D01*
X199919Y178579D01*
X199824Y178712D01*
X199734Y178850D01*
X199683Y178908D01*
X199657Y178945D01*
X199614Y178987D01*
X199528Y179085D01*
X194155Y184457D01*
X192531Y188378D01*
X192531Y210432D01*
X192528Y210467D01*
X192530Y210501D01*
X192508Y210690D01*
X192491Y210881D01*
X192482Y210914D01*
X192478Y210948D01*
X192423Y211131D01*
X192373Y211315D01*
X192358Y211346D01*
X192348Y211379D01*
X192261Y211550D01*
X192179Y211722D01*
X192159Y211750D01*
X192144Y211781D01*
X192028Y211933D01*
X191917Y212088D01*
X191892Y212112D01*
X191872Y212139D01*
X191732Y212268D01*
X191595Y212402D01*
X191566Y212421D01*
X191540Y212445D01*
X191379Y212547D01*
X191222Y212654D01*
X191190Y212668D01*
X191161Y212686D01*
X190984Y212759D01*
X190810Y212836D01*
X190776Y212844D01*
X190744Y212857D01*
X190557Y212897D01*
X190372Y212943D01*
X190338Y212945D01*
X190304Y212952D01*
X189992Y212971D01*
X187391Y212971D01*
X181647Y215351D01*
X177251Y219747D01*
X174871Y225491D01*
X174871Y228089D01*
X174857Y228253D01*
X174850Y228417D01*
X174837Y228477D01*
X174831Y228538D01*
X174788Y228696D01*
X174752Y228857D01*
X174729Y228913D01*
X174713Y228972D01*
X174642Y229120D01*
X174579Y229272D01*
X174546Y229324D01*
X174519Y229379D01*
X174424Y229512D01*
X174334Y229650D01*
X174283Y229708D01*
X174257Y229745D01*
X174214Y229787D01*
X174128Y229885D01*
X168755Y235257D01*
X167131Y239178D01*
X167131Y256122D01*
X168755Y260043D01*
X184457Y275745D01*
X185291Y276090D01*
X185394Y276144D01*
X185502Y276189D01*
X185594Y276248D01*
X185690Y276299D01*
X185782Y276370D01*
X185880Y276434D01*
X185996Y276536D01*
X186046Y276574D01*
X186070Y276601D01*
X186115Y276640D01*
X205250Y295775D01*
X205355Y295902D01*
X205467Y296023D01*
X205499Y296074D01*
X205538Y296121D01*
X205620Y296263D01*
X205708Y296402D01*
X205732Y296459D01*
X205762Y296512D01*
X205817Y296667D01*
X205879Y296819D01*
X205892Y296878D01*
X205913Y296936D01*
X205939Y297098D01*
X205974Y297259D01*
X205979Y297336D01*
X205986Y297380D01*
X205985Y297441D01*
X205993Y297571D01*
X205993Y345784D01*
X207617Y349705D01*
X210976Y353063D01*
X210976Y353064D01*
X217188Y359275D01*
X217293Y359402D01*
X217405Y359522D01*
X217437Y359574D01*
X217476Y359621D01*
X217558Y359763D01*
X217646Y359902D01*
X217670Y359959D01*
X217700Y360012D01*
X217755Y360167D01*
X217817Y360319D01*
X217830Y360378D01*
X217851Y360436D01*
X217877Y360598D01*
X217912Y360759D01*
X217917Y360836D01*
X217924Y360880D01*
X217923Y360941D01*
X217931Y361071D01*
X217931Y370039D01*
X217920Y370168D01*
X217918Y370298D01*
X217900Y370392D01*
X217891Y370487D01*
X217857Y370613D01*
X217832Y370740D01*
X217798Y370829D01*
X217773Y370922D01*
X217717Y371039D01*
X217670Y371160D01*
X217620Y371242D01*
X217579Y371328D01*
X217504Y371434D01*
X217436Y371545D01*
X217373Y371617D01*
X217317Y371694D01*
X217224Y371785D01*
X217138Y371882D01*
X217063Y371942D01*
X216995Y372008D01*
X216887Y372081D01*
X216785Y372162D01*
X216701Y372207D01*
X216622Y372260D01*
X216503Y372313D01*
X216388Y372374D01*
X216297Y372404D01*
X216210Y372443D01*
X216083Y372473D01*
X215960Y372514D01*
X215865Y372527D01*
X215772Y372549D01*
X215643Y372557D01*
X215514Y372575D01*
X215418Y372571D01*
X215323Y372577D01*
X215194Y372562D01*
X215064Y372557D01*
X214971Y372536D01*
X214876Y372525D01*
X214751Y372487D01*
X214624Y372459D01*
X214536Y372422D01*
X214445Y372395D01*
X214329Y372335D01*
X214209Y372285D01*
X214129Y372234D01*
X214043Y372190D01*
X213940Y372112D01*
X213831Y372041D01*
X213733Y371955D01*
X213685Y371918D01*
X213654Y371885D01*
X213596Y371834D01*
X209513Y367751D01*
X203769Y365371D01*
X201171Y365371D01*
X201007Y365357D01*
X200843Y365350D01*
X200783Y365337D01*
X200722Y365331D01*
X200564Y365288D01*
X200403Y365252D01*
X200347Y365229D01*
X200288Y365213D01*
X200140Y365142D01*
X199988Y365079D01*
X199936Y365046D01*
X199881Y365019D01*
X199748Y364924D01*
X199610Y364834D01*
X199552Y364783D01*
X199515Y364757D01*
X199473Y364714D01*
X199375Y364628D01*
X181592Y346845D01*
X181487Y346718D01*
X181375Y346598D01*
X181343Y346546D01*
X181304Y346499D01*
X181222Y346357D01*
X181134Y346218D01*
X181110Y346161D01*
X181080Y346108D01*
X181025Y345953D01*
X180963Y345801D01*
X180950Y345742D01*
X180929Y345684D01*
X180903Y345522D01*
X180868Y345361D01*
X180863Y345284D01*
X180856Y345240D01*
X180857Y345179D01*
X180849Y345049D01*
X180849Y343394D01*
X180863Y343230D01*
X180870Y343066D01*
X180883Y343006D01*
X180889Y342945D01*
X180932Y342787D01*
X180968Y342626D01*
X180991Y342570D01*
X181007Y342511D01*
X181078Y342363D01*
X181141Y342211D01*
X181174Y342159D01*
X181201Y342104D01*
X181296Y341971D01*
X181386Y341833D01*
X181437Y341775D01*
X181463Y341738D01*
X181506Y341696D01*
X181592Y341598D01*
X183854Y339337D01*
X186310Y333408D01*
X186310Y326992D01*
X183854Y321063D01*
X179317Y316526D01*
X173388Y314070D01*
X170190Y314070D01*
X170026Y314056D01*
X169862Y314049D01*
X169802Y314036D01*
X169741Y314030D01*
X169583Y313987D01*
X169422Y313951D01*
X169366Y313928D01*
X169307Y313912D01*
X169159Y313841D01*
X169007Y313778D01*
X168955Y313745D01*
X168900Y313718D01*
X168767Y313623D01*
X168629Y313533D01*
X168571Y313482D01*
X168534Y313456D01*
X168492Y313413D01*
X168394Y313327D01*
X143203Y288135D01*
X139282Y286511D01*
X94656Y286511D01*
X94444Y286492D01*
X94233Y286476D01*
X94221Y286473D01*
X94208Y286471D01*
X94002Y286415D01*
X93798Y286362D01*
X93786Y286356D01*
X93773Y286353D01*
X93583Y286262D01*
X93389Y286173D01*
X93378Y286165D01*
X93367Y286159D01*
X93195Y286037D01*
X93020Y285914D01*
X93011Y285905D01*
X93000Y285897D01*
X92852Y285745D01*
X92703Y285595D01*
X92696Y285584D01*
X92686Y285575D01*
X92566Y285397D01*
X92447Y285225D01*
X92440Y285210D01*
X92434Y285202D01*
X92418Y285166D01*
X92310Y284944D01*
X91473Y282923D01*
X89187Y280637D01*
X86199Y279399D01*
X63661Y279399D01*
X60673Y280637D01*
X58387Y282923D01*
X58011Y283830D01*
X57937Y283972D01*
X57870Y284117D01*
X57833Y284171D01*
X57803Y284229D01*
X57705Y284355D01*
X57613Y284487D01*
X57567Y284533D01*
X57527Y284585D01*
X57408Y284692D01*
X57295Y284805D01*
X57241Y284843D01*
X57193Y284887D01*
X57057Y284971D01*
X56925Y285063D01*
X56866Y285090D01*
X56811Y285124D01*
X56662Y285184D01*
X56516Y285251D01*
X56453Y285267D01*
X56392Y285291D01*
X56235Y285323D01*
X56080Y285363D01*
X56015Y285368D01*
X55951Y285381D01*
X55791Y285385D01*
X55631Y285397D01*
X55566Y285390D01*
X55501Y285392D01*
X55343Y285368D01*
X55183Y285351D01*
X55103Y285330D01*
X55056Y285323D01*
X55000Y285304D01*
X54955Y285292D01*
X54819Y285271D01*
X54819Y296970D01*
X54816Y297004D01*
X54818Y297039D01*
X54805Y297155D01*
X54819Y297390D01*
X54819Y309089D01*
X54985Y309063D01*
X55037Y309051D01*
X55191Y309007D01*
X55256Y309001D01*
X55320Y308986D01*
X55479Y308979D01*
X55639Y308963D01*
X55704Y308968D01*
X55769Y308965D01*
X55928Y308986D01*
X56088Y308998D01*
X56151Y309015D01*
X56216Y309023D01*
X56368Y309071D01*
X56524Y309112D01*
X56583Y309140D01*
X56645Y309159D01*
X56787Y309234D01*
X56932Y309301D01*
X56986Y309339D01*
X57043Y309369D01*
X57170Y309468D01*
X57301Y309560D01*
X57347Y309606D01*
X57398Y309646D01*
X57506Y309766D01*
X57618Y309879D01*
X57655Y309933D01*
X57699Y309981D01*
X57783Y310118D01*
X57874Y310249D01*
X57911Y310324D01*
X57936Y310364D01*
X57957Y310420D01*
X58011Y310530D01*
X58387Y311437D01*
X60673Y313723D01*
X63661Y314961D01*
X86199Y314961D01*
X89187Y313723D01*
X91473Y311437D01*
X92310Y309416D01*
X92408Y309229D01*
X92504Y309039D01*
X92512Y309029D01*
X92519Y309017D01*
X92648Y308850D01*
X92776Y308681D01*
X92786Y308672D01*
X92794Y308661D01*
X92952Y308519D01*
X93108Y308375D01*
X93119Y308368D01*
X93129Y308360D01*
X93308Y308248D01*
X93487Y308134D01*
X93500Y308129D01*
X93511Y308122D01*
X93708Y308043D01*
X93904Y307963D01*
X93917Y307960D01*
X93929Y307955D01*
X94137Y307913D01*
X94344Y307868D01*
X94360Y307867D01*
X94370Y307865D01*
X94410Y307864D01*
X94656Y307849D01*
X131689Y307849D01*
X131853Y307863D01*
X132017Y307870D01*
X132077Y307883D01*
X132138Y307889D01*
X132296Y307932D01*
X132457Y307968D01*
X132513Y307991D01*
X132572Y308007D01*
X132720Y308078D01*
X132872Y308141D01*
X132924Y308174D01*
X132979Y308201D01*
X133112Y308296D01*
X133250Y308386D01*
X133308Y308437D01*
X133345Y308463D01*
X133387Y308506D01*
X133485Y308592D01*
X140216Y315323D01*
X140299Y315423D01*
X140390Y315516D01*
X140443Y315596D01*
X140505Y315669D01*
X140569Y315782D01*
X140642Y315889D01*
X140681Y315977D01*
X140728Y316060D01*
X140771Y316182D01*
X140824Y316301D01*
X140847Y316394D01*
X140879Y316484D01*
X140900Y316612D01*
X140931Y316739D01*
X140937Y316834D01*
X140952Y316928D01*
X140950Y317058D01*
X140958Y317188D01*
X140947Y317283D01*
X140946Y317379D01*
X140921Y317506D01*
X140906Y317635D01*
X140879Y317727D01*
X140861Y317821D01*
X140814Y317942D01*
X140776Y318066D01*
X140733Y318151D01*
X140698Y318241D01*
X140631Y318352D01*
X140572Y318468D01*
X140514Y318544D01*
X140464Y318625D01*
X140378Y318723D01*
X140300Y318826D01*
X140229Y318891D01*
X140166Y318963D01*
X140064Y319043D01*
X139969Y319132D01*
X139888Y319183D01*
X139813Y319242D01*
X139698Y319303D01*
X139589Y319373D01*
X139500Y319410D01*
X139416Y319455D01*
X139293Y319495D01*
X139172Y319544D01*
X139079Y319564D01*
X138988Y319594D01*
X138859Y319612D01*
X138732Y319639D01*
X138602Y319647D01*
X138542Y319655D01*
X138497Y319654D01*
X138420Y319658D01*
X137159Y319658D01*
X137159Y327661D01*
X145162Y327661D01*
X145162Y326400D01*
X145173Y326270D01*
X145175Y326140D01*
X145193Y326047D01*
X145202Y325951D01*
X145236Y325826D01*
X145261Y325698D01*
X145295Y325609D01*
X145320Y325517D01*
X145376Y325400D01*
X145423Y325278D01*
X145473Y325196D01*
X145514Y325110D01*
X145589Y325005D01*
X145657Y324894D01*
X145720Y324822D01*
X145776Y324744D01*
X145869Y324654D01*
X145955Y324556D01*
X146030Y324497D01*
X146098Y324430D01*
X146206Y324357D01*
X146308Y324277D01*
X146392Y324232D01*
X146471Y324178D01*
X146590Y324126D01*
X146705Y324064D01*
X146796Y324035D01*
X146883Y323996D01*
X147010Y323965D01*
X147133Y323925D01*
X147228Y323912D01*
X147321Y323889D01*
X147450Y323881D01*
X147579Y323864D01*
X147675Y323867D01*
X147770Y323862D01*
X147899Y323877D01*
X148029Y323882D01*
X148122Y323903D01*
X148217Y323914D01*
X148342Y323951D01*
X148469Y323979D01*
X148557Y324016D01*
X148648Y324044D01*
X148764Y324103D01*
X148884Y324153D01*
X148964Y324205D01*
X149050Y324248D01*
X149153Y324327D01*
X149262Y324397D01*
X149360Y324483D01*
X149408Y324520D01*
X149439Y324553D01*
X149497Y324604D01*
X153307Y328414D01*
X153412Y328541D01*
X153524Y328662D01*
X153556Y328713D01*
X153595Y328760D01*
X153677Y328902D01*
X153765Y329041D01*
X153789Y329098D01*
X153819Y329151D01*
X153874Y329306D01*
X153936Y329458D01*
X153949Y329517D01*
X153970Y329575D01*
X153996Y329737D01*
X154031Y329898D01*
X154036Y329975D01*
X154043Y330019D01*
X154042Y330080D01*
X154050Y330210D01*
X154050Y333408D01*
X156506Y339337D01*
X158768Y341598D01*
X158873Y341724D01*
X158985Y341845D01*
X159017Y341897D01*
X159056Y341944D01*
X159138Y342086D01*
X159226Y342225D01*
X159250Y342282D01*
X159280Y342335D01*
X159335Y342490D01*
X159397Y342642D01*
X159410Y342701D01*
X159431Y342759D01*
X159457Y342921D01*
X159492Y343082D01*
X159497Y343159D01*
X159504Y343203D01*
X159503Y343264D01*
X159511Y343394D01*
X159511Y352642D01*
X161135Y356563D01*
X164494Y359921D01*
X164494Y359922D01*
X184288Y379715D01*
X184393Y379842D01*
X184505Y379962D01*
X184537Y380014D01*
X184576Y380061D01*
X184658Y380203D01*
X184746Y380342D01*
X184770Y380399D01*
X184800Y380452D01*
X184855Y380607D01*
X184917Y380759D01*
X184930Y380818D01*
X184951Y380876D01*
X184977Y381038D01*
X185012Y381199D01*
X185017Y381276D01*
X185024Y381320D01*
X185023Y381381D01*
X185031Y381511D01*
X185031Y384109D01*
X187411Y389853D01*
X187628Y390070D01*
X187704Y390161D01*
X187788Y390246D01*
X187849Y390334D01*
X187917Y390416D01*
X187976Y390518D01*
X188043Y390616D01*
X188087Y390714D01*
X188140Y390807D01*
X188180Y390918D01*
X188229Y391026D01*
X188255Y391130D01*
X188291Y391231D01*
X188311Y391348D01*
X188340Y391463D01*
X188347Y391570D01*
X188365Y391675D01*
X188363Y391794D01*
X188371Y391912D01*
X188360Y392019D01*
X188359Y392125D01*
X188336Y392242D01*
X188323Y392360D01*
X188293Y392462D01*
X188273Y392568D01*
X188230Y392678D01*
X188197Y392792D01*
X188149Y392888D01*
X188111Y392988D01*
X188049Y393089D01*
X187996Y393195D01*
X187933Y393281D01*
X187877Y393372D01*
X187798Y393461D01*
X187728Y393556D01*
X187650Y393629D01*
X187579Y393710D01*
X187486Y393783D01*
X187399Y393864D01*
X187309Y393923D01*
X187226Y393989D01*
X187121Y394045D01*
X187022Y394110D01*
X186923Y394151D01*
X186829Y394202D01*
X186716Y394238D01*
X186607Y394284D01*
X186502Y394308D01*
X186401Y394341D01*
X186283Y394357D01*
X186167Y394383D01*
X186060Y394388D01*
X185954Y394402D01*
X185836Y394397D01*
X185718Y394403D01*
X185612Y394388D01*
X185505Y394384D01*
X185389Y394358D01*
X185271Y394342D01*
X185169Y394310D01*
X185065Y394286D01*
X184955Y394241D01*
X184843Y394204D01*
X184708Y394137D01*
X184650Y394113D01*
X184618Y394092D01*
X184563Y394065D01*
X181198Y392122D01*
X174544Y390339D01*
X167656Y390339D01*
X161002Y392122D01*
X155037Y395566D01*
X150166Y400437D01*
X146722Y406402D01*
X144939Y413056D01*
X144939Y419944D01*
X146722Y426598D01*
X150166Y432563D01*
X155037Y437434D01*
X161002Y440878D01*
X167656Y442661D01*
X174544Y442661D01*
X181198Y440878D01*
X187163Y437434D01*
X192034Y432563D01*
X195478Y426598D01*
X197261Y419944D01*
X197261Y413056D01*
X195478Y406402D01*
X192034Y400437D01*
X190658Y399061D01*
X190544Y398925D01*
X190425Y398793D01*
X190400Y398752D01*
X190369Y398716D01*
X190281Y398561D01*
X190187Y398411D01*
X190170Y398366D01*
X190146Y398325D01*
X190086Y398157D01*
X190021Y397993D01*
X190011Y397946D01*
X189995Y397901D01*
X189966Y397725D01*
X189930Y397551D01*
X189929Y397503D01*
X189921Y397456D01*
X189924Y397279D01*
X189920Y397101D01*
X189927Y397054D01*
X189928Y397006D01*
X189961Y396831D01*
X189988Y396656D01*
X190004Y396611D01*
X190013Y396564D01*
X190077Y396398D01*
X190135Y396230D01*
X190158Y396189D01*
X190175Y396144D01*
X190268Y395992D01*
X190354Y395837D01*
X190384Y395800D01*
X190409Y395759D01*
X190527Y395626D01*
X190639Y395489D01*
X190676Y395458D01*
X190707Y395422D01*
X190847Y395312D01*
X190982Y395196D01*
X191023Y395172D01*
X191061Y395143D01*
X191218Y395058D01*
X191370Y394969D01*
X191415Y394953D01*
X191457Y394930D01*
X191627Y394875D01*
X191793Y394814D01*
X191840Y394805D01*
X191886Y394791D01*
X192061Y394767D01*
X192237Y394736D01*
X192284Y394736D01*
X192332Y394729D01*
X192509Y394737D01*
X192687Y394737D01*
X192734Y394746D01*
X192782Y394748D01*
X192955Y394786D01*
X193130Y394818D01*
X193186Y394837D01*
X193221Y394845D01*
X193279Y394870D01*
X193425Y394920D01*
X197551Y396629D01*
X203769Y396629D01*
X209513Y394249D01*
X213596Y390166D01*
X213696Y390083D01*
X213789Y389992D01*
X213869Y389938D01*
X213942Y389877D01*
X214055Y389813D01*
X214162Y389740D01*
X214250Y389701D01*
X214333Y389654D01*
X214455Y389610D01*
X214574Y389557D01*
X214667Y389535D01*
X214757Y389503D01*
X214885Y389482D01*
X215012Y389451D01*
X215107Y389445D01*
X215201Y389429D01*
X215331Y389431D01*
X215461Y389423D01*
X215556Y389434D01*
X215652Y389435D01*
X215779Y389460D01*
X215908Y389475D01*
X216000Y389503D01*
X216094Y389521D01*
X216215Y389568D01*
X216339Y389605D01*
X216424Y389649D01*
X216514Y389683D01*
X216625Y389751D01*
X216741Y389810D01*
X216817Y389867D01*
X216898Y389917D01*
X216996Y390003D01*
X217099Y390082D01*
X217164Y390152D01*
X217236Y390215D01*
X217316Y390317D01*
X217405Y390413D01*
X217456Y390494D01*
X217515Y390568D01*
X217576Y390683D01*
X217646Y390793D01*
X217683Y390881D01*
X217728Y390965D01*
X217768Y391089D01*
X217817Y391209D01*
X217837Y391303D01*
X217867Y391394D01*
X217885Y391522D01*
X217912Y391649D01*
X217920Y391779D01*
X217928Y391840D01*
X217927Y391884D01*
X217931Y391961D01*
X217931Y445750D01*
X217917Y445914D01*
X217910Y446078D01*
X217897Y446138D01*
X217891Y446199D01*
X217848Y446357D01*
X217812Y446518D01*
X217789Y446574D01*
X217773Y446633D01*
X217702Y446781D01*
X217639Y446933D01*
X217606Y446985D01*
X217579Y447040D01*
X217484Y447173D01*
X217394Y447311D01*
X217343Y447369D01*
X217317Y447406D01*
X217274Y447448D01*
X217188Y447546D01*
X168146Y496588D01*
X168019Y496693D01*
X167899Y496805D01*
X167847Y496837D01*
X167800Y496876D01*
X167658Y496958D01*
X167519Y497046D01*
X167462Y497070D01*
X167409Y497100D01*
X167254Y497155D01*
X167102Y497217D01*
X167043Y497230D01*
X166985Y497251D01*
X166823Y497277D01*
X166662Y497312D01*
X166585Y497317D01*
X166541Y497324D01*
X166480Y497323D01*
X166350Y497331D01*
X61378Y497331D01*
X57457Y498955D01*
X16355Y540057D01*
X15046Y543218D01*
X14963Y543376D01*
X14887Y543536D01*
X14860Y543575D01*
X14837Y543617D01*
X14729Y543758D01*
X14625Y543902D01*
X14591Y543935D01*
X14562Y543973D01*
X14430Y544092D01*
X14303Y544216D01*
X14263Y544243D01*
X14227Y544275D01*
X14077Y544369D01*
X13930Y544468D01*
X13886Y544488D01*
X13845Y544513D01*
X13680Y544578D01*
X13518Y544650D01*
X13471Y544662D01*
X13427Y544679D01*
X13253Y544715D01*
X13080Y544757D01*
X13033Y544760D01*
X12986Y544770D01*
X12808Y544774D01*
X12631Y544785D01*
X12583Y544779D01*
X12536Y544780D01*
X12360Y544753D01*
X12184Y544733D01*
X12138Y544719D01*
X12091Y544712D01*
X11923Y544654D01*
X11753Y544602D01*
X11710Y544581D01*
X11665Y544565D01*
X11510Y544479D01*
X11351Y544398D01*
X11313Y544369D01*
X11272Y544346D01*
X11134Y544233D01*
X10993Y544126D01*
X10960Y544091D01*
X10923Y544061D01*
X10808Y543925D01*
X10687Y543795D01*
X10662Y543755D01*
X10631Y543718D01*
X10541Y543565D01*
X10446Y543415D01*
X10427Y543371D01*
X10403Y543330D01*
X10342Y543163D01*
X10275Y542999D01*
X10265Y542952D01*
X10248Y542907D01*
X10217Y542732D01*
X10180Y542558D01*
X10176Y542499D01*
X10170Y542463D01*
X10170Y542400D01*
X10161Y542246D01*
X10161Y315061D01*
X10172Y314931D01*
X10174Y314801D01*
X10192Y314708D01*
X10201Y314612D01*
X10235Y314487D01*
X10260Y314359D01*
X10294Y314270D01*
X10319Y314178D01*
X10375Y314061D01*
X10422Y313939D01*
X10472Y313857D01*
X10513Y313771D01*
X10588Y313666D01*
X10656Y313554D01*
X10719Y313483D01*
X10775Y313405D01*
X10868Y313314D01*
X10954Y313217D01*
X11029Y313158D01*
X11097Y313091D01*
X11205Y313018D01*
X11307Y312938D01*
X11391Y312893D01*
X11470Y312839D01*
X11589Y312786D01*
X11704Y312725D01*
X11795Y312695D01*
X11882Y312657D01*
X12008Y312626D01*
X12132Y312586D01*
X12227Y312573D01*
X12320Y312550D01*
X12449Y312542D01*
X12578Y312524D01*
X12674Y312528D01*
X12769Y312522D01*
X12898Y312538D01*
X13028Y312543D01*
X13121Y312563D01*
X13216Y312575D01*
X13341Y312612D01*
X13468Y312640D01*
X13556Y312677D01*
X13647Y312705D01*
X13763Y312764D01*
X13883Y312814D01*
X13963Y312866D01*
X14049Y312909D01*
X14152Y312988D01*
X14261Y313058D01*
X14359Y313144D01*
X14407Y313181D01*
X14438Y313214D01*
X14496Y313265D01*
X14954Y313723D01*
X17941Y314961D01*
X40479Y314961D01*
X43467Y313723D01*
X45753Y311437D01*
X46129Y310530D01*
X46203Y310388D01*
X46270Y310243D01*
X46307Y310189D01*
X46337Y310131D01*
X46435Y310005D01*
X46527Y309873D01*
X46573Y309827D01*
X46613Y309775D01*
X46732Y309668D01*
X46845Y309555D01*
X46899Y309517D01*
X46947Y309473D01*
X47083Y309389D01*
X47215Y309297D01*
X47274Y309270D01*
X47329Y309236D01*
X47478Y309176D01*
X47624Y309109D01*
X47687Y309093D01*
X47748Y309069D01*
X47905Y309037D01*
X48060Y308997D01*
X48125Y308992D01*
X48189Y308979D01*
X48349Y308975D01*
X48509Y308963D01*
X48574Y308970D01*
X48639Y308968D01*
X48797Y308992D01*
X48957Y309009D01*
X49037Y309030D01*
X49084Y309037D01*
X49140Y309056D01*
X49185Y309068D01*
X49321Y309089D01*
X49321Y297390D01*
X49324Y297356D01*
X49322Y297321D01*
X49335Y297205D01*
X49321Y296970D01*
X49321Y285271D01*
X49155Y285297D01*
X49103Y285309D01*
X48949Y285353D01*
X48884Y285359D01*
X48820Y285374D01*
X48661Y285381D01*
X48501Y285397D01*
X48436Y285392D01*
X48371Y285395D01*
X48212Y285374D01*
X48052Y285362D01*
X47989Y285345D01*
X47924Y285337D01*
X47772Y285289D01*
X47616Y285248D01*
X47557Y285220D01*
X47495Y285201D01*
X47353Y285126D01*
X47208Y285059D01*
X47154Y285021D01*
X47097Y284991D01*
X46970Y284892D01*
X46839Y284800D01*
X46793Y284754D01*
X46742Y284714D01*
X46634Y284594D01*
X46522Y284481D01*
X46485Y284427D01*
X46441Y284379D01*
X46357Y284242D01*
X46266Y284111D01*
X46229Y284036D01*
X46204Y283996D01*
X46183Y283940D01*
X46129Y283830D01*
X45753Y282923D01*
X43467Y280637D01*
X41446Y279800D01*
X41258Y279702D01*
X41069Y279606D01*
X41059Y279598D01*
X41047Y279591D01*
X40880Y279462D01*
X40711Y279334D01*
X40702Y279324D01*
X40691Y279316D01*
X40549Y279158D01*
X40405Y279002D01*
X40398Y278991D01*
X40390Y278981D01*
X40278Y278802D01*
X40164Y278623D01*
X40159Y278610D01*
X40152Y278599D01*
X40073Y278402D01*
X39993Y278206D01*
X39990Y278193D01*
X39985Y278181D01*
X39942Y277972D01*
X39898Y277766D01*
X39897Y277750D01*
X39895Y277740D01*
X39894Y277700D01*
X39879Y277454D01*
X39879Y268361D01*
X39893Y268197D01*
X39900Y268033D01*
X39913Y267973D01*
X39919Y267912D01*
X39962Y267754D01*
X39998Y267593D01*
X40021Y267537D01*
X40037Y267478D01*
X40108Y267330D01*
X40171Y267178D01*
X40204Y267126D01*
X40231Y267071D01*
X40326Y266938D01*
X40416Y266800D01*
X40467Y266742D01*
X40493Y266705D01*
X40536Y266663D01*
X40622Y266565D01*
X41775Y265412D01*
X41902Y265307D01*
X42023Y265195D01*
X42074Y265163D01*
X42121Y265124D01*
X42263Y265042D01*
X42402Y264954D01*
X42459Y264930D01*
X42512Y264900D01*
X42667Y264845D01*
X42819Y264783D01*
X42878Y264770D01*
X42936Y264749D01*
X43098Y264723D01*
X43259Y264688D01*
X43336Y264683D01*
X43380Y264676D01*
X43441Y264677D01*
X43571Y264669D01*
X95086Y264669D01*
X99007Y263045D01*
X118483Y243568D01*
X118610Y243463D01*
X118731Y243351D01*
X118782Y243319D01*
X118829Y243280D01*
X118971Y243198D01*
X119110Y243110D01*
X119167Y243086D01*
X119220Y243056D01*
X119375Y243001D01*
X119527Y242939D01*
X119586Y242926D01*
X119644Y242905D01*
X119806Y242879D01*
X119967Y242844D01*
X120044Y242839D01*
X120088Y242832D01*
X120149Y242833D01*
X120279Y242825D01*
X128407Y242825D01*
X133821Y240582D01*
X137966Y236437D01*
X140209Y231023D01*
X140209Y225161D01*
X137966Y219747D01*
X135661Y217442D01*
X135638Y217415D01*
X135613Y217392D01*
X135494Y217243D01*
X135372Y217096D01*
X135355Y217066D01*
X135333Y217039D01*
X135243Y216871D01*
X135148Y216705D01*
X135137Y216673D01*
X135121Y216642D01*
X135062Y216461D01*
X134998Y216281D01*
X134992Y216247D01*
X134981Y216214D01*
X134955Y216025D01*
X134924Y215837D01*
X134925Y215802D01*
X134920Y215768D01*
X134928Y215577D01*
X134930Y215387D01*
X134937Y215352D01*
X134938Y215318D01*
X134980Y215132D01*
X135016Y214944D01*
X135028Y214912D01*
X135036Y214878D01*
X135110Y214702D01*
X135178Y214524D01*
X135196Y214495D01*
X135209Y214463D01*
X135313Y214302D01*
X135412Y214140D01*
X135435Y214114D01*
X135454Y214085D01*
X135661Y213850D01*
X137966Y211545D01*
X140209Y206131D01*
X140209Y200269D01*
X139886Y199491D01*
X139823Y199289D01*
X139757Y199087D01*
X139755Y199074D01*
X139751Y199061D01*
X139725Y198851D01*
X139696Y198641D01*
X139696Y198627D01*
X139695Y198614D01*
X139705Y198402D01*
X139714Y198191D01*
X139717Y198178D01*
X139718Y198165D01*
X139766Y197958D01*
X139812Y197751D01*
X139817Y197739D01*
X139820Y197726D01*
X139903Y197533D01*
X139985Y197336D01*
X139993Y197324D01*
X139998Y197312D01*
X140114Y197136D01*
X140230Y196957D01*
X140240Y196946D01*
X140246Y196937D01*
X140273Y196908D01*
X140437Y196723D01*
X154345Y182815D01*
X155969Y178894D01*
X155969Y99478D01*
X154345Y95557D01*
X151472Y92685D01*
X151367Y92558D01*
X151255Y92437D01*
X151223Y92386D01*
X151184Y92339D01*
X151102Y92197D01*
X151014Y92058D01*
X150990Y92001D01*
X150960Y91948D01*
X150905Y91793D01*
X150843Y91641D01*
X150830Y91582D01*
X150809Y91524D01*
X150783Y91362D01*
X150748Y91201D01*
X150743Y91124D01*
X150736Y91080D01*
X150737Y91019D01*
X150729Y90889D01*
X150729Y75294D01*
X147969Y68631D01*
X142869Y63531D01*
X136206Y60771D01*
X128994Y60771D01*
X122331Y63531D01*
X117231Y68631D01*
X114471Y75294D01*
X114471Y102506D01*
X117231Y109169D01*
X122331Y114269D01*
X128994Y117029D01*
X132092Y117029D01*
X132127Y117032D01*
X132161Y117030D01*
X132350Y117052D01*
X132541Y117069D01*
X132574Y117078D01*
X132608Y117082D01*
X132791Y117137D01*
X132975Y117187D01*
X133006Y117202D01*
X133039Y117212D01*
X133210Y117299D01*
X133382Y117381D01*
X133410Y117401D01*
X133441Y117416D01*
X133593Y117532D01*
X133748Y117643D01*
X133772Y117668D01*
X133799Y117688D01*
X133928Y117828D01*
X134062Y117965D01*
X134081Y117994D01*
X134105Y118020D01*
X134207Y118181D01*
X134314Y118338D01*
X134328Y118370D01*
X134346Y118399D01*
X134419Y118576D01*
X134496Y118750D01*
X134504Y118784D01*
X134517Y118816D01*
X134557Y119003D01*
X134603Y119188D01*
X134605Y119222D01*
X134612Y119256D01*
X134631Y119568D01*
X134631Y162353D01*
X134624Y162436D01*
X134626Y162518D01*
X134604Y162659D01*
X134591Y162802D01*
X134570Y162882D01*
X134557Y162963D01*
X134511Y163098D01*
X134473Y163236D01*
X134437Y163311D01*
X134411Y163389D01*
X134341Y163514D01*
X134279Y163643D01*
X134232Y163710D01*
X134191Y163782D01*
X134101Y163893D01*
X134017Y164009D01*
X133958Y164066D01*
X133906Y164130D01*
X133797Y164223D01*
X133695Y164323D01*
X133626Y164369D01*
X133564Y164423D01*
X133440Y164495D01*
X133322Y164575D01*
X133246Y164608D01*
X133175Y164650D01*
X133041Y164699D01*
X132910Y164757D01*
X132830Y164777D01*
X132752Y164805D01*
X132611Y164830D01*
X132472Y164864D01*
X132390Y164869D01*
X132309Y164883D01*
X132166Y164883D01*
X132023Y164892D01*
X131941Y164882D01*
X131859Y164882D01*
X131718Y164856D01*
X131576Y164840D01*
X131497Y164816D01*
X131416Y164801D01*
X131183Y164721D01*
X131145Y164709D01*
X131135Y164704D01*
X131120Y164699D01*
X128407Y163575D01*
X109337Y163575D01*
X103923Y165818D01*
X99778Y169963D01*
X97535Y175377D01*
X97535Y181239D01*
X99778Y186653D01*
X102083Y188958D01*
X102106Y188985D01*
X102131Y189008D01*
X102250Y189157D01*
X102372Y189304D01*
X102389Y189334D01*
X102411Y189361D01*
X102501Y189529D01*
X102596Y189695D01*
X102607Y189727D01*
X102623Y189758D01*
X102682Y189939D01*
X102746Y190119D01*
X102752Y190153D01*
X102763Y190186D01*
X102789Y190375D01*
X102820Y190563D01*
X102819Y190598D01*
X102824Y190632D01*
X102816Y190823D01*
X102814Y191013D01*
X102807Y191048D01*
X102806Y191082D01*
X102764Y191268D01*
X102728Y191456D01*
X102716Y191488D01*
X102708Y191522D01*
X102634Y191698D01*
X102566Y191876D01*
X102548Y191905D01*
X102535Y191937D01*
X102431Y192098D01*
X102332Y192260D01*
X102309Y192286D01*
X102290Y192315D01*
X102083Y192550D01*
X99778Y194855D01*
X97535Y200269D01*
X97535Y206131D01*
X99778Y211545D01*
X102083Y213850D01*
X102106Y213877D01*
X102131Y213900D01*
X102250Y214049D01*
X102372Y214196D01*
X102389Y214226D01*
X102411Y214253D01*
X102501Y214422D01*
X102596Y214587D01*
X102607Y214619D01*
X102623Y214650D01*
X102682Y214831D01*
X102746Y215011D01*
X102752Y215045D01*
X102763Y215078D01*
X102789Y215267D01*
X102820Y215455D01*
X102819Y215490D01*
X102824Y215524D01*
X102816Y215715D01*
X102814Y215906D01*
X102807Y215940D01*
X102806Y215974D01*
X102764Y216160D01*
X102728Y216348D01*
X102716Y216380D01*
X102708Y216414D01*
X102635Y216589D01*
X102566Y216768D01*
X102548Y216797D01*
X102534Y216829D01*
X102431Y216989D01*
X102332Y217152D01*
X102309Y217178D01*
X102290Y217207D01*
X102083Y217442D01*
X99778Y219747D01*
X97535Y225161D01*
X97535Y231023D01*
X97858Y231801D01*
X97921Y232003D01*
X97987Y232205D01*
X97989Y232218D01*
X97993Y232231D01*
X98019Y232441D01*
X98048Y232651D01*
X98048Y232665D01*
X98049Y232678D01*
X98039Y232890D01*
X98030Y233101D01*
X98027Y233114D01*
X98026Y233127D01*
X97978Y233334D01*
X97932Y233541D01*
X97927Y233553D01*
X97924Y233566D01*
X97841Y233760D01*
X97759Y233956D01*
X97752Y233967D01*
X97746Y233980D01*
X97629Y234157D01*
X97514Y234335D01*
X97504Y234346D01*
X97498Y234355D01*
X97471Y234384D01*
X97307Y234569D01*
X89289Y242588D01*
X89162Y242693D01*
X89041Y242805D01*
X88990Y242837D01*
X88943Y242876D01*
X88801Y242958D01*
X88662Y243046D01*
X88605Y243070D01*
X88552Y243100D01*
X88397Y243155D01*
X88245Y243217D01*
X88186Y243230D01*
X88128Y243251D01*
X87966Y243277D01*
X87805Y243312D01*
X87728Y243317D01*
X87684Y243324D01*
X87623Y243323D01*
X87493Y243331D01*
X77258Y243331D01*
X77129Y243320D01*
X76999Y243318D01*
X76905Y243300D01*
X76810Y243291D01*
X76684Y243257D01*
X76557Y243232D01*
X76467Y243198D01*
X76375Y243173D01*
X76258Y243117D01*
X76137Y243070D01*
X76055Y243020D01*
X75969Y242979D01*
X75863Y242904D01*
X75752Y242836D01*
X75680Y242773D01*
X75603Y242717D01*
X75512Y242624D01*
X75415Y242538D01*
X75355Y242463D01*
X75289Y242395D01*
X75216Y242287D01*
X75135Y242185D01*
X75090Y242101D01*
X75037Y242022D01*
X74984Y241903D01*
X74922Y241788D01*
X74893Y241697D01*
X74854Y241610D01*
X74823Y241483D01*
X74783Y241360D01*
X74770Y241265D01*
X74748Y241172D01*
X74740Y241043D01*
X74722Y240914D01*
X74726Y240818D01*
X74720Y240723D01*
X74735Y240594D01*
X74740Y240464D01*
X74761Y240371D01*
X74772Y240276D01*
X74810Y240151D01*
X74838Y240024D01*
X74875Y239936D01*
X74902Y239845D01*
X74961Y239729D01*
X75011Y239609D01*
X75063Y239529D01*
X75107Y239443D01*
X75185Y239340D01*
X75256Y239231D01*
X75342Y239133D01*
X75379Y239085D01*
X75412Y239054D01*
X75463Y238996D01*
X78022Y236437D01*
X80265Y231023D01*
X80265Y225161D01*
X78022Y219747D01*
X75717Y217442D01*
X75694Y217415D01*
X75669Y217392D01*
X75550Y217243D01*
X75428Y217096D01*
X75411Y217066D01*
X75389Y217039D01*
X75299Y216870D01*
X75204Y216705D01*
X75193Y216673D01*
X75177Y216642D01*
X75118Y216461D01*
X75054Y216281D01*
X75048Y216247D01*
X75037Y216214D01*
X75011Y216025D01*
X74980Y215837D01*
X74981Y215802D01*
X74976Y215768D01*
X74984Y215577D01*
X74986Y215386D01*
X74993Y215352D01*
X74994Y215318D01*
X75036Y215132D01*
X75072Y214944D01*
X75084Y214912D01*
X75092Y214878D01*
X75165Y214703D01*
X75234Y214524D01*
X75252Y214495D01*
X75266Y214463D01*
X75369Y214303D01*
X75468Y214140D01*
X75491Y214114D01*
X75510Y214085D01*
X75717Y213850D01*
X78022Y211545D01*
X80265Y206131D01*
X80265Y200269D01*
X78022Y194855D01*
X75717Y192550D01*
X75694Y192523D01*
X75669Y192500D01*
X75550Y192351D01*
X75428Y192204D01*
X75411Y192174D01*
X75389Y192147D01*
X75299Y191979D01*
X75204Y191813D01*
X75193Y191781D01*
X75177Y191750D01*
X75118Y191569D01*
X75054Y191389D01*
X75048Y191355D01*
X75037Y191322D01*
X75011Y191133D01*
X74980Y190945D01*
X74981Y190910D01*
X74976Y190876D01*
X74984Y190685D01*
X74986Y190495D01*
X74993Y190460D01*
X74994Y190426D01*
X75036Y190240D01*
X75072Y190052D01*
X75084Y190020D01*
X75092Y189986D01*
X75166Y189810D01*
X75234Y189632D01*
X75252Y189603D01*
X75265Y189571D01*
X75369Y189410D01*
X75468Y189248D01*
X75491Y189222D01*
X75510Y189193D01*
X75717Y188958D01*
X78022Y186653D01*
X80265Y181239D01*
X80265Y175377D01*
X78022Y169963D01*
X73877Y165818D01*
X68463Y163575D01*
X49393Y163575D01*
X43979Y165818D01*
X39834Y169963D01*
X37591Y175377D01*
X37591Y181239D01*
X39834Y186653D01*
X42139Y188958D01*
X42162Y188985D01*
X42187Y189008D01*
X42306Y189157D01*
X42428Y189304D01*
X42445Y189334D01*
X42467Y189361D01*
X42557Y189530D01*
X42652Y189695D01*
X42663Y189727D01*
X42679Y189758D01*
X42738Y189939D01*
X42802Y190119D01*
X42808Y190153D01*
X42819Y190186D01*
X42845Y190375D01*
X42876Y190563D01*
X42875Y190598D01*
X42880Y190632D01*
X42872Y190823D01*
X42870Y191014D01*
X42863Y191048D01*
X42862Y191082D01*
X42820Y191268D01*
X42784Y191456D01*
X42772Y191488D01*
X42764Y191522D01*
X42691Y191697D01*
X42622Y191876D01*
X42604Y191905D01*
X42590Y191937D01*
X42487Y192097D01*
X42388Y192260D01*
X42365Y192286D01*
X42346Y192315D01*
X42139Y192550D01*
X39834Y194855D01*
X37591Y200269D01*
X37591Y206131D01*
X39834Y211545D01*
X42139Y213850D01*
X42162Y213877D01*
X42187Y213900D01*
X42306Y214049D01*
X42428Y214196D01*
X42445Y214226D01*
X42467Y214253D01*
X42557Y214421D01*
X42652Y214587D01*
X42663Y214619D01*
X42679Y214650D01*
X42738Y214831D01*
X42802Y215011D01*
X42808Y215045D01*
X42819Y215078D01*
X42845Y215267D01*
X42876Y215455D01*
X42875Y215490D01*
X42880Y215524D01*
X42872Y215715D01*
X42870Y215905D01*
X42863Y215940D01*
X42862Y215974D01*
X42820Y216160D01*
X42784Y216348D01*
X42772Y216380D01*
X42764Y216414D01*
X42690Y216590D01*
X42622Y216768D01*
X42604Y216797D01*
X42591Y216829D01*
X42487Y216990D01*
X42388Y217152D01*
X42365Y217178D01*
X42346Y217207D01*
X42139Y217442D01*
X39834Y219747D01*
X37591Y225161D01*
X37591Y231023D01*
X39834Y236437D01*
X42393Y238996D01*
X42477Y239096D01*
X42567Y239189D01*
X42621Y239269D01*
X42682Y239342D01*
X42747Y239455D01*
X42819Y239562D01*
X42858Y239650D01*
X42906Y239733D01*
X42949Y239855D01*
X43002Y239974D01*
X43024Y240067D01*
X43056Y240157D01*
X43078Y240285D01*
X43108Y240412D01*
X43114Y240507D01*
X43130Y240601D01*
X43128Y240731D01*
X43136Y240861D01*
X43125Y240956D01*
X43124Y241052D01*
X43099Y241179D01*
X43084Y241308D01*
X43056Y241400D01*
X43038Y241494D01*
X42991Y241615D01*
X42954Y241739D01*
X42910Y241825D01*
X42876Y241914D01*
X42808Y242025D01*
X42749Y242141D01*
X42692Y242217D01*
X42642Y242298D01*
X42556Y242396D01*
X42477Y242499D01*
X42407Y242564D01*
X42344Y242636D01*
X42242Y242716D01*
X42146Y242805D01*
X42066Y242856D01*
X41991Y242915D01*
X41876Y242976D01*
X41766Y243046D01*
X41678Y243083D01*
X41594Y243128D01*
X41470Y243168D01*
X41350Y243217D01*
X41256Y243237D01*
X41166Y243267D01*
X41037Y243285D01*
X40910Y243312D01*
X40780Y243320D01*
X40720Y243328D01*
X40675Y243327D01*
X40598Y243331D01*
X35978Y243331D01*
X32057Y244955D01*
X20165Y256847D01*
X18541Y260768D01*
X18541Y277454D01*
X18522Y277666D01*
X18506Y277877D01*
X18503Y277889D01*
X18501Y277902D01*
X18445Y278108D01*
X18392Y278312D01*
X18386Y278324D01*
X18383Y278337D01*
X18292Y278527D01*
X18203Y278721D01*
X18195Y278732D01*
X18189Y278743D01*
X18067Y278915D01*
X17944Y279090D01*
X17935Y279099D01*
X17927Y279110D01*
X17775Y279258D01*
X17625Y279407D01*
X17614Y279414D01*
X17605Y279424D01*
X17429Y279542D01*
X17255Y279663D01*
X17240Y279670D01*
X17232Y279676D01*
X17196Y279692D01*
X16974Y279800D01*
X14954Y280637D01*
X14496Y281095D01*
X14396Y281178D01*
X14303Y281269D01*
X14223Y281322D01*
X14150Y281384D01*
X14037Y281448D01*
X13930Y281521D01*
X13842Y281560D01*
X13759Y281607D01*
X13637Y281651D01*
X13518Y281703D01*
X13425Y281726D01*
X13335Y281758D01*
X13207Y281779D01*
X13080Y281810D01*
X12985Y281816D01*
X12891Y281831D01*
X12761Y281830D01*
X12631Y281838D01*
X12536Y281826D01*
X12441Y281825D01*
X12313Y281801D01*
X12184Y281785D01*
X12092Y281758D01*
X11998Y281740D01*
X11877Y281693D01*
X11753Y281655D01*
X11668Y281612D01*
X11578Y281577D01*
X11467Y281510D01*
X11351Y281451D01*
X11275Y281393D01*
X11194Y281343D01*
X11096Y281257D01*
X10993Y281179D01*
X10928Y281109D01*
X10856Y281045D01*
X10776Y280943D01*
X10687Y280848D01*
X10636Y280767D01*
X10577Y280692D01*
X10516Y280578D01*
X10446Y280468D01*
X10409Y280379D01*
X10364Y280295D01*
X10324Y280172D01*
X10275Y280051D01*
X10255Y279958D01*
X10225Y279867D01*
X10207Y279738D01*
X10180Y279611D01*
X10172Y279481D01*
X10164Y279421D01*
X10165Y279376D01*
X10161Y279299D01*
X10161Y12700D01*
X10164Y12665D01*
X10162Y12631D01*
X10184Y12442D01*
X10201Y12251D01*
X10210Y12218D01*
X10214Y12184D01*
X10269Y12001D01*
X10319Y11817D01*
X10334Y11786D01*
X10344Y11753D01*
X10431Y11582D01*
X10513Y11410D01*
X10533Y11382D01*
X10548Y11351D01*
X10664Y11199D01*
X10775Y11044D01*
X10800Y11020D01*
X10820Y10993D01*
X10960Y10864D01*
X11097Y10730D01*
X11126Y10711D01*
X11152Y10687D01*
X11313Y10585D01*
X11470Y10478D01*
X11502Y10464D01*
X11531Y10446D01*
X11708Y10373D01*
X11882Y10296D01*
X11916Y10288D01*
X11948Y10275D01*
X12135Y10235D01*
X12320Y10189D01*
X12354Y10187D01*
X12388Y10180D01*
X12700Y10161D01*
X987300Y10161D01*
X987335Y10164D01*
G37*
G36*
X794793Y226583D02*
X794793Y226583D01*
X794957Y226590D01*
X795017Y226603D01*
X795078Y226609D01*
X795236Y226652D01*
X795397Y226688D01*
X795453Y226711D01*
X795512Y226727D01*
X795660Y226798D01*
X795812Y226861D01*
X795864Y226894D01*
X795919Y226921D01*
X796052Y227016D01*
X796190Y227106D01*
X796248Y227157D01*
X796285Y227183D01*
X796327Y227226D01*
X796425Y227312D01*
X826788Y257675D01*
X826893Y257802D01*
X827005Y257923D01*
X827037Y257974D01*
X827076Y258021D01*
X827158Y258163D01*
X827246Y258302D01*
X827270Y258359D01*
X827300Y258412D01*
X827355Y258567D01*
X827417Y258719D01*
X827430Y258778D01*
X827451Y258836D01*
X827477Y258998D01*
X827512Y259159D01*
X827517Y259236D01*
X827524Y259280D01*
X827523Y259341D01*
X827531Y259471D01*
X827531Y321609D01*
X827520Y321739D01*
X827518Y321868D01*
X827500Y321962D01*
X827491Y322057D01*
X827457Y322183D01*
X827432Y322311D01*
X827398Y322400D01*
X827373Y322492D01*
X827317Y322609D01*
X827270Y322731D01*
X827220Y322812D01*
X827179Y322898D01*
X827104Y323004D01*
X827036Y323115D01*
X826973Y323187D01*
X826917Y323265D01*
X826824Y323355D01*
X826738Y323453D01*
X826663Y323512D01*
X826595Y323579D01*
X826487Y323651D01*
X826385Y323732D01*
X826301Y323777D01*
X826222Y323831D01*
X826103Y323883D01*
X825988Y323945D01*
X825897Y323974D01*
X825810Y324013D01*
X825684Y324044D01*
X825560Y324084D01*
X825465Y324097D01*
X825372Y324120D01*
X825243Y324128D01*
X825114Y324145D01*
X825018Y324141D01*
X824923Y324147D01*
X824794Y324132D01*
X824664Y324127D01*
X824571Y324106D01*
X824476Y324095D01*
X824351Y324057D01*
X824224Y324029D01*
X824136Y323993D01*
X824045Y323965D01*
X823929Y323906D01*
X823809Y323856D01*
X823729Y323804D01*
X823643Y323760D01*
X823540Y323682D01*
X823431Y323611D01*
X823333Y323525D01*
X823285Y323488D01*
X823254Y323456D01*
X823196Y323404D01*
X821721Y321929D01*
X815933Y319531D01*
X809667Y319531D01*
X803879Y321929D01*
X799449Y326359D01*
X797051Y332147D01*
X797051Y353653D01*
X799449Y359441D01*
X803879Y363871D01*
X807005Y365166D01*
X807108Y365220D01*
X807216Y365265D01*
X807307Y365324D01*
X807404Y365374D01*
X807496Y365446D01*
X807594Y365509D01*
X807710Y365611D01*
X807760Y365650D01*
X807784Y365677D01*
X807828Y365716D01*
X864888Y422775D01*
X864993Y422902D01*
X865105Y423023D01*
X865137Y423074D01*
X865176Y423121D01*
X865258Y423263D01*
X865346Y423402D01*
X865370Y423459D01*
X865400Y423512D01*
X865455Y423667D01*
X865517Y423819D01*
X865530Y423878D01*
X865551Y423936D01*
X865577Y424098D01*
X865612Y424259D01*
X865617Y424336D01*
X865624Y424380D01*
X865623Y424441D01*
X865631Y424571D01*
X865631Y426329D01*
X865626Y426384D01*
X865627Y426401D01*
X865617Y426492D01*
X865617Y426493D01*
X865610Y426657D01*
X865597Y426717D01*
X865591Y426778D01*
X865578Y426828D01*
X865575Y426848D01*
X865546Y426944D01*
X865512Y427097D01*
X865489Y427153D01*
X865473Y427212D01*
X865452Y427255D01*
X865445Y427279D01*
X865396Y427376D01*
X865339Y427512D01*
X865306Y427564D01*
X865279Y427619D01*
X865254Y427654D01*
X865241Y427681D01*
X865169Y427775D01*
X865094Y427890D01*
X865043Y427948D01*
X865017Y427985D01*
X864990Y428012D01*
X864969Y428039D01*
X864938Y428068D01*
X864888Y428125D01*
X864885Y428128D01*
X864784Y428212D01*
X864695Y428299D01*
X864667Y428317D01*
X864637Y428345D01*
X864586Y428377D01*
X864539Y428416D01*
X864417Y428486D01*
X864322Y428551D01*
X864295Y428562D01*
X864258Y428586D01*
X864201Y428610D01*
X864148Y428640D01*
X864007Y428690D01*
X863910Y428733D01*
X863887Y428739D01*
X863841Y428757D01*
X863782Y428770D01*
X863724Y428791D01*
X863567Y428817D01*
X863472Y428840D01*
X863453Y428841D01*
X863401Y428852D01*
X863324Y428857D01*
X863280Y428864D01*
X863219Y428863D01*
X863089Y428871D01*
X860491Y428871D01*
X854747Y431251D01*
X850351Y435647D01*
X847971Y441391D01*
X847971Y447609D01*
X850351Y453353D01*
X854747Y457749D01*
X860491Y460129D01*
X866709Y460129D01*
X872419Y457764D01*
X872543Y457725D01*
X872664Y457677D01*
X872757Y457657D01*
X872848Y457629D01*
X872977Y457612D01*
X873105Y457586D01*
X873200Y457584D01*
X873295Y457572D01*
X873425Y457579D01*
X873555Y457576D01*
X873649Y457590D01*
X873745Y457595D01*
X873871Y457625D01*
X874000Y457644D01*
X874090Y457676D01*
X874183Y457697D01*
X874303Y457749D01*
X874426Y457791D01*
X874509Y457837D01*
X874597Y457875D01*
X874705Y457947D01*
X874819Y458010D01*
X874893Y458071D01*
X874973Y458123D01*
X875067Y458213D01*
X875167Y458295D01*
X875229Y458368D01*
X875298Y458434D01*
X875375Y458539D01*
X875460Y458638D01*
X875508Y458720D01*
X875564Y458797D01*
X875622Y458914D01*
X875687Y459026D01*
X875720Y459116D01*
X875762Y459202D01*
X875798Y459327D01*
X875842Y459449D01*
X875859Y459543D01*
X875885Y459635D01*
X875898Y459764D01*
X875920Y459893D01*
X875920Y459988D01*
X875930Y460083D01*
X875919Y460213D01*
X875919Y460343D01*
X875902Y460437D01*
X875894Y460532D01*
X875861Y460658D01*
X875838Y460786D01*
X875796Y460909D01*
X875780Y460968D01*
X875762Y461008D01*
X875736Y461081D01*
X873676Y466056D01*
X873660Y466087D01*
X873648Y466120D01*
X873555Y466287D01*
X873467Y466456D01*
X873446Y466483D01*
X873429Y466513D01*
X873308Y466661D01*
X873191Y466812D01*
X873166Y466835D01*
X873144Y466862D01*
X872999Y466985D01*
X872857Y467113D01*
X872828Y467132D01*
X872801Y467154D01*
X872637Y467250D01*
X872475Y467351D01*
X872443Y467364D01*
X872413Y467381D01*
X872234Y467447D01*
X872057Y467518D01*
X872023Y467525D01*
X871990Y467537D01*
X871802Y467570D01*
X871615Y467608D01*
X871581Y467609D01*
X871547Y467615D01*
X871356Y467614D01*
X871165Y467619D01*
X871131Y467613D01*
X871096Y467613D01*
X870908Y467579D01*
X870720Y467550D01*
X870688Y467539D01*
X870653Y467532D01*
X870358Y467431D01*
X869249Y466971D01*
X863031Y466971D01*
X857287Y469351D01*
X852891Y473747D01*
X850511Y479491D01*
X850511Y485709D01*
X852738Y491085D01*
X852773Y491196D01*
X852817Y491304D01*
X852840Y491410D01*
X852873Y491514D01*
X852887Y491630D01*
X852912Y491744D01*
X852922Y491898D01*
X852929Y491961D01*
X852928Y491997D01*
X852931Y492056D01*
X852931Y540629D01*
X852917Y540793D01*
X852910Y540957D01*
X852897Y541017D01*
X852891Y541078D01*
X852848Y541236D01*
X852812Y541397D01*
X852789Y541453D01*
X852773Y541512D01*
X852702Y541660D01*
X852639Y541812D01*
X852606Y541864D01*
X852579Y541919D01*
X852484Y542052D01*
X852394Y542190D01*
X852343Y542248D01*
X852317Y542285D01*
X852274Y542327D01*
X852188Y542425D01*
X832514Y562098D01*
X829155Y565457D01*
X827531Y569378D01*
X827531Y699379D01*
X827517Y699543D01*
X827510Y699707D01*
X827497Y699767D01*
X827491Y699828D01*
X827448Y699986D01*
X827412Y700147D01*
X827389Y700203D01*
X827373Y700262D01*
X827302Y700410D01*
X827239Y700562D01*
X827206Y700614D01*
X827179Y700669D01*
X827084Y700802D01*
X826994Y700940D01*
X826943Y700998D01*
X826917Y701035D01*
X826874Y701077D01*
X826788Y701175D01*
X778355Y749607D01*
X776731Y753528D01*
X776731Y754425D01*
X776717Y754589D01*
X776710Y754753D01*
X776697Y754813D01*
X776691Y754873D01*
X776648Y755032D01*
X776612Y755193D01*
X776589Y755249D01*
X776573Y755308D01*
X776502Y755456D01*
X776439Y755608D01*
X776406Y755659D01*
X776379Y755714D01*
X776284Y755848D01*
X776194Y755986D01*
X776143Y756044D01*
X776117Y756080D01*
X776074Y756123D01*
X775988Y756220D01*
X774049Y758159D01*
X771651Y763947D01*
X771651Y785453D01*
X771804Y785820D01*
X771828Y785899D01*
X771862Y785974D01*
X771896Y786113D01*
X771938Y786250D01*
X771949Y786332D01*
X771968Y786412D01*
X771977Y786554D01*
X771995Y786697D01*
X771991Y786779D01*
X771996Y786861D01*
X771979Y787003D01*
X771972Y787146D01*
X771953Y787226D01*
X771944Y787308D01*
X771902Y787445D01*
X771870Y787585D01*
X771837Y787660D01*
X771814Y787739D01*
X771749Y787867D01*
X771692Y787998D01*
X771647Y788067D01*
X771609Y788141D01*
X771523Y788255D01*
X771444Y788374D01*
X771387Y788434D01*
X771337Y788499D01*
X771232Y788596D01*
X771133Y788700D01*
X771067Y788749D01*
X771006Y788805D01*
X770885Y788881D01*
X770770Y788966D01*
X770696Y789002D01*
X770626Y789046D01*
X770494Y789101D01*
X770365Y789164D01*
X770286Y789186D01*
X770210Y789217D01*
X770070Y789247D01*
X769932Y789287D01*
X769850Y789295D01*
X769770Y789312D01*
X769524Y789327D01*
X769484Y789331D01*
X769473Y789330D01*
X769458Y789331D01*
X748500Y789331D01*
X748293Y789313D01*
X748086Y789297D01*
X748070Y789293D01*
X748052Y789291D01*
X747851Y789237D01*
X747650Y789185D01*
X747634Y789177D01*
X747618Y789173D01*
X747431Y789084D01*
X747241Y788997D01*
X747227Y788987D01*
X747211Y788979D01*
X747042Y788859D01*
X746871Y788740D01*
X746859Y788728D01*
X746845Y788717D01*
X746699Y788568D01*
X746553Y788422D01*
X746543Y788407D01*
X746531Y788395D01*
X746415Y788222D01*
X746296Y788052D01*
X746289Y788036D01*
X746279Y788022D01*
X746195Y787831D01*
X746108Y787643D01*
X746104Y787626D01*
X746097Y787610D01*
X746047Y787408D01*
X745995Y787207D01*
X745994Y787189D01*
X745990Y787172D01*
X745977Y786966D01*
X745961Y786758D01*
X745963Y786740D01*
X745962Y786723D01*
X745986Y786517D01*
X746007Y786310D01*
X746013Y786290D01*
X746014Y786276D01*
X746028Y786231D01*
X746086Y786007D01*
X746511Y784699D01*
X746761Y783120D01*
X746761Y777239D01*
X736600Y777239D01*
X736566Y777236D01*
X736531Y777238D01*
X736342Y777216D01*
X736152Y777199D01*
X736118Y777190D01*
X736084Y777186D01*
X735901Y777131D01*
X735717Y777081D01*
X735686Y777066D01*
X735653Y777056D01*
X735482Y776969D01*
X735311Y776888D01*
X735283Y776867D01*
X735252Y776852D01*
X735100Y776736D01*
X734945Y776625D01*
X734944Y776625D01*
X734920Y776600D01*
X734893Y776580D01*
X734893Y776579D01*
X734892Y776579D01*
X734763Y776439D01*
X734630Y776302D01*
X734611Y776274D01*
X734587Y776248D01*
X734485Y776087D01*
X734378Y775929D01*
X734364Y775898D01*
X734345Y775868D01*
X734273Y775692D01*
X734196Y775517D01*
X734188Y775484D01*
X734175Y775452D01*
X734134Y775265D01*
X734089Y775080D01*
X734087Y775046D01*
X734080Y775012D01*
X734061Y774700D01*
X734061Y757221D01*
X732700Y757664D01*
X731275Y758390D01*
X729981Y759330D01*
X729172Y760139D01*
X729108Y760192D01*
X729051Y760252D01*
X728936Y760336D01*
X728826Y760428D01*
X728755Y760469D01*
X728688Y760518D01*
X728560Y760580D01*
X728435Y760651D01*
X728357Y760679D01*
X728284Y760715D01*
X728146Y760754D01*
X728011Y760802D01*
X727930Y760816D01*
X727850Y760838D01*
X727708Y760852D01*
X727567Y760876D01*
X727484Y760874D01*
X727402Y760883D01*
X727260Y760871D01*
X727117Y760870D01*
X727036Y760854D01*
X726953Y760847D01*
X726815Y760811D01*
X726674Y760784D01*
X726598Y760754D01*
X726518Y760733D01*
X726388Y760673D01*
X726254Y760622D01*
X726184Y760579D01*
X726109Y760544D01*
X725992Y760462D01*
X725870Y760388D01*
X725808Y760333D01*
X725740Y760286D01*
X725639Y760184D01*
X725532Y760090D01*
X725481Y760025D01*
X725423Y759966D01*
X725342Y759849D01*
X725253Y759737D01*
X725214Y759664D01*
X725167Y759596D01*
X725059Y759374D01*
X725040Y759340D01*
X725037Y759329D01*
X725030Y759315D01*
X724551Y758159D01*
X722786Y756393D01*
X722763Y756367D01*
X722737Y756344D01*
X722619Y756195D01*
X722497Y756048D01*
X722479Y756018D01*
X722458Y755991D01*
X722368Y755823D01*
X722273Y755657D01*
X722262Y755624D01*
X722245Y755594D01*
X722186Y755413D01*
X722122Y755233D01*
X722117Y755199D01*
X722106Y755166D01*
X722080Y754977D01*
X722049Y754789D01*
X722049Y754754D01*
X722045Y754720D01*
X722052Y754529D01*
X722055Y754338D01*
X722062Y754304D01*
X722063Y754270D01*
X722104Y754084D01*
X722141Y753896D01*
X722153Y753864D01*
X722161Y753830D01*
X722234Y753654D01*
X722303Y753476D01*
X722321Y753447D01*
X722334Y753415D01*
X722438Y753254D01*
X722537Y753092D01*
X722560Y753066D01*
X722579Y753037D01*
X722785Y752802D01*
X819305Y656283D01*
X820929Y652362D01*
X820929Y439838D01*
X819305Y435917D01*
X803772Y420385D01*
X803667Y420258D01*
X803555Y420137D01*
X803523Y420086D01*
X803484Y420039D01*
X803402Y419897D01*
X803314Y419758D01*
X803290Y419701D01*
X803260Y419648D01*
X803205Y419493D01*
X803143Y419341D01*
X803130Y419282D01*
X803109Y419224D01*
X803083Y419062D01*
X803048Y418901D01*
X803043Y418824D01*
X803036Y418780D01*
X803037Y418719D01*
X803029Y418589D01*
X803029Y415991D01*
X800649Y410247D01*
X796253Y405851D01*
X790509Y403471D01*
X784291Y403471D01*
X778547Y405851D01*
X774151Y410247D01*
X771771Y415991D01*
X771771Y422209D01*
X774151Y427953D01*
X778547Y432349D01*
X784291Y434729D01*
X786889Y434729D01*
X787053Y434743D01*
X787217Y434750D01*
X787277Y434763D01*
X787338Y434769D01*
X787496Y434812D01*
X787657Y434848D01*
X787713Y434871D01*
X787772Y434887D01*
X787920Y434958D01*
X788072Y435021D01*
X788124Y435054D01*
X788179Y435081D01*
X788312Y435176D01*
X788450Y435266D01*
X788508Y435317D01*
X788545Y435343D01*
X788587Y435386D01*
X788685Y435472D01*
X798848Y445635D01*
X798953Y445762D01*
X799065Y445883D01*
X799097Y445934D01*
X799136Y445981D01*
X799218Y446123D01*
X799306Y446262D01*
X799330Y446319D01*
X799360Y446372D01*
X799415Y446527D01*
X799477Y446679D01*
X799490Y446738D01*
X799511Y446796D01*
X799537Y446958D01*
X799572Y447119D01*
X799577Y447196D01*
X799584Y447240D01*
X799583Y447301D01*
X799591Y447431D01*
X799591Y644769D01*
X799577Y644933D01*
X799570Y645097D01*
X799557Y645157D01*
X799551Y645218D01*
X799508Y645376D01*
X799472Y645537D01*
X799449Y645593D01*
X799433Y645652D01*
X799362Y645800D01*
X799299Y645952D01*
X799266Y646004D01*
X799239Y646059D01*
X799144Y646192D01*
X799054Y646330D01*
X799003Y646388D01*
X798977Y646425D01*
X798934Y646467D01*
X798848Y646565D01*
X693773Y751639D01*
X693609Y751776D01*
X693449Y751913D01*
X693438Y751920D01*
X693427Y751928D01*
X693243Y752033D01*
X693060Y752141D01*
X693048Y752145D01*
X693036Y752152D01*
X692837Y752222D01*
X692638Y752296D01*
X692625Y752298D01*
X692612Y752303D01*
X692402Y752337D01*
X692194Y752374D01*
X692181Y752374D01*
X692168Y752376D01*
X691954Y752373D01*
X691744Y752372D01*
X691731Y752370D01*
X691718Y752370D01*
X691509Y752329D01*
X691301Y752291D01*
X691286Y752286D01*
X691276Y752284D01*
X691239Y752270D01*
X691005Y752190D01*
X688933Y751331D01*
X682667Y751331D01*
X676879Y753729D01*
X672449Y758159D01*
X670051Y763947D01*
X670051Y785453D01*
X670204Y785820D01*
X670228Y785899D01*
X670262Y785974D01*
X670296Y786113D01*
X670338Y786250D01*
X670349Y786332D01*
X670368Y786412D01*
X670377Y786554D01*
X670395Y786697D01*
X670391Y786779D01*
X670396Y786861D01*
X670379Y787003D01*
X670372Y787146D01*
X670353Y787226D01*
X670344Y787308D01*
X670302Y787445D01*
X670270Y787585D01*
X670237Y787660D01*
X670214Y787739D01*
X670149Y787867D01*
X670092Y787998D01*
X670047Y788067D01*
X670009Y788141D01*
X669923Y788255D01*
X669844Y788374D01*
X669787Y788434D01*
X669737Y788499D01*
X669632Y788596D01*
X669533Y788700D01*
X669467Y788749D01*
X669406Y788805D01*
X669285Y788881D01*
X669170Y788966D01*
X669096Y789002D01*
X669026Y789046D01*
X668894Y789101D01*
X668765Y789164D01*
X668686Y789186D01*
X668610Y789217D01*
X668470Y789247D01*
X668332Y789287D01*
X668250Y789295D01*
X668170Y789312D01*
X667924Y789327D01*
X667884Y789331D01*
X667873Y789330D01*
X667858Y789331D01*
X646901Y789331D01*
X646692Y789313D01*
X646486Y789297D01*
X646470Y789293D01*
X646452Y789291D01*
X646252Y789237D01*
X646050Y789185D01*
X646034Y789177D01*
X646018Y789173D01*
X645831Y789084D01*
X645641Y788997D01*
X645627Y788987D01*
X645611Y788979D01*
X645442Y788859D01*
X645272Y788740D01*
X645259Y788728D01*
X645245Y788717D01*
X645100Y788568D01*
X644953Y788422D01*
X644943Y788407D01*
X644931Y788395D01*
X644815Y788223D01*
X644696Y788052D01*
X644689Y788036D01*
X644679Y788022D01*
X644594Y787829D01*
X644508Y787643D01*
X644504Y787626D01*
X644497Y787610D01*
X644447Y787407D01*
X644395Y787207D01*
X644394Y787189D01*
X644390Y787172D01*
X644377Y786963D01*
X644361Y786758D01*
X644363Y786740D01*
X644362Y786723D01*
X644386Y786516D01*
X644407Y786310D01*
X644413Y786290D01*
X644414Y786276D01*
X644428Y786231D01*
X644486Y786007D01*
X644911Y784699D01*
X645161Y783120D01*
X645161Y777239D01*
X635000Y777239D01*
X634966Y777236D01*
X634931Y777238D01*
X634742Y777216D01*
X634552Y777199D01*
X634518Y777190D01*
X634484Y777186D01*
X634301Y777131D01*
X634117Y777081D01*
X634086Y777066D01*
X634053Y777056D01*
X633882Y776969D01*
X633711Y776888D01*
X633683Y776867D01*
X633652Y776852D01*
X633500Y776736D01*
X633345Y776625D01*
X633344Y776625D01*
X633320Y776600D01*
X633293Y776580D01*
X633293Y776579D01*
X633292Y776579D01*
X633163Y776439D01*
X633030Y776302D01*
X633011Y776274D01*
X632987Y776248D01*
X632885Y776087D01*
X632778Y775929D01*
X632764Y775898D01*
X632745Y775868D01*
X632673Y775692D01*
X632596Y775517D01*
X632588Y775484D01*
X632575Y775452D01*
X632534Y775265D01*
X632489Y775080D01*
X632487Y775046D01*
X632480Y775012D01*
X632461Y774700D01*
X632461Y757221D01*
X631100Y757664D01*
X629675Y758390D01*
X628381Y759330D01*
X627572Y760139D01*
X627508Y760192D01*
X627451Y760252D01*
X627336Y760336D01*
X627226Y760428D01*
X627155Y760469D01*
X627088Y760517D01*
X626959Y760580D01*
X626835Y760651D01*
X626758Y760679D01*
X626684Y760715D01*
X626546Y760754D01*
X626411Y760802D01*
X626329Y760816D01*
X626250Y760838D01*
X626108Y760852D01*
X625967Y760876D01*
X625884Y760874D01*
X625802Y760883D01*
X625660Y760871D01*
X625516Y760869D01*
X625435Y760854D01*
X625353Y760847D01*
X625215Y760811D01*
X625074Y760784D01*
X624997Y760754D01*
X624918Y760733D01*
X624788Y760673D01*
X624654Y760622D01*
X624584Y760579D01*
X624509Y760544D01*
X624392Y760462D01*
X624270Y760388D01*
X624208Y760333D01*
X624140Y760286D01*
X624039Y760184D01*
X623932Y760090D01*
X623881Y760025D01*
X623823Y759966D01*
X623741Y759848D01*
X623653Y759736D01*
X623614Y759664D01*
X623567Y759596D01*
X623459Y759374D01*
X623440Y759340D01*
X623437Y759329D01*
X623430Y759315D01*
X622951Y758159D01*
X621185Y756393D01*
X621163Y756367D01*
X621137Y756344D01*
X621020Y756195D01*
X620897Y756048D01*
X620879Y756018D01*
X620858Y755991D01*
X620768Y755823D01*
X620673Y755657D01*
X620662Y755625D01*
X620645Y755594D01*
X620586Y755413D01*
X620522Y755233D01*
X620517Y755199D01*
X620506Y755166D01*
X620480Y754977D01*
X620449Y754789D01*
X620449Y754754D01*
X620445Y754720D01*
X620452Y754529D01*
X620455Y754338D01*
X620462Y754304D01*
X620463Y754270D01*
X620504Y754084D01*
X620541Y753896D01*
X620553Y753864D01*
X620561Y753830D01*
X620634Y753654D01*
X620703Y753476D01*
X620721Y753447D01*
X620734Y753415D01*
X620838Y753254D01*
X620937Y753092D01*
X620960Y753066D01*
X620979Y753037D01*
X621185Y752802D01*
X789276Y584712D01*
X792635Y581353D01*
X794259Y577432D01*
X794259Y462698D01*
X793062Y459809D01*
X793027Y459697D01*
X792983Y459589D01*
X792960Y459483D01*
X792927Y459379D01*
X792913Y459263D01*
X792888Y459149D01*
X792878Y458995D01*
X792871Y458932D01*
X792872Y458896D01*
X792869Y458837D01*
X792869Y455361D01*
X790489Y449617D01*
X786093Y445221D01*
X780349Y442841D01*
X774131Y442841D01*
X768387Y445221D01*
X763991Y449617D01*
X761611Y455361D01*
X761611Y461579D01*
X763991Y467323D01*
X768387Y471719D01*
X771354Y472948D01*
X771541Y473046D01*
X771731Y473143D01*
X771741Y473151D01*
X771753Y473157D01*
X771920Y473287D01*
X772089Y473415D01*
X772098Y473424D01*
X772109Y473432D01*
X772250Y473589D01*
X772395Y473746D01*
X772402Y473757D01*
X772410Y473767D01*
X772522Y473945D01*
X772636Y474126D01*
X772641Y474138D01*
X772648Y474149D01*
X772727Y474346D01*
X772807Y474542D01*
X772810Y474555D01*
X772815Y474567D01*
X772857Y474774D01*
X772902Y474982D01*
X772903Y474998D01*
X772905Y475008D01*
X772906Y475048D01*
X772921Y475294D01*
X772921Y569839D01*
X772907Y570003D01*
X772900Y570167D01*
X772887Y570227D01*
X772881Y570288D01*
X772838Y570446D01*
X772802Y570607D01*
X772779Y570663D01*
X772763Y570722D01*
X772692Y570870D01*
X772629Y571022D01*
X772596Y571074D01*
X772569Y571129D01*
X772474Y571262D01*
X772384Y571400D01*
X772333Y571458D01*
X772307Y571495D01*
X772264Y571537D01*
X772178Y571635D01*
X620573Y723239D01*
X620413Y723373D01*
X620256Y723508D01*
X620241Y723517D01*
X620227Y723528D01*
X620047Y723632D01*
X619868Y723737D01*
X619852Y723743D01*
X619836Y723752D01*
X619640Y723821D01*
X619446Y723893D01*
X619429Y723897D01*
X619412Y723902D01*
X619206Y723937D01*
X619003Y723973D01*
X618985Y723973D01*
X618968Y723976D01*
X618759Y723973D01*
X618552Y723973D01*
X618535Y723970D01*
X618518Y723970D01*
X618313Y723930D01*
X618109Y723894D01*
X618093Y723888D01*
X618076Y723884D01*
X617882Y723810D01*
X617687Y723737D01*
X617672Y723728D01*
X617656Y723722D01*
X617478Y723614D01*
X617299Y723509D01*
X617286Y723497D01*
X617271Y723488D01*
X617116Y723351D01*
X616958Y723215D01*
X616947Y723201D01*
X616934Y723190D01*
X616806Y723028D01*
X616673Y722866D01*
X616663Y722848D01*
X616654Y722837D01*
X616632Y722796D01*
X616515Y722597D01*
X615790Y721175D01*
X614850Y719881D01*
X613719Y718750D01*
X612425Y717810D01*
X611000Y717084D01*
X609639Y716641D01*
X609639Y726500D01*
X609636Y726534D01*
X609638Y726569D01*
X609616Y726758D01*
X609599Y726948D01*
X609590Y726982D01*
X609586Y727016D01*
X609531Y727199D01*
X609481Y727383D01*
X609466Y727414D01*
X609456Y727447D01*
X609369Y727618D01*
X609288Y727789D01*
X609267Y727817D01*
X609252Y727848D01*
X609136Y728000D01*
X609025Y728155D01*
X609001Y728179D01*
X608980Y728207D01*
X608840Y728336D01*
X608703Y728469D01*
X608674Y728489D01*
X608649Y728512D01*
X608488Y728615D01*
X608330Y728721D01*
X608298Y728735D01*
X608269Y728754D01*
X608092Y728826D01*
X607918Y728904D01*
X607884Y728912D01*
X607852Y728925D01*
X607666Y728965D01*
X607480Y729010D01*
X607446Y729012D01*
X607412Y729020D01*
X607100Y729039D01*
X607065Y729036D01*
X607031Y729038D01*
X606841Y729016D01*
X606651Y728999D01*
X606618Y728990D01*
X606584Y728986D01*
X606401Y728931D01*
X606217Y728880D01*
X606186Y728866D01*
X606153Y728856D01*
X605982Y728769D01*
X605810Y728687D01*
X605782Y728667D01*
X605751Y728651D01*
X605599Y728536D01*
X605444Y728425D01*
X605420Y728400D01*
X605392Y728379D01*
X605263Y728239D01*
X605130Y728102D01*
X605111Y728074D01*
X605087Y728048D01*
X604985Y727887D01*
X604878Y727729D01*
X604864Y727698D01*
X604845Y727668D01*
X604773Y727492D01*
X604696Y727317D01*
X604688Y727284D01*
X604675Y727252D01*
X604634Y727065D01*
X604589Y726880D01*
X604587Y726846D01*
X604580Y726812D01*
X604561Y726500D01*
X604561Y716641D01*
X603200Y717084D01*
X601775Y717810D01*
X600481Y718750D01*
X599672Y719559D01*
X599608Y719612D01*
X599551Y719672D01*
X599436Y719756D01*
X599326Y719848D01*
X599255Y719889D01*
X599188Y719937D01*
X599059Y720000D01*
X598935Y720071D01*
X598858Y720099D01*
X598784Y720135D01*
X598646Y720174D01*
X598511Y720222D01*
X598429Y720236D01*
X598350Y720258D01*
X598208Y720272D01*
X598067Y720296D01*
X597984Y720294D01*
X597902Y720303D01*
X597760Y720291D01*
X597616Y720289D01*
X597535Y720274D01*
X597453Y720267D01*
X597315Y720231D01*
X597174Y720204D01*
X597097Y720174D01*
X597018Y720153D01*
X596888Y720093D01*
X596754Y720042D01*
X596684Y719999D01*
X596609Y719964D01*
X596492Y719882D01*
X596370Y719808D01*
X596308Y719753D01*
X596240Y719706D01*
X596139Y719604D01*
X596032Y719510D01*
X595981Y719445D01*
X595923Y719386D01*
X595841Y719268D01*
X595753Y719156D01*
X595714Y719084D01*
X595667Y719016D01*
X595559Y718794D01*
X595540Y718760D01*
X595537Y718749D01*
X595530Y718735D01*
X595051Y717579D01*
X590621Y713149D01*
X589973Y712880D01*
X589900Y712842D01*
X589823Y712813D01*
X589700Y712738D01*
X589574Y712672D01*
X589509Y712621D01*
X589438Y712579D01*
X589331Y712484D01*
X589218Y712396D01*
X589163Y712335D01*
X589101Y712280D01*
X589012Y712168D01*
X588916Y712062D01*
X588872Y711992D01*
X588821Y711927D01*
X588754Y711801D01*
X588678Y711680D01*
X588648Y711603D01*
X588609Y711530D01*
X588565Y711394D01*
X588511Y711261D01*
X588495Y711180D01*
X588470Y711102D01*
X588450Y710961D01*
X588421Y710820D01*
X588419Y710738D01*
X588408Y710656D01*
X588414Y710513D01*
X588411Y710370D01*
X588423Y710289D01*
X588427Y710206D01*
X588458Y710066D01*
X588479Y709925D01*
X588506Y709847D01*
X588524Y709767D01*
X588579Y709635D01*
X588626Y709499D01*
X588666Y709427D01*
X588698Y709351D01*
X588775Y709231D01*
X588845Y709106D01*
X588897Y709042D01*
X588942Y708973D01*
X589105Y708788D01*
X589130Y708758D01*
X589139Y708751D01*
X589149Y708739D01*
X593308Y704580D01*
X593315Y704567D01*
X593321Y704558D01*
X593331Y704540D01*
X593402Y704448D01*
X593465Y704350D01*
X593562Y704240D01*
X593587Y704208D01*
X593591Y704204D01*
X593606Y704184D01*
X593633Y704160D01*
X593672Y704115D01*
X754535Y543253D01*
X756159Y539332D01*
X756159Y286168D01*
X754535Y282247D01*
X704543Y232255D01*
X702608Y231454D01*
X702450Y231371D01*
X702290Y231295D01*
X702252Y231268D01*
X702209Y231245D01*
X702069Y231137D01*
X701924Y231033D01*
X701891Y230999D01*
X701853Y230970D01*
X701734Y230838D01*
X701610Y230711D01*
X701584Y230671D01*
X701552Y230635D01*
X701458Y230485D01*
X701358Y230338D01*
X701339Y230294D01*
X701314Y230253D01*
X701248Y230088D01*
X701176Y229926D01*
X701165Y229879D01*
X701147Y229835D01*
X701111Y229661D01*
X701069Y229488D01*
X701066Y229441D01*
X701057Y229394D01*
X701053Y229216D01*
X701042Y229039D01*
X701047Y228991D01*
X701046Y228944D01*
X701073Y228768D01*
X701094Y228592D01*
X701108Y228546D01*
X701115Y228499D01*
X701173Y228331D01*
X701224Y228161D01*
X701246Y228118D01*
X701261Y228073D01*
X701348Y227918D01*
X701428Y227759D01*
X701457Y227721D01*
X701481Y227680D01*
X701593Y227542D01*
X701700Y227401D01*
X701735Y227368D01*
X701766Y227331D01*
X701901Y227216D01*
X702032Y227095D01*
X702072Y227070D01*
X702108Y227039D01*
X702262Y226949D01*
X702411Y226854D01*
X702456Y226835D01*
X702497Y226811D01*
X702663Y226750D01*
X702828Y226683D01*
X702875Y226673D01*
X702920Y226656D01*
X703094Y226625D01*
X703268Y226588D01*
X703327Y226584D01*
X703363Y226578D01*
X703426Y226578D01*
X703580Y226569D01*
X794629Y226569D01*
X794793Y226583D01*
G37*
G36*
X406392Y575830D02*
X406392Y575830D01*
X406523Y575832D01*
X406616Y575850D01*
X406712Y575859D01*
X406837Y575893D01*
X406965Y575918D01*
X407054Y575952D01*
X407146Y575977D01*
X407263Y576033D01*
X407385Y576080D01*
X407467Y576130D01*
X407553Y576171D01*
X407658Y576246D01*
X407769Y576314D01*
X407841Y576377D01*
X407919Y576433D01*
X408010Y576526D01*
X408107Y576612D01*
X408166Y576687D01*
X408233Y576755D01*
X408306Y576863D01*
X408386Y576965D01*
X408431Y577049D01*
X408485Y577128D01*
X408537Y577247D01*
X408599Y577362D01*
X408628Y577453D01*
X408667Y577540D01*
X408698Y577667D01*
X408738Y577790D01*
X408751Y577885D01*
X408774Y577978D01*
X408782Y578107D01*
X408799Y578236D01*
X408796Y578332D01*
X408801Y578427D01*
X408786Y578556D01*
X408781Y578686D01*
X408760Y578779D01*
X408749Y578874D01*
X408712Y578999D01*
X408684Y579126D01*
X408647Y579214D01*
X408619Y579305D01*
X408560Y579421D01*
X408510Y579541D01*
X408458Y579622D01*
X408415Y579707D01*
X408336Y579810D01*
X408266Y579919D01*
X408179Y580017D01*
X408143Y580065D01*
X408110Y580096D01*
X408059Y580154D01*
X296614Y691598D01*
X293255Y694957D01*
X291631Y698878D01*
X291631Y712829D01*
X291620Y712959D01*
X291618Y713088D01*
X291600Y713182D01*
X291591Y713277D01*
X291557Y713403D01*
X291532Y713531D01*
X291498Y713620D01*
X291473Y713712D01*
X291417Y713829D01*
X291370Y713951D01*
X291320Y714032D01*
X291279Y714118D01*
X291204Y714224D01*
X291136Y714335D01*
X291073Y714407D01*
X291017Y714485D01*
X290924Y714575D01*
X290838Y714673D01*
X290763Y714732D01*
X290695Y714799D01*
X290587Y714871D01*
X290485Y714952D01*
X290401Y714997D01*
X290322Y715051D01*
X290203Y715103D01*
X290088Y715165D01*
X289997Y715194D01*
X289910Y715233D01*
X289784Y715264D01*
X289660Y715304D01*
X289565Y715317D01*
X289472Y715340D01*
X289343Y715348D01*
X289214Y715365D01*
X289118Y715361D01*
X289023Y715367D01*
X288894Y715352D01*
X288764Y715347D01*
X288671Y715326D01*
X288576Y715315D01*
X288451Y715277D01*
X288324Y715249D01*
X288236Y715213D01*
X288145Y715185D01*
X288029Y715126D01*
X287909Y715076D01*
X287829Y715024D01*
X287743Y714980D01*
X287640Y714902D01*
X287531Y714831D01*
X287433Y714745D01*
X287385Y714708D01*
X287354Y714676D01*
X287296Y714624D01*
X285821Y713149D01*
X280033Y710751D01*
X273767Y710751D01*
X267979Y713149D01*
X266504Y714624D01*
X266404Y714708D01*
X266311Y714799D01*
X266231Y714852D01*
X266158Y714913D01*
X266045Y714978D01*
X265938Y715051D01*
X265850Y715089D01*
X265767Y715137D01*
X265645Y715180D01*
X265526Y715233D01*
X265433Y715255D01*
X265343Y715288D01*
X265215Y715309D01*
X265088Y715340D01*
X264993Y715345D01*
X264899Y715361D01*
X264769Y715359D01*
X264639Y715367D01*
X264544Y715356D01*
X264448Y715355D01*
X264321Y715330D01*
X264192Y715315D01*
X264100Y715287D01*
X264006Y715269D01*
X263885Y715223D01*
X263761Y715185D01*
X263675Y715141D01*
X263586Y715107D01*
X263475Y715040D01*
X263359Y714980D01*
X263283Y714923D01*
X263202Y714873D01*
X263104Y714787D01*
X263001Y714708D01*
X262936Y714638D01*
X262864Y714575D01*
X262784Y714473D01*
X262695Y714377D01*
X262644Y714297D01*
X262585Y714222D01*
X262523Y714107D01*
X262454Y713998D01*
X262417Y713909D01*
X262372Y713825D01*
X262332Y713701D01*
X262283Y713581D01*
X262263Y713488D01*
X262233Y713397D01*
X262215Y713268D01*
X262188Y713141D01*
X262180Y713011D01*
X262172Y712951D01*
X262173Y712906D01*
X262169Y712829D01*
X262169Y706578D01*
X260545Y702657D01*
X247343Y689455D01*
X243422Y687831D01*
X233680Y687831D01*
X233503Y687816D01*
X233326Y687806D01*
X233279Y687796D01*
X233231Y687791D01*
X233060Y687745D01*
X232887Y687704D01*
X232843Y687685D01*
X232797Y687673D01*
X232637Y687597D01*
X232474Y687526D01*
X232434Y687500D01*
X232390Y687479D01*
X232246Y687376D01*
X232098Y687278D01*
X232063Y687245D01*
X232024Y687217D01*
X231900Y687090D01*
X231772Y686967D01*
X231744Y686929D01*
X231710Y686895D01*
X231611Y686747D01*
X231506Y686604D01*
X231485Y686561D01*
X231458Y686522D01*
X231386Y686359D01*
X231308Y686200D01*
X231295Y686154D01*
X231276Y686110D01*
X231234Y685937D01*
X231185Y685766D01*
X231181Y685719D01*
X231169Y685672D01*
X231158Y685495D01*
X231141Y685318D01*
X231145Y685271D01*
X231142Y685223D01*
X231162Y685046D01*
X231176Y684869D01*
X231188Y684823D01*
X231194Y684776D01*
X231245Y684605D01*
X231290Y684434D01*
X231310Y684391D01*
X231324Y684345D01*
X231405Y684186D01*
X231479Y684025D01*
X231507Y683986D01*
X231528Y683943D01*
X231636Y683802D01*
X231738Y683656D01*
X231772Y683623D01*
X231800Y683585D01*
X231931Y683464D01*
X232057Y683339D01*
X232096Y683312D01*
X232132Y683280D01*
X232281Y683184D01*
X232427Y683083D01*
X232481Y683057D01*
X232511Y683038D01*
X232570Y683014D01*
X232708Y682946D01*
X234643Y682145D01*
X238001Y678786D01*
X238002Y678786D01*
X303515Y613272D01*
X303642Y613167D01*
X303763Y613055D01*
X303814Y613023D01*
X303861Y612984D01*
X304003Y612902D01*
X304142Y612814D01*
X304199Y612790D01*
X304252Y612760D01*
X304407Y612705D01*
X304559Y612643D01*
X304618Y612630D01*
X304676Y612609D01*
X304838Y612583D01*
X304999Y612548D01*
X305076Y612543D01*
X305120Y612536D01*
X305181Y612537D01*
X305311Y612529D01*
X307909Y612529D01*
X313653Y610149D01*
X318049Y605753D01*
X320429Y600009D01*
X320429Y593791D01*
X318049Y588047D01*
X313653Y583651D01*
X307909Y581271D01*
X301691Y581271D01*
X295947Y583651D01*
X291551Y588047D01*
X289171Y593791D01*
X289171Y596389D01*
X289157Y596553D01*
X289150Y596717D01*
X289137Y596777D01*
X289131Y596838D01*
X289088Y596996D01*
X289052Y597157D01*
X289029Y597213D01*
X289013Y597272D01*
X288942Y597420D01*
X288879Y597572D01*
X288846Y597624D01*
X288819Y597679D01*
X288724Y597812D01*
X288634Y597950D01*
X288583Y598008D01*
X288557Y598045D01*
X288514Y598087D01*
X288428Y598185D01*
X224925Y661688D01*
X224798Y661793D01*
X224678Y661905D01*
X224626Y661937D01*
X224579Y661976D01*
X224437Y662058D01*
X224298Y662146D01*
X224241Y662170D01*
X224188Y662200D01*
X224033Y662255D01*
X223881Y662317D01*
X223822Y662330D01*
X223764Y662351D01*
X223602Y662377D01*
X223441Y662412D01*
X223364Y662417D01*
X223320Y662424D01*
X223259Y662423D01*
X223129Y662431D01*
X101092Y662431D01*
X101057Y662428D01*
X101023Y662430D01*
X100834Y662408D01*
X100643Y662391D01*
X100610Y662382D01*
X100576Y662378D01*
X100393Y662323D01*
X100209Y662273D01*
X100178Y662258D01*
X100145Y662248D01*
X99974Y662161D01*
X99802Y662079D01*
X99774Y662059D01*
X99743Y662044D01*
X99591Y661928D01*
X99436Y661817D01*
X99412Y661792D01*
X99385Y661772D01*
X99256Y661632D01*
X99122Y661495D01*
X99103Y661466D01*
X99079Y661440D01*
X98977Y661279D01*
X98870Y661122D01*
X98856Y661090D01*
X98838Y661061D01*
X98765Y660884D01*
X98688Y660710D01*
X98680Y660676D01*
X98667Y660644D01*
X98627Y660457D01*
X98581Y660272D01*
X98579Y660238D01*
X98572Y660204D01*
X98553Y659892D01*
X98553Y656402D01*
X92898Y650747D01*
X91439Y650747D01*
X91439Y660400D01*
X91436Y660434D01*
X91438Y660469D01*
X91416Y660658D01*
X91399Y660848D01*
X91390Y660882D01*
X91386Y660916D01*
X91331Y661099D01*
X91281Y661283D01*
X91266Y661314D01*
X91256Y661347D01*
X91169Y661518D01*
X91088Y661689D01*
X91067Y661717D01*
X91052Y661748D01*
X90936Y661900D01*
X90825Y662055D01*
X90801Y662079D01*
X90780Y662107D01*
X90640Y662236D01*
X90503Y662369D01*
X90474Y662389D01*
X90449Y662412D01*
X90288Y662515D01*
X90130Y662621D01*
X90098Y662635D01*
X90069Y662654D01*
X89892Y662726D01*
X89718Y662804D01*
X89684Y662812D01*
X89652Y662825D01*
X89466Y662865D01*
X89280Y662910D01*
X89246Y662912D01*
X89212Y662920D01*
X88900Y662939D01*
X88865Y662936D01*
X88831Y662938D01*
X88641Y662916D01*
X88451Y662899D01*
X88418Y662890D01*
X88384Y662886D01*
X88201Y662831D01*
X88017Y662780D01*
X87986Y662766D01*
X87953Y662756D01*
X87782Y662669D01*
X87610Y662587D01*
X87582Y662567D01*
X87551Y662551D01*
X87399Y662436D01*
X87244Y662325D01*
X87220Y662300D01*
X87192Y662279D01*
X87063Y662139D01*
X86930Y662002D01*
X86911Y661974D01*
X86887Y661948D01*
X86785Y661787D01*
X86678Y661629D01*
X86664Y661598D01*
X86645Y661568D01*
X86573Y661392D01*
X86496Y661217D01*
X86488Y661184D01*
X86475Y661152D01*
X86434Y660965D01*
X86389Y660780D01*
X86387Y660746D01*
X86380Y660712D01*
X86361Y660400D01*
X86361Y650747D01*
X84902Y650747D01*
X81947Y653702D01*
X81920Y653725D01*
X81897Y653750D01*
X81749Y653868D01*
X81601Y653991D01*
X81571Y654008D01*
X81544Y654030D01*
X81376Y654120D01*
X81210Y654214D01*
X81178Y654226D01*
X81147Y654242D01*
X80966Y654301D01*
X80786Y654365D01*
X80752Y654371D01*
X80719Y654382D01*
X80531Y654408D01*
X80342Y654439D01*
X80307Y654438D01*
X80273Y654443D01*
X80083Y654435D01*
X79892Y654433D01*
X79858Y654426D01*
X79823Y654425D01*
X79637Y654383D01*
X79450Y654347D01*
X79417Y654335D01*
X79384Y654327D01*
X79208Y654254D01*
X79030Y654185D01*
X79000Y654167D01*
X78968Y654153D01*
X78808Y654050D01*
X78645Y653951D01*
X78619Y653928D01*
X78590Y653909D01*
X78356Y653702D01*
X74149Y649496D01*
X74127Y649469D01*
X74101Y649446D01*
X73983Y649297D01*
X73860Y649150D01*
X73843Y649120D01*
X73822Y649093D01*
X73732Y648925D01*
X73637Y648759D01*
X73625Y648727D01*
X73609Y648696D01*
X73550Y648515D01*
X73486Y648335D01*
X73480Y648301D01*
X73470Y648268D01*
X73444Y648079D01*
X73413Y647891D01*
X73413Y647856D01*
X73408Y647822D01*
X73416Y647631D01*
X73419Y647440D01*
X73425Y647406D01*
X73427Y647372D01*
X73468Y647186D01*
X73504Y646998D01*
X73517Y646966D01*
X73524Y646932D01*
X73598Y646756D01*
X73667Y646578D01*
X73685Y646549D01*
X73698Y646517D01*
X73801Y646357D01*
X73900Y646194D01*
X73923Y646168D01*
X73942Y646139D01*
X74149Y645904D01*
X78356Y641698D01*
X78382Y641676D01*
X78405Y641650D01*
X78555Y641532D01*
X78701Y641409D01*
X78731Y641392D01*
X78758Y641370D01*
X78926Y641280D01*
X79092Y641186D01*
X79125Y641174D01*
X79155Y641158D01*
X79337Y641099D01*
X79516Y641035D01*
X79551Y641029D01*
X79584Y641018D01*
X79772Y640992D01*
X79961Y640961D01*
X79995Y640962D01*
X80030Y640957D01*
X80220Y640965D01*
X80411Y640967D01*
X80445Y640974D01*
X80479Y640975D01*
X80665Y641017D01*
X80853Y641053D01*
X80885Y641065D01*
X80919Y641073D01*
X81095Y641146D01*
X81273Y641215D01*
X81303Y641233D01*
X81334Y641247D01*
X81494Y641350D01*
X81658Y641449D01*
X81684Y641472D01*
X81713Y641491D01*
X81947Y641698D01*
X84902Y644653D01*
X86361Y644653D01*
X86361Y635000D01*
X86364Y634966D01*
X86362Y634931D01*
X86384Y634742D01*
X86400Y634552D01*
X86410Y634518D01*
X86414Y634484D01*
X86469Y634301D01*
X86519Y634117D01*
X86534Y634086D01*
X86544Y634053D01*
X86631Y633882D01*
X86712Y633711D01*
X86733Y633683D01*
X86748Y633652D01*
X86863Y633500D01*
X86975Y633345D01*
X86975Y633344D01*
X86999Y633320D01*
X87020Y633293D01*
X87021Y633293D01*
X87021Y633292D01*
X87161Y633163D01*
X87298Y633030D01*
X87326Y633011D01*
X87352Y632987D01*
X87513Y632885D01*
X87671Y632778D01*
X87702Y632764D01*
X87732Y632745D01*
X87908Y632673D01*
X88083Y632596D01*
X88116Y632588D01*
X88148Y632575D01*
X88335Y632534D01*
X88520Y632489D01*
X88554Y632487D01*
X88588Y632480D01*
X88900Y632461D01*
X98553Y632461D01*
X98553Y631002D01*
X92898Y625347D01*
X89408Y625347D01*
X89373Y625344D01*
X89339Y625346D01*
X89150Y625324D01*
X88959Y625307D01*
X88926Y625298D01*
X88892Y625294D01*
X88709Y625239D01*
X88525Y625189D01*
X88494Y625174D01*
X88461Y625164D01*
X88290Y625077D01*
X88118Y624995D01*
X88090Y624975D01*
X88059Y624960D01*
X87907Y624844D01*
X87752Y624733D01*
X87728Y624708D01*
X87701Y624688D01*
X87572Y624548D01*
X87438Y624411D01*
X87419Y624382D01*
X87395Y624356D01*
X87293Y624195D01*
X87186Y624038D01*
X87172Y624006D01*
X87154Y623977D01*
X87081Y623800D01*
X87004Y623626D01*
X86996Y623592D01*
X86983Y623560D01*
X86943Y623373D01*
X86897Y623188D01*
X86895Y623154D01*
X86888Y623120D01*
X86869Y622808D01*
X86869Y621792D01*
X86872Y621757D01*
X86870Y621723D01*
X86892Y621534D01*
X86909Y621343D01*
X86918Y621310D01*
X86922Y621276D01*
X86977Y621093D01*
X87027Y620909D01*
X87042Y620878D01*
X87052Y620845D01*
X87139Y620674D01*
X87221Y620502D01*
X87241Y620474D01*
X87256Y620443D01*
X87372Y620291D01*
X87483Y620136D01*
X87508Y620112D01*
X87528Y620085D01*
X87668Y619956D01*
X87805Y619822D01*
X87834Y619803D01*
X87860Y619779D01*
X88021Y619677D01*
X88178Y619570D01*
X88210Y619556D01*
X88239Y619538D01*
X88416Y619465D01*
X88590Y619388D01*
X88624Y619380D01*
X88656Y619367D01*
X88843Y619327D01*
X89028Y619281D01*
X89062Y619279D01*
X89096Y619272D01*
X89408Y619253D01*
X92898Y619253D01*
X98553Y613598D01*
X98553Y612139D01*
X89408Y612139D01*
X89373Y612136D01*
X89339Y612138D01*
X89150Y612116D01*
X88959Y612099D01*
X88926Y612090D01*
X88892Y612086D01*
X88709Y612031D01*
X88525Y611981D01*
X88494Y611966D01*
X88461Y611956D01*
X88290Y611869D01*
X88118Y611788D01*
X88090Y611767D01*
X88059Y611752D01*
X87907Y611636D01*
X87752Y611525D01*
X87728Y611501D01*
X87701Y611480D01*
X87572Y611340D01*
X87438Y611203D01*
X87419Y611174D01*
X87395Y611149D01*
X87293Y610988D01*
X87186Y610830D01*
X87172Y610798D01*
X87154Y610769D01*
X87081Y610592D01*
X87004Y610418D01*
X86996Y610384D01*
X86983Y610352D01*
X86943Y610166D01*
X86897Y609980D01*
X86895Y609946D01*
X86888Y609912D01*
X86869Y609600D01*
X86872Y609565D01*
X86870Y609531D01*
X86892Y609341D01*
X86909Y609151D01*
X86918Y609118D01*
X86922Y609084D01*
X86977Y608901D01*
X87027Y608717D01*
X87042Y608686D01*
X87052Y608653D01*
X87139Y608482D01*
X87221Y608310D01*
X87241Y608282D01*
X87256Y608251D01*
X87372Y608099D01*
X87483Y607944D01*
X87508Y607920D01*
X87528Y607892D01*
X87668Y607763D01*
X87805Y607630D01*
X87834Y607611D01*
X87860Y607587D01*
X88021Y607485D01*
X88178Y607378D01*
X88210Y607364D01*
X88239Y607345D01*
X88416Y607273D01*
X88590Y607196D01*
X88624Y607188D01*
X88656Y607175D01*
X88843Y607134D01*
X89028Y607089D01*
X89062Y607087D01*
X89096Y607080D01*
X89408Y607061D01*
X98553Y607061D01*
X98553Y605602D01*
X92898Y599947D01*
X89408Y599947D01*
X89373Y599944D01*
X89339Y599946D01*
X89150Y599924D01*
X88959Y599907D01*
X88926Y599898D01*
X88892Y599894D01*
X88709Y599839D01*
X88525Y599789D01*
X88494Y599774D01*
X88461Y599764D01*
X88290Y599677D01*
X88118Y599595D01*
X88090Y599575D01*
X88059Y599560D01*
X87907Y599444D01*
X87752Y599333D01*
X87728Y599308D01*
X87701Y599288D01*
X87572Y599148D01*
X87438Y599011D01*
X87419Y598982D01*
X87395Y598956D01*
X87293Y598795D01*
X87186Y598638D01*
X87172Y598606D01*
X87154Y598577D01*
X87081Y598400D01*
X87004Y598226D01*
X86996Y598192D01*
X86983Y598160D01*
X86943Y597973D01*
X86897Y597788D01*
X86895Y597754D01*
X86888Y597720D01*
X86869Y597408D01*
X86869Y596392D01*
X86872Y596357D01*
X86870Y596323D01*
X86892Y596134D01*
X86909Y595943D01*
X86918Y595910D01*
X86922Y595876D01*
X86977Y595693D01*
X87027Y595509D01*
X87042Y595478D01*
X87052Y595445D01*
X87139Y595274D01*
X87221Y595102D01*
X87241Y595074D01*
X87256Y595043D01*
X87372Y594891D01*
X87483Y594736D01*
X87508Y594712D01*
X87528Y594685D01*
X87668Y594556D01*
X87805Y594422D01*
X87834Y594403D01*
X87860Y594379D01*
X88021Y594277D01*
X88178Y594170D01*
X88210Y594156D01*
X88239Y594138D01*
X88416Y594065D01*
X88590Y593988D01*
X88624Y593980D01*
X88656Y593967D01*
X88843Y593927D01*
X89028Y593881D01*
X89062Y593879D01*
X89096Y593872D01*
X89408Y593853D01*
X92898Y593853D01*
X98553Y588198D01*
X98553Y586739D01*
X89408Y586739D01*
X89373Y586736D01*
X89339Y586738D01*
X89150Y586716D01*
X88959Y586699D01*
X88926Y586690D01*
X88892Y586686D01*
X88709Y586631D01*
X88525Y586581D01*
X88494Y586566D01*
X88461Y586556D01*
X88290Y586469D01*
X88118Y586388D01*
X88090Y586367D01*
X88059Y586352D01*
X87907Y586236D01*
X87752Y586125D01*
X87728Y586101D01*
X87701Y586080D01*
X87571Y585939D01*
X87438Y585803D01*
X87419Y585774D01*
X87395Y585749D01*
X87293Y585588D01*
X87186Y585430D01*
X87172Y585398D01*
X87154Y585369D01*
X87081Y585192D01*
X87004Y585018D01*
X86996Y584984D01*
X86983Y584952D01*
X86943Y584766D01*
X86897Y584580D01*
X86895Y584546D01*
X86888Y584512D01*
X86869Y584200D01*
X86872Y584165D01*
X86870Y584131D01*
X86892Y583941D01*
X86909Y583751D01*
X86918Y583718D01*
X86922Y583684D01*
X86977Y583501D01*
X87027Y583317D01*
X87042Y583286D01*
X87052Y583253D01*
X87139Y583082D01*
X87221Y582910D01*
X87241Y582882D01*
X87256Y582851D01*
X87372Y582699D01*
X87483Y582544D01*
X87508Y582520D01*
X87528Y582492D01*
X87668Y582363D01*
X87805Y582230D01*
X87834Y582211D01*
X87860Y582187D01*
X88021Y582085D01*
X88178Y581978D01*
X88210Y581964D01*
X88239Y581945D01*
X88416Y581873D01*
X88590Y581796D01*
X88624Y581788D01*
X88656Y581775D01*
X88843Y581734D01*
X89028Y581689D01*
X89062Y581687D01*
X89096Y581680D01*
X89408Y581661D01*
X98553Y581661D01*
X98553Y580202D01*
X98505Y580154D01*
X98421Y580054D01*
X98330Y579961D01*
X98277Y579881D01*
X98216Y579808D01*
X98151Y579695D01*
X98078Y579588D01*
X98040Y579500D01*
X97992Y579417D01*
X97949Y579295D01*
X97896Y579176D01*
X97873Y579083D01*
X97841Y578993D01*
X97820Y578865D01*
X97789Y578738D01*
X97784Y578643D01*
X97768Y578549D01*
X97770Y578419D01*
X97762Y578289D01*
X97773Y578194D01*
X97774Y578099D01*
X97799Y577971D01*
X97814Y577842D01*
X97841Y577750D01*
X97860Y577656D01*
X97906Y577535D01*
X97944Y577411D01*
X97987Y577326D01*
X98022Y577236D01*
X98089Y577125D01*
X98148Y577009D01*
X98206Y576933D01*
X98256Y576852D01*
X98342Y576754D01*
X98420Y576651D01*
X98491Y576586D01*
X98554Y576514D01*
X98656Y576434D01*
X98752Y576345D01*
X98832Y576294D01*
X98907Y576235D01*
X99021Y576174D01*
X99131Y576104D01*
X99220Y576067D01*
X99304Y576022D01*
X99428Y575982D01*
X99548Y575933D01*
X99641Y575913D01*
X99732Y575883D01*
X99861Y575865D01*
X99988Y575838D01*
X100118Y575830D01*
X100178Y575822D01*
X100223Y575823D01*
X100300Y575819D01*
X406263Y575819D01*
X406392Y575830D01*
G37*
G36*
X419169Y227612D02*
X419169Y227612D01*
X419359Y227615D01*
X419394Y227621D01*
X419428Y227623D01*
X419614Y227664D01*
X419802Y227700D01*
X419834Y227713D01*
X419868Y227720D01*
X420044Y227794D01*
X420222Y227863D01*
X420251Y227881D01*
X420283Y227894D01*
X420444Y227998D01*
X420606Y228097D01*
X420632Y228119D01*
X420661Y228138D01*
X420896Y228345D01*
X422447Y229897D01*
X428516Y232411D01*
X432171Y232411D01*
X432335Y232425D01*
X432499Y232432D01*
X432559Y232445D01*
X432620Y232451D01*
X432778Y232494D01*
X432939Y232530D01*
X432995Y232553D01*
X433054Y232569D01*
X433202Y232640D01*
X433354Y232703D01*
X433406Y232736D01*
X433461Y232763D01*
X433594Y232858D01*
X433732Y232948D01*
X433790Y232999D01*
X433827Y233025D01*
X433869Y233068D01*
X433967Y233154D01*
X471188Y270375D01*
X471293Y270502D01*
X471405Y270623D01*
X471437Y270674D01*
X471476Y270721D01*
X471558Y270863D01*
X471646Y271002D01*
X471670Y271059D01*
X471700Y271112D01*
X471755Y271267D01*
X471817Y271419D01*
X471830Y271478D01*
X471851Y271536D01*
X471877Y271698D01*
X471912Y271859D01*
X471917Y271936D01*
X471924Y271980D01*
X471923Y272041D01*
X471931Y272171D01*
X471931Y278367D01*
X471917Y278531D01*
X471910Y278695D01*
X471897Y278755D01*
X471891Y278816D01*
X471848Y278975D01*
X471812Y279135D01*
X471789Y279191D01*
X471773Y279250D01*
X471702Y279399D01*
X471639Y279550D01*
X471606Y279602D01*
X471579Y279657D01*
X471484Y279790D01*
X471394Y279929D01*
X471343Y279986D01*
X471317Y280023D01*
X471274Y280065D01*
X471188Y280163D01*
X468603Y282747D01*
X468502Y282990D01*
X468464Y283063D01*
X468434Y283140D01*
X468360Y283262D01*
X468294Y283389D01*
X468243Y283454D01*
X468201Y283525D01*
X468106Y283632D01*
X468018Y283745D01*
X467957Y283800D01*
X467902Y283862D01*
X467790Y283951D01*
X467684Y284047D01*
X467614Y284090D01*
X467549Y284142D01*
X467423Y284209D01*
X467302Y284285D01*
X467225Y284315D01*
X467152Y284354D01*
X467016Y284398D01*
X466883Y284451D01*
X466803Y284468D01*
X466724Y284493D01*
X466582Y284513D01*
X466442Y284541D01*
X466360Y284543D01*
X466278Y284555D01*
X466135Y284549D01*
X465992Y284552D01*
X465910Y284540D01*
X465828Y284536D01*
X465689Y284505D01*
X465547Y284483D01*
X465469Y284457D01*
X465389Y284439D01*
X465257Y284384D01*
X465121Y284337D01*
X465049Y284297D01*
X464973Y284265D01*
X464853Y284187D01*
X464728Y284118D01*
X464664Y284065D01*
X464595Y284021D01*
X464411Y283858D01*
X464380Y283832D01*
X464373Y283824D01*
X464361Y283814D01*
X464316Y283769D01*
X462925Y282758D01*
X461393Y281978D01*
X459993Y281523D01*
X459993Y291846D01*
X459990Y291880D01*
X459992Y291915D01*
X459975Y292062D01*
X459993Y292354D01*
X459993Y302677D01*
X461393Y302222D01*
X462925Y301442D01*
X464316Y300431D01*
X464361Y300386D01*
X464424Y300333D01*
X464481Y300274D01*
X464596Y300189D01*
X464706Y300097D01*
X464778Y300056D01*
X464844Y300008D01*
X464973Y299945D01*
X465097Y299874D01*
X465175Y299846D01*
X465249Y299810D01*
X465386Y299771D01*
X465521Y299723D01*
X465603Y299710D01*
X465682Y299687D01*
X465824Y299673D01*
X465966Y299650D01*
X466048Y299651D01*
X466130Y299643D01*
X466273Y299654D01*
X466416Y299656D01*
X466497Y299671D01*
X466579Y299678D01*
X466717Y299714D01*
X466858Y299741D01*
X466935Y299771D01*
X467015Y299792D01*
X467144Y299852D01*
X467278Y299903D01*
X467348Y299946D01*
X467423Y299981D01*
X467540Y300063D01*
X467663Y300137D01*
X467724Y300192D01*
X467792Y300239D01*
X467893Y300341D01*
X468000Y300436D01*
X468051Y300500D01*
X468109Y300559D01*
X468191Y300676D01*
X468279Y300789D01*
X468318Y300861D01*
X468365Y300929D01*
X468473Y301150D01*
X468492Y301185D01*
X468495Y301196D01*
X468502Y301210D01*
X468603Y301453D01*
X471188Y304037D01*
X471293Y304163D01*
X471405Y304284D01*
X471437Y304336D01*
X471476Y304383D01*
X471558Y304525D01*
X471646Y304664D01*
X471670Y304721D01*
X471700Y304774D01*
X471755Y304929D01*
X471817Y305081D01*
X471830Y305140D01*
X471851Y305198D01*
X471877Y305360D01*
X471912Y305521D01*
X471917Y305598D01*
X471924Y305642D01*
X471923Y305703D01*
X471931Y305833D01*
X471931Y324231D01*
X471928Y324266D01*
X471930Y324300D01*
X471908Y324489D01*
X471891Y324680D01*
X471882Y324713D01*
X471878Y324747D01*
X471823Y324930D01*
X471773Y325114D01*
X471758Y325145D01*
X471748Y325178D01*
X471661Y325349D01*
X471579Y325521D01*
X471559Y325549D01*
X471544Y325580D01*
X471428Y325732D01*
X471317Y325887D01*
X471292Y325911D01*
X471272Y325938D01*
X471132Y326067D01*
X470995Y326201D01*
X470966Y326220D01*
X470940Y326244D01*
X470779Y326346D01*
X470622Y326453D01*
X470590Y326467D01*
X470561Y326485D01*
X470384Y326558D01*
X470210Y326635D01*
X470176Y326643D01*
X470144Y326656D01*
X469957Y326696D01*
X469772Y326742D01*
X469738Y326744D01*
X469704Y326751D01*
X469392Y326770D01*
X466692Y326770D01*
X460763Y329226D01*
X456226Y333763D01*
X455936Y334463D01*
X455898Y334536D01*
X455868Y334613D01*
X455794Y334735D01*
X455728Y334862D01*
X455677Y334927D01*
X455634Y334997D01*
X455540Y335105D01*
X455452Y335218D01*
X455391Y335273D01*
X455336Y335335D01*
X455224Y335423D01*
X455118Y335519D01*
X455048Y335563D01*
X454983Y335614D01*
X454857Y335682D01*
X454735Y335757D01*
X454659Y335788D01*
X454586Y335827D01*
X454450Y335871D01*
X454317Y335924D01*
X454236Y335940D01*
X454158Y335966D01*
X454016Y335985D01*
X453876Y336014D01*
X453794Y336016D01*
X453712Y336027D01*
X453569Y336021D01*
X453426Y336025D01*
X453345Y336012D01*
X453262Y336009D01*
X453122Y335978D01*
X452981Y335956D01*
X452903Y335929D01*
X452822Y335911D01*
X452690Y335856D01*
X452555Y335810D01*
X452483Y335769D01*
X452407Y335738D01*
X452287Y335660D01*
X452162Y335590D01*
X452098Y335538D01*
X452029Y335493D01*
X451844Y335330D01*
X451813Y335305D01*
X451806Y335297D01*
X451795Y335286D01*
X448867Y332358D01*
X447039Y332358D01*
X447039Y342900D01*
X447039Y353442D01*
X448867Y353442D01*
X451795Y350514D01*
X451858Y350461D01*
X451915Y350401D01*
X452030Y350316D01*
X452140Y350225D01*
X452212Y350184D01*
X452278Y350135D01*
X452407Y350072D01*
X452531Y350001D01*
X452609Y349974D01*
X452683Y349938D01*
X452820Y349898D01*
X452955Y349850D01*
X453037Y349837D01*
X453116Y349815D01*
X453258Y349800D01*
X453399Y349777D01*
X453482Y349778D01*
X453564Y349770D01*
X453707Y349781D01*
X453850Y349783D01*
X453931Y349799D01*
X454013Y349805D01*
X454151Y349841D01*
X454292Y349869D01*
X454369Y349898D01*
X454448Y349919D01*
X454578Y349979D01*
X454712Y350031D01*
X454782Y350074D01*
X454857Y350108D01*
X454974Y350191D01*
X455097Y350265D01*
X455158Y350319D01*
X455226Y350367D01*
X455327Y350468D01*
X455434Y350563D01*
X455485Y350628D01*
X455543Y350686D01*
X455624Y350804D01*
X455713Y350916D01*
X455752Y350989D01*
X455799Y351057D01*
X455907Y351278D01*
X455926Y351313D01*
X455929Y351323D01*
X455936Y351337D01*
X456226Y352037D01*
X458488Y354298D01*
X458593Y354424D01*
X458705Y354545D01*
X458737Y354597D01*
X458776Y354644D01*
X458858Y354786D01*
X458946Y354925D01*
X458970Y354982D01*
X459000Y355035D01*
X459055Y355190D01*
X459117Y355342D01*
X459130Y355401D01*
X459151Y355459D01*
X459177Y355621D01*
X459212Y355782D01*
X459217Y355859D01*
X459224Y355903D01*
X459223Y355964D01*
X459231Y356094D01*
X459231Y382482D01*
X459217Y382645D01*
X459210Y382810D01*
X459197Y382869D01*
X459191Y382930D01*
X459148Y383089D01*
X459112Y383249D01*
X459089Y383306D01*
X459073Y383365D01*
X459002Y383513D01*
X458939Y383665D01*
X458906Y383716D01*
X458879Y383771D01*
X458784Y383905D01*
X458694Y384043D01*
X458643Y384101D01*
X458617Y384137D01*
X458574Y384180D01*
X458488Y384277D01*
X455044Y387721D01*
X455018Y387743D01*
X454995Y387769D01*
X454846Y387886D01*
X454699Y388009D01*
X454669Y388027D01*
X454642Y388048D01*
X454474Y388138D01*
X454308Y388233D01*
X454275Y388244D01*
X454245Y388261D01*
X454063Y388320D01*
X453884Y388384D01*
X453849Y388389D01*
X453817Y388400D01*
X453628Y388426D01*
X453439Y388457D01*
X453405Y388457D01*
X453370Y388461D01*
X453180Y388454D01*
X452989Y388451D01*
X452955Y388444D01*
X452921Y388443D01*
X452735Y388402D01*
X452547Y388365D01*
X452515Y388353D01*
X452481Y388345D01*
X452305Y388272D01*
X452127Y388203D01*
X452098Y388185D01*
X452066Y388172D01*
X451905Y388068D01*
X451742Y387969D01*
X451716Y387946D01*
X451687Y387928D01*
X451453Y387721D01*
X448288Y384555D01*
X447039Y384555D01*
X447039Y393700D01*
X447039Y402845D01*
X448288Y402845D01*
X451453Y399679D01*
X451480Y399657D01*
X451503Y399631D01*
X451652Y399513D01*
X451799Y399391D01*
X451829Y399373D01*
X451856Y399352D01*
X452024Y399262D01*
X452190Y399167D01*
X452222Y399156D01*
X452253Y399139D01*
X452434Y399080D01*
X452614Y399016D01*
X452648Y399011D01*
X452681Y399000D01*
X452869Y398974D01*
X453058Y398943D01*
X453093Y398943D01*
X453127Y398939D01*
X453317Y398946D01*
X453508Y398949D01*
X453542Y398956D01*
X453577Y398957D01*
X453763Y398998D01*
X453950Y399035D01*
X453983Y399047D01*
X454016Y399055D01*
X454192Y399128D01*
X454370Y399197D01*
X454400Y399215D01*
X454432Y399228D01*
X454592Y399331D01*
X454755Y399431D01*
X454781Y399454D01*
X454810Y399472D01*
X455044Y399679D01*
X458488Y403123D01*
X458593Y403249D01*
X458705Y403370D01*
X458737Y403421D01*
X458776Y403468D01*
X458858Y403611D01*
X458946Y403750D01*
X458970Y403806D01*
X459000Y403859D01*
X459055Y404014D01*
X459117Y404166D01*
X459130Y404226D01*
X459151Y404283D01*
X459177Y404446D01*
X459212Y404606D01*
X459217Y404683D01*
X459224Y404728D01*
X459223Y404789D01*
X459231Y404918D01*
X459231Y413629D01*
X459226Y413684D01*
X459227Y413701D01*
X459217Y413792D01*
X459217Y413793D01*
X459210Y413957D01*
X459197Y414017D01*
X459191Y414078D01*
X459178Y414128D01*
X459175Y414148D01*
X459146Y414244D01*
X459112Y414397D01*
X459089Y414453D01*
X459073Y414512D01*
X459052Y414555D01*
X459045Y414579D01*
X458996Y414676D01*
X458939Y414812D01*
X458906Y414864D01*
X458879Y414919D01*
X458854Y414954D01*
X458841Y414981D01*
X458769Y415075D01*
X458694Y415190D01*
X458643Y415248D01*
X458617Y415285D01*
X458590Y415312D01*
X458569Y415339D01*
X458538Y415368D01*
X458488Y415425D01*
X458485Y415428D01*
X458384Y415512D01*
X458295Y415599D01*
X458267Y415617D01*
X458237Y415645D01*
X458186Y415677D01*
X458139Y415716D01*
X458017Y415786D01*
X457922Y415851D01*
X457895Y415862D01*
X457858Y415886D01*
X457801Y415910D01*
X457748Y415940D01*
X457607Y415990D01*
X457510Y416033D01*
X457487Y416039D01*
X457441Y416057D01*
X457382Y416070D01*
X457324Y416091D01*
X457167Y416117D01*
X457072Y416140D01*
X457053Y416141D01*
X457001Y416152D01*
X456924Y416157D01*
X456880Y416164D01*
X456819Y416163D01*
X456689Y416171D01*
X454091Y416171D01*
X448347Y418551D01*
X443951Y422947D01*
X443672Y423619D01*
X443634Y423692D01*
X443604Y423769D01*
X443530Y423891D01*
X443464Y424018D01*
X443413Y424083D01*
X443370Y424154D01*
X443276Y424261D01*
X443188Y424374D01*
X443127Y424429D01*
X443072Y424491D01*
X442960Y424580D01*
X442854Y424676D01*
X442784Y424719D01*
X442719Y424770D01*
X442593Y424838D01*
X442471Y424914D01*
X442395Y424944D01*
X442322Y424983D01*
X442186Y425027D01*
X442053Y425080D01*
X441972Y425097D01*
X441894Y425122D01*
X441752Y425142D01*
X441612Y425170D01*
X441530Y425172D01*
X441448Y425184D01*
X441305Y425178D01*
X441162Y425181D01*
X441080Y425169D01*
X440998Y425165D01*
X440858Y425134D01*
X440717Y425112D01*
X440639Y425086D01*
X440559Y425068D01*
X440426Y425013D01*
X440291Y424966D01*
X440219Y424926D01*
X440143Y424894D01*
X440023Y424816D01*
X439898Y424747D01*
X439834Y424695D01*
X439765Y424650D01*
X439580Y424486D01*
X439549Y424461D01*
X439543Y424453D01*
X439531Y424443D01*
X392412Y377325D01*
X392307Y377198D01*
X392195Y377078D01*
X392163Y377026D01*
X392124Y376979D01*
X392042Y376837D01*
X391954Y376698D01*
X391930Y376641D01*
X391900Y376588D01*
X391845Y376433D01*
X391783Y376281D01*
X391770Y376222D01*
X391749Y376164D01*
X391723Y376002D01*
X391688Y375841D01*
X391683Y375764D01*
X391676Y375720D01*
X391677Y375659D01*
X391669Y375529D01*
X391669Y306849D01*
X391680Y306719D01*
X391682Y306589D01*
X391700Y306496D01*
X391709Y306400D01*
X391743Y306275D01*
X391768Y306147D01*
X391802Y306058D01*
X391827Y305966D01*
X391883Y305848D01*
X391930Y305727D01*
X391980Y305645D01*
X392021Y305559D01*
X392096Y305454D01*
X392164Y305342D01*
X392227Y305271D01*
X392283Y305193D01*
X392376Y305102D01*
X392462Y305005D01*
X392537Y304946D01*
X392605Y304879D01*
X392713Y304806D01*
X392815Y304726D01*
X392899Y304680D01*
X392978Y304627D01*
X393097Y304574D01*
X393212Y304513D01*
X393303Y304483D01*
X393390Y304445D01*
X393517Y304414D01*
X393640Y304374D01*
X393735Y304361D01*
X393828Y304338D01*
X393957Y304330D01*
X394086Y304312D01*
X394182Y304316D01*
X394277Y304310D01*
X394406Y304325D01*
X394536Y304331D01*
X394629Y304351D01*
X394724Y304362D01*
X394849Y304400D01*
X394976Y304428D01*
X395064Y304465D01*
X395155Y304493D01*
X395271Y304552D01*
X395391Y304602D01*
X395471Y304654D01*
X395557Y304697D01*
X395660Y304776D01*
X395769Y304846D01*
X395867Y304932D01*
X395915Y304969D01*
X395946Y305002D01*
X396004Y305053D01*
X397047Y306097D01*
X403116Y308611D01*
X409684Y308611D01*
X415753Y306097D01*
X417304Y304545D01*
X417331Y304523D01*
X417354Y304497D01*
X417503Y304379D01*
X417650Y304256D01*
X417680Y304239D01*
X417707Y304218D01*
X417875Y304127D01*
X418041Y304033D01*
X418073Y304021D01*
X418104Y304005D01*
X418285Y303946D01*
X418465Y303882D01*
X418499Y303876D01*
X418532Y303866D01*
X418721Y303840D01*
X418909Y303809D01*
X418944Y303809D01*
X418978Y303804D01*
X419169Y303812D01*
X419360Y303815D01*
X419394Y303821D01*
X419428Y303823D01*
X419614Y303864D01*
X419802Y303900D01*
X419834Y303913D01*
X419868Y303920D01*
X420043Y303994D01*
X420222Y304063D01*
X420251Y304081D01*
X420283Y304094D01*
X420443Y304197D01*
X420606Y304297D01*
X420632Y304319D01*
X420661Y304338D01*
X420896Y304545D01*
X422447Y306097D01*
X428516Y308611D01*
X435084Y308611D01*
X441153Y306097D01*
X445797Y301453D01*
X445898Y301210D01*
X445936Y301137D01*
X445966Y301060D01*
X446040Y300938D01*
X446106Y300811D01*
X446157Y300746D01*
X446199Y300675D01*
X446294Y300568D01*
X446382Y300455D01*
X446443Y300400D01*
X446498Y300338D01*
X446610Y300249D01*
X446716Y300153D01*
X446786Y300110D01*
X446851Y300058D01*
X446977Y299991D01*
X447098Y299915D01*
X447175Y299885D01*
X447248Y299846D01*
X447384Y299802D01*
X447517Y299749D01*
X447597Y299732D01*
X447676Y299707D01*
X447818Y299687D01*
X447958Y299659D01*
X448040Y299657D01*
X448122Y299645D01*
X448265Y299651D01*
X448408Y299648D01*
X448490Y299660D01*
X448572Y299664D01*
X448711Y299695D01*
X448853Y299717D01*
X448931Y299743D01*
X449011Y299761D01*
X449143Y299816D01*
X449279Y299863D01*
X449351Y299903D01*
X449427Y299935D01*
X449547Y300013D01*
X449672Y300082D01*
X449736Y300135D01*
X449805Y300179D01*
X449989Y300342D01*
X450020Y300368D01*
X450027Y300376D01*
X450039Y300386D01*
X450084Y300431D01*
X451475Y301442D01*
X453007Y302222D01*
X454407Y302677D01*
X454407Y292354D01*
X454410Y292320D01*
X454408Y292285D01*
X454425Y292138D01*
X454407Y291846D01*
X454407Y281523D01*
X453007Y281978D01*
X451475Y282758D01*
X450084Y283769D01*
X450039Y283814D01*
X449976Y283867D01*
X449919Y283926D01*
X449804Y284011D01*
X449694Y284103D01*
X449622Y284144D01*
X449556Y284192D01*
X449427Y284255D01*
X449303Y284326D01*
X449225Y284354D01*
X449151Y284390D01*
X449014Y284429D01*
X448879Y284477D01*
X448797Y284490D01*
X448718Y284513D01*
X448576Y284527D01*
X448434Y284550D01*
X448352Y284549D01*
X448270Y284557D01*
X448127Y284546D01*
X447984Y284544D01*
X447903Y284529D01*
X447821Y284522D01*
X447683Y284486D01*
X447542Y284459D01*
X447465Y284429D01*
X447385Y284408D01*
X447256Y284348D01*
X447122Y284297D01*
X447052Y284254D01*
X446977Y284219D01*
X446860Y284137D01*
X446737Y284063D01*
X446676Y284008D01*
X446608Y283961D01*
X446507Y283859D01*
X446400Y283764D01*
X446349Y283700D01*
X446291Y283641D01*
X446209Y283524D01*
X446121Y283411D01*
X446082Y283339D01*
X446035Y283271D01*
X445927Y283050D01*
X445908Y283015D01*
X445905Y283004D01*
X445898Y282990D01*
X445797Y282747D01*
X441153Y278103D01*
X435084Y275589D01*
X428516Y275589D01*
X422447Y278103D01*
X420896Y279655D01*
X420869Y279677D01*
X420846Y279703D01*
X420697Y279821D01*
X420550Y279944D01*
X420520Y279961D01*
X420493Y279982D01*
X420325Y280072D01*
X420159Y280167D01*
X420127Y280179D01*
X420096Y280195D01*
X419915Y280254D01*
X419735Y280318D01*
X419701Y280324D01*
X419668Y280334D01*
X419479Y280360D01*
X419291Y280391D01*
X419256Y280391D01*
X419222Y280396D01*
X419031Y280388D01*
X418841Y280385D01*
X418806Y280379D01*
X418772Y280377D01*
X418586Y280336D01*
X418398Y280300D01*
X418366Y280287D01*
X418332Y280280D01*
X418156Y280206D01*
X417978Y280137D01*
X417949Y280119D01*
X417917Y280106D01*
X417756Y280002D01*
X417594Y279903D01*
X417568Y279881D01*
X417539Y279862D01*
X417304Y279655D01*
X415753Y278103D01*
X409684Y275589D01*
X403116Y275589D01*
X397047Y278103D01*
X395496Y279655D01*
X395469Y279677D01*
X395446Y279703D01*
X395297Y279821D01*
X395150Y279944D01*
X395120Y279961D01*
X395093Y279982D01*
X394925Y280072D01*
X394759Y280167D01*
X394727Y280179D01*
X394696Y280195D01*
X394515Y280254D01*
X394335Y280318D01*
X394301Y280324D01*
X394268Y280334D01*
X394079Y280360D01*
X393891Y280391D01*
X393856Y280391D01*
X393822Y280396D01*
X393631Y280388D01*
X393441Y280385D01*
X393406Y280379D01*
X393372Y280377D01*
X393186Y280336D01*
X392998Y280300D01*
X392966Y280287D01*
X392932Y280280D01*
X392756Y280206D01*
X392578Y280137D01*
X392549Y280119D01*
X392517Y280106D01*
X392356Y280002D01*
X392194Y279903D01*
X392168Y279881D01*
X392139Y279862D01*
X391904Y279655D01*
X390353Y278103D01*
X384284Y275589D01*
X377716Y275589D01*
X371647Y278103D01*
X370096Y279655D01*
X370069Y279677D01*
X370046Y279703D01*
X369897Y279821D01*
X369750Y279944D01*
X369720Y279961D01*
X369693Y279982D01*
X369525Y280072D01*
X369359Y280167D01*
X369327Y280179D01*
X369296Y280195D01*
X369115Y280254D01*
X368935Y280318D01*
X368901Y280324D01*
X368868Y280334D01*
X368679Y280360D01*
X368491Y280391D01*
X368456Y280391D01*
X368422Y280396D01*
X368231Y280388D01*
X368041Y280385D01*
X368006Y280379D01*
X367972Y280377D01*
X367786Y280336D01*
X367598Y280300D01*
X367566Y280287D01*
X367532Y280280D01*
X367356Y280206D01*
X367178Y280137D01*
X367149Y280119D01*
X367117Y280106D01*
X366956Y280002D01*
X366794Y279903D01*
X366768Y279881D01*
X366739Y279862D01*
X366504Y279655D01*
X364953Y278103D01*
X358884Y275589D01*
X352316Y275589D01*
X346247Y278103D01*
X345204Y279147D01*
X345104Y279230D01*
X345011Y279321D01*
X344931Y279374D01*
X344858Y279436D01*
X344745Y279500D01*
X344638Y279573D01*
X344550Y279612D01*
X344467Y279659D01*
X344345Y279703D01*
X344226Y279755D01*
X344133Y279778D01*
X344043Y279810D01*
X343915Y279831D01*
X343788Y279862D01*
X343693Y279868D01*
X343599Y279883D01*
X343469Y279882D01*
X343339Y279890D01*
X343244Y279879D01*
X343148Y279877D01*
X343021Y279853D01*
X342892Y279838D01*
X342800Y279810D01*
X342706Y279792D01*
X342585Y279745D01*
X342461Y279707D01*
X342375Y279664D01*
X342286Y279629D01*
X342175Y279562D01*
X342059Y279503D01*
X341983Y279445D01*
X341902Y279396D01*
X341804Y279309D01*
X341701Y279231D01*
X341636Y279161D01*
X341564Y279097D01*
X341484Y278995D01*
X341395Y278900D01*
X341344Y278819D01*
X341285Y278744D01*
X341223Y278630D01*
X341154Y278520D01*
X341117Y278432D01*
X341072Y278347D01*
X341032Y278224D01*
X340983Y278103D01*
X340963Y278010D01*
X340933Y277919D01*
X340915Y277791D01*
X340888Y277663D01*
X340880Y277533D01*
X340872Y277473D01*
X340873Y277428D01*
X340869Y277351D01*
X340869Y277278D01*
X339245Y273357D01*
X323543Y257655D01*
X321608Y256854D01*
X321451Y256772D01*
X321290Y256695D01*
X321252Y256668D01*
X321209Y256645D01*
X321069Y256537D01*
X320924Y256433D01*
X320891Y256399D01*
X320853Y256370D01*
X320734Y256238D01*
X320610Y256111D01*
X320584Y256071D01*
X320552Y256035D01*
X320458Y255885D01*
X320358Y255738D01*
X320339Y255694D01*
X320314Y255653D01*
X320248Y255488D01*
X320176Y255326D01*
X320165Y255279D01*
X320147Y255235D01*
X320111Y255061D01*
X320069Y254888D01*
X320066Y254841D01*
X320057Y254794D01*
X320053Y254616D01*
X320042Y254439D01*
X320047Y254391D01*
X320046Y254344D01*
X320073Y254168D01*
X320094Y253992D01*
X320108Y253946D01*
X320115Y253899D01*
X320173Y253731D01*
X320224Y253561D01*
X320246Y253518D01*
X320261Y253473D01*
X320348Y253318D01*
X320428Y253159D01*
X320457Y253121D01*
X320481Y253080D01*
X320593Y252942D01*
X320700Y252801D01*
X320736Y252768D01*
X320766Y252731D01*
X320901Y252616D01*
X321032Y252495D01*
X321072Y252470D01*
X321108Y252439D01*
X321261Y252349D01*
X321411Y252254D01*
X321456Y252235D01*
X321497Y252211D01*
X321663Y252150D01*
X321828Y252083D01*
X321875Y252073D01*
X321919Y252056D01*
X322094Y252025D01*
X322268Y251988D01*
X322327Y251984D01*
X322363Y251978D01*
X322426Y251978D01*
X322580Y251969D01*
X332322Y251969D01*
X336243Y250345D01*
X353433Y233154D01*
X353560Y233049D01*
X353680Y232937D01*
X353732Y232905D01*
X353779Y232866D01*
X353921Y232784D01*
X354060Y232696D01*
X354117Y232672D01*
X354170Y232642D01*
X354325Y232587D01*
X354477Y232525D01*
X354536Y232512D01*
X354594Y232491D01*
X354756Y232465D01*
X354917Y232430D01*
X354994Y232425D01*
X355038Y232418D01*
X355099Y232419D01*
X355229Y232411D01*
X358884Y232411D01*
X364953Y229897D01*
X366504Y228345D01*
X366531Y228323D01*
X366554Y228297D01*
X366703Y228179D01*
X366850Y228056D01*
X366880Y228039D01*
X366907Y228018D01*
X367075Y227928D01*
X367241Y227833D01*
X367273Y227821D01*
X367304Y227805D01*
X367485Y227746D01*
X367665Y227682D01*
X367699Y227676D01*
X367732Y227666D01*
X367921Y227640D01*
X368109Y227609D01*
X368144Y227609D01*
X368178Y227604D01*
X368369Y227612D01*
X368559Y227615D01*
X368594Y227621D01*
X368628Y227623D01*
X368814Y227664D01*
X369002Y227700D01*
X369034Y227713D01*
X369068Y227720D01*
X369244Y227794D01*
X369422Y227863D01*
X369451Y227881D01*
X369483Y227894D01*
X369644Y227998D01*
X369806Y228097D01*
X369832Y228119D01*
X369861Y228138D01*
X370096Y228345D01*
X371647Y229897D01*
X377716Y232411D01*
X384284Y232411D01*
X390353Y229897D01*
X391904Y228345D01*
X391931Y228323D01*
X391954Y228297D01*
X392103Y228179D01*
X392250Y228056D01*
X392280Y228039D01*
X392307Y228018D01*
X392475Y227928D01*
X392641Y227833D01*
X392673Y227821D01*
X392704Y227805D01*
X392885Y227746D01*
X393065Y227682D01*
X393099Y227676D01*
X393132Y227666D01*
X393321Y227640D01*
X393509Y227609D01*
X393544Y227609D01*
X393578Y227604D01*
X393769Y227612D01*
X393959Y227615D01*
X393994Y227621D01*
X394028Y227623D01*
X394214Y227664D01*
X394402Y227700D01*
X394434Y227713D01*
X394468Y227720D01*
X394644Y227794D01*
X394822Y227863D01*
X394851Y227881D01*
X394883Y227894D01*
X395044Y227998D01*
X395206Y228097D01*
X395232Y228119D01*
X395261Y228138D01*
X395496Y228345D01*
X397047Y229897D01*
X403116Y232411D01*
X409684Y232411D01*
X415753Y229897D01*
X417304Y228345D01*
X417331Y228323D01*
X417354Y228297D01*
X417503Y228179D01*
X417650Y228056D01*
X417680Y228039D01*
X417707Y228018D01*
X417875Y227928D01*
X418041Y227833D01*
X418073Y227821D01*
X418104Y227805D01*
X418285Y227746D01*
X418465Y227682D01*
X418499Y227676D01*
X418532Y227666D01*
X418721Y227640D01*
X418909Y227609D01*
X418944Y227609D01*
X418978Y227604D01*
X419169Y227612D01*
G37*
%LPC*%
G36*
X167656Y700339D02*
X167656Y700339D01*
X161002Y702122D01*
X155037Y705566D01*
X150166Y710437D01*
X146722Y716402D01*
X144939Y723056D01*
X144939Y729944D01*
X146722Y736598D01*
X150166Y742563D01*
X155037Y747434D01*
X161002Y750878D01*
X167656Y752661D01*
X174544Y752661D01*
X181198Y750878D01*
X187163Y747434D01*
X192034Y742563D01*
X195478Y736598D01*
X197261Y729944D01*
X197261Y723056D01*
X195478Y716402D01*
X192034Y710437D01*
X187163Y705566D01*
X181198Y702122D01*
X174544Y700339D01*
X167656Y700339D01*
G37*
%LPD*%
%LPC*%
G36*
X50159Y433039D02*
X50159Y433039D01*
X44014Y434686D01*
X38505Y437867D01*
X34007Y442365D01*
X30826Y447874D01*
X29179Y454019D01*
X29179Y460381D01*
X30826Y466526D01*
X34007Y472035D01*
X38505Y476533D01*
X44014Y479714D01*
X50159Y481361D01*
X56521Y481361D01*
X62666Y479714D01*
X68175Y476533D01*
X72673Y472035D01*
X75854Y466526D01*
X77501Y460381D01*
X77501Y454019D01*
X75854Y447874D01*
X72673Y442365D01*
X68175Y437867D01*
X62666Y434686D01*
X56521Y433039D01*
X50159Y433039D01*
G37*
%LPD*%
%LPC*%
G36*
X87994Y22771D02*
X87994Y22771D01*
X81331Y25531D01*
X76231Y30631D01*
X73471Y37294D01*
X73471Y44506D01*
X76231Y51169D01*
X81331Y56269D01*
X87994Y59029D01*
X115206Y59029D01*
X121869Y56269D01*
X126969Y51169D01*
X129729Y44506D01*
X129729Y37294D01*
X126969Y30631D01*
X121869Y25531D01*
X115206Y22771D01*
X87994Y22771D01*
G37*
%LPD*%
%LPC*%
G36*
X261535Y50545D02*
X261535Y50545D01*
X255747Y52943D01*
X251317Y57373D01*
X248919Y63161D01*
X248919Y69427D01*
X251317Y75215D01*
X255747Y79645D01*
X261535Y82043D01*
X283041Y82043D01*
X288829Y79645D01*
X293259Y75215D01*
X295657Y69427D01*
X295657Y63161D01*
X293259Y57373D01*
X288829Y52943D01*
X283041Y50545D01*
X261535Y50545D01*
G37*
%LPD*%
%LPC*%
G36*
X604435Y50545D02*
X604435Y50545D01*
X598647Y52943D01*
X594217Y57373D01*
X591819Y63161D01*
X591819Y69427D01*
X594217Y75215D01*
X598647Y79645D01*
X604435Y82043D01*
X625941Y82043D01*
X631729Y79645D01*
X636159Y75215D01*
X638557Y69427D01*
X638557Y63161D01*
X636159Y57373D01*
X631729Y52943D01*
X625941Y50545D01*
X604435Y50545D01*
G37*
%LPD*%
%LPC*%
G36*
X490135Y50545D02*
X490135Y50545D01*
X484347Y52943D01*
X479917Y57373D01*
X477519Y63161D01*
X477519Y69427D01*
X479917Y75215D01*
X484347Y79645D01*
X490135Y82043D01*
X511641Y82043D01*
X517429Y79645D01*
X521859Y75215D01*
X524257Y69427D01*
X524257Y63161D01*
X521859Y57373D01*
X517429Y52943D01*
X511641Y50545D01*
X490135Y50545D01*
G37*
%LPD*%
%LPC*%
G36*
X375835Y50545D02*
X375835Y50545D01*
X370047Y52943D01*
X365617Y57373D01*
X363219Y63161D01*
X363219Y69427D01*
X365617Y75215D01*
X370047Y79645D01*
X375835Y82043D01*
X397341Y82043D01*
X403129Y79645D01*
X407559Y75215D01*
X409957Y69427D01*
X409957Y63161D01*
X407559Y57373D01*
X403129Y52943D01*
X397341Y50545D01*
X375835Y50545D01*
G37*
%LPD*%
%LPC*%
G36*
X669459Y95757D02*
X669459Y95757D01*
X663671Y98155D01*
X659241Y102585D01*
X656843Y108373D01*
X656843Y114639D01*
X659241Y120427D01*
X663671Y124857D01*
X669459Y127255D01*
X690965Y127255D01*
X696753Y124857D01*
X701183Y120427D01*
X703581Y114639D01*
X703581Y108373D01*
X701183Y102585D01*
X696753Y98155D01*
X690965Y95757D01*
X669459Y95757D01*
G37*
%LPD*%
%LPC*%
G36*
X74139Y91439D02*
X74139Y91439D01*
X74139Y111195D01*
X74537Y111132D01*
X76414Y110522D01*
X78173Y109626D01*
X79770Y108466D01*
X81166Y107070D01*
X82326Y105473D01*
X83222Y103714D01*
X83832Y101837D01*
X84141Y99887D01*
X84141Y91439D01*
X74139Y91439D01*
G37*
%LPD*%
%LPC*%
G36*
X74139Y86361D02*
X74139Y86361D01*
X84141Y86361D01*
X84141Y77913D01*
X83832Y75963D01*
X83222Y74086D01*
X82326Y72327D01*
X81166Y70730D01*
X79770Y69334D01*
X78173Y68174D01*
X76414Y67278D01*
X74537Y66668D01*
X74139Y66605D01*
X74139Y86361D01*
G37*
%LPD*%
%LPC*%
G36*
X59059Y91439D02*
X59059Y91439D01*
X59059Y99887D01*
X59368Y101837D01*
X59978Y103714D01*
X60874Y105473D01*
X62034Y107070D01*
X63430Y108466D01*
X65027Y109626D01*
X66786Y110522D01*
X68663Y111132D01*
X69061Y111195D01*
X69061Y91439D01*
X59059Y91439D01*
G37*
%LPD*%
%LPC*%
G36*
X68663Y66668D02*
X68663Y66668D01*
X66786Y67278D01*
X65027Y68174D01*
X63430Y69334D01*
X62034Y70730D01*
X60874Y72327D01*
X59978Y74086D01*
X59368Y75963D01*
X59059Y77913D01*
X59059Y86361D01*
X69061Y86361D01*
X69061Y66605D01*
X68663Y66668D01*
G37*
%LPD*%
%LPC*%
G36*
X942339Y777239D02*
X942339Y777239D01*
X942339Y792179D01*
X943700Y791736D01*
X945125Y791010D01*
X946419Y790070D01*
X947550Y788939D01*
X948490Y787645D01*
X949216Y786220D01*
X949711Y784699D01*
X949961Y783120D01*
X949961Y777239D01*
X942339Y777239D01*
G37*
%LPD*%
%LPC*%
G36*
X916939Y345439D02*
X916939Y345439D01*
X916939Y360379D01*
X918300Y359936D01*
X919725Y359210D01*
X921019Y358270D01*
X922150Y357139D01*
X923090Y355845D01*
X923816Y354420D01*
X924311Y352899D01*
X924561Y351320D01*
X924561Y345439D01*
X916939Y345439D01*
G37*
%LPD*%
%LPC*%
G36*
X339851Y68833D02*
X339851Y68833D01*
X339851Y76455D01*
X345732Y76455D01*
X347311Y76205D01*
X348832Y75710D01*
X350257Y74984D01*
X351551Y74044D01*
X352682Y72913D01*
X353622Y71619D01*
X354348Y70194D01*
X354791Y68833D01*
X339851Y68833D01*
G37*
%LPD*%
%LPC*%
G36*
X454151Y68833D02*
X454151Y68833D01*
X454151Y76455D01*
X460032Y76455D01*
X461611Y76205D01*
X463132Y75710D01*
X464557Y74984D01*
X465851Y74044D01*
X466982Y72913D01*
X467922Y71619D01*
X468648Y70194D01*
X469091Y68833D01*
X454151Y68833D01*
G37*
%LPD*%
%LPC*%
G36*
X568451Y68833D02*
X568451Y68833D01*
X568451Y76455D01*
X574332Y76455D01*
X575911Y76205D01*
X577432Y75710D01*
X578857Y74984D01*
X580151Y74044D01*
X581282Y72913D01*
X582222Y71619D01*
X582948Y70194D01*
X583391Y68833D01*
X568451Y68833D01*
G37*
%LPD*%
%LPC*%
G36*
X682751Y68833D02*
X682751Y68833D01*
X682751Y76455D01*
X688632Y76455D01*
X690211Y76205D01*
X691732Y75710D01*
X693157Y74984D01*
X694451Y74044D01*
X695582Y72913D01*
X696522Y71619D01*
X697248Y70194D01*
X697691Y68833D01*
X682751Y68833D01*
G37*
%LPD*%
%LPC*%
G36*
X319833Y68833D02*
X319833Y68833D01*
X320276Y70194D01*
X321002Y71619D01*
X321942Y72913D01*
X323073Y74044D01*
X324367Y74984D01*
X325792Y75710D01*
X327313Y76205D01*
X328892Y76455D01*
X334773Y76455D01*
X334773Y68833D01*
X319833Y68833D01*
G37*
%LPD*%
%LPC*%
G36*
X434133Y68833D02*
X434133Y68833D01*
X434576Y70194D01*
X435302Y71619D01*
X436242Y72913D01*
X437373Y74044D01*
X438667Y74984D01*
X440092Y75710D01*
X441613Y76205D01*
X443192Y76455D01*
X449073Y76455D01*
X449073Y68833D01*
X434133Y68833D01*
G37*
%LPD*%
%LPC*%
G36*
X548433Y68833D02*
X548433Y68833D01*
X548876Y70194D01*
X549602Y71619D01*
X550542Y72913D01*
X551673Y74044D01*
X552967Y74984D01*
X554392Y75710D01*
X555913Y76205D01*
X557492Y76455D01*
X563373Y76455D01*
X563373Y68833D01*
X548433Y68833D01*
G37*
%LPD*%
%LPC*%
G36*
X662733Y68833D02*
X662733Y68833D01*
X663176Y70194D01*
X663902Y71619D01*
X664842Y72913D01*
X665973Y74044D01*
X667267Y74984D01*
X668692Y75710D01*
X670213Y76205D01*
X671792Y76455D01*
X677673Y76455D01*
X677673Y68833D01*
X662733Y68833D01*
G37*
%LPD*%
%LPC*%
G36*
X942339Y772161D02*
X942339Y772161D01*
X949961Y772161D01*
X949961Y766280D01*
X949711Y764701D01*
X949216Y763180D01*
X948490Y761755D01*
X947550Y760461D01*
X946419Y759330D01*
X945125Y758390D01*
X943700Y757664D01*
X942339Y757221D01*
X942339Y772161D01*
G37*
%LPD*%
%LPC*%
G36*
X637539Y772161D02*
X637539Y772161D01*
X645161Y772161D01*
X645161Y766280D01*
X644911Y764701D01*
X644416Y763180D01*
X643690Y761755D01*
X642750Y760461D01*
X641619Y759330D01*
X640325Y758390D01*
X638900Y757664D01*
X637539Y757221D01*
X637539Y772161D01*
G37*
%LPD*%
%LPC*%
G36*
X840739Y772161D02*
X840739Y772161D01*
X848361Y772161D01*
X848361Y766280D01*
X848111Y764701D01*
X847616Y763180D01*
X846890Y761755D01*
X845950Y760461D01*
X844819Y759330D01*
X843525Y758390D01*
X842100Y757664D01*
X840739Y757221D01*
X840739Y772161D01*
G37*
%LPD*%
%LPC*%
G36*
X739139Y772161D02*
X739139Y772161D01*
X746761Y772161D01*
X746761Y766280D01*
X746511Y764701D01*
X746016Y763180D01*
X745290Y761755D01*
X744350Y760461D01*
X743219Y759330D01*
X741925Y758390D01*
X740500Y757664D01*
X739139Y757221D01*
X739139Y772161D01*
G37*
%LPD*%
%LPC*%
G36*
X916939Y340361D02*
X916939Y340361D01*
X924561Y340361D01*
X924561Y334480D01*
X924311Y332901D01*
X923816Y331380D01*
X923090Y329955D01*
X922150Y328661D01*
X921019Y327530D01*
X919725Y326590D01*
X918300Y325864D01*
X916939Y325421D01*
X916939Y340361D01*
G37*
%LPD*%
%LPC*%
G36*
X568451Y63755D02*
X568451Y63755D01*
X583391Y63755D01*
X582948Y62394D01*
X582222Y60969D01*
X581282Y59675D01*
X580151Y58544D01*
X578857Y57604D01*
X577432Y56878D01*
X575911Y56383D01*
X574332Y56133D01*
X568451Y56133D01*
X568451Y63755D01*
G37*
%LPD*%
%LPC*%
G36*
X339851Y63755D02*
X339851Y63755D01*
X354791Y63755D01*
X354348Y62394D01*
X353622Y60969D01*
X352682Y59675D01*
X351551Y58544D01*
X350257Y57604D01*
X348832Y56878D01*
X347311Y56383D01*
X345732Y56133D01*
X339851Y56133D01*
X339851Y63755D01*
G37*
%LPD*%
%LPC*%
G36*
X682751Y63755D02*
X682751Y63755D01*
X697691Y63755D01*
X697248Y62394D01*
X696522Y60969D01*
X695582Y59675D01*
X694451Y58544D01*
X693157Y57604D01*
X691732Y56878D01*
X690211Y56383D01*
X688632Y56133D01*
X682751Y56133D01*
X682751Y63755D01*
G37*
%LPD*%
%LPC*%
G36*
X454151Y63755D02*
X454151Y63755D01*
X469091Y63755D01*
X468648Y62394D01*
X467922Y60969D01*
X466982Y59675D01*
X465851Y58544D01*
X464557Y57604D01*
X463132Y56878D01*
X461611Y56383D01*
X460032Y56133D01*
X454151Y56133D01*
X454151Y63755D01*
G37*
%LPD*%
%LPC*%
G36*
X328892Y56133D02*
X328892Y56133D01*
X327313Y56383D01*
X325792Y56878D01*
X324367Y57604D01*
X323073Y58544D01*
X321942Y59675D01*
X321002Y60969D01*
X320276Y62394D01*
X319833Y63755D01*
X334773Y63755D01*
X334773Y56133D01*
X328892Y56133D01*
G37*
%LPD*%
%LPC*%
G36*
X671792Y56133D02*
X671792Y56133D01*
X670213Y56383D01*
X668692Y56878D01*
X667267Y57604D01*
X665973Y58544D01*
X664842Y59675D01*
X663902Y60969D01*
X663176Y62394D01*
X662733Y63755D01*
X677673Y63755D01*
X677673Y56133D01*
X671792Y56133D01*
G37*
%LPD*%
%LPC*%
G36*
X557492Y56133D02*
X557492Y56133D01*
X555913Y56383D01*
X554392Y56878D01*
X552967Y57604D01*
X551673Y58544D01*
X550542Y59675D01*
X549602Y60969D01*
X548876Y62394D01*
X548433Y63755D01*
X563373Y63755D01*
X563373Y56133D01*
X557492Y56133D01*
G37*
%LPD*%
%LPC*%
G36*
X443192Y56133D02*
X443192Y56133D01*
X441613Y56383D01*
X440092Y56878D01*
X438667Y57604D01*
X437373Y58544D01*
X436242Y59675D01*
X435302Y60969D01*
X434576Y62394D01*
X434133Y63755D01*
X449073Y63755D01*
X449073Y56133D01*
X443192Y56133D01*
G37*
%LPD*%
%LPC*%
G36*
X218145Y716339D02*
X218145Y716339D01*
X217499Y716512D01*
X216920Y716847D01*
X216447Y717320D01*
X216112Y717899D01*
X215939Y718545D01*
X215939Y723961D01*
X223561Y723961D01*
X223561Y716339D01*
X218145Y716339D01*
G37*
%LPD*%
%LPC*%
G36*
X137159Y332739D02*
X137159Y332739D01*
X137159Y340742D01*
X138987Y340742D01*
X145162Y334567D01*
X145162Y332739D01*
X137159Y332739D01*
G37*
%LPD*%
%LPC*%
G36*
X124078Y332739D02*
X124078Y332739D01*
X124078Y334567D01*
X130253Y340742D01*
X132081Y340742D01*
X132081Y332739D01*
X124078Y332739D01*
G37*
%LPD*%
%LPC*%
G36*
X433958Y345439D02*
X433958Y345439D01*
X433958Y347267D01*
X440133Y353442D01*
X441961Y353442D01*
X441961Y345439D01*
X433958Y345439D01*
G37*
%LPD*%
%LPC*%
G36*
X130253Y319658D02*
X130253Y319658D01*
X124078Y325833D01*
X124078Y327661D01*
X132081Y327661D01*
X132081Y319658D01*
X130253Y319658D01*
G37*
%LPD*%
%LPC*%
G36*
X440133Y332358D02*
X440133Y332358D01*
X433958Y338533D01*
X433958Y340361D01*
X441961Y340361D01*
X441961Y332358D01*
X440133Y332358D01*
G37*
%LPD*%
%LPC*%
G36*
X91439Y637539D02*
X91439Y637539D01*
X91439Y644653D01*
X92898Y644653D01*
X98553Y638998D01*
X98553Y637539D01*
X91439Y637539D01*
G37*
%LPD*%
%LPC*%
G36*
X485139Y193039D02*
X485139Y193039D01*
X485139Y199645D01*
X486388Y199645D01*
X491745Y194288D01*
X491745Y193039D01*
X485139Y193039D01*
G37*
%LPD*%
%LPC*%
G36*
X435355Y396239D02*
X435355Y396239D01*
X435355Y397488D01*
X440712Y402845D01*
X441961Y402845D01*
X441961Y396239D01*
X435355Y396239D01*
G37*
%LPD*%
%LPC*%
G36*
X485139Y181355D02*
X485139Y181355D01*
X485139Y187961D01*
X491745Y187961D01*
X491745Y186712D01*
X486388Y181355D01*
X485139Y181355D01*
G37*
%LPD*%
%LPC*%
G36*
X440712Y384555D02*
X440712Y384555D01*
X435355Y389912D01*
X435355Y391161D01*
X441961Y391161D01*
X441961Y384555D01*
X440712Y384555D01*
G37*
%LPD*%
%LPC*%
G36*
X91439Y764539D02*
X91439Y764539D01*
X91439Y769722D01*
X92020Y769533D01*
X93160Y768952D01*
X94196Y768200D01*
X95100Y767296D01*
X95852Y766260D01*
X96433Y765120D01*
X96622Y764539D01*
X91439Y764539D01*
G37*
%LPD*%
%LPC*%
G36*
X81178Y764539D02*
X81178Y764539D01*
X81367Y765120D01*
X81948Y766260D01*
X82700Y767296D01*
X83604Y768200D01*
X84640Y768952D01*
X85780Y769533D01*
X86361Y769722D01*
X86361Y764539D01*
X81178Y764539D01*
G37*
%LPD*%
%LPC*%
G36*
X91439Y759461D02*
X91439Y759461D01*
X96622Y759461D01*
X96433Y758880D01*
X95852Y757740D01*
X95100Y756704D01*
X94196Y755800D01*
X93160Y755048D01*
X92020Y754467D01*
X91439Y754278D01*
X91439Y759461D01*
G37*
%LPD*%
%LPC*%
G36*
X85780Y754467D02*
X85780Y754467D01*
X84640Y755048D01*
X83604Y755800D01*
X82700Y756704D01*
X81948Y757740D01*
X81367Y758880D01*
X81178Y759461D01*
X86361Y759461D01*
X86361Y754278D01*
X85780Y754467D01*
G37*
%LPD*%
D10*
X134620Y330200D03*
D11*
X170180Y330200D03*
D10*
X444500Y342900D03*
D11*
X469900Y342900D03*
D12*
X482600Y190500D03*
X457200Y190500D03*
X469900Y393700D03*
X444500Y393700D03*
D13*
X63500Y685800D03*
X88900Y685800D03*
X63500Y660400D03*
X88900Y660400D03*
X63500Y635000D03*
X88900Y635000D03*
X63500Y609600D03*
X88900Y609600D03*
X63500Y584200D03*
X88900Y584200D03*
D14*
X132600Y98900D02*
X132600Y78900D01*
X71600Y78900D02*
X71600Y98900D01*
X91600Y40900D02*
X111600Y40900D01*
D15*
X914400Y335280D02*
X914400Y350520D01*
X889000Y350520D02*
X889000Y335280D01*
X863600Y335280D02*
X863600Y350520D01*
X838200Y350520D02*
X838200Y335280D01*
X812800Y335280D02*
X812800Y350520D01*
D16*
X226100Y726500D03*
D17*
X251500Y726500D03*
X276900Y726500D03*
X302300Y726500D03*
X327700Y726500D03*
X353100Y726500D03*
X378500Y726500D03*
X403900Y726500D03*
X429300Y726500D03*
X454700Y726500D03*
X480100Y726500D03*
X505500Y726500D03*
X530900Y726500D03*
X556300Y726500D03*
X581700Y726500D03*
X607100Y726500D03*
D12*
X596900Y330200D03*
X520700Y330200D03*
D18*
X88900Y762000D03*
X114300Y787400D03*
X88900Y812800D03*
D19*
X469900Y774700D03*
X546100Y774700D03*
D15*
X279908Y111506D02*
X264668Y111506D01*
X264668Y66294D02*
X279908Y66294D01*
X329692Y111506D02*
X344932Y111506D01*
X344932Y66294D02*
X329692Y66294D01*
X378968Y111506D02*
X394208Y111506D01*
X394208Y66294D02*
X378968Y66294D01*
X443992Y111506D02*
X459232Y111506D01*
X459232Y66294D02*
X443992Y66294D01*
X493268Y111506D02*
X508508Y111506D01*
X508508Y66294D02*
X493268Y66294D01*
X558292Y111506D02*
X573532Y111506D01*
X573532Y66294D02*
X558292Y66294D01*
X607568Y111506D02*
X622808Y111506D01*
X622808Y66294D02*
X607568Y66294D01*
X672592Y111506D02*
X687832Y111506D01*
X687832Y66294D02*
X672592Y66294D01*
D20*
X125476Y228092D02*
X112268Y228092D01*
X112268Y178308D02*
X125476Y178308D01*
X65532Y228092D02*
X52324Y228092D01*
X52324Y178308D02*
X65532Y178308D01*
X112268Y203200D02*
X125476Y203200D01*
X65532Y203200D02*
X52324Y203200D01*
D15*
X787400Y767080D02*
X787400Y782320D01*
X812800Y782320D02*
X812800Y767080D01*
X838200Y767080D02*
X838200Y782320D01*
X685800Y782320D02*
X685800Y767080D01*
X711200Y767080D02*
X711200Y782320D01*
X736600Y782320D02*
X736600Y767080D01*
X584200Y767080D02*
X584200Y782320D01*
X609600Y782320D02*
X609600Y767080D01*
X635000Y767080D02*
X635000Y782320D01*
X889000Y782320D02*
X889000Y767080D01*
X914400Y767080D02*
X914400Y782320D01*
X939800Y782320D02*
X939800Y767080D01*
D21*
X29210Y297180D03*
D22*
X52070Y297180D03*
D21*
X74930Y297180D03*
D23*
X635000Y292100D03*
D24*
X609600Y292100D03*
X584200Y292100D03*
X558800Y292100D03*
X533400Y292100D03*
X508000Y292100D03*
X482600Y292100D03*
X457200Y292100D03*
X431800Y292100D03*
X406400Y292100D03*
X381000Y292100D03*
X355600Y292100D03*
X330200Y292100D03*
X304800Y292100D03*
X304800Y215900D03*
X330200Y215900D03*
X355600Y215900D03*
X381000Y215900D03*
X406400Y215900D03*
X431800Y215900D03*
X457200Y215900D03*
X482600Y215900D03*
X508000Y215900D03*
X533400Y215900D03*
X558800Y215900D03*
X584200Y215900D03*
X609600Y215900D03*
X635000Y215900D03*
D25*
X565912Y273812D02*
X508000Y215900D01*
X540512Y640588D02*
X575994Y640588D01*
X691388Y525194D01*
X540512Y640588D02*
X480100Y701000D01*
X480100Y726500D01*
X565912Y273812D02*
X654812Y273812D01*
X691388Y310388D02*
X691388Y525194D01*
X691388Y310388D02*
X654812Y273812D01*
X580898Y263398D02*
X533400Y215900D01*
X546100Y660400D02*
X578221Y660400D01*
X710692Y527929D01*
X546100Y660400D02*
X505500Y701000D01*
X505500Y726500D01*
X580898Y263398D02*
X669798Y263398D01*
X710692Y304292D01*
X710692Y527929D01*
X566599Y215900D02*
X558800Y215900D01*
X566599Y215900D02*
X603683Y252984D01*
X684784Y252984D02*
X729996Y298196D01*
X684784Y252984D02*
X603683Y252984D01*
X568765Y691896D02*
X556065Y691896D01*
X568765Y691896D02*
X729996Y530665D01*
X556065Y691896D02*
X530900Y717061D01*
X530900Y726500D01*
X729996Y530665D02*
X729996Y298196D01*
X609600Y241300D02*
X584200Y215900D01*
X698500Y241300D02*
X745490Y288290D01*
X698500Y241300D02*
X609600Y241300D01*
X745490Y537210D02*
X584200Y698500D01*
X584200Y698600D01*
X556300Y726500D01*
X745490Y537210D02*
X745490Y288290D01*
X582930Y318770D02*
X582930Y344170D01*
X582930Y318770D02*
X609600Y292100D01*
X582930Y344170D02*
X607060Y368300D01*
X573258Y621284D02*
X458216Y621284D01*
X573258Y621284D02*
X672084Y522458D01*
X458216Y621284D02*
X353100Y726400D01*
X353100Y726500D01*
X607060Y368300D02*
X660400Y368300D01*
X672084Y379984D01*
X672084Y522458D01*
X568706Y346906D02*
X568706Y307594D01*
X584200Y292100D01*
X568706Y346906D02*
X610675Y388874D01*
X654050Y518453D02*
X570523Y601980D01*
X439520Y601980D02*
X327700Y713800D01*
X327700Y726500D01*
X439520Y601980D02*
X570523Y601980D01*
X610675Y388874D02*
X642874Y388874D01*
X654050Y400050D01*
X654050Y518453D01*
X605399Y401828D02*
X558292Y354721D01*
X558292Y292608D01*
X558800Y292100D01*
X567787Y582676D02*
X420624Y582676D01*
X302300Y701000D01*
X302300Y726500D01*
X605399Y401828D02*
X629158Y401828D01*
X638810Y411480D01*
X638810Y511653D01*
X567787Y582676D01*
X381000Y381000D02*
X381000Y292100D01*
D26*
X520700Y482600D03*
X866140Y482600D03*
D25*
X863600Y485140D02*
X863600Y546100D01*
X863600Y485140D02*
X866140Y482600D01*
X838200Y704850D02*
X787400Y755650D01*
X787400Y774700D01*
X838200Y704850D02*
X838200Y571500D01*
X520700Y482600D02*
X513080Y490220D01*
X490220Y490220D01*
X381000Y381000D01*
X838200Y571500D02*
X863600Y546100D01*
X354838Y394462D02*
X354838Y292862D01*
X355600Y292100D01*
X354838Y394462D02*
X468376Y508000D01*
X520700Y508000D01*
D26*
X520700Y508000D03*
X901700Y508000D03*
D25*
X889000Y596900D02*
X889000Y774700D01*
X889000Y596900D02*
X914400Y571500D01*
X914400Y520700D01*
X901700Y508000D01*
D26*
X279400Y228600D03*
X190500Y228600D03*
D25*
X355600Y215900D02*
X355600Y177800D01*
X368300Y165100D01*
D26*
X787400Y165100D03*
X787400Y419100D03*
D25*
X685800Y165100D02*
X368300Y165100D01*
X685800Y165100D02*
X698500Y152400D01*
X774700Y152400D01*
X787400Y165100D01*
X787400Y419100D02*
X810260Y441960D01*
X810260Y650240D01*
X685800Y774700D01*
X177800Y241300D02*
X190500Y228600D01*
X177800Y241300D02*
X177800Y254000D01*
X190500Y266700D01*
X191262Y266700D01*
X216662Y292100D01*
X25400Y647700D02*
X63500Y685800D01*
X63500Y508000D02*
X171821Y508000D01*
X63500Y508000D02*
X25400Y546100D01*
X25400Y647700D01*
X216662Y343662D02*
X216662Y292100D01*
X216662Y343662D02*
X228600Y355600D01*
X228600Y451221D01*
X171821Y508000D01*
X292100Y241300D02*
X330200Y241300D01*
X292100Y241300D02*
X279400Y228600D01*
X330200Y241300D02*
X355600Y215900D01*
D26*
X571500Y457200D03*
X777240Y458470D03*
D25*
X783590Y575310D02*
X584200Y774700D01*
X783590Y575310D02*
X783590Y464820D01*
X777240Y458470D01*
X571500Y393700D02*
X546100Y368300D01*
X546100Y317500D01*
X533400Y304800D01*
X533400Y292100D01*
X571500Y393700D02*
X571500Y457200D01*
X596900Y330200D02*
X635000Y292100D01*
X609600Y330200D02*
X596900Y330200D01*
X609600Y330200D02*
X622300Y342900D01*
D26*
X622300Y342900D03*
X622300Y419100D03*
D25*
X76200Y622300D02*
X63500Y635000D01*
X76200Y622300D02*
X76200Y571500D01*
X82550Y565150D01*
X622300Y508000D02*
X622300Y419100D01*
X622300Y508000D02*
X565150Y565150D01*
X82550Y565150D01*
X89706Y761194D02*
X88900Y762000D01*
D26*
X812800Y292100D03*
X901700Y292100D03*
X508000Y254000D03*
X431800Y254000D03*
X139700Y698500D03*
X139700Y647700D03*
D25*
X482600Y292100D02*
X520700Y330200D01*
X482600Y266700D02*
X431800Y215900D01*
X482600Y266700D02*
X482600Y292100D01*
X482600Y330200D01*
X469900Y342900D01*
X469900Y393700D01*
X137160Y297180D02*
X74930Y297180D01*
X137160Y297180D02*
X170180Y330200D01*
X170180Y350520D01*
X200660Y381000D01*
D26*
X200660Y381000D03*
X279400Y381000D03*
D25*
X304800Y431800D02*
X330200Y431800D01*
D26*
X330200Y431800D03*
X457200Y431800D03*
D25*
X469900Y419100D01*
X469900Y393700D01*
X457200Y431800D02*
X495300Y469900D01*
D26*
X495300Y469900D03*
X889000Y469900D03*
D25*
X889000Y368300D02*
X889000Y342900D01*
X304800Y431800D02*
X304800Y533400D01*
D26*
X304800Y533400D03*
X304800Y596900D03*
D25*
X228600Y673100D01*
X190500Y673100D02*
X190500Y685800D01*
X203200Y698500D01*
X241300Y698500D01*
X251500Y708700D01*
X251500Y726500D01*
X431800Y774700D02*
X469900Y774700D01*
X457100Y800000D02*
X431800Y774700D01*
X812800Y774700D02*
X812800Y787400D01*
X800200Y800000D01*
X597000Y800000D02*
X457100Y800000D01*
X597000Y800000D02*
X698600Y800000D01*
X800200Y800000D01*
X711200Y787400D02*
X711200Y774700D01*
X711200Y787400D02*
X698600Y800000D01*
X609600Y787400D02*
X609600Y774700D01*
X609600Y787400D02*
X597000Y800000D01*
X800200Y800000D02*
X901800Y800000D01*
X914400Y787400D02*
X914400Y774700D01*
X914400Y787400D02*
X901800Y800000D01*
X228600Y673100D02*
X190500Y673100D01*
X101600Y673100D01*
X88900Y685800D01*
X50800Y787400D02*
X76200Y812800D01*
X88900Y812800D01*
X88900Y723900D02*
X88900Y685800D01*
X88900Y723900D02*
X50800Y762000D01*
X50800Y787400D01*
D26*
X304800Y774700D03*
X241300Y774700D03*
D25*
X228600Y762000D01*
X228600Y749300D01*
X251400Y726500D01*
X251500Y726500D01*
X304800Y774700D02*
X431800Y774700D01*
X304800Y406400D02*
X279400Y381000D01*
X304800Y406400D02*
X304800Y431800D01*
X914400Y444500D02*
X914400Y393700D01*
X889000Y368300D01*
X914400Y444500D02*
X889000Y469900D01*
X635000Y215900D02*
X647700Y203200D01*
X812800Y203200D02*
X863600Y254000D01*
X863600Y342900D01*
X812800Y203200D02*
X647700Y203200D01*
X624840Y231140D02*
X609600Y215900D01*
X624840Y231140D02*
X645160Y231140D01*
X660400Y215900D01*
X800100Y215900D01*
X838200Y254000D01*
X838200Y342900D01*
X812800Y342900D02*
X812800Y355600D01*
X876300Y419100D01*
X876300Y431800D02*
X863600Y444500D01*
X876300Y431800D02*
X876300Y419100D01*
D26*
X863600Y444500D03*
X549910Y444500D03*
D25*
X533400Y317500D02*
X508000Y292100D01*
X533400Y317500D02*
X533400Y427990D01*
X549910Y444500D01*
X579374Y147320D02*
X615188Y111506D01*
X579374Y147320D02*
X506730Y147320D01*
D26*
X506730Y147320D03*
D25*
X292100Y152400D02*
X265430Y179070D01*
X265430Y252730D01*
X279400Y266700D01*
X317500Y266700D01*
X330200Y279400D01*
X330200Y292100D01*
D26*
X292100Y152400D03*
D25*
X260350Y488950D02*
X203200Y546100D01*
X76200Y546100D01*
X63500Y558800D01*
X63500Y584200D01*
X381000Y215900D02*
X381000Y200660D01*
X373380Y193040D01*
D26*
X373380Y193040D03*
D25*
X242570Y243840D02*
X215900Y217170D01*
D26*
X241300Y190500D03*
D25*
X226060Y190500D01*
X215900Y200660D01*
X215900Y217170D01*
X242570Y243840D02*
X242570Y318770D01*
X260350Y336550D02*
X260350Y488950D01*
X260350Y336550D02*
X242570Y318770D01*
X406400Y215900D02*
X406400Y190500D01*
X393700Y177800D01*
D26*
X393700Y177800D03*
X215900Y177800D03*
D25*
X203200Y190500D01*
X203200Y222250D01*
X229616Y248666D01*
X63500Y609600D02*
X60395Y609600D01*
X71120Y525780D02*
X176081Y525780D01*
X60395Y609600D02*
X37084Y586289D01*
X37084Y559816D01*
X71120Y525780D01*
X229616Y329946D02*
X229616Y248666D01*
X229616Y329946D02*
X245110Y345440D01*
X245110Y456751D01*
X176081Y525780D01*
X292100Y304800D02*
X304800Y292100D01*
X292100Y304800D02*
X266700Y304800D01*
X255270Y293370D01*
X255270Y128524D02*
X272288Y111506D01*
X255270Y128524D02*
X255270Y293370D01*
X373888Y111506D02*
X386588Y111506D01*
X373888Y111506D02*
X304800Y180594D01*
X304800Y215900D01*
X472694Y139700D02*
X500888Y111506D01*
X368300Y139700D02*
X330200Y177800D01*
X330200Y215900D01*
X368300Y139700D02*
X472694Y139700D01*
X114300Y787400D02*
X127000Y800100D01*
X254000Y800100D01*
X276900Y777200D01*
X276900Y726500D01*
X546100Y774700D02*
X581700Y739100D01*
X581700Y726500D01*
X145300Y176772D02*
X145300Y101600D01*
X132600Y88900D01*
X145300Y176772D02*
X118872Y203200D01*
X118872Y228092D02*
X92964Y254000D01*
X38100Y254000D01*
X29210Y262890D01*
X29210Y297180D01*
X457200Y215900D02*
X457200Y190500D01*
M02*
