G04 EAGLE Gerber RS-274X export*
G75*
%MOMM*%
%FSLAX34Y34*%
%LPD*%
%IN*%
%IPPOS*%
%AMOC8*
5,1,8,0,0,1.08239X$1,22.5*%
G01*
%ADD10C,0.254000*%


D10*
X0Y0D02*
X1000000Y0D01*
X1000000Y850800D01*
X0Y850800D01*
X0Y0D01*
X127600Y72400D02*
X137600Y72400D01*
X137600Y105400D01*
X127600Y105400D01*
X127600Y72400D01*
X87600Y35900D02*
X115600Y35900D01*
X115600Y45900D01*
X87600Y45900D01*
X87600Y35900D01*
X66600Y74900D02*
X76600Y74900D01*
X76600Y102900D01*
X66600Y102900D01*
X66600Y74900D01*
X187100Y725976D02*
X187032Y724931D01*
X186895Y723892D01*
X186690Y722865D01*
X186419Y721853D01*
X186083Y720861D01*
X185682Y719893D01*
X185218Y718954D01*
X184695Y718046D01*
X184113Y717175D01*
X183475Y716344D01*
X182784Y715557D01*
X182043Y714816D01*
X181256Y714125D01*
X180425Y713488D01*
X179554Y712906D01*
X178646Y712382D01*
X177707Y711918D01*
X176739Y711517D01*
X175747Y711181D01*
X174735Y710910D01*
X173708Y710705D01*
X172669Y710569D01*
X171624Y710500D01*
X170576Y710500D01*
X169531Y710569D01*
X168492Y710705D01*
X167465Y710910D01*
X166453Y711181D01*
X165461Y711517D01*
X164493Y711918D01*
X163554Y712382D01*
X162646Y712906D01*
X161775Y713488D01*
X160944Y714125D01*
X160157Y714816D01*
X159416Y715557D01*
X158725Y716344D01*
X158088Y717175D01*
X157506Y718046D01*
X156982Y718954D01*
X156518Y719893D01*
X156117Y720861D01*
X155781Y721853D01*
X155510Y722865D01*
X155305Y723892D01*
X155169Y724931D01*
X155100Y725976D01*
X155100Y727024D01*
X155169Y728069D01*
X155305Y729108D01*
X155510Y730135D01*
X155781Y731147D01*
X156117Y732139D01*
X156518Y733107D01*
X156982Y734046D01*
X157506Y734954D01*
X158088Y735825D01*
X158725Y736656D01*
X159416Y737443D01*
X160157Y738184D01*
X160944Y738875D01*
X161775Y739513D01*
X162646Y740095D01*
X163554Y740618D01*
X164493Y741082D01*
X165461Y741483D01*
X166453Y741819D01*
X167465Y742090D01*
X168492Y742295D01*
X169531Y742432D01*
X170576Y742500D01*
X171624Y742500D01*
X172669Y742432D01*
X173708Y742295D01*
X174735Y742090D01*
X175747Y741819D01*
X176739Y741483D01*
X177707Y741082D01*
X178646Y740618D01*
X179554Y740095D01*
X180425Y739513D01*
X181256Y738875D01*
X182043Y738184D01*
X182784Y737443D01*
X183475Y736656D01*
X184113Y735825D01*
X184695Y734954D01*
X185218Y734046D01*
X185682Y733107D01*
X186083Y732139D01*
X186419Y731147D01*
X186690Y730135D01*
X186895Y729108D01*
X187032Y728069D01*
X187100Y727024D01*
X187100Y725976D01*
X187100Y415976D02*
X187032Y414931D01*
X186895Y413892D01*
X186690Y412865D01*
X186419Y411853D01*
X186083Y410861D01*
X185682Y409893D01*
X185218Y408954D01*
X184695Y408046D01*
X184113Y407175D01*
X183475Y406344D01*
X182784Y405557D01*
X182043Y404816D01*
X181256Y404125D01*
X180425Y403488D01*
X179554Y402906D01*
X178646Y402382D01*
X177707Y401918D01*
X176739Y401517D01*
X175747Y401181D01*
X174735Y400910D01*
X173708Y400705D01*
X172669Y400569D01*
X171624Y400500D01*
X170576Y400500D01*
X169531Y400569D01*
X168492Y400705D01*
X167465Y400910D01*
X166453Y401181D01*
X165461Y401517D01*
X164493Y401918D01*
X163554Y402382D01*
X162646Y402906D01*
X161775Y403488D01*
X160944Y404125D01*
X160157Y404816D01*
X159416Y405557D01*
X158725Y406344D01*
X158088Y407175D01*
X157506Y408046D01*
X156982Y408954D01*
X156518Y409893D01*
X156117Y410861D01*
X155781Y411853D01*
X155510Y412865D01*
X155305Y413892D01*
X155169Y414931D01*
X155100Y415976D01*
X155100Y417024D01*
X155169Y418069D01*
X155305Y419108D01*
X155510Y420135D01*
X155781Y421147D01*
X156117Y422139D01*
X156518Y423107D01*
X156982Y424046D01*
X157506Y424954D01*
X158088Y425825D01*
X158725Y426656D01*
X159416Y427443D01*
X160157Y428184D01*
X160944Y428875D01*
X161775Y429513D01*
X162646Y430095D01*
X163554Y430618D01*
X164493Y431082D01*
X165461Y431483D01*
X166453Y431819D01*
X167465Y432090D01*
X168492Y432295D01*
X169531Y432432D01*
X170576Y432500D01*
X171624Y432500D01*
X172669Y432432D01*
X173708Y432295D01*
X174735Y432090D01*
X175747Y431819D01*
X176739Y431483D01*
X177707Y431082D01*
X178646Y430618D01*
X179554Y430095D01*
X180425Y429513D01*
X181256Y428875D01*
X182043Y428184D01*
X182784Y427443D01*
X183475Y426656D01*
X184113Y425825D01*
X184695Y424954D01*
X185218Y424046D01*
X185682Y423107D01*
X186083Y422139D01*
X186419Y421147D01*
X186690Y420135D01*
X186895Y419108D01*
X187032Y418069D01*
X187100Y417024D01*
X187100Y415976D01*
X937100Y725976D02*
X937032Y724931D01*
X936895Y723892D01*
X936690Y722865D01*
X936419Y721853D01*
X936083Y720861D01*
X935682Y719893D01*
X935218Y718954D01*
X934695Y718046D01*
X934113Y717175D01*
X933475Y716344D01*
X932784Y715557D01*
X932043Y714816D01*
X931256Y714125D01*
X930425Y713488D01*
X929554Y712906D01*
X928646Y712382D01*
X927707Y711918D01*
X926739Y711517D01*
X925747Y711181D01*
X924735Y710910D01*
X923708Y710705D01*
X922669Y710569D01*
X921624Y710500D01*
X920576Y710500D01*
X919531Y710569D01*
X918492Y710705D01*
X917465Y710910D01*
X916453Y711181D01*
X915461Y711517D01*
X914493Y711918D01*
X913554Y712382D01*
X912646Y712906D01*
X911775Y713488D01*
X910944Y714125D01*
X910157Y714816D01*
X909416Y715557D01*
X908725Y716344D01*
X908088Y717175D01*
X907506Y718046D01*
X906982Y718954D01*
X906518Y719893D01*
X906117Y720861D01*
X905781Y721853D01*
X905510Y722865D01*
X905305Y723892D01*
X905169Y724931D01*
X905100Y725976D01*
X905100Y727024D01*
X905169Y728069D01*
X905305Y729108D01*
X905510Y730135D01*
X905781Y731147D01*
X906117Y732139D01*
X906518Y733107D01*
X906982Y734046D01*
X907506Y734954D01*
X908088Y735825D01*
X908725Y736656D01*
X909416Y737443D01*
X910157Y738184D01*
X910944Y738875D01*
X911775Y739513D01*
X912646Y740095D01*
X913554Y740618D01*
X914493Y741082D01*
X915461Y741483D01*
X916453Y741819D01*
X917465Y742090D01*
X918492Y742295D01*
X919531Y742432D01*
X920576Y742500D01*
X921624Y742500D01*
X922669Y742432D01*
X923708Y742295D01*
X924735Y742090D01*
X925747Y741819D01*
X926739Y741483D01*
X927707Y741082D01*
X928646Y740618D01*
X929554Y740095D01*
X930425Y739513D01*
X931256Y738875D01*
X932043Y738184D01*
X932784Y737443D01*
X933475Y736656D01*
X934113Y735825D01*
X934695Y734954D01*
X935218Y734046D01*
X935682Y733107D01*
X936083Y732139D01*
X936419Y731147D01*
X936690Y730135D01*
X936895Y729108D01*
X937032Y728069D01*
X937100Y727024D01*
X937100Y725976D01*
X67340Y456700D02*
X67269Y455703D01*
X67126Y454713D01*
X66914Y453736D01*
X66632Y452776D01*
X66283Y451839D01*
X65867Y450929D01*
X65388Y450052D01*
X64847Y449210D01*
X64248Y448410D01*
X63593Y447654D01*
X62886Y446947D01*
X62130Y446292D01*
X61330Y445693D01*
X60488Y445152D01*
X59611Y444673D01*
X58701Y444257D01*
X57764Y443908D01*
X56805Y443626D01*
X55827Y443414D01*
X54838Y443271D01*
X53840Y443200D01*
X52840Y443200D01*
X51843Y443271D01*
X50853Y443414D01*
X49876Y443626D01*
X48916Y443908D01*
X47979Y444257D01*
X47069Y444673D01*
X46192Y445152D01*
X45350Y445693D01*
X44550Y446292D01*
X43794Y446947D01*
X43087Y447654D01*
X42432Y448410D01*
X41833Y449210D01*
X41292Y450052D01*
X40813Y450929D01*
X40397Y451839D01*
X40048Y452776D01*
X39766Y453736D01*
X39554Y454713D01*
X39411Y455703D01*
X39340Y456700D01*
X39340Y457700D01*
X39411Y458698D01*
X39554Y459687D01*
X39766Y460665D01*
X40048Y461624D01*
X40397Y462561D01*
X40813Y463471D01*
X41292Y464348D01*
X41833Y465190D01*
X42432Y465990D01*
X43087Y466746D01*
X43794Y467453D01*
X44550Y468108D01*
X45350Y468707D01*
X46192Y469248D01*
X47069Y469727D01*
X47979Y470143D01*
X48916Y470492D01*
X49876Y470774D01*
X50853Y470986D01*
X51843Y471129D01*
X52840Y471200D01*
X53840Y471200D01*
X54838Y471129D01*
X55827Y470986D01*
X56805Y470774D01*
X57764Y470492D01*
X58701Y470143D01*
X59611Y469727D01*
X60488Y469248D01*
X61330Y468707D01*
X62130Y468108D01*
X62886Y467453D01*
X63593Y466746D01*
X64248Y465990D01*
X64847Y465190D01*
X65388Y464348D01*
X65867Y463471D01*
X66283Y462561D01*
X66632Y461624D01*
X66914Y460665D01*
X67126Y459687D01*
X67269Y458698D01*
X67340Y457700D01*
X67340Y456700D01*
M02*
