G04 EAGLE Gerber RS-274X export*
G75*
%MOMM*%
%FSLAX34Y34*%
%LPD*%
%INSoldermask Top*%
%IPPOS*%
%AMOC8*
5,1,8,0,0,1.08239X$1,22.5*%
G01*
%ADD10P,1.951982X8X202.500000*%
%ADD11C,1.803400*%
%ADD12P,1.649562X8X202.500000*%
%ADD13P,1.759533X8X292.500000*%
%ADD14C,2.203200*%
%ADD15C,1.727200*%
%ADD16R,1.727200X1.727200*%
%ADD17C,1.727200*%
%ADD18C,3.403200*%
%ADD19C,1.320800*%
%ADD20P,1.649562X8X22.500000*%
%ADD21C,1.524000*%
%ADD22R,2.133600X2.133600*%
%ADD23C,2.133600*%
%ADD24C,3.003200*%
%ADD25R,1.879600X1.879600*%
%ADD26C,1.879600*%
%ADD27C,1.703200*%


D10*
X134620Y330200D03*
D11*
X170180Y330200D03*
D10*
X444500Y342900D03*
D11*
X469900Y342900D03*
D12*
X482600Y190500D03*
X457200Y190500D03*
X469900Y393700D03*
X444500Y393700D03*
D13*
X63500Y685800D03*
X88900Y685800D03*
X63500Y660400D03*
X88900Y660400D03*
X63500Y635000D03*
X88900Y635000D03*
X63500Y609600D03*
X88900Y609600D03*
X63500Y584200D03*
X88900Y584200D03*
D14*
X132600Y98900D02*
X132600Y78900D01*
X71600Y78900D02*
X71600Y98900D01*
X91600Y40900D02*
X111600Y40900D01*
D15*
X914400Y335280D02*
X914400Y350520D01*
X889000Y350520D02*
X889000Y335280D01*
X863600Y335280D02*
X863600Y350520D01*
X838200Y350520D02*
X838200Y335280D01*
X812800Y335280D02*
X812800Y350520D01*
D16*
X226100Y726500D03*
D17*
X251500Y726500D03*
X276900Y726500D03*
X302300Y726500D03*
X327700Y726500D03*
X353100Y726500D03*
X378500Y726500D03*
X403900Y726500D03*
X429300Y726500D03*
X454700Y726500D03*
X480100Y726500D03*
X505500Y726500D03*
X530900Y726500D03*
X556300Y726500D03*
X581700Y726500D03*
X607100Y726500D03*
D18*
X171100Y726500D03*
X171100Y416500D03*
X921100Y726500D03*
D12*
X596900Y330200D03*
X520700Y330200D03*
D19*
X88900Y762000D03*
X114300Y787400D03*
X88900Y812800D03*
D20*
X469900Y774700D03*
X546100Y774700D03*
D15*
X279908Y111506D02*
X264668Y111506D01*
X264668Y66294D02*
X279908Y66294D01*
X329692Y111506D02*
X344932Y111506D01*
X344932Y66294D02*
X329692Y66294D01*
X378968Y111506D02*
X394208Y111506D01*
X394208Y66294D02*
X378968Y66294D01*
X443992Y111506D02*
X459232Y111506D01*
X459232Y66294D02*
X443992Y66294D01*
X493268Y111506D02*
X508508Y111506D01*
X508508Y66294D02*
X493268Y66294D01*
X558292Y111506D02*
X573532Y111506D01*
X573532Y66294D02*
X558292Y66294D01*
X607568Y111506D02*
X622808Y111506D01*
X622808Y66294D02*
X607568Y66294D01*
X672592Y111506D02*
X687832Y111506D01*
X687832Y66294D02*
X672592Y66294D01*
D21*
X125476Y228092D02*
X112268Y228092D01*
X112268Y178308D02*
X125476Y178308D01*
X65532Y228092D02*
X52324Y228092D01*
X52324Y178308D02*
X65532Y178308D01*
X112268Y203200D02*
X125476Y203200D01*
X65532Y203200D02*
X52324Y203200D01*
D15*
X787400Y767080D02*
X787400Y782320D01*
X812800Y782320D02*
X812800Y767080D01*
X838200Y767080D02*
X838200Y782320D01*
X685800Y782320D02*
X685800Y767080D01*
X711200Y767080D02*
X711200Y782320D01*
X736600Y782320D02*
X736600Y767080D01*
X584200Y767080D02*
X584200Y782320D01*
X609600Y782320D02*
X609600Y767080D01*
X635000Y767080D02*
X635000Y782320D01*
X889000Y782320D02*
X889000Y767080D01*
X914400Y767080D02*
X914400Y782320D01*
X939800Y782320D02*
X939800Y767080D01*
D22*
X29210Y297180D03*
D23*
X52070Y297180D03*
D22*
X74930Y297180D03*
D24*
X53340Y457200D03*
D25*
X635000Y292100D03*
D26*
X609600Y292100D03*
X584200Y292100D03*
X558800Y292100D03*
X533400Y292100D03*
X508000Y292100D03*
X482600Y292100D03*
X457200Y292100D03*
X431800Y292100D03*
X406400Y292100D03*
X381000Y292100D03*
X355600Y292100D03*
X330200Y292100D03*
X304800Y292100D03*
X304800Y215900D03*
X330200Y215900D03*
X355600Y215900D03*
X381000Y215900D03*
X406400Y215900D03*
X431800Y215900D03*
X457200Y215900D03*
X482600Y215900D03*
X508000Y215900D03*
X533400Y215900D03*
X558800Y215900D03*
X584200Y215900D03*
X609600Y215900D03*
X635000Y215900D03*
D27*
X520700Y482600D03*
X866140Y482600D03*
X520700Y508000D03*
X901700Y508000D03*
X279400Y228600D03*
X190500Y228600D03*
X787400Y165100D03*
X787400Y419100D03*
X571500Y457200D03*
X777240Y458470D03*
X622300Y342900D03*
X622300Y419100D03*
X812800Y292100D03*
X901700Y292100D03*
X508000Y254000D03*
X431800Y254000D03*
X139700Y698500D03*
X139700Y647700D03*
X200660Y381000D03*
X279400Y381000D03*
X330200Y431800D03*
X457200Y431800D03*
X495300Y469900D03*
X889000Y469900D03*
X304800Y533400D03*
X304800Y596900D03*
X304800Y774700D03*
X241300Y774700D03*
X863600Y444500D03*
X549910Y444500D03*
X506730Y147320D03*
X292100Y152400D03*
X373380Y193040D03*
X241300Y190500D03*
X393700Y177800D03*
X215900Y177800D03*
M02*
